<svg viewBox="0 0 800 800" xmlns="http://www.w3.org/2000/svg">
  <circle cx="427.5" cy="474.0" r="1.18" fill="#3d3d3d"/>
  <circle cx="428.7" cy="466.3" r="0.86" fill="#3d3d3d"/>
  <circle cx="625.8" cy="339.6" r="0.90" fill="#3d3d3d"/>
  <circle cx="337.9" cy="477.1" r="1.50" fill="#3d3d3d"/>
  <circle cx="334.5" cy="450.6" r="1.37" fill="#3d3d3d"/>
  <circle cx="624.0" cy="192.3" r="1.48" fill="#3d3d3d"/>
  <circle cx="337.1" cy="438.4" r="1.26" fill="#3d3d3d"/>
  <circle cx="384.1" cy="379.2" r="0.91" fill="#3d3d3d"/>
  <circle cx="416.4" cy="381.8" r="0.84" fill="#3d3d3d"/>
  <circle cx="338.4" cy="464.7" r="1.08" fill="#3d3d3d"/>
  <circle cx="472.7" cy="443.1" r="1.37" fill="#3d3d3d"/>
  <circle cx="555.2" cy="316.3" r="1.02" fill="#3d3d3d"/>
  <circle cx="382.0" cy="344.9" r="1.38" fill="#3d3d3d"/>
  <circle cx="409.0" cy="340.5" r="1.43" fill="#3d3d3d"/>
  <circle cx="415.9" cy="379.5" r="0.89" fill="#3d3d3d"/>
  <circle cx="428.8" cy="457.6" r="1.19" fill="#3d3d3d"/>
  <circle cx="225.7" cy="621.7" r="1.00" fill="#3d3d3d"/>
  <circle cx="21.8" cy="388.1" r="1.33" fill="#3d3d3d"/>
  <circle cx="228.5" cy="127.6" r="1.16" fill="#3d3d3d"/>
  <circle cx="400.6" cy="426.9" r="0.75" fill="#3d3d3d"/>
  <circle cx="333.3" cy="471.4" r="0.91" fill="#3d3d3d"/>
  <circle cx="400.9" cy="339.1" r="0.79" fill="#3d3d3d"/>
  <circle cx="468.0" cy="461.6" r="1.25" fill="#3d3d3d"/>
  <circle cx="464.9" cy="465.7" r="1.21" fill="#3d3d3d"/>
  <circle cx="789.1" cy="380.2" r="1.20" fill="#3d3d3d"/>
  <circle cx="796.2" cy="324.5" r="1.17" fill="#3d3d3d"/>
  <circle cx="205.5" cy="532.3" r="1.19" fill="#3d3d3d"/>
  <circle cx="444.7" cy="433.3" r="1.26" fill="#3d3d3d"/>
  <circle cx="426.2" cy="375.8" r="1.02" fill="#3d3d3d"/>
  <circle cx="368.8" cy="465.2" r="0.86" fill="#3d3d3d"/>
  <circle cx="378.2" cy="362.4" r="0.79" fill="#3d3d3d"/>
  <circle cx="727.0" cy="688.0" r="1.42" fill="#3d3d3d"/>
  <circle cx="471.6" cy="398.6" r="1.24" fill="#3d3d3d"/>
  <circle cx="377.0" cy="432.9" r="0.92" fill="#3d3d3d"/>
  <circle cx="379.7" cy="359.2" r="0.85" fill="#3d3d3d"/>
  <circle cx="422.3" cy="386.9" r="0.90" fill="#3d3d3d"/>
  <circle cx="361.3" cy="422.1" r="1.10" fill="#3d3d3d"/>
  <circle cx="444.4" cy="472.9" r="1.44" fill="#3d3d3d"/>
  <circle cx="381.5" cy="465.3" r="0.81" fill="#3d3d3d"/>
  <circle cx="414.4" cy="338.5" r="1.01" fill="#3d3d3d"/>
  <circle cx="439.7" cy="386.8" r="1.38" fill="#3d3d3d"/>
  <circle cx="300.7" cy="430.6" r="1.34" fill="#3d3d3d"/>
  <circle cx="464.2" cy="384.6" r="0.91" fill="#3d3d3d"/>
  <circle cx="392.0" cy="422.7" r="1.33" fill="#3d3d3d"/>
  <circle cx="447.0" cy="386.1" r="0.87" fill="#3d3d3d"/>
  <circle cx="169.5" cy="513.1" r="1.41" fill="#3d3d3d"/>
  <circle cx="465.4" cy="451.3" r="1.47" fill="#3d3d3d"/>
  <circle cx="688.0" cy="616.7" r="1.18" fill="#3d3d3d"/>
  <circle cx="399.8" cy="495.9" r="0.75" fill="#3d3d3d"/>
  <circle cx="383.5" cy="339.7" r="1.16" fill="#3d3d3d"/>
  <circle cx="24.2" cy="225.8" r="0.89" fill="#3d3d3d"/>
  <circle cx="691.6" cy="79.5" r="1.00" fill="#3d3d3d"/>
  <circle cx="340.3" cy="464.3" r="0.73" fill="#3d3d3d"/>
  <circle cx="385.2" cy="473.2" r="0.97" fill="#3d3d3d"/>
  <circle cx="377.7" cy="357.4" r="0.97" fill="#3d3d3d"/>
  <circle cx="470.3" cy="423.4" r="1.22" fill="#3d3d3d"/>
  <circle cx="393.2" cy="473.6" r="1.01" fill="#3d3d3d"/>
  <circle cx="383.8" cy="456.3" r="0.92" fill="#3d3d3d"/>
  <circle cx="463.1" cy="386.6" r="1.02" fill="#3d3d3d"/>
  <circle cx="380.1" cy="434.7" r="1.07" fill="#3d3d3d"/>
  <circle cx="470.9" cy="416.6" r="0.76" fill="#3d3d3d"/>
  <circle cx="382.7" cy="452.5" r="1.24" fill="#3d3d3d"/>
  <circle cx="344.3" cy="471.6" r="0.92" fill="#3d3d3d"/>
  <circle cx="425.0" cy="464.5" r="0.93" fill="#3d3d3d"/>
  <circle cx="369.1" cy="431.5" r="1.11" fill="#3d3d3d"/>
  <circle cx="421.2" cy="347.9" r="1.48" fill="#3d3d3d"/>
  <circle cx="426.7" cy="403.9" r="0.75" fill="#3d3d3d"/>
  <circle cx="382.7" cy="347.8" r="0.96" fill="#3d3d3d"/>
  <circle cx="427.8" cy="468.5" r="0.76" fill="#3d3d3d"/>
  <circle cx="593.3" cy="596.7" r="0.79" fill="#3d3d3d"/>
  <circle cx="315.0" cy="453.0" r="1.10" fill="#3d3d3d"/>
  <circle cx="464.6" cy="426.1" r="0.74" fill="#3d3d3d"/>
  <circle cx="345.1" cy="426.4" r="1.09" fill="#3d3d3d"/>
  <circle cx="393.3" cy="426.0" r="1.12" fill="#3d3d3d"/>
  <circle cx="461.8" cy="424.8" r="1.30" fill="#3d3d3d"/>
  <circle cx="542.0" cy="358.0" r="0.74" fill="#3d3d3d"/>
  <circle cx="648.1" cy="578.8" r="1.41" fill="#3d3d3d"/>
  <circle cx="318.8" cy="91.5" r="1.15" fill="#3d3d3d"/>
  <circle cx="380.7" cy="380.9" r="0.83" fill="#3d3d3d"/>
  <circle cx="418.3" cy="372.0" r="0.84" fill="#3d3d3d"/>
  <circle cx="468.0" cy="424.8" r="1.41" fill="#3d3d3d"/>
  <circle cx="244.4" cy="545.4" r="0.92" fill="#3d3d3d"/>
  <circle cx="423.5" cy="448.7" r="1.34" fill="#3d3d3d"/>
  <circle cx="339.1" cy="452.0" r="1.37" fill="#3d3d3d"/>
  <circle cx="562.0" cy="548.9" r="1.17" fill="#3d3d3d"/>
  <circle cx="501.4" cy="76.3" r="1.42" fill="#3d3d3d"/>
  <circle cx="436.9" cy="434.0" r="1.33" fill="#3d3d3d"/>
  <circle cx="375.2" cy="447.8" r="1.04" fill="#3d3d3d"/>
  <circle cx="28.7" cy="492.0" r="1.34" fill="#3d3d3d"/>
  <circle cx="462.4" cy="431.4" r="0.76" fill="#3d3d3d"/>
  <circle cx="462.4" cy="395.3" r="1.34" fill="#3d3d3d"/>
  <circle cx="335.5" cy="433.3" r="1.14" fill="#3d3d3d"/>
  <circle cx="418.3" cy="471.0" r="1.05" fill="#3d3d3d"/>
  <circle cx="376.5" cy="451.1" r="1.01" fill="#3d3d3d"/>
  <circle cx="503.3" cy="692.3" r="1.49" fill="#3d3d3d"/>
  <circle cx="376.0" cy="432.7" r="0.81" fill="#3d3d3d"/>
  <circle cx="379.1" cy="448.3" r="1.27" fill="#3d3d3d"/>
  <circle cx="503.6" cy="284.5" r="0.77" fill="#3d3d3d"/>
  <circle cx="422.3" cy="342.3" r="1.09" fill="#3d3d3d"/>
  <circle cx="424.4" cy="453.4" r="1.14" fill="#3d3d3d"/>
  <circle cx="129.8" cy="640.5" r="0.77" fill="#3d3d3d"/>
  <circle cx="5.7" cy="139.4" r="0.75" fill="#3d3d3d"/>
  <circle cx="437.3" cy="429.0" r="0.87" fill="#3d3d3d"/>
  <circle cx="467.9" cy="465.0" r="1.10" fill="#3d3d3d"/>
  <circle cx="427.0" cy="381.9" r="1.49" fill="#3d3d3d"/>
  <circle cx="382.2" cy="464.3" r="1.13" fill="#3d3d3d"/>
  <circle cx="464.0" cy="402.5" r="1.22" fill="#3d3d3d"/>
  <circle cx="426.8" cy="356.1" r="1.32" fill="#3d3d3d"/>
  <circle cx="380.9" cy="376.1" r="0.84" fill="#3d3d3d"/>
  <circle cx="426.5" cy="459.3" r="1.01" fill="#3d3d3d"/>
  <circle cx="350.5" cy="468.9" r="1.29" fill="#3d3d3d"/>
  <circle cx="59.5" cy="510.8" r="1.06" fill="#3d3d3d"/>
  <circle cx="461.7" cy="428.4" r="1.38" fill="#3d3d3d"/>
  <circle cx="2.3" cy="408.5" r="0.88" fill="#3d3d3d"/>
  <circle cx="438.0" cy="385.2" r="0.89" fill="#3d3d3d"/>
  <circle cx="336.4" cy="455.2" r="0.92" fill="#3d3d3d"/>
  <circle cx="382.0" cy="456.8" r="1.24" fill="#3d3d3d"/>
  <circle cx="338.3" cy="528.7" r="0.88" fill="#3d3d3d"/>
  <circle cx="422.4" cy="352.1" r="0.85" fill="#3d3d3d"/>
  <circle cx="467.0" cy="462.2" r="1.46" fill="#3d3d3d"/>
  <circle cx="382.9" cy="466.8" r="1.34" fill="#3d3d3d"/>
  <circle cx="108.9" cy="123.9" r="1.49" fill="#3d3d3d"/>
  <circle cx="468.1" cy="411.9" r="0.84" fill="#3d3d3d"/>
  <circle cx="753.0" cy="160.9" r="0.73" fill="#3d3d3d"/>
  <circle cx="17.1" cy="584.2" r="1.03" fill="#3d3d3d"/>
  <circle cx="605.4" cy="56.6" r="1.08" fill="#3d3d3d"/>
  <circle cx="421.6" cy="436.9" r="0.86" fill="#3d3d3d"/>
  <circle cx="426.8" cy="349.0" r="0.85" fill="#3d3d3d"/>
  <circle cx="459.5" cy="379.2" r="1.14" fill="#3d3d3d"/>
  <circle cx="456.6" cy="469.6" r="1.16" fill="#3d3d3d"/>
  <circle cx="586.4" cy="746.2" r="0.85" fill="#3d3d3d"/>
  <circle cx="694.5" cy="651.1" r="1.00" fill="#3d3d3d"/>
  <circle cx="403.7" cy="477.0" r="1.36" fill="#3d3d3d"/>
  <circle cx="484.5" cy="724.5" r="1.18" fill="#3d3d3d"/>
  <circle cx="469.6" cy="441.1" r="1.11" fill="#3d3d3d"/>
  <circle cx="385.8" cy="337.1" r="1.14" fill="#3d3d3d"/>
  <circle cx="421.5" cy="464.6" r="1.40" fill="#3d3d3d"/>
  <circle cx="421.6" cy="373.6" r="0.82" fill="#3d3d3d"/>
  <circle cx="377.3" cy="468.6" r="0.74" fill="#3d3d3d"/>
  <circle cx="458.7" cy="475.0" r="0.99" fill="#3d3d3d"/>
  <circle cx="643.7" cy="541.6" r="1.47" fill="#3d3d3d"/>
  <circle cx="465.8" cy="431.5" r="0.85" fill="#3d3d3d"/>
  <circle cx="448.2" cy="425.3" r="0.70" fill="#3d3d3d"/>
  <circle cx="377.6" cy="663.5" r="1.07" fill="#3d3d3d"/>
  <circle cx="332.6" cy="428.2" r="1.31" fill="#3d3d3d"/>
  <circle cx="277.8" cy="216.5" r="0.94" fill="#3d3d3d"/>
  <circle cx="428.0" cy="401.7" r="1.34" fill="#3d3d3d"/>
  <circle cx="452.9" cy="426.1" r="0.80" fill="#3d3d3d"/>
  <circle cx="465.5" cy="318.4" r="1.05" fill="#3d3d3d"/>
  <circle cx="436.7" cy="383.4" r="0.80" fill="#3d3d3d"/>
  <circle cx="392.9" cy="389.9" r="1.17" fill="#3d3d3d"/>
  <circle cx="438.7" cy="430.5" r="0.77" fill="#3d3d3d"/>
  <circle cx="397.3" cy="340.2" r="0.78" fill="#3d3d3d"/>
  <circle cx="459.3" cy="428.7" r="0.83" fill="#3d3d3d"/>
  <circle cx="465.7" cy="446.8" r="1.47" fill="#3d3d3d"/>
  <circle cx="465.0" cy="419.6" r="0.77" fill="#3d3d3d"/>
  <circle cx="632.2" cy="199.8" r="1.39" fill="#3d3d3d"/>
  <circle cx="383.5" cy="452.0" r="0.74" fill="#3d3d3d"/>
  <circle cx="421.9" cy="379.6" r="1.36" fill="#3d3d3d"/>
  <circle cx="632.1" cy="796.2" r="1.18" fill="#3d3d3d"/>
  <circle cx="509.0" cy="211.4" r="0.73" fill="#3d3d3d"/>
  <circle cx="426.1" cy="378.0" r="0.72" fill="#3d3d3d"/>
  <circle cx="16.1" cy="263.9" r="1.30" fill="#3d3d3d"/>
  <circle cx="429.0" cy="425.8" r="1.29" fill="#3d3d3d"/>
  <circle cx="334.4" cy="463.4" r="1.05" fill="#3d3d3d"/>
  <circle cx="176.8" cy="256.0" r="1.49" fill="#3d3d3d"/>
  <circle cx="466.9" cy="431.1" r="1.27" fill="#3d3d3d"/>
  <circle cx="449.0" cy="423.8" r="1.18" fill="#3d3d3d"/>
  <circle cx="345.9" cy="472.7" r="0.86" fill="#3d3d3d"/>
  <circle cx="438.5" cy="384.3" r="1.14" fill="#3d3d3d"/>
  <circle cx="431.7" cy="428.8" r="0.99" fill="#3d3d3d"/>
  <circle cx="378.7" cy="436.6" r="0.77" fill="#3d3d3d"/>
  <circle cx="66.7" cy="508.9" r="1.43" fill="#3d3d3d"/>
  <circle cx="431.4" cy="387.5" r="1.07" fill="#3d3d3d"/>
  <circle cx="424.4" cy="475.5" r="0.90" fill="#3d3d3d"/>
  <circle cx="401.4" cy="427.3" r="1.23" fill="#3d3d3d"/>
  <circle cx="430.3" cy="429.4" r="1.44" fill="#3d3d3d"/>
  <circle cx="430.7" cy="428.5" r="1.20" fill="#3d3d3d"/>
  <circle cx="739.1" cy="316.9" r="0.99" fill="#3d3d3d"/>
  <circle cx="467.4" cy="403.7" r="0.90" fill="#3d3d3d"/>
  <circle cx="238.6" cy="250.6" r="1.15" fill="#3d3d3d"/>
  <circle cx="452.9" cy="384.4" r="1.20" fill="#3d3d3d"/>
  <circle cx="378.1" cy="460.3" r="1.42" fill="#3d3d3d"/>
  <circle cx="370.7" cy="352.4" r="1.32" fill="#3d3d3d"/>
  <circle cx="50.0" cy="798.3" r="0.77" fill="#3d3d3d"/>
  <circle cx="406.6" cy="430.8" r="0.82" fill="#3d3d3d"/>
  <circle cx="444.4" cy="425.3" r="1.25" fill="#3d3d3d"/>
  <circle cx="458.0" cy="384.1" r="0.88" fill="#3d3d3d"/>
  <circle cx="460.6" cy="431.0" r="1.00" fill="#3d3d3d"/>
  <circle cx="605.7" cy="617.8" r="0.77" fill="#3d3d3d"/>
  <circle cx="334.1" cy="442.4" r="1.23" fill="#3d3d3d"/>
  <circle cx="153.3" cy="757.5" r="0.78" fill="#3d3d3d"/>
  <circle cx="37.9" cy="415.4" r="0.93" fill="#3d3d3d"/>
  <circle cx="470.3" cy="442.0" r="1.35" fill="#3d3d3d"/>
  <circle cx="738.0" cy="767.2" r="1.16" fill="#3d3d3d"/>
  <circle cx="416.9" cy="426.0" r="1.09" fill="#3d3d3d"/>
  <circle cx="426.4" cy="428.6" r="1.26" fill="#3d3d3d"/>
  <circle cx="384.7" cy="340.6" r="0.99" fill="#3d3d3d"/>
  <circle cx="339.6" cy="421.9" r="0.84" fill="#3d3d3d"/>
  <circle cx="383.7" cy="449.6" r="1.44" fill="#3d3d3d"/>
  <circle cx="340.3" cy="108.2" r="1.18" fill="#3d3d3d"/>
  <circle cx="681.1" cy="550.6" r="0.99" fill="#3d3d3d"/>
  <circle cx="380.0" cy="448.9" r="0.90" fill="#3d3d3d"/>
  <circle cx="331.9" cy="437.6" r="1.25" fill="#3d3d3d"/>
  <circle cx="334.3" cy="467.5" r="1.18" fill="#3d3d3d"/>
  <circle cx="380.3" cy="424.4" r="0.75" fill="#3d3d3d"/>
  <circle cx="408.1" cy="340.4" r="0.83" fill="#3d3d3d"/>
  <circle cx="793.3" cy="57.6" r="0.95" fill="#3d3d3d"/>
  <circle cx="417.4" cy="439.1" r="0.77" fill="#3d3d3d"/>
  <circle cx="55.0" cy="27.0" r="1.10" fill="#3d3d3d"/>
  <circle cx="592.9" cy="577.8" r="1.16" fill="#3d3d3d"/>
  <circle cx="455.9" cy="386.2" r="0.83" fill="#3d3d3d"/>
  <circle cx="414.2" cy="468.9" r="1.06" fill="#3d3d3d"/>
  <circle cx="435.9" cy="423.8" r="1.50" fill="#3d3d3d"/>
  <circle cx="418.0" cy="379.1" r="1.43" fill="#3d3d3d"/>
  <circle cx="457.1" cy="474.9" r="1.24" fill="#3d3d3d"/>
  <circle cx="778.6" cy="364.7" r="1.11" fill="#3d3d3d"/>
  <circle cx="423.5" cy="458.9" r="0.86" fill="#3d3d3d"/>
  <circle cx="456.8" cy="426.7" r="1.34" fill="#3d3d3d"/>
  <circle cx="468.2" cy="446.7" r="1.40" fill="#3d3d3d"/>
  <circle cx="437.6" cy="383.0" r="1.45" fill="#3d3d3d"/>
  <circle cx="465.8" cy="398.2" r="1.01" fill="#3d3d3d"/>
  <circle cx="358.3" cy="429.0" r="0.76" fill="#3d3d3d"/>
  <circle cx="340.9" cy="472.9" r="0.98" fill="#3d3d3d"/>
  <circle cx="465.6" cy="386.2" r="0.87" fill="#3d3d3d"/>
  <circle cx="287.0" cy="116.2" r="0.74" fill="#3d3d3d"/>
  <circle cx="375.9" cy="365.7" r="1.24" fill="#3d3d3d"/>
  <circle cx="462.4" cy="286.9" r="1.46" fill="#3d3d3d"/>
  <circle cx="194.3" cy="561.8" r="1.48" fill="#3d3d3d"/>
  <circle cx="449.6" cy="382.8" r="1.30" fill="#3d3d3d"/>
  <circle cx="249.3" cy="364.0" r="1.17" fill="#3d3d3d"/>
  <circle cx="335.0" cy="471.0" r="0.71" fill="#3d3d3d"/>
  <circle cx="463.7" cy="389.8" r="1.00" fill="#3d3d3d"/>
  <circle cx="46.0" cy="761.2" r="0.96" fill="#3d3d3d"/>
  <circle cx="430.6" cy="456.4" r="0.80" fill="#3d3d3d"/>
  <circle cx="435.7" cy="474.4" r="1.04" fill="#3d3d3d"/>
  <circle cx="471.9" cy="391.1" r="0.95" fill="#3d3d3d"/>
  <circle cx="435.2" cy="423.1" r="0.80" fill="#3d3d3d"/>
  <circle cx="465.9" cy="455.2" r="0.96" fill="#3d3d3d"/>
  <circle cx="412.0" cy="468.0" r="1.26" fill="#3d3d3d"/>
  <circle cx="425.2" cy="421.4" r="1.32" fill="#3d3d3d"/>
  <circle cx="374.7" cy="476.3" r="1.17" fill="#3d3d3d"/>
  <circle cx="649.0" cy="765.6" r="0.89" fill="#3d3d3d"/>
  <circle cx="387.2" cy="385.7" r="1.39" fill="#3d3d3d"/>
  <circle cx="470.4" cy="444.2" r="0.75" fill="#3d3d3d"/>
  <circle cx="762.8" cy="451.9" r="1.02" fill="#3d3d3d"/>
  <circle cx="510.6" cy="114.8" r="1.34" fill="#3d3d3d"/>
  <circle cx="465.0" cy="466.1" r="1.07" fill="#3d3d3d"/>
  <circle cx="414.0" cy="446.1" r="0.72" fill="#3d3d3d"/>
  <circle cx="176.6" cy="686.7" r="1.48" fill="#3d3d3d"/>
  <circle cx="393.3" cy="428.1" r="1.16" fill="#3d3d3d"/>
  <circle cx="343.9" cy="474.5" r="1.44" fill="#3d3d3d"/>
  <circle cx="670.2" cy="75.8" r="1.28" fill="#3d3d3d"/>
  <circle cx="650.3" cy="789.9" r="0.83" fill="#3d3d3d"/>
  <circle cx="399.5" cy="432.5" r="1.42" fill="#3d3d3d"/>
  <circle cx="339.5" cy="433.9" r="1.02" fill="#3d3d3d"/>
  <circle cx="433.8" cy="472.8" r="1.49" fill="#3d3d3d"/>
  <circle cx="415.3" cy="465.6" r="1.34" fill="#3d3d3d"/>
  <circle cx="418.8" cy="447.5" r="0.75" fill="#3d3d3d"/>
  <circle cx="678.7" cy="331.4" r="1.38" fill="#3d3d3d"/>
  <circle cx="66.8" cy="441.7" r="1.15" fill="#3d3d3d"/>
  <circle cx="382.7" cy="339.4" r="1.15" fill="#3d3d3d"/>
  <circle cx="435.9" cy="421.8" r="0.73" fill="#3d3d3d"/>
  <circle cx="257.1" cy="229.9" r="1.13" fill="#3d3d3d"/>
  <circle cx="439.2" cy="427.1" r="0.76" fill="#3d3d3d"/>
  <circle cx="424.1" cy="429.8" r="1.06" fill="#3d3d3d"/>
  <circle cx="427.7" cy="458.0" r="1.15" fill="#3d3d3d"/>
  <circle cx="432.1" cy="469.6" r="1.17" fill="#3d3d3d"/>
  <circle cx="421.3" cy="423.3" r="1.34" fill="#3d3d3d"/>
  <circle cx="652.3" cy="355.2" r="0.97" fill="#3d3d3d"/>
  <circle cx="465.7" cy="394.9" r="1.28" fill="#3d3d3d"/>
  <circle cx="330.8" cy="441.4" r="1.23" fill="#3d3d3d"/>
  <circle cx="423.8" cy="408.6" r="0.81" fill="#3d3d3d"/>
  <circle cx="422.7" cy="383.1" r="0.71" fill="#3d3d3d"/>
  <circle cx="390.9" cy="424.9" r="1.05" fill="#3d3d3d"/>
  <circle cx="593.8" cy="463.0" r="1.15" fill="#3d3d3d"/>
  <circle cx="683.0" cy="616.8" r="1.01" fill="#3d3d3d"/>
  <circle cx="769.2" cy="107.2" r="0.81" fill="#3d3d3d"/>
  <circle cx="465.8" cy="421.3" r="0.74" fill="#3d3d3d"/>
  <circle cx="574.0" cy="5.9" r="0.97" fill="#3d3d3d"/>
  <circle cx="239.2" cy="365.7" r="1.13" fill="#3d3d3d"/>
  <circle cx="460.8" cy="380.1" r="0.90" fill="#3d3d3d"/>
  <circle cx="348.3" cy="471.9" r="1.36" fill="#3d3d3d"/>
  <circle cx="382.1" cy="365.6" r="1.32" fill="#3d3d3d"/>
  <circle cx="390.5" cy="132.6" r="1.27" fill="#3d3d3d"/>
  <circle cx="439.8" cy="470.0" r="1.48" fill="#3d3d3d"/>
  <circle cx="421.6" cy="441.1" r="0.92" fill="#3d3d3d"/>
  <circle cx="453.5" cy="432.8" r="1.12" fill="#3d3d3d"/>
  <circle cx="305.6" cy="311.0" r="1.28" fill="#3d3d3d"/>
  <circle cx="366.6" cy="472.7" r="0.71" fill="#3d3d3d"/>
  <circle cx="425.5" cy="341.3" r="1.14" fill="#3d3d3d"/>
  <circle cx="452.8" cy="472.1" r="1.18" fill="#3d3d3d"/>
  <circle cx="381.4" cy="458.5" r="0.96" fill="#3d3d3d"/>
  <circle cx="380.7" cy="365.4" r="0.79" fill="#3d3d3d"/>
  <circle cx="426.0" cy="376.5" r="1.49" fill="#3d3d3d"/>
  <circle cx="546.6" cy="153.9" r="1.22" fill="#3d3d3d"/>
  <circle cx="337.1" cy="466.6" r="1.39" fill="#3d3d3d"/>
  <circle cx="433.5" cy="519.1" r="0.88" fill="#3d3d3d"/>
  <circle cx="480.3" cy="161.0" r="0.74" fill="#3d3d3d"/>
  <circle cx="424.4" cy="346.7" r="1.21" fill="#3d3d3d"/>
  <circle cx="427.0" cy="407.0" r="1.19" fill="#3d3d3d"/>
  <circle cx="448.2" cy="429.6" r="0.96" fill="#3d3d3d"/>
  <circle cx="419.3" cy="432.4" r="0.83" fill="#3d3d3d"/>
  <circle cx="340.9" cy="616.9" r="1.34" fill="#3d3d3d"/>
  <circle cx="466.4" cy="449.0" r="1.10" fill="#3d3d3d"/>
  <circle cx="470.7" cy="413.9" r="1.49" fill="#3d3d3d"/>
  <circle cx="219.8" cy="25.1" r="0.78" fill="#3d3d3d"/>
  <circle cx="457.8" cy="385.4" r="0.89" fill="#3d3d3d"/>
  <circle cx="333.5" cy="471.9" r="1.42" fill="#3d3d3d"/>
  <circle cx="131.6" cy="544.1" r="1.31" fill="#3d3d3d"/>
  <circle cx="418.8" cy="429.1" r="1.34" fill="#3d3d3d"/>
  <circle cx="417.8" cy="471.6" r="1.44" fill="#3d3d3d"/>
  <circle cx="468.0" cy="471.8" r="1.18" fill="#3d3d3d"/>
  <circle cx="740.6" cy="124.1" r="1.25" fill="#3d3d3d"/>
  <circle cx="405.2" cy="338.5" r="1.13" fill="#3d3d3d"/>
  <circle cx="365.8" cy="425.9" r="1.02" fill="#3d3d3d"/>
  <circle cx="419.3" cy="461.6" r="0.98" fill="#3d3d3d"/>
  <circle cx="383.6" cy="435.4" r="0.89" fill="#3d3d3d"/>
  <circle cx="463.6" cy="425.7" r="1.44" fill="#3d3d3d"/>
  <circle cx="337.3" cy="434.9" r="1.28" fill="#3d3d3d"/>
  <circle cx="444.5" cy="425.3" r="0.89" fill="#3d3d3d"/>
  <circle cx="638.3" cy="160.6" r="0.75" fill="#3d3d3d"/>
  <circle cx="409.5" cy="432.8" r="1.41" fill="#3d3d3d"/>
  <circle cx="791.8" cy="741.5" r="1.41" fill="#3d3d3d"/>
  <circle cx="407.0" cy="473.3" r="1.39" fill="#3d3d3d"/>
  <circle cx="401.1" cy="472.0" r="1.15" fill="#3d3d3d"/>
  <circle cx="422.0" cy="346.4" r="1.22" fill="#3d3d3d"/>
  <circle cx="387.5" cy="384.7" r="1.22" fill="#3d3d3d"/>
  <circle cx="409.8" cy="342.7" r="1.50" fill="#3d3d3d"/>
  <circle cx="377.4" cy="465.2" r="1.31" fill="#3d3d3d"/>
  <circle cx="426.2" cy="421.6" r="1.32" fill="#3d3d3d"/>
  <circle cx="397.2" cy="430.8" r="1.38" fill="#3d3d3d"/>
  <circle cx="133.7" cy="710.7" r="1.03" fill="#3d3d3d"/>
  <circle cx="393.1" cy="334.9" r="0.91" fill="#3d3d3d"/>
  <circle cx="454.4" cy="429.9" r="1.34" fill="#3d3d3d"/>
  <circle cx="405.9" cy="344.3" r="1.23" fill="#3d3d3d"/>
  <circle cx="335.8" cy="442.9" r="1.31" fill="#3d3d3d"/>
  <circle cx="379.6" cy="461.9" r="1.40" fill="#3d3d3d"/>
  <circle cx="482.5" cy="53.6" r="1.00" fill="#3d3d3d"/>
  <circle cx="407.4" cy="384.5" r="1.24" fill="#3d3d3d"/>
  <circle cx="419.0" cy="362.9" r="1.18" fill="#3d3d3d"/>
  <circle cx="413.8" cy="389.7" r="1.11" fill="#3d3d3d"/>
  <circle cx="436.1" cy="428.0" r="1.38" fill="#3d3d3d"/>
  <circle cx="465.8" cy="382.3" r="0.84" fill="#3d3d3d"/>
  <circle cx="410.3" cy="386.8" r="0.72" fill="#3d3d3d"/>
  <circle cx="422.9" cy="391.4" r="0.91" fill="#3d3d3d"/>
  <circle cx="379.1" cy="432.2" r="1.17" fill="#3d3d3d"/>
  <circle cx="154.7" cy="334.8" r="1.46" fill="#3d3d3d"/>
  <circle cx="628.4" cy="671.6" r="0.71" fill="#3d3d3d"/>
  <circle cx="390.6" cy="333.5" r="1.36" fill="#3d3d3d"/>
  <circle cx="428.2" cy="462.5" r="1.24" fill="#3d3d3d"/>
  <circle cx="421.0" cy="410.0" r="0.94" fill="#3d3d3d"/>
  <circle cx="453.9" cy="379.9" r="1.26" fill="#3d3d3d"/>
  <circle cx="470.1" cy="462.6" r="1.19" fill="#3d3d3d"/>
  <circle cx="467.0" cy="392.2" r="1.45" fill="#3d3d3d"/>
  <circle cx="462.5" cy="400.4" r="1.05" fill="#3d3d3d"/>
  <circle cx="422.9" cy="437.8" r="0.85" fill="#3d3d3d"/>
  <circle cx="418.3" cy="210.6" r="1.23" fill="#3d3d3d"/>
  <circle cx="450.7" cy="723.4" r="1.26" fill="#3d3d3d"/>
  <circle cx="281.9" cy="575.1" r="1.28" fill="#3d3d3d"/>
  <circle cx="384.5" cy="428.0" r="1.03" fill="#3d3d3d"/>
  <circle cx="110.4" cy="573.0" r="0.72" fill="#3d3d3d"/>
  <circle cx="383.9" cy="348.2" r="0.89" fill="#3d3d3d"/>
  <circle cx="442.9" cy="470.9" r="1.31" fill="#3d3d3d"/>
  <circle cx="295.6" cy="162.9" r="1.40" fill="#3d3d3d"/>
  <circle cx="416.7" cy="335.0" r="1.48" fill="#3d3d3d"/>
  <circle cx="380.8" cy="435.0" r="1.01" fill="#3d3d3d"/>
  <circle cx="355.9" cy="429.4" r="0.80" fill="#3d3d3d"/>
  <circle cx="340.7" cy="466.3" r="1.47" fill="#3d3d3d"/>
  <circle cx="462.3" cy="386.4" r="0.77" fill="#3d3d3d"/>
  <circle cx="428.8" cy="388.0" r="0.97" fill="#3d3d3d"/>
  <circle cx="462.6" cy="708.1" r="1.07" fill="#3d3d3d"/>
  <circle cx="449.3" cy="97.5" r="1.15" fill="#3d3d3d"/>
  <circle cx="213.1" cy="695.2" r="1.06" fill="#3d3d3d"/>
  <circle cx="287.6" cy="501.1" r="1.17" fill="#3d3d3d"/>
  <circle cx="421.7" cy="391.6" r="0.76" fill="#3d3d3d"/>
  <circle cx="666.4" cy="133.5" r="0.79" fill="#3d3d3d"/>
  <circle cx="568.2" cy="589.6" r="0.99" fill="#3d3d3d"/>
  <circle cx="381.2" cy="376.0" r="1.49" fill="#3d3d3d"/>
  <circle cx="416.0" cy="469.0" r="1.31" fill="#3d3d3d"/>
  <circle cx="461.7" cy="386.5" r="1.06" fill="#3d3d3d"/>
  <circle cx="377.1" cy="454.8" r="0.73" fill="#3d3d3d"/>
  <circle cx="430.3" cy="368.9" r="1.44" fill="#3d3d3d"/>
  <circle cx="424.6" cy="355.6" r="0.99" fill="#3d3d3d"/>
  <circle cx="469.8" cy="433.3" r="0.93" fill="#3d3d3d"/>
  <circle cx="363.7" cy="422.7" r="0.87" fill="#3d3d3d"/>
  <circle cx="374.4" cy="460.7" r="1.47" fill="#3d3d3d"/>
  <circle cx="611.2" cy="187.7" r="1.04" fill="#3d3d3d"/>
  <circle cx="399.5" cy="422.0" r="1.46" fill="#3d3d3d"/>
  <circle cx="144.5" cy="261.0" r="1.09" fill="#3d3d3d"/>
  <circle cx="411.0" cy="335.5" r="1.06" fill="#3d3d3d"/>
  <circle cx="635.8" cy="371.3" r="0.70" fill="#3d3d3d"/>
  <circle cx="472.5" cy="442.7" r="1.32" fill="#3d3d3d"/>
  <circle cx="417.8" cy="366.4" r="1.06" fill="#3d3d3d"/>
  <circle cx="105.7" cy="602.3" r="1.36" fill="#3d3d3d"/>
  <circle cx="470.3" cy="459.2" r="1.32" fill="#3d3d3d"/>
  <circle cx="414.5" cy="470.8" r="1.34" fill="#3d3d3d"/>
  <circle cx="425.5" cy="475.7" r="1.07" fill="#3d3d3d"/>
  <circle cx="470.2" cy="440.1" r="0.94" fill="#3d3d3d"/>
  <circle cx="234.2" cy="788.8" r="1.22" fill="#3d3d3d"/>
  <circle cx="362.6" cy="425.9" r="0.86" fill="#3d3d3d"/>
  <circle cx="424.1" cy="370.7" r="0.96" fill="#3d3d3d"/>
  <circle cx="432.6" cy="470.3" r="1.45" fill="#3d3d3d"/>
  <circle cx="483.3" cy="388.2" r="1.21" fill="#3d3d3d"/>
  <circle cx="761.7" cy="495.4" r="0.77" fill="#3d3d3d"/>
  <circle cx="380.0" cy="348.1" r="1.24" fill="#3d3d3d"/>
  <circle cx="350.2" cy="470.3" r="1.14" fill="#3d3d3d"/>
  <circle cx="451.0" cy="427.6" r="0.76" fill="#3d3d3d"/>
  <circle cx="392.0" cy="391.8" r="1.15" fill="#3d3d3d"/>
  <circle cx="404.7" cy="383.6" r="1.11" fill="#3d3d3d"/>
  <circle cx="426.5" cy="361.3" r="1.37" fill="#3d3d3d"/>
  <circle cx="470.2" cy="394.6" r="1.19" fill="#3d3d3d"/>
  <circle cx="464.3" cy="397.4" r="1.25" fill="#3d3d3d"/>
  <circle cx="372.2" cy="356.5" r="1.02" fill="#3d3d3d"/>
  <circle cx="470.5" cy="422.9" r="0.76" fill="#3d3d3d"/>
  <circle cx="444.0" cy="429.2" r="0.75" fill="#3d3d3d"/>
  <circle cx="101.6" cy="685.1" r="0.89" fill="#3d3d3d"/>
  <circle cx="382.2" cy="240.0" r="0.84" fill="#3d3d3d"/>
  <circle cx="196.4" cy="27.0" r="0.90" fill="#3d3d3d"/>
  <circle cx="419.9" cy="448.2" r="1.02" fill="#3d3d3d"/>
  <circle cx="789.4" cy="352.8" r="0.72" fill="#3d3d3d"/>
  <circle cx="752.9" cy="350.3" r="1.17" fill="#3d3d3d"/>
  <circle cx="341.5" cy="471.9" r="1.21" fill="#3d3d3d"/>
  <circle cx="418.3" cy="370.4" r="0.75" fill="#3d3d3d"/>
  <circle cx="423.8" cy="425.1" r="1.05" fill="#3d3d3d"/>
  <circle cx="465.3" cy="423.8" r="0.88" fill="#3d3d3d"/>
  <circle cx="444.9" cy="474.2" r="1.18" fill="#3d3d3d"/>
  <circle cx="791.2" cy="755.3" r="1.24" fill="#3d3d3d"/>
  <circle cx="422.5" cy="435.3" r="1.32" fill="#3d3d3d"/>
  <circle cx="418.0" cy="458.4" r="1.02" fill="#3d3d3d"/>
  <circle cx="375.5" cy="750.8" r="1.22" fill="#3d3d3d"/>
  <circle cx="465.8" cy="411.2" r="1.05" fill="#3d3d3d"/>
  <circle cx="384.5" cy="373.3" r="1.49" fill="#3d3d3d"/>
  <circle cx="346.4" cy="468.5" r="1.02" fill="#3d3d3d"/>
  <circle cx="534.2" cy="712.4" r="1.47" fill="#3d3d3d"/>
  <circle cx="730.5" cy="528.0" r="1.21" fill="#3d3d3d"/>
  <circle cx="603.9" cy="610.4" r="1.30" fill="#3d3d3d"/>
  <circle cx="246.2" cy="299.7" r="1.09" fill="#3d3d3d"/>
  <circle cx="411.9" cy="426.9" r="0.83" fill="#3d3d3d"/>
  <circle cx="374.0" cy="426.2" r="1.03" fill="#3d3d3d"/>
  <circle cx="626.8" cy="111.0" r="0.71" fill="#3d3d3d"/>
  <circle cx="417.0" cy="385.9" r="1.24" fill="#3d3d3d"/>
  <circle cx="650.1" cy="721.4" r="1.49" fill="#3d3d3d"/>
  <circle cx="361.7" cy="470.3" r="1.12" fill="#3d3d3d"/>
  <circle cx="769.1" cy="113.4" r="1.36" fill="#3d3d3d"/>
  <circle cx="348.3" cy="424.3" r="1.23" fill="#3d3d3d"/>
  <circle cx="284.5" cy="157.6" r="0.72" fill="#3d3d3d"/>
  <circle cx="438.9" cy="473.7" r="1.09" fill="#3d3d3d"/>
  <circle cx="400.6" cy="426.4" r="0.82" fill="#3d3d3d"/>
  <circle cx="371.1" cy="425.3" r="0.83" fill="#3d3d3d"/>
  <circle cx="380.0" cy="444.6" r="0.99" fill="#3d3d3d"/>
  <circle cx="465.5" cy="471.6" r="0.92" fill="#3d3d3d"/>
  <circle cx="378.8" cy="428.9" r="1.16" fill="#3d3d3d"/>
  <circle cx="451.8" cy="425.2" r="1.17" fill="#3d3d3d"/>
  <circle cx="173.2" cy="755.7" r="1.11" fill="#3d3d3d"/>
  <circle cx="429.6" cy="382.3" r="1.12" fill="#3d3d3d"/>
  <circle cx="446.1" cy="427.0" r="1.24" fill="#3d3d3d"/>
  <circle cx="336.6" cy="79.5" r="0.99" fill="#3d3d3d"/>
  <circle cx="110.1" cy="61.4" r="1.44" fill="#3d3d3d"/>
  <circle cx="400.1" cy="430.5" r="1.41" fill="#3d3d3d"/>
  <circle cx="343.2" cy="427.5" r="0.92" fill="#3d3d3d"/>
  <circle cx="382.9" cy="457.6" r="1.27" fill="#3d3d3d"/>
  <circle cx="103.7" cy="411.3" r="0.96" fill="#3d3d3d"/>
  <circle cx="737.2" cy="69.0" r="0.95" fill="#3d3d3d"/>
  <circle cx="778.9" cy="654.9" r="0.99" fill="#3d3d3d"/>
  <circle cx="467.5" cy="467.9" r="1.42" fill="#3d3d3d"/>
  <circle cx="159.8" cy="438.2" r="0.93" fill="#3d3d3d"/>
  <circle cx="749.7" cy="597.1" r="1.19" fill="#3d3d3d"/>
  <circle cx="410.3" cy="335.0" r="0.86" fill="#3d3d3d"/>
  <circle cx="624.6" cy="488.1" r="1.03" fill="#3d3d3d"/>
  <circle cx="450.9" cy="427.2" r="1.12" fill="#3d3d3d"/>
  <circle cx="382.3" cy="447.0" r="0.87" fill="#3d3d3d"/>
  <circle cx="388.4" cy="242.4" r="0.72" fill="#3d3d3d"/>
  <circle cx="265.6" cy="277.2" r="0.82" fill="#3d3d3d"/>
  <circle cx="464.1" cy="452.5" r="0.74" fill="#3d3d3d"/>
  <circle cx="382.7" cy="364.1" r="1.48" fill="#3d3d3d"/>
  <circle cx="399.1" cy="179.2" r="1.09" fill="#3d3d3d"/>
  <circle cx="418.5" cy="428.7" r="1.39" fill="#3d3d3d"/>
  <circle cx="383.5" cy="467.3" r="1.35" fill="#3d3d3d"/>
  <circle cx="376.0" cy="463.5" r="0.75" fill="#3d3d3d"/>
  <circle cx="382.6" cy="480.6" r="1.27" fill="#3d3d3d"/>
  <circle cx="425.3" cy="461.0" r="0.75" fill="#3d3d3d"/>
  <circle cx="639.5" cy="237.5" r="0.71" fill="#3d3d3d"/>
  <circle cx="476.6" cy="232.9" r="1.28" fill="#3d3d3d"/>
  <circle cx="42.9" cy="105.3" r="0.79" fill="#3d3d3d"/>
  <circle cx="398.7" cy="423.0" r="1.50" fill="#3d3d3d"/>
  <circle cx="240.9" cy="244.1" r="0.81" fill="#3d3d3d"/>
  <circle cx="421.8" cy="386.5" r="1.05" fill="#3d3d3d"/>
  <circle cx="373.3" cy="472.5" r="1.21" fill="#3d3d3d"/>
  <circle cx="460.4" cy="427.9" r="0.93" fill="#3d3d3d"/>
  <circle cx="557.6" cy="10.5" r="1.23" fill="#3d3d3d"/>
  <circle cx="469.7" cy="405.9" r="1.28" fill="#3d3d3d"/>
  <circle cx="458.0" cy="468.9" r="0.78" fill="#3d3d3d"/>
  <circle cx="378.5" cy="448.0" r="0.83" fill="#3d3d3d"/>
  <circle cx="420.9" cy="402.2" r="1.24" fill="#3d3d3d"/>
  <circle cx="411.3" cy="425.7" r="0.96" fill="#3d3d3d"/>
  <circle cx="466.6" cy="415.4" r="1.47" fill="#3d3d3d"/>
  <circle cx="553.2" cy="145.3" r="1.06" fill="#3d3d3d"/>
  <circle cx="589.0" cy="398.4" r="1.06" fill="#3d3d3d"/>
  <circle cx="424.6" cy="438.9" r="1.30" fill="#3d3d3d"/>
  <circle cx="451.9" cy="474.5" r="1.39" fill="#3d3d3d"/>
  <circle cx="405.8" cy="471.2" r="0.77" fill="#3d3d3d"/>
  <circle cx="28.9" cy="692.3" r="1.07" fill="#3d3d3d"/>
  <circle cx="449.3" cy="469.7" r="1.17" fill="#3d3d3d"/>
  <circle cx="381.5" cy="467.3" r="1.27" fill="#3d3d3d"/>
  <circle cx="424.5" cy="427.4" r="1.08" fill="#3d3d3d"/>
  <circle cx="413.2" cy="338.6" r="0.90" fill="#3d3d3d"/>
  <circle cx="425.9" cy="471.1" r="1.41" fill="#3d3d3d"/>
  <circle cx="113.8" cy="617.8" r="1.10" fill="#3d3d3d"/>
  <circle cx="299.3" cy="323.7" r="1.31" fill="#3d3d3d"/>
  <circle cx="377.6" cy="434.1" r="0.96" fill="#3d3d3d"/>
  <circle cx="406.7" cy="381.7" r="1.14" fill="#3d3d3d"/>
  <circle cx="426.6" cy="353.8" r="0.75" fill="#3d3d3d"/>
  <circle cx="357.3" cy="430.3" r="0.95" fill="#3d3d3d"/>
  <circle cx="383.3" cy="353.0" r="1.01" fill="#3d3d3d"/>
  <circle cx="466.8" cy="441.6" r="1.11" fill="#3d3d3d"/>
  <circle cx="420.0" cy="465.7" r="0.98" fill="#3d3d3d"/>
  <circle cx="339.2" cy="428.0" r="1.45" fill="#3d3d3d"/>
  <circle cx="456.6" cy="436.4" r="0.93" fill="#3d3d3d"/>
  <circle cx="420.6" cy="424.2" r="1.24" fill="#3d3d3d"/>
  <circle cx="338.1" cy="720.9" r="1.18" fill="#3d3d3d"/>
  <circle cx="436.5" cy="385.4" r="1.11" fill="#3d3d3d"/>
  <circle cx="399.5" cy="338.9" r="1.33" fill="#3d3d3d"/>
  <circle cx="383.8" cy="434.0" r="1.13" fill="#3d3d3d"/>
  <circle cx="379.6" cy="444.5" r="1.31" fill="#3d3d3d"/>
  <circle cx="418.5" cy="471.2" r="0.84" fill="#3d3d3d"/>
  <circle cx="422.5" cy="350.9" r="1.06" fill="#3d3d3d"/>
  <circle cx="435.6" cy="475.7" r="1.28" fill="#3d3d3d"/>
  <circle cx="440.6" cy="424.4" r="0.92" fill="#3d3d3d"/>
  <circle cx="473.5" cy="416.6" r="1.34" fill="#3d3d3d"/>
  <circle cx="422.4" cy="471.8" r="0.96" fill="#3d3d3d"/>
  <circle cx="90.5" cy="688.8" r="1.42" fill="#3d3d3d"/>
  <circle cx="353.1" cy="471.7" r="1.47" fill="#3d3d3d"/>
  <circle cx="423.7" cy="431.5" r="1.44" fill="#3d3d3d"/>
  <circle cx="127.0" cy="457.4" r="1.48" fill="#3d3d3d"/>
  <circle cx="39.7" cy="109.4" r="1.05" fill="#3d3d3d"/>
  <circle cx="731.6" cy="138.8" r="1.19" fill="#3d3d3d"/>
  <circle cx="466.4" cy="394.3" r="1.42" fill="#3d3d3d"/>
  <circle cx="63.0" cy="127.0" r="0.97" fill="#3d3d3d"/>
  <circle cx="514.2" cy="165.0" r="1.39" fill="#3d3d3d"/>
  <circle cx="470.7" cy="428.2" r="0.85" fill="#3d3d3d"/>
  <circle cx="413.6" cy="338.3" r="1.30" fill="#3d3d3d"/>
  <circle cx="450.0" cy="429.1" r="1.47" fill="#3d3d3d"/>
  <circle cx="142.9" cy="308.7" r="0.81" fill="#3d3d3d"/>
  <circle cx="429.6" cy="471.7" r="0.92" fill="#3d3d3d"/>
  <circle cx="38.9" cy="765.0" r="0.84" fill="#3d3d3d"/>
  <circle cx="178.9" cy="5.5" r="0.80" fill="#3d3d3d"/>
  <circle cx="468.8" cy="399.4" r="1.35" fill="#3d3d3d"/>
  <circle cx="357.7" cy="147.4" r="0.78" fill="#3d3d3d"/>
  <circle cx="259.1" cy="348.4" r="0.83" fill="#3d3d3d"/>
  <circle cx="401.4" cy="426.1" r="0.93" fill="#3d3d3d"/>
  <circle cx="571.9" cy="739.5" r="0.82" fill="#3d3d3d"/>
  <circle cx="416.7" cy="428.5" r="1.40" fill="#3d3d3d"/>
  <circle cx="98.0" cy="105.5" r="1.25" fill="#3d3d3d"/>
  <circle cx="442.3" cy="429.7" r="0.79" fill="#3d3d3d"/>
  <circle cx="404.1" cy="425.3" r="1.11" fill="#3d3d3d"/>
  <circle cx="513.5" cy="394.9" r="0.91" fill="#3d3d3d"/>
  <circle cx="14.7" cy="241.7" r="1.09" fill="#3d3d3d"/>
  <circle cx="228.0" cy="232.3" r="1.21" fill="#3d3d3d"/>
  <circle cx="379.6" cy="369.5" r="1.06" fill="#3d3d3d"/>
  <circle cx="423.5" cy="384.7" r="1.17" fill="#3d3d3d"/>
  <circle cx="448.8" cy="430.6" r="1.09" fill="#3d3d3d"/>
  <circle cx="470.1" cy="402.6" r="0.98" fill="#3d3d3d"/>
  <circle cx="466.7" cy="471.2" r="1.27" fill="#3d3d3d"/>
  <circle cx="663.0" cy="440.7" r="0.79" fill="#3d3d3d"/>
  <circle cx="467.9" cy="465.5" r="1.23" fill="#3d3d3d"/>
  <circle cx="378.7" cy="435.1" r="1.44" fill="#3d3d3d"/>
  <circle cx="343.8" cy="425.8" r="0.83" fill="#3d3d3d"/>
  <circle cx="178.3" cy="113.4" r="1.33" fill="#3d3d3d"/>
  <circle cx="25.2" cy="655.8" r="0.79" fill="#3d3d3d"/>
  <circle cx="412.4" cy="343.2" r="0.91" fill="#3d3d3d"/>
  <circle cx="476.1" cy="709.8" r="0.90" fill="#3d3d3d"/>
  <circle cx="585.0" cy="326.3" r="1.10" fill="#3d3d3d"/>
  <circle cx="415.0" cy="473.6" r="1.21" fill="#3d3d3d"/>
  <circle cx="124.6" cy="753.7" r="1.08" fill="#3d3d3d"/>
  <circle cx="402.6" cy="431.2" r="1.31" fill="#3d3d3d"/>
  <circle cx="361.6" cy="471.7" r="1.05" fill="#3d3d3d"/>
  <circle cx="474.8" cy="432.5" r="1.18" fill="#3d3d3d"/>
  <circle cx="384.1" cy="619.7" r="1.12" fill="#3d3d3d"/>
  <circle cx="403.3" cy="468.0" r="1.38" fill="#3d3d3d"/>
  <circle cx="469.6" cy="392.7" r="1.43" fill="#3d3d3d"/>
  <circle cx="421.3" cy="403.2" r="0.90" fill="#3d3d3d"/>
  <circle cx="397.7" cy="435.9" r="0.89" fill="#3d3d3d"/>
  <circle cx="91.2" cy="421.7" r="1.46" fill="#3d3d3d"/>
  <circle cx="427.9" cy="459.5" r="0.79" fill="#3d3d3d"/>
  <circle cx="376.7" cy="456.8" r="1.34" fill="#3d3d3d"/>
  <circle cx="380.7" cy="452.1" r="1.24" fill="#3d3d3d"/>
  <circle cx="422.8" cy="441.2" r="1.48" fill="#3d3d3d"/>
  <circle cx="421.3" cy="452.5" r="0.82" fill="#3d3d3d"/>
  <circle cx="332.4" cy="458.1" r="1.45" fill="#3d3d3d"/>
  <circle cx="387.8" cy="425.5" r="1.16" fill="#3d3d3d"/>
  <circle cx="281.3" cy="452.7" r="1.15" fill="#3d3d3d"/>
  <circle cx="452.0" cy="423.8" r="1.47" fill="#3d3d3d"/>
  <circle cx="466.8" cy="432.7" r="1.02" fill="#3d3d3d"/>
  <circle cx="601.6" cy="410.2" r="1.14" fill="#3d3d3d"/>
  <circle cx="486.8" cy="627.0" r="1.02" fill="#3d3d3d"/>
  <circle cx="461.4" cy="434.5" r="0.83" fill="#3d3d3d"/>
  <circle cx="404.4" cy="468.7" r="1.27" fill="#3d3d3d"/>
  <circle cx="331.6" cy="452.5" r="0.83" fill="#3d3d3d"/>
  <circle cx="264.3" cy="354.5" r="0.96" fill="#3d3d3d"/>
  <circle cx="472.1" cy="433.2" r="1.42" fill="#3d3d3d"/>
  <circle cx="467.3" cy="470.9" r="0.80" fill="#3d3d3d"/>
  <circle cx="421.8" cy="427.8" r="0.93" fill="#3d3d3d"/>
  <circle cx="537.6" cy="662.9" r="1.37" fill="#3d3d3d"/>
  <circle cx="460.0" cy="471.3" r="1.10" fill="#3d3d3d"/>
  <circle cx="380.5" cy="436.4" r="0.96" fill="#3d3d3d"/>
  <circle cx="437.8" cy="467.7" r="1.19" fill="#3d3d3d"/>
  <circle cx="339.0" cy="431.0" r="1.07" fill="#3d3d3d"/>
  <circle cx="471.0" cy="446.9" r="1.46" fill="#3d3d3d"/>
  <circle cx="404.8" cy="378.9" r="0.74" fill="#3d3d3d"/>
  <circle cx="338.5" cy="455.8" r="1.44" fill="#3d3d3d"/>
  <circle cx="379.6" cy="431.4" r="1.41" fill="#3d3d3d"/>
  <circle cx="385.6" cy="468.0" r="1.33" fill="#3d3d3d"/>
  <circle cx="412.1" cy="779.4" r="1.35" fill="#3d3d3d"/>
  <circle cx="423.1" cy="463.8" r="1.10" fill="#3d3d3d"/>
  <circle cx="278.2" cy="119.0" r="1.46" fill="#3d3d3d"/>
  <circle cx="334.8" cy="438.5" r="1.15" fill="#3d3d3d"/>
  <circle cx="448.8" cy="438.2" r="1.06" fill="#3d3d3d"/>
  <circle cx="404.4" cy="425.8" r="0.95" fill="#3d3d3d"/>
  <circle cx="423.9" cy="371.3" r="1.39" fill="#3d3d3d"/>
  <circle cx="406.1" cy="340.0" r="1.29" fill="#3d3d3d"/>
  <circle cx="405.4" cy="383.2" r="0.83" fill="#3d3d3d"/>
  <circle cx="273.2" cy="330.3" r="0.83" fill="#3d3d3d"/>
  <circle cx="437.9" cy="469.3" r="1.15" fill="#3d3d3d"/>
  <circle cx="672.3" cy="754.4" r="1.13" fill="#3d3d3d"/>
  <circle cx="432.6" cy="424.7" r="1.23" fill="#3d3d3d"/>
  <circle cx="379.5" cy="346.1" r="0.78" fill="#3d3d3d"/>
  <circle cx="389.5" cy="471.2" r="1.22" fill="#3d3d3d"/>
  <circle cx="465.6" cy="383.0" r="1.10" fill="#3d3d3d"/>
  <circle cx="772.9" cy="654.4" r="1.46" fill="#3d3d3d"/>
  <circle cx="522.6" cy="613.7" r="1.19" fill="#3d3d3d"/>
  <circle cx="427.2" cy="398.5" r="1.45" fill="#3d3d3d"/>
  <circle cx="529.5" cy="271.4" r="0.71" fill="#3d3d3d"/>
  <circle cx="352.5" cy="475.9" r="1.00" fill="#3d3d3d"/>
  <circle cx="336.4" cy="441.0" r="0.82" fill="#3d3d3d"/>
  <circle cx="436.9" cy="440.9" r="0.99" fill="#3d3d3d"/>
  <circle cx="421.2" cy="376.3" r="1.18" fill="#3d3d3d"/>
  <circle cx="243.9" cy="799.9" r="1.17" fill="#3d3d3d"/>
  <circle cx="377.6" cy="353.6" r="0.74" fill="#3d3d3d"/>
  <circle cx="450.8" cy="431.7" r="1.27" fill="#3d3d3d"/>
  <circle cx="569.6" cy="300.5" r="1.43" fill="#3d3d3d"/>
  <circle cx="424.2" cy="359.7" r="1.16" fill="#3d3d3d"/>
  <circle cx="359.1" cy="423.7" r="1.05" fill="#3d3d3d"/>
  <circle cx="580.6" cy="636.3" r="1.39" fill="#3d3d3d"/>
  <circle cx="274.5" cy="677.3" r="1.27" fill="#3d3d3d"/>
  <circle cx="368.3" cy="539.9" r="0.84" fill="#3d3d3d"/>
  <circle cx="121.5" cy="15.2" r="1.34" fill="#3d3d3d"/>
  <circle cx="284.0" cy="727.7" r="0.90" fill="#3d3d3d"/>
  <circle cx="379.4" cy="363.7" r="0.89" fill="#3d3d3d"/>
  <circle cx="472.5" cy="295.9" r="0.74" fill="#3d3d3d"/>
  <circle cx="357.8" cy="476.0" r="1.44" fill="#3d3d3d"/>
</svg>
