<svg viewBox="0 0 800 800" xmlns="http://www.w3.org/2000/svg">
  <rect x="426.32" y="472.82" width="2.36" height="2.36" fill="#000000"/>
  <rect x="427.84" y="465.44" width="1.72" height="1.72" fill="#000000"/>
  <rect x="624.90" y="338.70" width="1.80" height="1.80" fill="#000000"/>
  <rect x="336.40" y="475.60" width="3.00" height="3.00" fill="#000000"/>
  <rect x="333.13" y="449.23" width="2.74" height="2.74" fill="#000000"/>
  <rect x="622.52" y="190.82" width="2.96" height="2.96" fill="#000000"/>
  <rect x="335.84" y="437.14" width="2.52" height="2.52" fill="#000000"/>
  <rect x="383.19" y="378.29" width="1.82" height="1.82" fill="#000000"/>
  <rect x="415.56" y="380.96" width="1.68" height="1.68" fill="#000000"/>
  <rect x="337.32" y="463.62" width="2.16" height="2.16" fill="#000000"/>
  <rect x="471.33" y="441.73" width="2.74" height="2.74" fill="#000000"/>
  <rect x="554.18" y="315.28" width="2.04" height="2.04" fill="#000000"/>
  <rect x="380.62" y="343.52" width="2.76" height="2.76" fill="#000000"/>
  <rect x="407.57" y="339.07" width="2.86" height="2.86" fill="#000000"/>
  <rect x="415.01" y="378.61" width="1.78" height="1.78" fill="#000000"/>
  <rect x="427.61" y="456.41" width="2.38" height="2.38" fill="#000000"/>
  <rect x="224.70" y="620.70" width="2.00" height="2.00" fill="#000000"/>
  <rect x="20.47" y="386.77" width="2.66" height="2.66" fill="#000000"/>
  <rect x="227.34" y="126.44" width="2.32" height="2.32" fill="#000000"/>
  <rect x="399.85" y="426.15" width="1.50" height="1.50" fill="#000000"/>
  <rect x="332.39" y="470.49" width="1.82" height="1.82" fill="#000000"/>
  <rect x="400.11" y="338.31" width="1.58" height="1.58" fill="#000000"/>
  <rect x="466.75" y="460.35" width="2.50" height="2.50" fill="#000000"/>
  <rect x="463.69" y="464.49" width="2.42" height="2.42" fill="#000000"/>
  <rect x="787.90" y="379.00" width="2.40" height="2.40" fill="#000000"/>
  <rect x="795.03" y="323.33" width="2.34" height="2.34" fill="#000000"/>
  <rect x="204.31" y="531.11" width="2.38" height="2.38" fill="#000000"/>
  <rect x="443.44" y="432.04" width="2.52" height="2.52" fill="#000000"/>
  <rect x="425.18" y="374.78" width="2.04" height="2.04" fill="#000000"/>
  <rect x="367.94" y="464.34" width="1.72" height="1.72" fill="#000000"/>
  <rect x="377.41" y="361.61" width="1.58" height="1.58" fill="#000000"/>
  <rect x="725.58" y="686.58" width="2.84" height="2.84" fill="#000000"/>
  <rect x="470.36" y="397.36" width="2.48" height="2.48" fill="#000000"/>
  <rect x="376.08" y="431.98" width="1.84" height="1.84" fill="#000000"/>
  <rect x="378.85" y="358.35" width="1.70" height="1.70" fill="#000000"/>
  <rect x="421.40" y="386.00" width="1.80" height="1.80" fill="#000000"/>
  <rect x="360.20" y="421.00" width="2.20" height="2.20" fill="#000000"/>
  <rect x="442.96" y="471.46" width="2.88" height="2.88" fill="#000000"/>
  <rect x="380.69" y="464.49" width="1.62" height="1.62" fill="#000000"/>
  <rect x="413.39" y="337.49" width="2.02" height="2.02" fill="#000000"/>
  <rect x="438.32" y="385.42" width="2.76" height="2.76" fill="#000000"/>
  <rect x="299.36" y="429.26" width="2.68" height="2.68" fill="#000000"/>
  <rect x="463.29" y="383.69" width="1.82" height="1.82" fill="#000000"/>
  <rect x="390.67" y="421.37" width="2.66" height="2.66" fill="#000000"/>
  <rect x="446.13" y="385.23" width="1.74" height="1.74" fill="#000000"/>
  <rect x="168.09" y="511.69" width="2.82" height="2.82" fill="#000000"/>
  <rect x="463.93" y="449.83" width="2.94" height="2.94" fill="#000000"/>
  <rect x="686.82" y="615.52" width="2.36" height="2.36" fill="#000000"/>
  <rect x="399.05" y="495.15" width="1.50" height="1.50" fill="#000000"/>
  <rect x="382.34" y="338.54" width="2.32" height="2.32" fill="#000000"/>
  <rect x="23.31" y="224.91" width="1.78" height="1.78" fill="#000000"/>
  <rect x="690.60" y="78.50" width="2.00" height="2.00" fill="#000000"/>
  <rect x="339.57" y="463.57" width="1.46" height="1.46" fill="#000000"/>
  <rect x="384.23" y="472.23" width="1.94" height="1.94" fill="#000000"/>
  <rect x="376.73" y="356.43" width="1.94" height="1.94" fill="#000000"/>
  <rect x="469.08" y="422.18" width="2.44" height="2.44" fill="#000000"/>
  <rect x="392.19" y="472.59" width="2.02" height="2.02" fill="#000000"/>
  <rect x="382.88" y="455.38" width="1.84" height="1.84" fill="#000000"/>
  <rect x="462.08" y="385.58" width="2.04" height="2.04" fill="#000000"/>
  <rect x="379.03" y="433.63" width="2.14" height="2.14" fill="#000000"/>
  <rect x="470.14" y="415.84" width="1.52" height="1.52" fill="#000000"/>
  <rect x="381.46" y="451.26" width="2.48" height="2.48" fill="#000000"/>
  <rect x="343.38" y="470.68" width="1.84" height="1.84" fill="#000000"/>
  <rect x="424.07" y="463.57" width="1.86" height="1.86" fill="#000000"/>
  <rect x="367.99" y="430.39" width="2.22" height="2.22" fill="#000000"/>
  <rect x="419.72" y="346.42" width="2.96" height="2.96" fill="#000000"/>
  <rect x="425.95" y="403.15" width="1.50" height="1.50" fill="#000000"/>
  <rect x="381.74" y="346.84" width="1.92" height="1.92" fill="#000000"/>
  <rect x="427.04" y="467.74" width="1.52" height="1.52" fill="#000000"/>
  <rect x="592.51" y="595.91" width="1.58" height="1.58" fill="#000000"/>
  <rect x="313.90" y="451.90" width="2.20" height="2.20" fill="#000000"/>
  <rect x="463.86" y="425.36" width="1.48" height="1.48" fill="#000000"/>
  <rect x="344.01" y="425.31" width="2.18" height="2.18" fill="#000000"/>
  <rect x="392.18" y="424.88" width="2.24" height="2.24" fill="#000000"/>
  <rect x="460.50" y="423.50" width="2.60" height="2.60" fill="#000000"/>
  <rect x="541.26" y="357.26" width="1.48" height="1.48" fill="#000000"/>
  <rect x="646.69" y="577.39" width="2.82" height="2.82" fill="#000000"/>
  <rect x="317.65" y="90.35" width="2.30" height="2.30" fill="#000000"/>
  <rect x="379.87" y="380.07" width="1.66" height="1.66" fill="#000000"/>
  <rect x="417.46" y="371.16" width="1.68" height="1.68" fill="#000000"/>
  <rect x="466.59" y="423.39" width="2.82" height="2.82" fill="#000000"/>
  <rect x="243.48" y="544.48" width="1.84" height="1.84" fill="#000000"/>
  <rect x="422.16" y="447.36" width="2.68" height="2.68" fill="#000000"/>
  <rect x="337.73" y="450.63" width="2.74" height="2.74" fill="#000000"/>
  <rect x="560.83" y="547.73" width="2.34" height="2.34" fill="#000000"/>
  <rect x="499.98" y="74.88" width="2.84" height="2.84" fill="#000000"/>
  <rect x="435.57" y="432.67" width="2.66" height="2.66" fill="#000000"/>
  <rect x="374.16" y="446.76" width="2.08" height="2.08" fill="#000000"/>
  <rect x="27.36" y="490.66" width="2.68" height="2.68" fill="#000000"/>
  <rect x="461.64" y="430.64" width="1.52" height="1.52" fill="#000000"/>
  <rect x="461.06" y="393.96" width="2.68" height="2.68" fill="#000000"/>
  <rect x="334.36" y="432.16" width="2.28" height="2.28" fill="#000000"/>
  <rect x="417.25" y="469.95" width="2.10" height="2.10" fill="#000000"/>
  <rect x="375.49" y="450.09" width="2.02" height="2.02" fill="#000000"/>
  <rect x="501.81" y="690.81" width="2.98" height="2.98" fill="#000000"/>
  <rect x="375.19" y="431.89" width="1.62" height="1.62" fill="#000000"/>
  <rect x="377.83" y="447.03" width="2.54" height="2.54" fill="#000000"/>
  <rect x="502.83" y="283.73" width="1.54" height="1.54" fill="#000000"/>
  <rect x="421.21" y="341.21" width="2.18" height="2.18" fill="#000000"/>
  <rect x="423.26" y="452.26" width="2.28" height="2.28" fill="#000000"/>
  <rect x="129.03" y="639.73" width="1.54" height="1.54" fill="#000000"/>
  <rect x="4.95" y="138.65" width="1.50" height="1.50" fill="#000000"/>
  <rect x="436.43" y="428.13" width="1.74" height="1.74" fill="#000000"/>
  <rect x="466.80" y="463.90" width="2.20" height="2.20" fill="#000000"/>
  <rect x="425.51" y="380.41" width="2.98" height="2.98" fill="#000000"/>
  <rect x="381.07" y="463.17" width="2.26" height="2.26" fill="#000000"/>
  <rect x="462.78" y="401.28" width="2.44" height="2.44" fill="#000000"/>
  <rect x="425.48" y="354.78" width="2.64" height="2.64" fill="#000000"/>
  <rect x="380.06" y="375.26" width="1.68" height="1.68" fill="#000000"/>
  <rect x="425.49" y="458.29" width="2.02" height="2.02" fill="#000000"/>
  <rect x="349.21" y="467.61" width="2.58" height="2.58" fill="#000000"/>
  <rect x="58.44" y="509.74" width="2.12" height="2.12" fill="#000000"/>
  <rect x="460.32" y="427.02" width="2.76" height="2.76" fill="#000000"/>
  <rect x="1.42" y="407.62" width="1.76" height="1.76" fill="#000000"/>
  <rect x="437.11" y="384.31" width="1.78" height="1.78" fill="#000000"/>
  <rect x="335.48" y="454.28" width="1.84" height="1.84" fill="#000000"/>
  <rect x="380.76" y="455.56" width="2.48" height="2.48" fill="#000000"/>
  <rect x="337.42" y="527.82" width="1.76" height="1.76" fill="#000000"/>
  <rect x="421.55" y="351.25" width="1.70" height="1.70" fill="#000000"/>
  <rect x="465.54" y="460.74" width="2.92" height="2.92" fill="#000000"/>
  <rect x="381.56" y="465.46" width="2.68" height="2.68" fill="#000000"/>
  <rect x="107.41" y="122.41" width="2.98" height="2.98" fill="#000000"/>
  <rect x="467.26" y="411.06" width="1.68" height="1.68" fill="#000000"/>
  <rect x="752.27" y="160.17" width="1.46" height="1.46" fill="#000000"/>
  <rect x="16.07" y="583.17" width="2.06" height="2.06" fill="#000000"/>
  <rect x="604.32" y="55.52" width="2.16" height="2.16" fill="#000000"/>
  <rect x="420.74" y="436.04" width="1.72" height="1.72" fill="#000000"/>
  <rect x="425.95" y="348.15" width="1.70" height="1.70" fill="#000000"/>
  <rect x="458.36" y="378.06" width="2.28" height="2.28" fill="#000000"/>
  <rect x="455.44" y="468.44" width="2.32" height="2.32" fill="#000000"/>
  <rect x="585.55" y="745.35" width="1.70" height="1.70" fill="#000000"/>
  <rect x="693.50" y="650.10" width="2.00" height="2.00" fill="#000000"/>
  <rect x="402.34" y="475.64" width="2.72" height="2.72" fill="#000000"/>
  <rect x="483.32" y="723.32" width="2.36" height="2.36" fill="#000000"/>
  <rect x="468.49" y="439.99" width="2.22" height="2.22" fill="#000000"/>
  <rect x="384.66" y="335.96" width="2.28" height="2.28" fill="#000000"/>
  <rect x="420.10" y="463.20" width="2.80" height="2.80" fill="#000000"/>
  <rect x="420.78" y="372.78" width="1.64" height="1.64" fill="#000000"/>
  <rect x="376.56" y="467.86" width="1.48" height="1.48" fill="#000000"/>
  <rect x="457.71" y="474.01" width="1.98" height="1.98" fill="#000000"/>
  <rect x="642.23" y="540.13" width="2.94" height="2.94" fill="#000000"/>
  <rect x="464.95" y="430.65" width="1.70" height="1.70" fill="#000000"/>
  <rect x="447.50" y="424.60" width="1.40" height="1.40" fill="#000000"/>
  <rect x="376.53" y="662.43" width="2.14" height="2.14" fill="#000000"/>
  <rect x="331.29" y="426.89" width="2.62" height="2.62" fill="#000000"/>
  <rect x="276.86" y="215.56" width="1.88" height="1.88" fill="#000000"/>
  <rect x="426.66" y="400.36" width="2.68" height="2.68" fill="#000000"/>
  <rect x="452.10" y="425.30" width="1.60" height="1.60" fill="#000000"/>
  <rect x="464.45" y="317.35" width="2.10" height="2.10" fill="#000000"/>
  <rect x="435.90" y="382.60" width="1.60" height="1.60" fill="#000000"/>
  <rect x="391.73" y="388.73" width="2.34" height="2.34" fill="#000000"/>
  <rect x="437.93" y="429.73" width="1.54" height="1.54" fill="#000000"/>
  <rect x="396.52" y="339.42" width="1.56" height="1.56" fill="#000000"/>
  <rect x="458.47" y="427.87" width="1.66" height="1.66" fill="#000000"/>
  <rect x="464.23" y="445.33" width="2.94" height="2.94" fill="#000000"/>
  <rect x="464.23" y="418.83" width="1.54" height="1.54" fill="#000000"/>
  <rect x="630.81" y="198.41" width="2.78" height="2.78" fill="#000000"/>
  <rect x="382.76" y="451.26" width="1.48" height="1.48" fill="#000000"/>
  <rect x="420.54" y="378.24" width="2.72" height="2.72" fill="#000000"/>
  <rect x="630.92" y="795.02" width="2.36" height="2.36" fill="#000000"/>
  <rect x="508.27" y="210.67" width="1.46" height="1.46" fill="#000000"/>
  <rect x="425.38" y="377.28" width="1.44" height="1.44" fill="#000000"/>
  <rect x="14.80" y="262.60" width="2.60" height="2.60" fill="#000000"/>
  <rect x="427.71" y="424.51" width="2.58" height="2.58" fill="#000000"/>
  <rect x="333.35" y="462.35" width="2.10" height="2.10" fill="#000000"/>
  <rect x="175.31" y="254.51" width="2.98" height="2.98" fill="#000000"/>
  <rect x="465.63" y="429.83" width="2.54" height="2.54" fill="#000000"/>
  <rect x="447.82" y="422.62" width="2.36" height="2.36" fill="#000000"/>
  <rect x="345.04" y="471.84" width="1.72" height="1.72" fill="#000000"/>
  <rect x="437.36" y="383.16" width="2.28" height="2.28" fill="#000000"/>
  <rect x="430.71" y="427.81" width="1.98" height="1.98" fill="#000000"/>
  <rect x="377.93" y="435.83" width="1.54" height="1.54" fill="#000000"/>
  <rect x="65.27" y="507.47" width="2.86" height="2.86" fill="#000000"/>
  <rect x="430.33" y="386.43" width="2.14" height="2.14" fill="#000000"/>
  <rect x="423.50" y="474.60" width="1.80" height="1.80" fill="#000000"/>
  <rect x="400.17" y="426.07" width="2.46" height="2.46" fill="#000000"/>
  <rect x="428.86" y="427.96" width="2.88" height="2.88" fill="#000000"/>
  <rect x="429.50" y="427.30" width="2.40" height="2.40" fill="#000000"/>
  <rect x="738.11" y="315.91" width="1.98" height="1.98" fill="#000000"/>
  <rect x="466.50" y="402.80" width="1.80" height="1.80" fill="#000000"/>
  <rect x="237.45" y="249.45" width="2.30" height="2.30" fill="#000000"/>
  <rect x="451.70" y="383.20" width="2.40" height="2.40" fill="#000000"/>
  <rect x="376.68" y="458.88" width="2.84" height="2.84" fill="#000000"/>
  <rect x="369.38" y="351.08" width="2.64" height="2.64" fill="#000000"/>
  <rect x="49.23" y="797.53" width="1.54" height="1.54" fill="#000000"/>
  <rect x="405.78" y="429.98" width="1.64" height="1.64" fill="#000000"/>
  <rect x="443.15" y="424.05" width="2.50" height="2.50" fill="#000000"/>
  <rect x="457.12" y="383.22" width="1.76" height="1.76" fill="#000000"/>
  <rect x="459.60" y="430.00" width="2.00" height="2.00" fill="#000000"/>
  <rect x="604.93" y="617.03" width="1.54" height="1.54" fill="#000000"/>
  <rect x="332.87" y="441.17" width="2.46" height="2.46" fill="#000000"/>
  <rect x="152.52" y="756.72" width="1.56" height="1.56" fill="#000000"/>
  <rect x="36.97" y="414.47" width="1.86" height="1.86" fill="#000000"/>
  <rect x="468.95" y="440.65" width="2.70" height="2.70" fill="#000000"/>
  <rect x="736.84" y="766.04" width="2.32" height="2.32" fill="#000000"/>
  <rect x="415.81" y="424.91" width="2.18" height="2.18" fill="#000000"/>
  <rect x="425.14" y="427.34" width="2.52" height="2.52" fill="#000000"/>
  <rect x="383.71" y="339.61" width="1.98" height="1.98" fill="#000000"/>
  <rect x="338.76" y="421.06" width="1.68" height="1.68" fill="#000000"/>
  <rect x="382.26" y="448.16" width="2.88" height="2.88" fill="#000000"/>
  <rect x="339.12" y="107.02" width="2.36" height="2.36" fill="#000000"/>
  <rect x="680.11" y="549.61" width="1.98" height="1.98" fill="#000000"/>
  <rect x="379.10" y="448.00" width="1.80" height="1.80" fill="#000000"/>
  <rect x="330.65" y="436.35" width="2.50" height="2.50" fill="#000000"/>
  <rect x="333.12" y="466.32" width="2.36" height="2.36" fill="#000000"/>
  <rect x="379.55" y="423.65" width="1.50" height="1.50" fill="#000000"/>
  <rect x="407.27" y="339.57" width="1.66" height="1.66" fill="#000000"/>
  <rect x="792.35" y="56.65" width="1.90" height="1.90" fill="#000000"/>
  <rect x="416.63" y="438.33" width="1.54" height="1.54" fill="#000000"/>
  <rect x="53.90" y="25.90" width="2.20" height="2.20" fill="#000000"/>
  <rect x="591.74" y="576.64" width="2.32" height="2.32" fill="#000000"/>
  <rect x="455.07" y="385.37" width="1.66" height="1.66" fill="#000000"/>
  <rect x="413.14" y="467.84" width="2.12" height="2.12" fill="#000000"/>
  <rect x="434.40" y="422.30" width="3.00" height="3.00" fill="#000000"/>
  <rect x="416.57" y="377.67" width="2.86" height="2.86" fill="#000000"/>
  <rect x="455.86" y="473.66" width="2.48" height="2.48" fill="#000000"/>
  <rect x="777.49" y="363.59" width="2.22" height="2.22" fill="#000000"/>
  <rect x="422.64" y="458.04" width="1.72" height="1.72" fill="#000000"/>
  <rect x="455.46" y="425.36" width="2.68" height="2.68" fill="#000000"/>
  <rect x="466.80" y="445.30" width="2.80" height="2.80" fill="#000000"/>
  <rect x="436.15" y="381.55" width="2.90" height="2.90" fill="#000000"/>
  <rect x="464.79" y="397.19" width="2.02" height="2.02" fill="#000000"/>
  <rect x="357.54" y="428.24" width="1.52" height="1.52" fill="#000000"/>
  <rect x="339.92" y="471.92" width="1.96" height="1.96" fill="#000000"/>
  <rect x="464.73" y="385.33" width="1.74" height="1.74" fill="#000000"/>
  <rect x="286.26" y="115.46" width="1.48" height="1.48" fill="#000000"/>
  <rect x="374.66" y="364.46" width="2.48" height="2.48" fill="#000000"/>
  <rect x="460.94" y="285.44" width="2.92" height="2.92" fill="#000000"/>
  <rect x="192.82" y="560.32" width="2.96" height="2.96" fill="#000000"/>
  <rect x="448.30" y="381.50" width="2.60" height="2.60" fill="#000000"/>
  <rect x="248.13" y="362.83" width="2.34" height="2.34" fill="#000000"/>
  <rect x="334.29" y="470.29" width="1.42" height="1.42" fill="#000000"/>
  <rect x="462.70" y="388.80" width="2.00" height="2.00" fill="#000000"/>
  <rect x="45.04" y="760.24" width="1.92" height="1.92" fill="#000000"/>
  <rect x="429.80" y="455.60" width="1.60" height="1.60" fill="#000000"/>
  <rect x="434.66" y="473.36" width="2.08" height="2.08" fill="#000000"/>
  <rect x="470.95" y="390.15" width="1.90" height="1.90" fill="#000000"/>
  <rect x="434.40" y="422.30" width="1.60" height="1.60" fill="#000000"/>
  <rect x="464.94" y="454.24" width="1.92" height="1.92" fill="#000000"/>
  <rect x="410.74" y="466.74" width="2.52" height="2.52" fill="#000000"/>
  <rect x="423.88" y="420.08" width="2.64" height="2.64" fill="#000000"/>
  <rect x="373.53" y="475.13" width="2.34" height="2.34" fill="#000000"/>
  <rect x="648.11" y="764.71" width="1.78" height="1.78" fill="#000000"/>
  <rect x="385.81" y="384.31" width="2.78" height="2.78" fill="#000000"/>
  <rect x="469.65" y="443.45" width="1.50" height="1.50" fill="#000000"/>
  <rect x="761.78" y="450.88" width="2.04" height="2.04" fill="#000000"/>
  <rect x="509.26" y="113.46" width="2.68" height="2.68" fill="#000000"/>
  <rect x="463.93" y="465.03" width="2.14" height="2.14" fill="#000000"/>
  <rect x="413.28" y="445.38" width="1.44" height="1.44" fill="#000000"/>
  <rect x="175.12" y="685.22" width="2.96" height="2.96" fill="#000000"/>
  <rect x="392.14" y="426.94" width="2.32" height="2.32" fill="#000000"/>
  <rect x="342.46" y="473.06" width="2.88" height="2.88" fill="#000000"/>
  <rect x="668.92" y="74.52" width="2.56" height="2.56" fill="#000000"/>
  <rect x="649.47" y="789.07" width="1.66" height="1.66" fill="#000000"/>
  <rect x="398.08" y="431.08" width="2.84" height="2.84" fill="#000000"/>
  <rect x="338.48" y="432.88" width="2.04" height="2.04" fill="#000000"/>
  <rect x="432.31" y="471.31" width="2.98" height="2.98" fill="#000000"/>
  <rect x="413.96" y="464.26" width="2.68" height="2.68" fill="#000000"/>
  <rect x="418.05" y="446.75" width="1.50" height="1.50" fill="#000000"/>
  <rect x="677.32" y="330.02" width="2.76" height="2.76" fill="#000000"/>
  <rect x="65.65" y="440.55" width="2.30" height="2.30" fill="#000000"/>
  <rect x="381.55" y="338.25" width="2.30" height="2.30" fill="#000000"/>
  <rect x="435.17" y="421.07" width="1.46" height="1.46" fill="#000000"/>
  <rect x="255.97" y="228.77" width="2.26" height="2.26" fill="#000000"/>
  <rect x="438.44" y="426.34" width="1.52" height="1.52" fill="#000000"/>
  <rect x="423.04" y="428.74" width="2.12" height="2.12" fill="#000000"/>
  <rect x="426.55" y="456.85" width="2.30" height="2.30" fill="#000000"/>
  <rect x="430.93" y="468.43" width="2.34" height="2.34" fill="#000000"/>
  <rect x="419.96" y="421.96" width="2.68" height="2.68" fill="#000000"/>
  <rect x="651.33" y="354.23" width="1.94" height="1.94" fill="#000000"/>
  <rect x="464.42" y="393.62" width="2.56" height="2.56" fill="#000000"/>
  <rect x="329.57" y="440.17" width="2.46" height="2.46" fill="#000000"/>
  <rect x="422.99" y="407.79" width="1.62" height="1.62" fill="#000000"/>
  <rect x="421.99" y="382.39" width="1.42" height="1.42" fill="#000000"/>
  <rect x="389.85" y="423.85" width="2.10" height="2.10" fill="#000000"/>
  <rect x="592.65" y="461.85" width="2.30" height="2.30" fill="#000000"/>
  <rect x="681.99" y="615.79" width="2.02" height="2.02" fill="#000000"/>
  <rect x="768.39" y="106.39" width="1.62" height="1.62" fill="#000000"/>
  <rect x="465.06" y="420.56" width="1.48" height="1.48" fill="#000000"/>
  <rect x="573.03" y="4.93" width="1.94" height="1.94" fill="#000000"/>
  <rect x="238.07" y="364.57" width="2.26" height="2.26" fill="#000000"/>
  <rect x="459.90" y="379.20" width="1.80" height="1.80" fill="#000000"/>
  <rect x="346.94" y="470.54" width="2.72" height="2.72" fill="#000000"/>
  <rect x="380.78" y="364.28" width="2.64" height="2.64" fill="#000000"/>
  <rect x="389.23" y="131.33" width="2.54" height="2.54" fill="#000000"/>
  <rect x="438.32" y="468.52" width="2.96" height="2.96" fill="#000000"/>
  <rect x="420.68" y="440.18" width="1.84" height="1.84" fill="#000000"/>
  <rect x="452.38" y="431.68" width="2.24" height="2.24" fill="#000000"/>
  <rect x="304.32" y="309.72" width="2.56" height="2.56" fill="#000000"/>
  <rect x="365.89" y="471.99" width="1.42" height="1.42" fill="#000000"/>
  <rect x="424.36" y="340.16" width="2.28" height="2.28" fill="#000000"/>
  <rect x="451.62" y="470.92" width="2.36" height="2.36" fill="#000000"/>
  <rect x="380.44" y="457.54" width="1.92" height="1.92" fill="#000000"/>
  <rect x="379.91" y="364.61" width="1.58" height="1.58" fill="#000000"/>
  <rect x="424.51" y="375.01" width="2.98" height="2.98" fill="#000000"/>
  <rect x="545.38" y="152.68" width="2.44" height="2.44" fill="#000000"/>
  <rect x="335.71" y="465.21" width="2.78" height="2.78" fill="#000000"/>
  <rect x="432.62" y="518.22" width="1.76" height="1.76" fill="#000000"/>
  <rect x="479.56" y="160.26" width="1.48" height="1.48" fill="#000000"/>
  <rect x="423.19" y="345.49" width="2.42" height="2.42" fill="#000000"/>
  <rect x="425.81" y="405.81" width="2.38" height="2.38" fill="#000000"/>
  <rect x="447.24" y="428.64" width="1.92" height="1.92" fill="#000000"/>
  <rect x="418.47" y="431.57" width="1.66" height="1.66" fill="#000000"/>
  <rect x="339.56" y="615.56" width="2.68" height="2.68" fill="#000000"/>
  <rect x="465.30" y="447.90" width="2.20" height="2.20" fill="#000000"/>
  <rect x="469.21" y="412.41" width="2.98" height="2.98" fill="#000000"/>
  <rect x="219.02" y="24.32" width="1.56" height="1.56" fill="#000000"/>
  <rect x="456.91" y="384.51" width="1.78" height="1.78" fill="#000000"/>
  <rect x="332.08" y="470.48" width="2.84" height="2.84" fill="#000000"/>
  <rect x="130.29" y="542.79" width="2.62" height="2.62" fill="#000000"/>
  <rect x="417.46" y="427.76" width="2.68" height="2.68" fill="#000000"/>
  <rect x="416.36" y="470.16" width="2.88" height="2.88" fill="#000000"/>
  <rect x="466.82" y="470.62" width="2.36" height="2.36" fill="#000000"/>
  <rect x="739.35" y="122.85" width="2.50" height="2.50" fill="#000000"/>
  <rect x="404.07" y="337.37" width="2.26" height="2.26" fill="#000000"/>
  <rect x="364.78" y="424.88" width="2.04" height="2.04" fill="#000000"/>
  <rect x="418.32" y="460.62" width="1.96" height="1.96" fill="#000000"/>
  <rect x="382.71" y="434.51" width="1.78" height="1.78" fill="#000000"/>
  <rect x="462.16" y="424.26" width="2.88" height="2.88" fill="#000000"/>
  <rect x="336.02" y="433.62" width="2.56" height="2.56" fill="#000000"/>
  <rect x="443.61" y="424.41" width="1.78" height="1.78" fill="#000000"/>
  <rect x="637.55" y="159.85" width="1.50" height="1.50" fill="#000000"/>
  <rect x="408.09" y="431.39" width="2.82" height="2.82" fill="#000000"/>
  <rect x="790.39" y="740.09" width="2.82" height="2.82" fill="#000000"/>
  <rect x="405.61" y="471.91" width="2.78" height="2.78" fill="#000000"/>
  <rect x="399.95" y="470.85" width="2.30" height="2.30" fill="#000000"/>
  <rect x="420.78" y="345.18" width="2.44" height="2.44" fill="#000000"/>
  <rect x="386.28" y="383.48" width="2.44" height="2.44" fill="#000000"/>
  <rect x="408.30" y="341.20" width="3.00" height="3.00" fill="#000000"/>
  <rect x="376.09" y="463.89" width="2.62" height="2.62" fill="#000000"/>
  <rect x="424.88" y="420.28" width="2.64" height="2.64" fill="#000000"/>
  <rect x="395.82" y="429.42" width="2.76" height="2.76" fill="#000000"/>
  <rect x="132.67" y="709.67" width="2.06" height="2.06" fill="#000000"/>
  <rect x="392.19" y="333.99" width="1.82" height="1.82" fill="#000000"/>
  <rect x="453.06" y="428.56" width="2.68" height="2.68" fill="#000000"/>
  <rect x="404.67" y="343.07" width="2.46" height="2.46" fill="#000000"/>
  <rect x="334.49" y="441.59" width="2.62" height="2.62" fill="#000000"/>
  <rect x="378.20" y="460.50" width="2.80" height="2.80" fill="#000000"/>
  <rect x="481.50" y="52.60" width="2.00" height="2.00" fill="#000000"/>
  <rect x="406.16" y="383.26" width="2.48" height="2.48" fill="#000000"/>
  <rect x="417.82" y="361.72" width="2.36" height="2.36" fill="#000000"/>
  <rect x="412.69" y="388.59" width="2.22" height="2.22" fill="#000000"/>
  <rect x="434.72" y="426.62" width="2.76" height="2.76" fill="#000000"/>
  <rect x="464.96" y="381.46" width="1.68" height="1.68" fill="#000000"/>
  <rect x="409.58" y="386.08" width="1.44" height="1.44" fill="#000000"/>
  <rect x="421.99" y="390.49" width="1.82" height="1.82" fill="#000000"/>
  <rect x="377.93" y="431.03" width="2.34" height="2.34" fill="#000000"/>
  <rect x="153.24" y="333.34" width="2.92" height="2.92" fill="#000000"/>
  <rect x="627.69" y="670.89" width="1.42" height="1.42" fill="#000000"/>
  <rect x="389.24" y="332.14" width="2.72" height="2.72" fill="#000000"/>
  <rect x="426.96" y="461.26" width="2.48" height="2.48" fill="#000000"/>
  <rect x="420.06" y="409.06" width="1.88" height="1.88" fill="#000000"/>
  <rect x="452.64" y="378.64" width="2.52" height="2.52" fill="#000000"/>
  <rect x="468.91" y="461.41" width="2.38" height="2.38" fill="#000000"/>
  <rect x="465.55" y="390.75" width="2.90" height="2.90" fill="#000000"/>
  <rect x="461.45" y="399.35" width="2.10" height="2.10" fill="#000000"/>
  <rect x="422.05" y="436.95" width="1.70" height="1.70" fill="#000000"/>
  <rect x="417.07" y="209.37" width="2.46" height="2.46" fill="#000000"/>
  <rect x="449.44" y="722.14" width="2.52" height="2.52" fill="#000000"/>
  <rect x="280.62" y="573.82" width="2.56" height="2.56" fill="#000000"/>
  <rect x="383.47" y="426.97" width="2.06" height="2.06" fill="#000000"/>
  <rect x="109.68" y="572.28" width="1.44" height="1.44" fill="#000000"/>
  <rect x="383.01" y="347.31" width="1.78" height="1.78" fill="#000000"/>
  <rect x="441.59" y="469.59" width="2.62" height="2.62" fill="#000000"/>
  <rect x="294.20" y="161.50" width="2.80" height="2.80" fill="#000000"/>
  <rect x="415.22" y="333.52" width="2.96" height="2.96" fill="#000000"/>
  <rect x="379.79" y="433.99" width="2.02" height="2.02" fill="#000000"/>
  <rect x="355.10" y="428.60" width="1.60" height="1.60" fill="#000000"/>
  <rect x="339.23" y="464.83" width="2.94" height="2.94" fill="#000000"/>
  <rect x="461.53" y="385.63" width="1.54" height="1.54" fill="#000000"/>
  <rect x="427.83" y="387.03" width="1.94" height="1.94" fill="#000000"/>
  <rect x="461.53" y="707.03" width="2.14" height="2.14" fill="#000000"/>
  <rect x="448.15" y="96.35" width="2.30" height="2.30" fill="#000000"/>
  <rect x="212.04" y="694.14" width="2.12" height="2.12" fill="#000000"/>
  <rect x="286.43" y="499.93" width="2.34" height="2.34" fill="#000000"/>
  <rect x="420.94" y="390.84" width="1.52" height="1.52" fill="#000000"/>
  <rect x="665.61" y="132.71" width="1.58" height="1.58" fill="#000000"/>
  <rect x="567.21" y="588.61" width="1.98" height="1.98" fill="#000000"/>
  <rect x="379.71" y="374.51" width="2.98" height="2.98" fill="#000000"/>
  <rect x="414.69" y="467.69" width="2.62" height="2.62" fill="#000000"/>
  <rect x="460.64" y="385.44" width="2.12" height="2.12" fill="#000000"/>
  <rect x="376.37" y="454.07" width="1.46" height="1.46" fill="#000000"/>
  <rect x="428.86" y="367.46" width="2.88" height="2.88" fill="#000000"/>
  <rect x="423.61" y="354.61" width="1.98" height="1.98" fill="#000000"/>
  <rect x="468.87" y="432.37" width="1.86" height="1.86" fill="#000000"/>
  <rect x="362.83" y="421.83" width="1.74" height="1.74" fill="#000000"/>
  <rect x="372.93" y="459.23" width="2.94" height="2.94" fill="#000000"/>
  <rect x="610.16" y="186.66" width="2.08" height="2.08" fill="#000000"/>
  <rect x="398.04" y="420.54" width="2.92" height="2.92" fill="#000000"/>
  <rect x="143.41" y="259.91" width="2.18" height="2.18" fill="#000000"/>
  <rect x="409.94" y="334.44" width="2.12" height="2.12" fill="#000000"/>
  <rect x="635.10" y="370.60" width="1.40" height="1.40" fill="#000000"/>
  <rect x="471.18" y="441.38" width="2.64" height="2.64" fill="#000000"/>
  <rect x="416.74" y="365.34" width="2.12" height="2.12" fill="#000000"/>
  <rect x="104.34" y="600.94" width="2.72" height="2.72" fill="#000000"/>
  <rect x="468.98" y="457.88" width="2.64" height="2.64" fill="#000000"/>
  <rect x="413.16" y="469.46" width="2.68" height="2.68" fill="#000000"/>
  <rect x="424.43" y="474.63" width="2.14" height="2.14" fill="#000000"/>
  <rect x="469.26" y="439.16" width="1.88" height="1.88" fill="#000000"/>
  <rect x="232.98" y="787.58" width="2.44" height="2.44" fill="#000000"/>
  <rect x="361.74" y="425.04" width="1.72" height="1.72" fill="#000000"/>
  <rect x="423.14" y="369.74" width="1.92" height="1.92" fill="#000000"/>
  <rect x="431.15" y="468.85" width="2.90" height="2.90" fill="#000000"/>
  <rect x="482.09" y="386.99" width="2.42" height="2.42" fill="#000000"/>
  <rect x="760.93" y="494.63" width="1.54" height="1.54" fill="#000000"/>
  <rect x="378.76" y="346.86" width="2.48" height="2.48" fill="#000000"/>
  <rect x="349.06" y="469.16" width="2.28" height="2.28" fill="#000000"/>
  <rect x="450.24" y="426.84" width="1.52" height="1.52" fill="#000000"/>
  <rect x="390.85" y="390.65" width="2.30" height="2.30" fill="#000000"/>
  <rect x="403.59" y="382.49" width="2.22" height="2.22" fill="#000000"/>
  <rect x="425.13" y="359.93" width="2.74" height="2.74" fill="#000000"/>
  <rect x="469.01" y="393.41" width="2.38" height="2.38" fill="#000000"/>
  <rect x="463.05" y="396.15" width="2.50" height="2.50" fill="#000000"/>
  <rect x="371.18" y="355.48" width="2.04" height="2.04" fill="#000000"/>
  <rect x="469.74" y="422.14" width="1.52" height="1.52" fill="#000000"/>
  <rect x="443.25" y="428.45" width="1.50" height="1.50" fill="#000000"/>
  <rect x="100.71" y="684.21" width="1.78" height="1.78" fill="#000000"/>
  <rect x="381.36" y="239.16" width="1.68" height="1.68" fill="#000000"/>
  <rect x="195.50" y="26.10" width="1.80" height="1.80" fill="#000000"/>
  <rect x="418.88" y="447.18" width="2.04" height="2.04" fill="#000000"/>
  <rect x="788.68" y="352.08" width="1.44" height="1.44" fill="#000000"/>
  <rect x="751.73" y="349.13" width="2.34" height="2.34" fill="#000000"/>
  <rect x="340.29" y="470.69" width="2.42" height="2.42" fill="#000000"/>
  <rect x="417.55" y="369.65" width="1.50" height="1.50" fill="#000000"/>
  <rect x="422.75" y="424.05" width="2.10" height="2.10" fill="#000000"/>
  <rect x="464.42" y="422.92" width="1.76" height="1.76" fill="#000000"/>
  <rect x="443.72" y="473.02" width="2.36" height="2.36" fill="#000000"/>
  <rect x="789.96" y="754.06" width="2.48" height="2.48" fill="#000000"/>
  <rect x="421.18" y="433.98" width="2.64" height="2.64" fill="#000000"/>
  <rect x="416.98" y="457.38" width="2.04" height="2.04" fill="#000000"/>
  <rect x="374.28" y="749.58" width="2.44" height="2.44" fill="#000000"/>
  <rect x="464.75" y="410.15" width="2.10" height="2.10" fill="#000000"/>
  <rect x="383.01" y="371.81" width="2.98" height="2.98" fill="#000000"/>
  <rect x="345.38" y="467.48" width="2.04" height="2.04" fill="#000000"/>
  <rect x="532.73" y="710.93" width="2.94" height="2.94" fill="#000000"/>
  <rect x="729.29" y="526.79" width="2.42" height="2.42" fill="#000000"/>
  <rect x="602.60" y="609.10" width="2.60" height="2.60" fill="#000000"/>
  <rect x="245.11" y="298.61" width="2.18" height="2.18" fill="#000000"/>
  <rect x="411.07" y="426.07" width="1.66" height="1.66" fill="#000000"/>
  <rect x="372.97" y="425.17" width="2.06" height="2.06" fill="#000000"/>
  <rect x="626.09" y="110.29" width="1.42" height="1.42" fill="#000000"/>
  <rect x="415.76" y="384.66" width="2.48" height="2.48" fill="#000000"/>
  <rect x="648.61" y="719.91" width="2.98" height="2.98" fill="#000000"/>
  <rect x="360.58" y="469.18" width="2.24" height="2.24" fill="#000000"/>
  <rect x="767.74" y="112.04" width="2.72" height="2.72" fill="#000000"/>
  <rect x="347.07" y="423.07" width="2.46" height="2.46" fill="#000000"/>
  <rect x="283.78" y="156.88" width="1.44" height="1.44" fill="#000000"/>
  <rect x="437.81" y="472.61" width="2.18" height="2.18" fill="#000000"/>
  <rect x="399.78" y="425.58" width="1.64" height="1.64" fill="#000000"/>
  <rect x="370.27" y="424.47" width="1.66" height="1.66" fill="#000000"/>
  <rect x="379.01" y="443.61" width="1.98" height="1.98" fill="#000000"/>
  <rect x="464.58" y="470.68" width="1.84" height="1.84" fill="#000000"/>
  <rect x="377.64" y="427.74" width="2.32" height="2.32" fill="#000000"/>
  <rect x="450.63" y="424.03" width="2.34" height="2.34" fill="#000000"/>
  <rect x="172.09" y="754.59" width="2.22" height="2.22" fill="#000000"/>
  <rect x="428.48" y="381.18" width="2.24" height="2.24" fill="#000000"/>
  <rect x="444.86" y="425.76" width="2.48" height="2.48" fill="#000000"/>
  <rect x="335.61" y="78.51" width="1.98" height="1.98" fill="#000000"/>
  <rect x="108.66" y="59.96" width="2.88" height="2.88" fill="#000000"/>
  <rect x="398.69" y="429.09" width="2.82" height="2.82" fill="#000000"/>
  <rect x="342.28" y="426.58" width="1.84" height="1.84" fill="#000000"/>
  <rect x="381.63" y="456.33" width="2.54" height="2.54" fill="#000000"/>
  <rect x="102.74" y="410.34" width="1.92" height="1.92" fill="#000000"/>
  <rect x="736.25" y="68.05" width="1.90" height="1.90" fill="#000000"/>
  <rect x="777.91" y="653.91" width="1.98" height="1.98" fill="#000000"/>
  <rect x="466.08" y="466.48" width="2.84" height="2.84" fill="#000000"/>
  <rect x="158.87" y="437.27" width="1.86" height="1.86" fill="#000000"/>
  <rect x="748.51" y="595.91" width="2.38" height="2.38" fill="#000000"/>
  <rect x="409.44" y="334.14" width="1.72" height="1.72" fill="#000000"/>
  <rect x="623.57" y="487.07" width="2.06" height="2.06" fill="#000000"/>
  <rect x="449.78" y="426.08" width="2.24" height="2.24" fill="#000000"/>
  <rect x="381.43" y="446.13" width="1.74" height="1.74" fill="#000000"/>
  <rect x="387.68" y="241.68" width="1.44" height="1.44" fill="#000000"/>
  <rect x="264.78" y="276.38" width="1.64" height="1.64" fill="#000000"/>
  <rect x="463.36" y="451.76" width="1.48" height="1.48" fill="#000000"/>
  <rect x="381.22" y="362.62" width="2.96" height="2.96" fill="#000000"/>
  <rect x="398.01" y="178.11" width="2.18" height="2.18" fill="#000000"/>
  <rect x="417.11" y="427.31" width="2.78" height="2.78" fill="#000000"/>
  <rect x="382.15" y="465.95" width="2.70" height="2.70" fill="#000000"/>
  <rect x="375.25" y="462.75" width="1.50" height="1.50" fill="#000000"/>
  <rect x="381.33" y="479.33" width="2.54" height="2.54" fill="#000000"/>
  <rect x="424.55" y="460.25" width="1.50" height="1.50" fill="#000000"/>
  <rect x="638.79" y="236.79" width="1.42" height="1.42" fill="#000000"/>
  <rect x="475.32" y="231.62" width="2.56" height="2.56" fill="#000000"/>
  <rect x="42.11" y="104.51" width="1.58" height="1.58" fill="#000000"/>
  <rect x="397.20" y="421.50" width="3.00" height="3.00" fill="#000000"/>
  <rect x="240.09" y="243.29" width="1.62" height="1.62" fill="#000000"/>
  <rect x="420.75" y="385.45" width="2.10" height="2.10" fill="#000000"/>
  <rect x="372.09" y="471.29" width="2.42" height="2.42" fill="#000000"/>
  <rect x="459.47" y="426.97" width="1.86" height="1.86" fill="#000000"/>
  <rect x="556.37" y="9.27" width="2.46" height="2.46" fill="#000000"/>
  <rect x="468.42" y="404.62" width="2.56" height="2.56" fill="#000000"/>
  <rect x="457.22" y="468.12" width="1.56" height="1.56" fill="#000000"/>
  <rect x="377.67" y="447.17" width="1.66" height="1.66" fill="#000000"/>
  <rect x="419.66" y="400.96" width="2.48" height="2.48" fill="#000000"/>
  <rect x="410.34" y="424.74" width="1.92" height="1.92" fill="#000000"/>
  <rect x="465.13" y="413.93" width="2.94" height="2.94" fill="#000000"/>
  <rect x="552.14" y="144.24" width="2.12" height="2.12" fill="#000000"/>
  <rect x="587.94" y="397.34" width="2.12" height="2.12" fill="#000000"/>
  <rect x="423.30" y="437.60" width="2.60" height="2.60" fill="#000000"/>
  <rect x="450.51" y="473.11" width="2.78" height="2.78" fill="#000000"/>
  <rect x="405.03" y="470.43" width="1.54" height="1.54" fill="#000000"/>
  <rect x="27.83" y="691.23" width="2.14" height="2.14" fill="#000000"/>
  <rect x="448.13" y="468.53" width="2.34" height="2.34" fill="#000000"/>
  <rect x="380.23" y="466.03" width="2.54" height="2.54" fill="#000000"/>
  <rect x="423.42" y="426.32" width="2.16" height="2.16" fill="#000000"/>
  <rect x="412.30" y="337.70" width="1.80" height="1.80" fill="#000000"/>
  <rect x="424.49" y="469.69" width="2.82" height="2.82" fill="#000000"/>
  <rect x="112.70" y="616.70" width="2.20" height="2.20" fill="#000000"/>
  <rect x="297.99" y="322.39" width="2.62" height="2.62" fill="#000000"/>
  <rect x="376.64" y="433.14" width="1.92" height="1.92" fill="#000000"/>
  <rect x="405.56" y="380.56" width="2.28" height="2.28" fill="#000000"/>
  <rect x="425.85" y="353.05" width="1.50" height="1.50" fill="#000000"/>
  <rect x="356.35" y="429.35" width="1.90" height="1.90" fill="#000000"/>
  <rect x="382.29" y="351.99" width="2.02" height="2.02" fill="#000000"/>
  <rect x="465.69" y="440.49" width="2.22" height="2.22" fill="#000000"/>
  <rect x="419.02" y="464.72" width="1.96" height="1.96" fill="#000000"/>
  <rect x="337.75" y="426.55" width="2.90" height="2.90" fill="#000000"/>
  <rect x="455.67" y="435.47" width="1.86" height="1.86" fill="#000000"/>
  <rect x="419.36" y="422.96" width="2.48" height="2.48" fill="#000000"/>
  <rect x="336.92" y="719.72" width="2.36" height="2.36" fill="#000000"/>
  <rect x="435.39" y="384.29" width="2.22" height="2.22" fill="#000000"/>
  <rect x="398.17" y="337.57" width="2.66" height="2.66" fill="#000000"/>
  <rect x="382.67" y="432.87" width="2.26" height="2.26" fill="#000000"/>
  <rect x="378.29" y="443.19" width="2.62" height="2.62" fill="#000000"/>
  <rect x="417.66" y="470.36" width="1.68" height="1.68" fill="#000000"/>
  <rect x="421.44" y="349.84" width="2.12" height="2.12" fill="#000000"/>
  <rect x="434.32" y="474.42" width="2.56" height="2.56" fill="#000000"/>
  <rect x="439.68" y="423.48" width="1.84" height="1.84" fill="#000000"/>
  <rect x="472.16" y="415.26" width="2.68" height="2.68" fill="#000000"/>
  <rect x="421.44" y="470.84" width="1.92" height="1.92" fill="#000000"/>
  <rect x="89.08" y="687.38" width="2.84" height="2.84" fill="#000000"/>
  <rect x="351.63" y="470.23" width="2.94" height="2.94" fill="#000000"/>
  <rect x="422.26" y="430.06" width="2.88" height="2.88" fill="#000000"/>
  <rect x="125.52" y="455.92" width="2.96" height="2.96" fill="#000000"/>
  <rect x="38.65" y="108.35" width="2.10" height="2.10" fill="#000000"/>
  <rect x="730.41" y="137.61" width="2.38" height="2.38" fill="#000000"/>
  <rect x="464.98" y="392.88" width="2.84" height="2.84" fill="#000000"/>
  <rect x="62.03" y="126.03" width="1.94" height="1.94" fill="#000000"/>
  <rect x="512.81" y="163.61" width="2.78" height="2.78" fill="#000000"/>
  <rect x="469.85" y="427.35" width="1.70" height="1.70" fill="#000000"/>
  <rect x="412.30" y="337.00" width="2.60" height="2.60" fill="#000000"/>
  <rect x="448.53" y="427.63" width="2.94" height="2.94" fill="#000000"/>
  <rect x="142.09" y="307.89" width="1.62" height="1.62" fill="#000000"/>
  <rect x="428.68" y="470.78" width="1.84" height="1.84" fill="#000000"/>
  <rect x="38.06" y="764.16" width="1.68" height="1.68" fill="#000000"/>
  <rect x="178.10" y="4.70" width="1.60" height="1.60" fill="#000000"/>
  <rect x="467.45" y="398.05" width="2.70" height="2.70" fill="#000000"/>
  <rect x="356.92" y="146.62" width="1.56" height="1.56" fill="#000000"/>
  <rect x="258.27" y="347.57" width="1.66" height="1.66" fill="#000000"/>
  <rect x="400.47" y="425.17" width="1.86" height="1.86" fill="#000000"/>
  <rect x="571.08" y="738.68" width="1.64" height="1.64" fill="#000000"/>
  <rect x="415.30" y="427.10" width="2.80" height="2.80" fill="#000000"/>
  <rect x="96.75" y="104.25" width="2.50" height="2.50" fill="#000000"/>
  <rect x="441.51" y="428.91" width="1.58" height="1.58" fill="#000000"/>
  <rect x="402.99" y="424.19" width="2.22" height="2.22" fill="#000000"/>
  <rect x="512.59" y="393.99" width="1.82" height="1.82" fill="#000000"/>
  <rect x="13.61" y="240.61" width="2.18" height="2.18" fill="#000000"/>
  <rect x="226.79" y="231.09" width="2.42" height="2.42" fill="#000000"/>
  <rect x="378.54" y="368.44" width="2.12" height="2.12" fill="#000000"/>
  <rect x="422.33" y="383.53" width="2.34" height="2.34" fill="#000000"/>
  <rect x="447.71" y="429.51" width="2.18" height="2.18" fill="#000000"/>
  <rect x="469.12" y="401.62" width="1.96" height="1.96" fill="#000000"/>
  <rect x="465.43" y="469.93" width="2.54" height="2.54" fill="#000000"/>
  <rect x="662.21" y="439.91" width="1.58" height="1.58" fill="#000000"/>
  <rect x="466.67" y="464.27" width="2.46" height="2.46" fill="#000000"/>
  <rect x="377.26" y="433.66" width="2.88" height="2.88" fill="#000000"/>
  <rect x="342.97" y="424.97" width="1.66" height="1.66" fill="#000000"/>
  <rect x="176.97" y="112.07" width="2.66" height="2.66" fill="#000000"/>
  <rect x="24.41" y="655.01" width="1.58" height="1.58" fill="#000000"/>
  <rect x="411.49" y="342.29" width="1.82" height="1.82" fill="#000000"/>
  <rect x="475.20" y="708.90" width="1.80" height="1.80" fill="#000000"/>
  <rect x="583.90" y="325.20" width="2.20" height="2.20" fill="#000000"/>
  <rect x="413.79" y="472.39" width="2.42" height="2.42" fill="#000000"/>
  <rect x="123.52" y="752.62" width="2.16" height="2.16" fill="#000000"/>
  <rect x="401.29" y="429.89" width="2.62" height="2.62" fill="#000000"/>
  <rect x="360.55" y="470.65" width="2.10" height="2.10" fill="#000000"/>
  <rect x="473.62" y="431.32" width="2.36" height="2.36" fill="#000000"/>
  <rect x="382.98" y="618.58" width="2.24" height="2.24" fill="#000000"/>
  <rect x="401.92" y="466.62" width="2.76" height="2.76" fill="#000000"/>
  <rect x="468.17" y="391.27" width="2.86" height="2.86" fill="#000000"/>
  <rect x="420.40" y="402.30" width="1.80" height="1.80" fill="#000000"/>
  <rect x="396.81" y="435.01" width="1.78" height="1.78" fill="#000000"/>
  <rect x="89.74" y="420.24" width="2.92" height="2.92" fill="#000000"/>
  <rect x="427.11" y="458.71" width="1.58" height="1.58" fill="#000000"/>
  <rect x="375.36" y="455.46" width="2.68" height="2.68" fill="#000000"/>
  <rect x="379.46" y="450.86" width="2.48" height="2.48" fill="#000000"/>
  <rect x="421.32" y="439.72" width="2.96" height="2.96" fill="#000000"/>
  <rect x="420.48" y="451.68" width="1.64" height="1.64" fill="#000000"/>
  <rect x="330.95" y="456.65" width="2.90" height="2.90" fill="#000000"/>
  <rect x="386.64" y="424.34" width="2.32" height="2.32" fill="#000000"/>
  <rect x="280.15" y="451.55" width="2.30" height="2.30" fill="#000000"/>
  <rect x="450.53" y="422.33" width="2.94" height="2.94" fill="#000000"/>
  <rect x="465.78" y="431.68" width="2.04" height="2.04" fill="#000000"/>
  <rect x="600.46" y="409.06" width="2.28" height="2.28" fill="#000000"/>
  <rect x="485.78" y="625.98" width="2.04" height="2.04" fill="#000000"/>
  <rect x="460.57" y="433.67" width="1.66" height="1.66" fill="#000000"/>
  <rect x="403.13" y="467.43" width="2.54" height="2.54" fill="#000000"/>
  <rect x="330.77" y="451.67" width="1.66" height="1.66" fill="#000000"/>
  <rect x="263.34" y="353.54" width="1.92" height="1.92" fill="#000000"/>
  <rect x="470.68" y="431.78" width="2.84" height="2.84" fill="#000000"/>
  <rect x="466.50" y="470.10" width="1.60" height="1.60" fill="#000000"/>
  <rect x="420.87" y="426.87" width="1.86" height="1.86" fill="#000000"/>
  <rect x="536.23" y="661.53" width="2.74" height="2.74" fill="#000000"/>
  <rect x="458.90" y="470.20" width="2.20" height="2.20" fill="#000000"/>
  <rect x="379.54" y="435.44" width="1.92" height="1.92" fill="#000000"/>
  <rect x="436.61" y="466.51" width="2.38" height="2.38" fill="#000000"/>
  <rect x="337.93" y="429.93" width="2.14" height="2.14" fill="#000000"/>
  <rect x="469.54" y="445.44" width="2.92" height="2.92" fill="#000000"/>
  <rect x="404.06" y="378.16" width="1.48" height="1.48" fill="#000000"/>
  <rect x="337.06" y="454.36" width="2.88" height="2.88" fill="#000000"/>
  <rect x="378.19" y="429.99" width="2.82" height="2.82" fill="#000000"/>
  <rect x="384.27" y="466.67" width="2.66" height="2.66" fill="#000000"/>
  <rect x="410.75" y="778.05" width="2.70" height="2.70" fill="#000000"/>
  <rect x="422.00" y="462.70" width="2.20" height="2.20" fill="#000000"/>
  <rect x="276.74" y="117.54" width="2.92" height="2.92" fill="#000000"/>
  <rect x="333.65" y="437.35" width="2.30" height="2.30" fill="#000000"/>
  <rect x="447.74" y="437.14" width="2.12" height="2.12" fill="#000000"/>
  <rect x="403.45" y="424.85" width="1.90" height="1.90" fill="#000000"/>
  <rect x="422.51" y="369.91" width="2.78" height="2.78" fill="#000000"/>
  <rect x="404.81" y="338.71" width="2.58" height="2.58" fill="#000000"/>
  <rect x="404.57" y="382.37" width="1.66" height="1.66" fill="#000000"/>
  <rect x="272.37" y="329.47" width="1.66" height="1.66" fill="#000000"/>
  <rect x="436.75" y="468.15" width="2.30" height="2.30" fill="#000000"/>
  <rect x="671.17" y="753.27" width="2.26" height="2.26" fill="#000000"/>
  <rect x="431.37" y="423.47" width="2.46" height="2.46" fill="#000000"/>
  <rect x="378.72" y="345.32" width="1.56" height="1.56" fill="#000000"/>
  <rect x="388.28" y="469.98" width="2.44" height="2.44" fill="#000000"/>
  <rect x="464.50" y="381.90" width="2.20" height="2.20" fill="#000000"/>
  <rect x="771.44" y="652.94" width="2.92" height="2.92" fill="#000000"/>
  <rect x="521.41" y="612.51" width="2.38" height="2.38" fill="#000000"/>
  <rect x="425.75" y="397.05" width="2.90" height="2.90" fill="#000000"/>
  <rect x="528.79" y="270.69" width="1.42" height="1.42" fill="#000000"/>
  <rect x="351.50" y="474.90" width="2.00" height="2.00" fill="#000000"/>
  <rect x="335.58" y="440.18" width="1.64" height="1.64" fill="#000000"/>
  <rect x="435.91" y="439.91" width="1.98" height="1.98" fill="#000000"/>
  <rect x="420.02" y="375.12" width="2.36" height="2.36" fill="#000000"/>
  <rect x="242.73" y="798.73" width="2.34" height="2.34" fill="#000000"/>
  <rect x="376.86" y="352.86" width="1.48" height="1.48" fill="#000000"/>
  <rect x="449.53" y="430.43" width="2.54" height="2.54" fill="#000000"/>
  <rect x="568.17" y="299.07" width="2.86" height="2.86" fill="#000000"/>
  <rect x="423.04" y="358.54" width="2.32" height="2.32" fill="#000000"/>
  <rect x="358.05" y="422.65" width="2.10" height="2.10" fill="#000000"/>
  <rect x="579.21" y="634.91" width="2.78" height="2.78" fill="#000000"/>
  <rect x="273.23" y="676.03" width="2.54" height="2.54" fill="#000000"/>
  <rect x="367.46" y="539.06" width="1.68" height="1.68" fill="#000000"/>
  <rect x="120.16" y="13.86" width="2.68" height="2.68" fill="#000000"/>
  <rect x="283.10" y="726.80" width="1.80" height="1.80" fill="#000000"/>
  <rect x="378.51" y="362.81" width="1.78" height="1.78" fill="#000000"/>
  <rect x="471.76" y="295.16" width="1.48" height="1.48" fill="#000000"/>
  <rect x="356.36" y="474.56" width="2.88" height="2.88" fill="#000000"/>
</svg>
