<svg viewBox="0 0 800 800" xmlns="http://www.w3.org/2000/svg">
  <rect x="222.37" y="285.87" width="2.06" height="2.06" fill="#000000"/>
  <rect x="484.31" y="297.51" width="1.78" height="1.78" fill="#000000"/>
  <rect x="322.34" y="374.94" width="2.32" height="2.32" fill="#000000"/>
  <rect x="420.64" y="264.54" width="2.32" height="2.32" fill="#000000"/>
  <rect x="404.44" y="420.24" width="2.92" height="2.92" fill="#000000"/>
  <rect x="370.74" y="449.14" width="2.12" height="2.12" fill="#000000"/>
  <rect x="522.29" y="349.19" width="2.82" height="2.82" fill="#000000"/>
  <rect x="354.08" y="398.28" width="1.44" height="1.44" fill="#000000"/>
  <rect x="12.75" y="725.45" width="1.50" height="1.50" fill="#000000"/>
  <rect x="110.48" y="239.18" width="1.84" height="1.84" fill="#000000"/>
  <rect x="368.73" y="470.23" width="1.94" height="1.94" fill="#000000"/>
  <rect x="271.07" y="193.17" width="2.06" height="2.06" fill="#000000"/>
  <rect x="135.26" y="70.76" width="1.88" height="1.88" fill="#000000"/>
  <rect x="491.93" y="315.63" width="2.74" height="2.74" fill="#000000"/>
  <rect x="331.41" y="286.11" width="2.38" height="2.38" fill="#000000"/>
  <rect x="457.83" y="259.13" width="1.74" height="1.74" fill="#000000"/>
  <rect x="322.07" y="393.57" width="1.66" height="1.66" fill="#000000"/>
  <rect x="189.35" y="47.15" width="2.30" height="2.30" fill="#000000"/>
  <rect x="340.92" y="513.22" width="2.36" height="2.36" fill="#000000"/>
  <rect x="392.00" y="415.30" width="2.40" height="2.40" fill="#000000"/>
  <rect x="687.76" y="183.46" width="1.48" height="1.48" fill="#000000"/>
  <rect x="316.45" y="377.95" width="2.90" height="2.90" fill="#000000"/>
  <rect x="483.47" y="641.17" width="1.46" height="1.46" fill="#000000"/>
  <rect x="415.13" y="432.53" width="1.54" height="1.54" fill="#000000"/>
  <rect x="503.38" y="277.08" width="1.44" height="1.44" fill="#000000"/>
  <rect x="467.53" y="449.93" width="1.94" height="1.94" fill="#000000"/>
  <rect x="369.90" y="791.60" width="1.80" height="1.80" fill="#000000"/>
  <rect x="86.29" y="608.99" width="1.42" height="1.42" fill="#000000"/>
  <rect x="384.80" y="433.30" width="2.80" height="2.80" fill="#000000"/>
  <rect x="755.05" y="165.25" width="1.90" height="1.90" fill="#000000"/>
  <rect x="159.65" y="77.65" width="2.70" height="2.70" fill="#000000"/>
  <rect x="351.49" y="504.39" width="1.42" height="1.42" fill="#000000"/>
  <rect x="152.02" y="439.62" width="2.36" height="2.36" fill="#000000"/>
  <rect x="371.64" y="406.74" width="1.72" height="1.72" fill="#000000"/>
  <rect x="356.85" y="398.05" width="2.90" height="2.90" fill="#000000"/>
  <rect x="437.68" y="445.58" width="1.84" height="1.84" fill="#000000"/>
  <rect x="477.31" y="302.21" width="2.18" height="2.18" fill="#000000"/>
  <rect x="405.08" y="422.18" width="1.44" height="1.44" fill="#000000"/>
  <rect x="520.55" y="346.05" width="1.70" height="1.70" fill="#000000"/>
  <rect x="509.07" y="359.87" width="2.86" height="2.86" fill="#000000"/>
  <rect x="325.00" y="261.70" width="2.40" height="2.40" fill="#000000"/>
  <rect x="375.77" y="406.07" width="2.86" height="2.86" fill="#000000"/>
  <rect x="390.28" y="445.68" width="2.84" height="2.84" fill="#000000"/>
  <rect x="438.11" y="454.31" width="2.18" height="2.18" fill="#000000"/>
  <rect x="499.32" y="389.82" width="2.36" height="2.36" fill="#000000"/>
  <rect x="397.97" y="276.17" width="2.86" height="2.86" fill="#000000"/>
  <rect x="348.12" y="794.02" width="2.36" height="2.36" fill="#000000"/>
  <rect x="389.91" y="441.61" width="2.18" height="2.18" fill="#000000"/>
  <rect x="626.37" y="740.37" width="2.26" height="2.26" fill="#000000"/>
  <rect x="340.35" y="300.95" width="2.50" height="2.50" fill="#000000"/>
  <rect x="360.69" y="467.49" width="1.82" height="1.82" fill="#000000"/>
  <rect x="449.07" y="260.67" width="1.46" height="1.46" fill="#000000"/>
  <rect x="377.10" y="402.10" width="2.60" height="2.60" fill="#000000"/>
  <rect x="507.87" y="358.47" width="1.86" height="1.86" fill="#000000"/>
  <rect x="458.17" y="257.97" width="1.46" height="1.46" fill="#000000"/>
  <rect x="515.51" y="326.41" width="2.18" height="2.18" fill="#000000"/>
  <rect x="26.26" y="227.66" width="2.88" height="2.88" fill="#000000"/>
  <rect x="364.90" y="401.90" width="1.40" height="1.40" fill="#000000"/>
  <rect x="348.41" y="280.11" width="1.78" height="1.78" fill="#000000"/>
  <rect x="480.33" y="455.13" width="2.54" height="2.54" fill="#000000"/>
  <rect x="19.45" y="47.75" width="2.10" height="2.10" fill="#000000"/>
  <rect x="494.71" y="431.91" width="2.58" height="2.58" fill="#000000"/>
  <rect x="16.45" y="695.35" width="1.50" height="1.50" fill="#000000"/>
  <rect x="518.85" y="346.85" width="2.50" height="2.50" fill="#000000"/>
  <rect x="401.36" y="352.36" width="2.68" height="2.68" fill="#000000"/>
  <rect x="511.35" y="348.75" width="2.50" height="2.50" fill="#000000"/>
  <rect x="336.25" y="36.85" width="2.30" height="2.30" fill="#000000"/>
  <rect x="691.10" y="550.00" width="2.80" height="2.80" fill="#000000"/>
  <rect x="464.99" y="260.99" width="2.42" height="2.42" fill="#000000"/>
  <rect x="740.44" y="18.44" width="1.92" height="1.92" fill="#000000"/>
  <rect x="376.56" y="409.66" width="2.48" height="2.48" fill="#000000"/>
  <rect x="334.97" y="75.87" width="2.66" height="2.66" fill="#000000"/>
  <rect x="663.74" y="761.74" width="1.72" height="1.72" fill="#000000"/>
  <rect x="420.75" y="421.05" width="2.10" height="2.10" fill="#000000"/>
  <rect x="480.24" y="465.54" width="2.12" height="2.12" fill="#000000"/>
  <rect x="478.67" y="458.07" width="1.86" height="1.86" fill="#000000"/>
  <rect x="331.17" y="281.97" width="1.66" height="1.66" fill="#000000"/>
  <rect x="347.28" y="397.68" width="2.44" height="2.44" fill="#000000"/>
  <rect x="396.31" y="416.11" width="2.58" height="2.58" fill="#000000"/>
  <rect x="202.14" y="305.74" width="2.72" height="2.72" fill="#000000"/>
  <rect x="464.07" y="449.57" width="2.06" height="2.06" fill="#000000"/>
  <rect x="328.96" y="387.06" width="1.48" height="1.48" fill="#000000"/>
  <rect x="624.00" y="381.80" width="2.60" height="2.60" fill="#000000"/>
  <rect x="463.56" y="274.36" width="2.48" height="2.48" fill="#000000"/>
  <rect x="371.58" y="451.68" width="2.24" height="2.24" fill="#000000"/>
  <rect x="343.88" y="264.48" width="1.84" height="1.84" fill="#000000"/>
  <rect x="325.83" y="278.83" width="2.14" height="2.14" fill="#000000"/>
  <rect x="359.66" y="485.16" width="1.48" height="1.48" fill="#000000"/>
  <rect x="575.73" y="665.63" width="1.54" height="1.54" fill="#000000"/>
  <rect x="301.85" y="341.65" width="2.30" height="2.30" fill="#000000"/>
  <rect x="398.67" y="419.77" width="2.46" height="2.46" fill="#000000"/>
  <rect x="510.46" y="335.76" width="2.28" height="2.28" fill="#000000"/>
  <rect x="341.91" y="283.01" width="1.78" height="1.78" fill="#000000"/>
  <rect x="332.80" y="284.20" width="2.00" height="2.00" fill="#000000"/>
  <rect x="518.64" y="349.04" width="2.32" height="2.32" fill="#000000"/>
  <rect x="342.47" y="499.67" width="2.06" height="2.06" fill="#000000"/>
  <rect x="271.47" y="448.07" width="2.46" height="2.46" fill="#000000"/>
  <rect x="488.02" y="409.32" width="2.36" height="2.36" fill="#000000"/>
  <rect x="292.52" y="737.82" width="2.96" height="2.96" fill="#000000"/>
  <rect x="498.74" y="11.64" width="2.92" height="2.92" fill="#000000"/>
  <rect x="443.09" y="446.59" width="2.02" height="2.02" fill="#000000"/>
  <rect x="488.54" y="309.14" width="1.52" height="1.52" fill="#000000"/>
  <rect x="480.55" y="446.15" width="1.90" height="1.90" fill="#000000"/>
  <rect x="161.21" y="277.01" width="1.98" height="1.98" fill="#000000"/>
  <rect x="509.50" y="370.90" width="2.80" height="2.80" fill="#000000"/>
  <rect x="349.62" y="395.52" width="2.36" height="2.36" fill="#000000"/>
  <rect x="299.37" y="369.07" width="1.86" height="1.86" fill="#000000"/>
  <rect x="152.94" y="573.04" width="2.52" height="2.52" fill="#000000"/>
  <rect x="739.65" y="687.65" width="2.30" height="2.30" fill="#000000"/>
  <rect x="455.14" y="261.44" width="1.72" height="1.72" fill="#000000"/>
  <rect x="404.43" y="422.53" width="2.54" height="2.54" fill="#000000"/>
  <rect x="551.41" y="331.31" width="1.98" height="1.98" fill="#000000"/>
  <rect x="414.26" y="266.26" width="2.68" height="2.68" fill="#000000"/>
  <rect x="699.62" y="118.22" width="1.96" height="1.96" fill="#000000"/>
  <rect x="662.71" y="102.91" width="2.78" height="2.78" fill="#000000"/>
  <rect x="497.46" y="309.86" width="2.68" height="2.68" fill="#000000"/>
  <rect x="498.81" y="400.61" width="1.58" height="1.58" fill="#000000"/>
  <rect x="382.22" y="454.02" width="2.16" height="2.16" fill="#000000"/>
  <rect x="55.00" y="354.70" width="2.40" height="2.40" fill="#000000"/>
  <rect x="493.81" y="428.01" width="2.18" height="2.18" fill="#000000"/>
  <rect x="365.67" y="470.77" width="1.66" height="1.66" fill="#000000"/>
  <rect x="658.27" y="133.47" width="2.06" height="2.06" fill="#000000"/>
  <rect x="430.54" y="442.54" width="2.12" height="2.12" fill="#000000"/>
  <rect x="453.62" y="253.52" width="1.56" height="1.56" fill="#000000"/>
  <rect x="384.58" y="263.68" width="1.44" height="1.44" fill="#000000"/>
  <rect x="308.18" y="378.78" width="1.64" height="1.64" fill="#000000"/>
  <rect x="427.10" y="264.40" width="1.60" height="1.60" fill="#000000"/>
  <rect x="380.40" y="400.70" width="2.40" height="2.40" fill="#000000"/>
  <rect x="389.44" y="179.44" width="1.72" height="1.72" fill="#000000"/>
  <rect x="790.07" y="133.67" width="1.66" height="1.66" fill="#000000"/>
  <rect x="174.45" y="756.35" width="2.90" height="2.90" fill="#000000"/>
  <rect x="262.91" y="552.41" width="1.98" height="1.98" fill="#000000"/>
  <rect x="422.85" y="440.45" width="2.10" height="2.10" fill="#000000"/>
  <rect x="420.57" y="373.97" width="2.66" height="2.66" fill="#000000"/>
  <rect x="787.32" y="84.32" width="1.76" height="1.76" fill="#000000"/>
  <rect x="510.06" y="347.26" width="2.08" height="2.08" fill="#000000"/>
  <rect x="400.21" y="419.31" width="2.98" height="2.98" fill="#000000"/>
  <rect x="419.98" y="420.78" width="1.44" height="1.44" fill="#000000"/>
  <rect x="314.09" y="380.19" width="2.02" height="2.02" fill="#000000"/>
  <rect x="421.91" y="590.01" width="2.98" height="2.98" fill="#000000"/>
  <rect x="785.14" y="637.44" width="1.92" height="1.92" fill="#000000"/>
  <rect x="466.89" y="287.09" width="2.82" height="2.82" fill="#000000"/>
  <rect x="507.72" y="362.42" width="2.96" height="2.96" fill="#000000"/>
  <rect x="375.80" y="277.80" width="2.80" height="2.80" fill="#000000"/>
  <rect x="402.78" y="420.08" width="1.44" height="1.44" fill="#000000"/>
  <rect x="292.59" y="643.69" width="2.22" height="2.22" fill="#000000"/>
  <rect x="353.11" y="289.41" width="1.58" height="1.58" fill="#000000"/>
  <rect x="405.81" y="269.41" width="2.58" height="2.58" fill="#000000"/>
  <rect x="456.51" y="254.91" width="2.38" height="2.38" fill="#000000"/>
  <rect x="499.78" y="410.28" width="1.44" height="1.44" fill="#000000"/>
  <rect x="348.35" y="398.65" width="2.50" height="2.50" fill="#000000"/>
  <rect x="355.42" y="479.82" width="2.76" height="2.76" fill="#000000"/>
  <rect x="693.64" y="472.14" width="1.92" height="1.92" fill="#000000"/>
  <rect x="140.66" y="100.16" width="2.68" height="2.68" fill="#000000"/>
  <rect x="481.20" y="462.70" width="1.80" height="1.80" fill="#000000"/>
  <rect x="691.00" y="434.40" width="1.60" height="1.60" fill="#000000"/>
  <rect x="366.95" y="478.15" width="1.70" height="1.70" fill="#000000"/>
  <rect x="384.71" y="427.61" width="1.58" height="1.58" fill="#000000"/>
  <rect x="721.14" y="403.64" width="1.92" height="1.92" fill="#000000"/>
  <rect x="197.05" y="328.75" width="2.70" height="2.70" fill="#000000"/>
  <rect x="413.17" y="426.07" width="1.66" height="1.66" fill="#000000"/>
  <rect x="402.70" y="273.20" width="3.00" height="3.00" fill="#000000"/>
  <rect x="222.09" y="50.89" width="1.62" height="1.62" fill="#000000"/>
  <rect x="421.38" y="266.58" width="2.24" height="2.24" fill="#000000"/>
  <rect x="491.35" y="327.25" width="1.50" height="1.50" fill="#000000"/>
  <rect x="494.24" y="436.44" width="1.52" height="1.52" fill="#000000"/>
  <rect x="513.04" y="601.54" width="2.12" height="2.12" fill="#000000"/>
  <rect x="595.62" y="637.92" width="2.56" height="2.56" fill="#000000"/>
  <rect x="577.00" y="360.30" width="2.40" height="2.40" fill="#000000"/>
  <rect x="97.71" y="321.01" width="2.38" height="2.38" fill="#000000"/>
  <rect x="440.29" y="565.79" width="2.42" height="2.42" fill="#000000"/>
  <rect x="435.67" y="439.77" width="2.86" height="2.86" fill="#000000"/>
  <rect x="335.78" y="390.88" width="2.64" height="2.64" fill="#000000"/>
  <rect x="474.89" y="451.29" width="2.62" height="2.62" fill="#000000"/>
  <rect x="347.58" y="392.88" width="1.44" height="1.44" fill="#000000"/>
  <rect x="369.83" y="407.33" width="1.94" height="1.94" fill="#000000"/>
  <rect x="292.03" y="364.93" width="1.94" height="1.94" fill="#000000"/>
  <rect x="505.32" y="346.62" width="2.36" height="2.36" fill="#000000"/>
  <rect x="485.83" y="337.23" width="2.34" height="2.34" fill="#000000"/>
  <rect x="345.98" y="273.18" width="1.84" height="1.84" fill="#000000"/>
  <rect x="343.07" y="508.17" width="1.66" height="1.66" fill="#000000"/>
  <rect x="378.74" y="455.04" width="2.12" height="2.12" fill="#000000"/>
  <rect x="349.54" y="280.84" width="2.52" height="2.52" fill="#000000"/>
  <rect x="419.99" y="198.89" width="2.82" height="2.82" fill="#000000"/>
  <rect x="514.13" y="355.23" width="1.94" height="1.94" fill="#000000"/>
  <rect x="501.40" y="335.50" width="3.00" height="3.00" fill="#000000"/>
  <rect x="513.60" y="347.10" width="2.60" height="2.60" fill="#000000"/>
  <rect x="460.19" y="250.09" width="1.62" height="1.62" fill="#000000"/>
  <rect x="328.55" y="462.15" width="2.70" height="2.70" fill="#000000"/>
  <rect x="504.62" y="338.82" width="1.96" height="1.96" fill="#000000"/>
  <rect x="465.13" y="265.13" width="2.74" height="2.74" fill="#000000"/>
  <rect x="504.53" y="372.43" width="1.94" height="1.94" fill="#000000"/>
  <rect x="519.29" y="375.49" width="1.62" height="1.62" fill="#000000"/>
  <rect x="369.63" y="678.83" width="1.54" height="1.54" fill="#000000"/>
  <rect x="470.32" y="307.32" width="1.96" height="1.96" fill="#000000"/>
  <rect x="362.96" y="272.56" width="2.88" height="2.88" fill="#000000"/>
  <rect x="206.76" y="283.76" width="1.68" height="1.68" fill="#000000"/>
  <rect x="517.97" y="339.17" width="2.66" height="2.66" fill="#000000"/>
  <rect x="713.58" y="194.28" width="2.24" height="2.24" fill="#000000"/>
  <rect x="556.61" y="761.81" width="2.58" height="2.58" fill="#000000"/>
  <rect x="380.11" y="454.31" width="2.98" height="2.98" fill="#000000"/>
  <rect x="438.38" y="256.88" width="2.04" height="2.04" fill="#000000"/>
  <rect x="464.75" y="267.45" width="2.30" height="2.30" fill="#000000"/>
  <rect x="436.42" y="439.12" width="2.16" height="2.16" fill="#000000"/>
  <rect x="453.28" y="259.88" width="2.44" height="2.44" fill="#000000"/>
  <rect x="463.16" y="459.66" width="1.88" height="1.88" fill="#000000"/>
  <rect x="474.38" y="298.88" width="1.64" height="1.64" fill="#000000"/>
  <rect x="152.85" y="749.75" width="1.90" height="1.90" fill="#000000"/>
  <rect x="456.81" y="260.21" width="2.58" height="2.58" fill="#000000"/>
  <rect x="390.46" y="412.66" width="2.68" height="2.68" fill="#000000"/>
  <rect x="352.55" y="479.65" width="2.90" height="2.90" fill="#000000"/>
  <rect x="486.25" y="413.75" width="2.70" height="2.70" fill="#000000"/>
  <rect x="519.42" y="343.12" width="2.76" height="2.76" fill="#000000"/>
  <rect x="762.02" y="113.82" width="2.16" height="2.16" fill="#000000"/>
  <rect x="457.33" y="257.63" width="2.94" height="2.94" fill="#000000"/>
  <rect x="452.79" y="259.09" width="1.42" height="1.42" fill="#000000"/>
  <rect x="324.33" y="390.83" width="1.54" height="1.54" fill="#000000"/>
  <rect x="209.46" y="693.96" width="2.48" height="2.48" fill="#000000"/>
  <rect x="301.76" y="369.76" width="2.48" height="2.48" fill="#000000"/>
  <rect x="500.35" y="398.15" width="1.90" height="1.90" fill="#000000"/>
  <rect x="760.65" y="745.75" width="2.10" height="2.10" fill="#000000"/>
  <rect x="375.45" y="406.05" width="2.30" height="2.30" fill="#000000"/>
  <rect x="505.75" y="352.75" width="1.90" height="1.90" fill="#000000"/>
  <rect x="473.60" y="277.10" width="2.40" height="2.40" fill="#000000"/>
  <rect x="268.04" y="715.54" width="2.12" height="2.12" fill="#000000"/>
  <rect x="441.03" y="447.33" width="2.34" height="2.34" fill="#000000"/>
  <rect x="500.83" y="319.03" width="1.54" height="1.54" fill="#000000"/>
  <rect x="0.75" y="12.15" width="2.10" height="2.10" fill="#000000"/>
  <rect x="375.54" y="279.14" width="1.52" height="1.52" fill="#000000"/>
  <rect x="539.09" y="669.69" width="2.62" height="2.62" fill="#000000"/>
  <rect x="198.61" y="742.41" width="2.18" height="2.18" fill="#000000"/>
  <rect x="454.83" y="252.03" width="1.94" height="1.94" fill="#000000"/>
  <rect x="710.87" y="765.67" width="2.46" height="2.46" fill="#000000"/>
  <rect x="347.46" y="506.16" width="1.88" height="1.88" fill="#000000"/>
  <rect x="193.85" y="277.15" width="1.70" height="1.70" fill="#000000"/>
  <rect x="368.33" y="276.83" width="1.54" height="1.54" fill="#000000"/>
  <rect x="201.04" y="135.74" width="1.52" height="1.52" fill="#000000"/>
  <rect x="466.84" y="284.44" width="1.92" height="1.92" fill="#000000"/>
  <rect x="451.65" y="263.25" width="1.50" height="1.50" fill="#000000"/>
  <rect x="304.04" y="381.34" width="2.52" height="2.52" fill="#000000"/>
  <rect x="433.66" y="430.86" width="2.28" height="2.28" fill="#000000"/>
  <rect x="225.47" y="475.97" width="2.86" height="2.86" fill="#000000"/>
  <rect x="448.65" y="245.75" width="2.90" height="2.90" fill="#000000"/>
  <rect x="371.81" y="466.31" width="2.78" height="2.78" fill="#000000"/>
  <rect x="512.26" y="234.26" width="1.68" height="1.68" fill="#000000"/>
  <rect x="472.77" y="296.07" width="1.46" height="1.46" fill="#000000"/>
  <rect x="492.81" y="438.81" width="1.78" height="1.78" fill="#000000"/>
  <rect x="406.77" y="166.17" width="2.26" height="2.26" fill="#000000"/>
  <rect x="29.08" y="295.98" width="2.44" height="2.44" fill="#000000"/>
  <rect x="366.59" y="473.59" width="2.62" height="2.62" fill="#000000"/>
  <rect x="443.07" y="262.57" width="2.66" height="2.66" fill="#000000"/>
  <rect x="481.46" y="460.36" width="2.68" height="2.68" fill="#000000"/>
  <rect x="343.37" y="398.77" width="1.46" height="1.46" fill="#000000"/>
  <rect x="418.31" y="265.31" width="2.58" height="2.58" fill="#000000"/>
  <rect x="254.40" y="304.50" width="2.80" height="2.80" fill="#000000"/>
  <rect x="403.00" y="269.80" width="2.20" height="2.20" fill="#000000"/>
  <rect x="450.58" y="265.18" width="1.84" height="1.84" fill="#000000"/>
  <rect x="251.75" y="430.55" width="1.50" height="1.50" fill="#000000"/>
  <rect x="732.54" y="719.54" width="2.92" height="2.92" fill="#000000"/>
  <rect x="302.95" y="645.55" width="1.50" height="1.50" fill="#000000"/>
  <rect x="434.62" y="439.82" width="1.56" height="1.56" fill="#000000"/>
  <rect x="356.79" y="499.79" width="1.42" height="1.42" fill="#000000"/>
  <rect x="509.18" y="334.68" width="1.64" height="1.64" fill="#000000"/>
  <rect x="405.01" y="432.21" width="2.38" height="2.38" fill="#000000"/>
  <rect x="514.35" y="643.55" width="2.50" height="2.50" fill="#000000"/>
  <rect x="402.57" y="417.87" width="2.06" height="2.06" fill="#000000"/>
  <rect x="149.77" y="746.77" width="2.86" height="2.86" fill="#000000"/>
  <rect x="342.82" y="496.02" width="2.96" height="2.96" fill="#000000"/>
  <rect x="373.30" y="466.00" width="2.20" height="2.20" fill="#000000"/>
  <rect x="343.25" y="37.85" width="2.70" height="2.70" fill="#000000"/>
  <rect x="609.44" y="129.54" width="2.72" height="2.72" fill="#000000"/>
  <rect x="455.35" y="454.65" width="2.90" height="2.90" fill="#000000"/>
  <rect x="358.62" y="273.92" width="1.96" height="1.96" fill="#000000"/>
  <rect x="604.48" y="775.48" width="1.64" height="1.64" fill="#000000"/>
  <rect x="481.86" y="462.56" width="1.88" height="1.88" fill="#000000"/>
  <rect x="500.67" y="376.67" width="2.66" height="2.66" fill="#000000"/>
  <rect x="666.66" y="720.06" width="2.48" height="2.48" fill="#000000"/>
  <rect x="490.91" y="314.71" width="2.98" height="2.98" fill="#000000"/>
  <rect x="57.62" y="204.02" width="1.76" height="1.76" fill="#000000"/>
  <rect x="358.77" y="479.57" width="1.66" height="1.66" fill="#000000"/>
  <rect x="391.16" y="412.76" width="1.48" height="1.48" fill="#000000"/>
  <rect x="341.25" y="500.45" width="1.70" height="1.70" fill="#000000"/>
  <rect x="256.05" y="26.75" width="2.90" height="2.90" fill="#000000"/>
  <rect x="696.81" y="29.61" width="2.98" height="2.98" fill="#000000"/>
  <rect x="478.05" y="423.95" width="1.50" height="1.50" fill="#000000"/>
  <rect x="502.00" y="410.00" width="1.60" height="1.60" fill="#000000"/>
  <rect x="514.55" y="622.55" width="1.90" height="1.90" fill="#000000"/>
  <rect x="482.09" y="291.09" width="2.02" height="2.02" fill="#000000"/>
  <rect x="512.20" y="347.00" width="1.60" height="1.60" fill="#000000"/>
  <rect x="463.68" y="460.58" width="2.44" height="2.44" fill="#000000"/>
  <rect x="350.75" y="281.45" width="1.90" height="1.90" fill="#000000"/>
  <rect x="610.17" y="415.57" width="1.86" height="1.86" fill="#000000"/>
  <rect x="558.62" y="64.42" width="2.76" height="2.76" fill="#000000"/>
  <rect x="379.72" y="404.22" width="1.56" height="1.56" fill="#000000"/>
  <rect x="361.09" y="278.29" width="1.42" height="1.42" fill="#000000"/>
  <rect x="461.68" y="267.18" width="1.44" height="1.44" fill="#000000"/>
  <rect x="348.58" y="45.08" width="1.64" height="1.64" fill="#000000"/>
  <rect x="509.81" y="364.81" width="1.78" height="1.78" fill="#000000"/>
  <rect x="364.60" y="477.10" width="2.00" height="2.00" fill="#000000"/>
  <rect x="491.15" y="414.75" width="1.50" height="1.50" fill="#000000"/>
  <rect x="623.76" y="24.86" width="2.68" height="2.68" fill="#000000"/>
  <rect x="381.08" y="458.08" width="1.84" height="1.84" fill="#000000"/>
  <rect x="358.85" y="403.85" width="2.70" height="2.70" fill="#000000"/>
  <rect x="379.67" y="459.37" width="1.86" height="1.86" fill="#000000"/>
  <rect x="501.86" y="331.76" width="1.68" height="1.68" fill="#000000"/>
  <rect x="513.33" y="332.23" width="2.14" height="2.14" fill="#000000"/>
  <rect x="507.82" y="375.72" width="1.96" height="1.96" fill="#000000"/>
  <rect x="297.75" y="370.25" width="2.90" height="2.90" fill="#000000"/>
  <rect x="56.29" y="-0.31" width="2.22" height="2.22" fill="#000000"/>
  <rect x="343.43" y="502.43" width="1.54" height="1.54" fill="#000000"/>
  <rect x="430.86" y="609.66" width="1.88" height="1.88" fill="#000000"/>
  <rect x="162.52" y="567.92" width="1.76" height="1.76" fill="#000000"/>
  <rect x="503.34" y="379.94" width="2.52" height="2.52" fill="#000000"/>
  <rect x="455.88" y="449.08" width="1.64" height="1.64" fill="#000000"/>
  <rect x="490.96" y="318.46" width="2.48" height="2.48" fill="#000000"/>
  <rect x="513.93" y="379.33" width="2.74" height="2.74" fill="#000000"/>
  <rect x="361.17" y="470.27" width="1.86" height="1.86" fill="#000000"/>
  <rect x="436.21" y="442.81" width="2.78" height="2.78" fill="#000000"/>
  <rect x="362.16" y="403.46" width="2.28" height="2.28" fill="#000000"/>
  <rect x="235.40" y="107.70" width="1.80" height="1.80" fill="#000000"/>
  <rect x="498.95" y="378.05" width="2.50" height="2.50" fill="#000000"/>
  <rect x="371.86" y="466.06" width="1.48" height="1.48" fill="#000000"/>
  <rect x="560.03" y="385.73" width="2.94" height="2.94" fill="#000000"/>
  <rect x="444.98" y="445.48" width="2.04" height="2.04" fill="#000000"/>
  <rect x="324.45" y="381.85" width="2.50" height="2.50" fill="#000000"/>
  <rect x="429.59" y="438.69" width="2.22" height="2.22" fill="#000000"/>
  <rect x="498.68" y="393.08" width="2.84" height="2.84" fill="#000000"/>
  <rect x="320.94" y="220.14" width="2.12" height="2.12" fill="#000000"/>
  <rect x="394.78" y="276.58" width="2.44" height="2.44" fill="#000000"/>
  <rect x="448.44" y="253.34" width="2.52" height="2.52" fill="#000000"/>
  <rect x="500.11" y="361.81" width="1.98" height="1.98" fill="#000000"/>
  <rect x="325.32" y="381.52" width="1.96" height="1.96" fill="#000000"/>
  <rect x="442.93" y="259.33" width="2.34" height="2.34" fill="#000000"/>
  <rect x="479.02" y="450.02" width="2.56" height="2.56" fill="#000000"/>
  <rect x="476.04" y="467.24" width="1.72" height="1.72" fill="#000000"/>
  <rect x="377.10" y="447.50" width="2.80" height="2.80" fill="#000000"/>
  <rect x="93.61" y="162.71" width="2.18" height="2.18" fill="#000000"/>
  <rect x="438.24" y="264.54" width="1.52" height="1.52" fill="#000000"/>
  <rect x="350.59" y="503.39" width="2.02" height="2.02" fill="#000000"/>
  <rect x="98.64" y="470.44" width="1.52" height="1.52" fill="#000000"/>
  <rect x="290.19" y="756.79" width="2.62" height="2.62" fill="#000000"/>
  <rect x="349.56" y="494.06" width="1.88" height="1.88" fill="#000000"/>
  <rect x="520.34" y="453.74" width="2.32" height="2.32" fill="#000000"/>
  <rect x="474.89" y="456.09" width="2.22" height="2.22" fill="#000000"/>
  <rect x="496.85" y="385.85" width="1.70" height="1.70" fill="#000000"/>
  <rect x="386.63" y="434.83" width="2.34" height="2.34" fill="#000000"/>
  <rect x="491.46" y="321.16" width="2.48" height="2.48" fill="#000000"/>
  <rect x="375.90" y="458.60" width="2.60" height="2.60" fill="#000000"/>
  <rect x="383.93" y="279.23" width="2.34" height="2.34" fill="#000000"/>
  <rect x="416.08" y="428.38" width="2.84" height="2.84" fill="#000000"/>
  <rect x="400.62" y="415.22" width="1.96" height="1.96" fill="#000000"/>
  <rect x="344.57" y="501.67" width="2.06" height="2.06" fill="#000000"/>
  <rect x="510.14" y="377.74" width="2.72" height="2.72" fill="#000000"/>
  <rect x="379.75" y="415.35" width="2.50" height="2.50" fill="#000000"/>
  <rect x="513.75" y="351.25" width="1.90" height="1.90" fill="#000000"/>
  <rect x="344.46" y="501.16" width="1.48" height="1.48" fill="#000000"/>
  <rect x="620.19" y="96.59" width="2.82" height="2.82" fill="#000000"/>
  <rect x="478.14" y="458.24" width="2.92" height="2.92" fill="#000000"/>
  <rect x="428.01" y="265.91" width="1.78" height="1.78" fill="#000000"/>
  <rect x="384.25" y="451.85" width="2.70" height="2.70" fill="#000000"/>
  <rect x="172.40" y="434.80" width="2.00" height="2.00" fill="#000000"/>
  <rect x="521.43" y="348.03" width="2.94" height="2.94" fill="#000000"/>
  <rect x="492.23" y="629.43" width="2.54" height="2.54" fill="#000000"/>
  <rect x="515.93" y="345.93" width="2.14" height="2.14" fill="#000000"/>
  <rect x="444.23" y="254.83" width="2.14" height="2.14" fill="#000000"/>
  <rect x="372.95" y="453.25" width="1.90" height="1.90" fill="#000000"/>
  <rect x="254.00" y="705.10" width="2.80" height="2.80" fill="#000000"/>
  <rect x="341.74" y="506.84" width="2.32" height="2.32" fill="#000000"/>
  <rect x="377.94" y="440.24" width="2.52" height="2.52" fill="#000000"/>
  <rect x="374.51" y="280.51" width="2.58" height="2.58" fill="#000000"/>
  <rect x="450.00" y="263.50" width="2.00" height="2.00" fill="#000000"/>
  <rect x="687.89" y="10.89" width="2.82" height="2.82" fill="#000000"/>
  <rect x="191.81" y="533.01" width="2.78" height="2.78" fill="#000000"/>
  <rect x="317.58" y="393.68" width="2.04" height="2.04" fill="#000000"/>
  <rect x="396.62" y="429.22" width="2.76" height="2.76" fill="#000000"/>
  <rect x="495.51" y="408.51" width="2.38" height="2.38" fill="#000000"/>
  <rect x="207.35" y="199.35" width="2.30" height="2.30" fill="#000000"/>
  <rect x="356.14" y="490.74" width="2.92" height="2.92" fill="#000000"/>
  <rect x="361.21" y="271.01" width="1.78" height="1.78" fill="#000000"/>
  <rect x="357.00" y="496.40" width="2.60" height="2.60" fill="#000000"/>
  <rect x="101.99" y="281.69" width="2.42" height="2.42" fill="#000000"/>
  <rect x="518.53" y="355.13" width="1.74" height="1.74" fill="#000000"/>
  <rect x="369.42" y="457.72" width="1.96" height="1.96" fill="#000000"/>
  <rect x="626.12" y="690.32" width="1.56" height="1.56" fill="#000000"/>
  <rect x="455.68" y="454.18" width="2.84" height="2.84" fill="#000000"/>
  <rect x="465.66" y="452.06" width="1.88" height="1.88" fill="#000000"/>
  <rect x="325.70" y="381.50" width="2.80" height="2.80" fill="#000000"/>
  <rect x="487.34" y="434.64" width="2.12" height="2.12" fill="#000000"/>
  <rect x="481.50" y="439.80" width="2.60" height="2.60" fill="#000000"/>
  <rect x="724.45" y="551.45" width="2.70" height="2.70" fill="#000000"/>
  <rect x="603.98" y="382.68" width="2.64" height="2.64" fill="#000000"/>
  <rect x="336.42" y="389.12" width="1.56" height="1.56" fill="#000000"/>
  <rect x="405.51" y="435.31" width="2.78" height="2.78" fill="#000000"/>
  <rect x="297.95" y="366.05" width="1.70" height="1.70" fill="#000000"/>
  <rect x="426.57" y="261.77" width="2.26" height="2.26" fill="#000000"/>
  <rect x="361.05" y="281.15" width="1.70" height="1.70" fill="#000000"/>
  <rect x="453.61" y="259.21" width="2.38" height="2.38" fill="#000000"/>
  <rect x="438.02" y="360.42" width="2.36" height="2.36" fill="#000000"/>
  <rect x="430.15" y="268.75" width="2.90" height="2.90" fill="#000000"/>
  <rect x="293.56" y="363.16" width="1.48" height="1.48" fill="#000000"/>
  <rect x="469.38" y="450.18" width="2.64" height="2.64" fill="#000000"/>
  <rect x="472.96" y="437.36" width="2.08" height="2.08" fill="#000000"/>
  <rect x="442.54" y="446.94" width="2.12" height="2.12" fill="#000000"/>
  <rect x="444.90" y="3.40" width="2.60" height="2.60" fill="#000000"/>
  <rect x="439.08" y="251.78" width="2.44" height="2.44" fill="#000000"/>
  <rect x="520.19" y="343.99" width="1.42" height="1.42" fill="#000000"/>
  <rect x="421.19" y="264.79" width="2.02" height="2.02" fill="#000000"/>
  <rect x="459.37" y="448.67" width="1.46" height="1.46" fill="#000000"/>
  <rect x="697.57" y="111.87" width="1.86" height="1.86" fill="#000000"/>
  <rect x="413.31" y="434.81" width="1.78" height="1.78" fill="#000000"/>
  <rect x="389.19" y="168.49" width="2.22" height="2.22" fill="#000000"/>
  <rect x="376.84" y="452.04" width="1.52" height="1.52" fill="#000000"/>
  <rect x="485.81" y="224.21" width="2.78" height="2.78" fill="#000000"/>
  <rect x="498.05" y="391.25" width="2.90" height="2.90" fill="#000000"/>
  <rect x="477.46" y="456.56" width="2.88" height="2.88" fill="#000000"/>
  <rect x="300.13" y="371.63" width="2.34" height="2.34" fill="#000000"/>
  <rect x="521.25" y="347.45" width="2.90" height="2.90" fill="#000000"/>
  <rect x="362.35" y="480.45" width="2.90" height="2.90" fill="#000000"/>
  <rect x="503.61" y="366.71" width="2.38" height="2.38" fill="#000000"/>
  <rect x="345.53" y="484.43" width="1.54" height="1.54" fill="#000000"/>
  <rect x="525.48" y="157.88" width="2.04" height="2.04" fill="#000000"/>
  <rect x="491.07" y="315.67" width="2.26" height="2.26" fill="#000000"/>
  <rect x="473.05" y="305.25" width="2.90" height="2.90" fill="#000000"/>
  <rect x="316.62" y="268.12" width="1.96" height="1.96" fill="#000000"/>
  <rect x="393.58" y="273.88" width="1.84" height="1.84" fill="#000000"/>
  <rect x="509.98" y="356.08" width="1.84" height="1.84" fill="#000000"/>
  <rect x="426.27" y="428.57" width="1.66" height="1.66" fill="#000000"/>
  <rect x="127.94" y="622.94" width="2.52" height="2.52" fill="#000000"/>
  <rect x="355.27" y="403.57" width="2.06" height="2.06" fill="#000000"/>
  <rect x="516.79" y="339.99" width="2.02" height="2.02" fill="#000000"/>
  <rect x="482.47" y="465.37" width="2.46" height="2.46" fill="#000000"/>
  <rect x="395.09" y="420.59" width="2.02" height="2.02" fill="#000000"/>
  <rect x="482.63" y="416.83" width="2.34" height="2.34" fill="#000000"/>
  <rect x="476.76" y="466.86" width="2.88" height="2.88" fill="#000000"/>
  <rect x="449.59" y="448.29" width="2.22" height="2.22" fill="#000000"/>
  <rect x="509.48" y="336.28" width="1.44" height="1.44" fill="#000000"/>
  <rect x="500.40" y="355.90" width="2.80" height="2.80" fill="#000000"/>
  <rect x="29.58" y="743.98" width="2.84" height="2.84" fill="#000000"/>
  <rect x="133.58" y="277.48" width="1.84" height="1.84" fill="#000000"/>
  <rect x="310.01" y="379.01" width="2.58" height="2.58" fill="#000000"/>
  <rect x="279.31" y="526.41" width="2.98" height="2.98" fill="#000000"/>
  <rect x="375.43" y="276.23" width="2.54" height="2.54" fill="#000000"/>
  <rect x="128.70" y="547.10" width="2.80" height="2.80" fill="#000000"/>
  <rect x="483.73" y="300.73" width="2.54" height="2.54" fill="#000000"/>
  <rect x="392.22" y="420.22" width="2.56" height="2.56" fill="#000000"/>
  <rect x="444.64" y="440.14" width="2.32" height="2.32" fill="#000000"/>
  <rect x="321.71" y="390.91" width="2.78" height="2.78" fill="#000000"/>
  <rect x="394.72" y="442.62" width="1.56" height="1.56" fill="#000000"/>
  <rect x="450.62" y="259.22" width="2.96" height="2.96" fill="#000000"/>
  <rect x="394.30" y="261.40" width="2.60" height="2.60" fill="#000000"/>
  <rect x="657.09" y="619.29" width="2.22" height="2.22" fill="#000000"/>
  <rect x="496.55" y="372.85" width="2.30" height="2.30" fill="#000000"/>
  <rect x="464.43" y="266.83" width="2.54" height="2.54" fill="#000000"/>
  <rect x="712.22" y="468.52" width="2.56" height="2.56" fill="#000000"/>
  <rect x="397.56" y="414.36" width="1.48" height="1.48" fill="#000000"/>
  <rect x="502.26" y="400.56" width="2.88" height="2.88" fill="#000000"/>
  <rect x="452.59" y="260.79" width="2.42" height="2.42" fill="#000000"/>
  <rect x="141.72" y="706.92" width="2.16" height="2.16" fill="#000000"/>
  <rect x="495.12" y="385.72" width="1.76" height="1.76" fill="#000000"/>
  <rect x="329.21" y="278.01" width="1.98" height="1.98" fill="#000000"/>
  <rect x="370.77" y="278.27" width="2.86" height="2.86" fill="#000000"/>
  <rect x="246.28" y="707.18" width="2.44" height="2.44" fill="#000000"/>
  <rect x="483.96" y="457.86" width="2.88" height="2.88" fill="#000000"/>
  <rect x="365.73" y="269.73" width="2.74" height="2.74" fill="#000000"/>
  <rect x="495.87" y="302.07" width="2.06" height="2.06" fill="#000000"/>
  <rect x="309.92" y="382.12" width="2.16" height="2.16" fill="#000000"/>
  <rect x="480.42" y="302.62" width="2.96" height="2.96" fill="#000000"/>
  <rect x="426.22" y="260.52" width="2.56" height="2.56" fill="#000000"/>
  <rect x="482.49" y="422.19" width="2.62" height="2.62" fill="#000000"/>
  <rect x="320.26" y="391.86" width="2.88" height="2.88" fill="#000000"/>
  <rect x="154.22" y="268.32" width="1.56" height="1.56" fill="#000000"/>
  <rect x="698.83" y="232.13" width="2.34" height="2.34" fill="#000000"/>
  <rect x="194.82" y="158.62" width="1.56" height="1.56" fill="#000000"/>
  <rect x="453.74" y="269.14" width="2.92" height="2.92" fill="#000000"/>
  <rect x="558.29" y="643.09" width="1.82" height="1.82" fill="#000000"/>
  <rect x="454.63" y="255.83" width="2.74" height="2.74" fill="#000000"/>
  <rect x="502.28" y="400.58" width="2.24" height="2.24" fill="#000000"/>
  <rect x="416.95" y="426.95" width="1.70" height="1.70" fill="#000000"/>
  <rect x="372.70" y="446.50" width="2.60" height="2.60" fill="#000000"/>
  <rect x="494.58" y="373.68" width="1.64" height="1.64" fill="#000000"/>
  <rect x="499.55" y="387.85" width="2.10" height="2.10" fill="#000000"/>
  <rect x="418.23" y="260.33" width="1.94" height="1.94" fill="#000000"/>
  <rect x="696.48" y="339.48" width="2.04" height="2.04" fill="#000000"/>
  <rect x="296.43" y="378.23" width="1.54" height="1.54" fill="#000000"/>
  <rect x="167.61" y="33.61" width="1.98" height="1.98" fill="#000000"/>
  <rect x="475.81" y="454.81" width="2.38" height="2.38" fill="#000000"/>
  <rect x="624.57" y="628.97" width="2.86" height="2.86" fill="#000000"/>
  <rect x="410.93" y="695.83" width="1.74" height="1.74" fill="#000000"/>
  <rect x="700.85" y="463.65" width="1.90" height="1.90" fill="#000000"/>
  <rect x="354.93" y="402.73" width="1.94" height="1.94" fill="#000000"/>
  <rect x="558.84" y="386.84" width="2.92" height="2.92" fill="#000000"/>
  <rect x="347.29" y="397.89" width="1.42" height="1.42" fill="#000000"/>
  <rect x="45.60" y="282.70" width="1.40" height="1.40" fill="#000000"/>
  <rect x="366.57" y="407.47" width="2.06" height="2.06" fill="#000000"/>
  <rect x="340.80" y="2.40" width="1.60" height="1.60" fill="#000000"/>
  <rect x="341.20" y="388.60" width="1.60" height="1.60" fill="#000000"/>
  <rect x="376.13" y="464.03" width="1.74" height="1.74" fill="#000000"/>
  <rect x="508.20" y="345.50" width="2.00" height="2.00" fill="#000000"/>
  <rect x="401.82" y="432.72" width="1.96" height="1.96" fill="#000000"/>
  <rect x="74.51" y="194.01" width="2.58" height="2.58" fill="#000000"/>
  <rect x="293.02" y="371.02" width="1.76" height="1.76" fill="#000000"/>
  <rect x="136.88" y="373.28" width="1.44" height="1.44" fill="#000000"/>
  <rect x="416.26" y="475.06" width="2.68" height="2.68" fill="#000000"/>
  <rect x="486.41" y="447.41" width="2.58" height="2.58" fill="#000000"/>
  <rect x="774.98" y="32.68" width="1.64" height="1.64" fill="#000000"/>
  <rect x="442.39" y="447.69" width="2.22" height="2.22" fill="#000000"/>
  <rect x="511.12" y="129.12" width="2.96" height="2.96" fill="#000000"/>
  <rect x="490.63" y="311.93" width="2.14" height="2.14" fill="#000000"/>
  <rect x="334.06" y="390.26" width="2.08" height="2.08" fill="#000000"/>
  <rect x="387.05" y="446.65" width="2.10" height="2.10" fill="#000000"/>
  <rect x="271.12" y="495.22" width="1.76" height="1.76" fill="#000000"/>
  <rect x="443.96" y="252.76" width="2.88" height="2.88" fill="#000000"/>
  <rect x="431.58" y="444.98" width="1.64" height="1.64" fill="#000000"/>
  <rect x="260.64" y="417.24" width="1.72" height="1.72" fill="#000000"/>
  <rect x="712.23" y="165.23" width="2.74" height="2.74" fill="#000000"/>
  <rect x="325.81" y="704.41" width="1.98" height="1.98" fill="#000000"/>
  <rect x="346.03" y="498.93" width="1.74" height="1.74" fill="#000000"/>
  <rect x="662.73" y="661.93" width="2.74" height="2.74" fill="#000000"/>
  <rect x="271.37" y="671.07" width="2.26" height="2.26" fill="#000000"/>
  <rect x="455.23" y="448.73" width="2.14" height="2.14" fill="#000000"/>
  <rect x="370.25" y="461.05" width="1.70" height="1.70" fill="#000000"/>
  <rect x="20.79" y="534.59" width="1.62" height="1.62" fill="#000000"/>
  <rect x="355.53" y="112.13" width="2.34" height="2.34" fill="#000000"/>
  <rect x="95.50" y="120.30" width="2.00" height="2.00" fill="#000000"/>
  <rect x="604.03" y="604.13" width="2.14" height="2.14" fill="#000000"/>
  <rect x="475.22" y="450.32" width="1.76" height="1.76" fill="#000000"/>
  <rect x="503.50" y="344.60" width="2.80" height="2.80" fill="#000000"/>
  <rect x="107.61" y="539.01" width="2.58" height="2.58" fill="#000000"/>
  <rect x="402.14" y="268.54" width="1.72" height="1.72" fill="#000000"/>
  <rect x="300.91" y="374.71" width="2.98" height="2.98" fill="#000000"/>
  <rect x="448.51" y="251.61" width="2.38" height="2.38" fill="#000000"/>
  <rect x="322.50" y="388.00" width="3.00" height="3.00" fill="#000000"/>
  <rect x="360.87" y="268.77" width="1.46" height="1.46" fill="#000000"/>
  <rect x="365.13" y="473.73" width="2.14" height="2.14" fill="#000000"/>
  <rect x="292.31" y="377.01" width="2.18" height="2.18" fill="#000000"/>
  <rect x="485.50" y="418.60" width="2.00" height="2.00" fill="#000000"/>
  <rect x="361.73" y="277.83" width="2.54" height="2.54" fill="#000000"/>
  <rect x="462.94" y="272.34" width="2.92" height="2.92" fill="#000000"/>
  <rect x="478.68" y="291.08" width="2.24" height="2.24" fill="#000000"/>
  <rect x="9.34" y="62.04" width="2.92" height="2.92" fill="#000000"/>
  <rect x="154.49" y="369.09" width="2.82" height="2.82" fill="#000000"/>
</svg>
