<svg viewBox="0 0 800 800" xmlns="http://www.w3.org/2000/svg">
  <circle cx="223.4" cy="286.9" r="1.03" fill="#3d3d3d"/>
  <circle cx="485.2" cy="298.4" r="0.89" fill="#3d3d3d"/>
  <circle cx="323.5" cy="376.1" r="1.16" fill="#3d3d3d"/>
  <circle cx="421.8" cy="265.7" r="1.16" fill="#3d3d3d"/>
  <circle cx="405.9" cy="421.7" r="1.46" fill="#3d3d3d"/>
  <circle cx="371.8" cy="450.2" r="1.06" fill="#3d3d3d"/>
  <circle cx="523.7" cy="350.6" r="1.41" fill="#3d3d3d"/>
  <circle cx="354.8" cy="399.0" r="0.72" fill="#3d3d3d"/>
  <circle cx="13.5" cy="726.2" r="0.75" fill="#3d3d3d"/>
  <circle cx="111.4" cy="240.1" r="0.92" fill="#3d3d3d"/>
  <circle cx="369.7" cy="471.2" r="0.97" fill="#3d3d3d"/>
  <circle cx="272.1" cy="194.2" r="1.03" fill="#3d3d3d"/>
  <circle cx="136.2" cy="71.7" r="0.94" fill="#3d3d3d"/>
  <circle cx="493.3" cy="317.0" r="1.37" fill="#3d3d3d"/>
  <circle cx="332.6" cy="287.3" r="1.19" fill="#3d3d3d"/>
  <circle cx="458.7" cy="260.0" r="0.87" fill="#3d3d3d"/>
  <circle cx="322.9" cy="394.4" r="0.83" fill="#3d3d3d"/>
  <circle cx="190.5" cy="48.3" r="1.15" fill="#3d3d3d"/>
  <circle cx="342.1" cy="514.4" r="1.18" fill="#3d3d3d"/>
  <circle cx="393.2" cy="416.5" r="1.20" fill="#3d3d3d"/>
  <circle cx="688.5" cy="184.2" r="0.74" fill="#3d3d3d"/>
  <circle cx="317.9" cy="379.4" r="1.45" fill="#3d3d3d"/>
  <circle cx="484.2" cy="641.9" r="0.73" fill="#3d3d3d"/>
  <circle cx="415.9" cy="433.3" r="0.77" fill="#3d3d3d"/>
  <circle cx="504.1" cy="277.8" r="0.72" fill="#3d3d3d"/>
  <circle cx="468.5" cy="450.9" r="0.97" fill="#3d3d3d"/>
  <circle cx="370.8" cy="792.5" r="0.90" fill="#3d3d3d"/>
  <circle cx="87.0" cy="609.7" r="0.71" fill="#3d3d3d"/>
  <circle cx="386.2" cy="434.7" r="1.40" fill="#3d3d3d"/>
  <circle cx="756.0" cy="166.2" r="0.95" fill="#3d3d3d"/>
  <circle cx="161.0" cy="79.0" r="1.35" fill="#3d3d3d"/>
  <circle cx="352.2" cy="505.1" r="0.71" fill="#3d3d3d"/>
  <circle cx="153.2" cy="440.8" r="1.18" fill="#3d3d3d"/>
  <circle cx="372.5" cy="407.6" r="0.86" fill="#3d3d3d"/>
  <circle cx="358.3" cy="399.5" r="1.45" fill="#3d3d3d"/>
  <circle cx="438.6" cy="446.5" r="0.92" fill="#3d3d3d"/>
  <circle cx="478.4" cy="303.3" r="1.09" fill="#3d3d3d"/>
  <circle cx="405.8" cy="422.9" r="0.72" fill="#3d3d3d"/>
  <circle cx="521.4" cy="346.9" r="0.85" fill="#3d3d3d"/>
  <circle cx="510.5" cy="361.3" r="1.43" fill="#3d3d3d"/>
  <circle cx="326.2" cy="262.9" r="1.20" fill="#3d3d3d"/>
  <circle cx="377.2" cy="407.5" r="1.43" fill="#3d3d3d"/>
  <circle cx="391.7" cy="447.1" r="1.42" fill="#3d3d3d"/>
  <circle cx="439.2" cy="455.4" r="1.09" fill="#3d3d3d"/>
  <circle cx="500.5" cy="391.0" r="1.18" fill="#3d3d3d"/>
  <circle cx="399.4" cy="277.6" r="1.43" fill="#3d3d3d"/>
  <circle cx="349.3" cy="795.2" r="1.18" fill="#3d3d3d"/>
  <circle cx="391.0" cy="442.7" r="1.09" fill="#3d3d3d"/>
  <circle cx="627.5" cy="741.5" r="1.13" fill="#3d3d3d"/>
  <circle cx="341.6" cy="302.2" r="1.25" fill="#3d3d3d"/>
  <circle cx="361.6" cy="468.4" r="0.91" fill="#3d3d3d"/>
  <circle cx="449.8" cy="261.4" r="0.73" fill="#3d3d3d"/>
  <circle cx="378.4" cy="403.4" r="1.30" fill="#3d3d3d"/>
  <circle cx="508.8" cy="359.4" r="0.93" fill="#3d3d3d"/>
  <circle cx="458.9" cy="258.7" r="0.73" fill="#3d3d3d"/>
  <circle cx="516.6" cy="327.5" r="1.09" fill="#3d3d3d"/>
  <circle cx="27.7" cy="229.1" r="1.44" fill="#3d3d3d"/>
  <circle cx="365.6" cy="402.6" r="0.70" fill="#3d3d3d"/>
  <circle cx="349.3" cy="281.0" r="0.89" fill="#3d3d3d"/>
  <circle cx="481.6" cy="456.4" r="1.27" fill="#3d3d3d"/>
  <circle cx="20.5" cy="48.8" r="1.05" fill="#3d3d3d"/>
  <circle cx="496.0" cy="433.2" r="1.29" fill="#3d3d3d"/>
  <circle cx="17.2" cy="696.1" r="0.75" fill="#3d3d3d"/>
  <circle cx="520.1" cy="348.1" r="1.25" fill="#3d3d3d"/>
  <circle cx="402.7" cy="353.7" r="1.34" fill="#3d3d3d"/>
  <circle cx="512.6" cy="350.0" r="1.25" fill="#3d3d3d"/>
  <circle cx="337.4" cy="38.0" r="1.15" fill="#3d3d3d"/>
  <circle cx="692.5" cy="551.4" r="1.40" fill="#3d3d3d"/>
  <circle cx="466.2" cy="262.2" r="1.21" fill="#3d3d3d"/>
  <circle cx="741.4" cy="19.4" r="0.96" fill="#3d3d3d"/>
  <circle cx="377.8" cy="410.9" r="1.24" fill="#3d3d3d"/>
  <circle cx="336.3" cy="77.2" r="1.33" fill="#3d3d3d"/>
  <circle cx="664.6" cy="762.6" r="0.86" fill="#3d3d3d"/>
  <circle cx="421.8" cy="422.1" r="1.05" fill="#3d3d3d"/>
  <circle cx="481.3" cy="466.6" r="1.06" fill="#3d3d3d"/>
  <circle cx="479.6" cy="459.0" r="0.93" fill="#3d3d3d"/>
  <circle cx="332.0" cy="282.8" r="0.83" fill="#3d3d3d"/>
  <circle cx="348.5" cy="398.9" r="1.22" fill="#3d3d3d"/>
  <circle cx="397.6" cy="417.4" r="1.29" fill="#3d3d3d"/>
  <circle cx="203.5" cy="307.1" r="1.36" fill="#3d3d3d"/>
  <circle cx="465.1" cy="450.6" r="1.03" fill="#3d3d3d"/>
  <circle cx="329.7" cy="387.8" r="0.74" fill="#3d3d3d"/>
  <circle cx="625.3" cy="383.1" r="1.30" fill="#3d3d3d"/>
  <circle cx="464.8" cy="275.6" r="1.24" fill="#3d3d3d"/>
  <circle cx="372.7" cy="452.8" r="1.12" fill="#3d3d3d"/>
  <circle cx="344.8" cy="265.4" r="0.92" fill="#3d3d3d"/>
  <circle cx="326.9" cy="279.9" r="1.07" fill="#3d3d3d"/>
  <circle cx="360.4" cy="485.9" r="0.74" fill="#3d3d3d"/>
  <circle cx="576.5" cy="666.4" r="0.77" fill="#3d3d3d"/>
  <circle cx="303.0" cy="342.8" r="1.15" fill="#3d3d3d"/>
  <circle cx="399.9" cy="421.0" r="1.23" fill="#3d3d3d"/>
  <circle cx="511.6" cy="336.9" r="1.14" fill="#3d3d3d"/>
  <circle cx="342.8" cy="283.9" r="0.89" fill="#3d3d3d"/>
  <circle cx="333.8" cy="285.2" r="1.00" fill="#3d3d3d"/>
  <circle cx="519.8" cy="350.2" r="1.16" fill="#3d3d3d"/>
  <circle cx="343.5" cy="500.7" r="1.03" fill="#3d3d3d"/>
  <circle cx="272.7" cy="449.3" r="1.23" fill="#3d3d3d"/>
  <circle cx="489.2" cy="410.5" r="1.18" fill="#3d3d3d"/>
  <circle cx="294.0" cy="739.3" r="1.48" fill="#3d3d3d"/>
  <circle cx="500.2" cy="13.1" r="1.46" fill="#3d3d3d"/>
  <circle cx="444.1" cy="447.6" r="1.01" fill="#3d3d3d"/>
  <circle cx="489.3" cy="309.9" r="0.76" fill="#3d3d3d"/>
  <circle cx="481.5" cy="447.1" r="0.95" fill="#3d3d3d"/>
  <circle cx="162.2" cy="278.0" r="0.99" fill="#3d3d3d"/>
  <circle cx="510.9" cy="372.3" r="1.40" fill="#3d3d3d"/>
  <circle cx="350.8" cy="396.7" r="1.18" fill="#3d3d3d"/>
  <circle cx="300.3" cy="370.0" r="0.93" fill="#3d3d3d"/>
  <circle cx="154.2" cy="574.3" r="1.26" fill="#3d3d3d"/>
  <circle cx="740.8" cy="688.8" r="1.15" fill="#3d3d3d"/>
  <circle cx="456.0" cy="262.3" r="0.86" fill="#3d3d3d"/>
  <circle cx="405.7" cy="423.8" r="1.27" fill="#3d3d3d"/>
  <circle cx="552.4" cy="332.3" r="0.99" fill="#3d3d3d"/>
  <circle cx="415.6" cy="267.6" r="1.34" fill="#3d3d3d"/>
  <circle cx="700.6" cy="119.2" r="0.98" fill="#3d3d3d"/>
  <circle cx="664.1" cy="104.3" r="1.39" fill="#3d3d3d"/>
  <circle cx="498.8" cy="311.2" r="1.34" fill="#3d3d3d"/>
  <circle cx="499.6" cy="401.4" r="0.79" fill="#3d3d3d"/>
  <circle cx="383.3" cy="455.1" r="1.08" fill="#3d3d3d"/>
  <circle cx="56.2" cy="355.9" r="1.20" fill="#3d3d3d"/>
  <circle cx="494.9" cy="429.1" r="1.09" fill="#3d3d3d"/>
  <circle cx="366.5" cy="471.6" r="0.83" fill="#3d3d3d"/>
  <circle cx="659.3" cy="134.5" r="1.03" fill="#3d3d3d"/>
  <circle cx="431.6" cy="443.6" r="1.06" fill="#3d3d3d"/>
  <circle cx="454.4" cy="254.3" r="0.78" fill="#3d3d3d"/>
  <circle cx="385.3" cy="264.4" r="0.72" fill="#3d3d3d"/>
  <circle cx="309.0" cy="379.6" r="0.82" fill="#3d3d3d"/>
  <circle cx="427.9" cy="265.2" r="0.80" fill="#3d3d3d"/>
  <circle cx="381.6" cy="401.9" r="1.20" fill="#3d3d3d"/>
  <circle cx="390.3" cy="180.3" r="0.86" fill="#3d3d3d"/>
  <circle cx="790.9" cy="134.5" r="0.83" fill="#3d3d3d"/>
  <circle cx="175.9" cy="757.8" r="1.45" fill="#3d3d3d"/>
  <circle cx="263.9" cy="553.4" r="0.99" fill="#3d3d3d"/>
  <circle cx="423.9" cy="441.5" r="1.05" fill="#3d3d3d"/>
  <circle cx="421.9" cy="375.3" r="1.33" fill="#3d3d3d"/>
  <circle cx="788.2" cy="85.2" r="0.88" fill="#3d3d3d"/>
  <circle cx="511.1" cy="348.3" r="1.04" fill="#3d3d3d"/>
  <circle cx="401.7" cy="420.8" r="1.49" fill="#3d3d3d"/>
  <circle cx="420.7" cy="421.5" r="0.72" fill="#3d3d3d"/>
  <circle cx="315.1" cy="381.2" r="1.01" fill="#3d3d3d"/>
  <circle cx="423.4" cy="591.5" r="1.49" fill="#3d3d3d"/>
  <circle cx="786.1" cy="638.4" r="0.96" fill="#3d3d3d"/>
  <circle cx="468.3" cy="288.5" r="1.41" fill="#3d3d3d"/>
  <circle cx="509.2" cy="363.9" r="1.48" fill="#3d3d3d"/>
  <circle cx="377.2" cy="279.2" r="1.40" fill="#3d3d3d"/>
  <circle cx="403.5" cy="420.8" r="0.72" fill="#3d3d3d"/>
  <circle cx="293.7" cy="644.8" r="1.11" fill="#3d3d3d"/>
  <circle cx="353.9" cy="290.2" r="0.79" fill="#3d3d3d"/>
  <circle cx="407.1" cy="270.7" r="1.29" fill="#3d3d3d"/>
  <circle cx="457.7" cy="256.1" r="1.19" fill="#3d3d3d"/>
  <circle cx="500.5" cy="411.0" r="0.72" fill="#3d3d3d"/>
  <circle cx="349.6" cy="399.9" r="1.25" fill="#3d3d3d"/>
  <circle cx="356.8" cy="481.2" r="1.38" fill="#3d3d3d"/>
  <circle cx="694.6" cy="473.1" r="0.96" fill="#3d3d3d"/>
  <circle cx="142.0" cy="101.5" r="1.34" fill="#3d3d3d"/>
  <circle cx="482.1" cy="463.6" r="0.90" fill="#3d3d3d"/>
  <circle cx="691.8" cy="435.2" r="0.80" fill="#3d3d3d"/>
  <circle cx="367.8" cy="479.0" r="0.85" fill="#3d3d3d"/>
  <circle cx="385.5" cy="428.4" r="0.79" fill="#3d3d3d"/>
  <circle cx="722.1" cy="404.6" r="0.96" fill="#3d3d3d"/>
  <circle cx="198.4" cy="330.1" r="1.35" fill="#3d3d3d"/>
  <circle cx="414.0" cy="426.9" r="0.83" fill="#3d3d3d"/>
  <circle cx="404.2" cy="274.7" r="1.50" fill="#3d3d3d"/>
  <circle cx="222.9" cy="51.7" r="0.81" fill="#3d3d3d"/>
  <circle cx="422.5" cy="267.7" r="1.12" fill="#3d3d3d"/>
  <circle cx="492.1" cy="328.0" r="0.75" fill="#3d3d3d"/>
  <circle cx="495.0" cy="437.2" r="0.76" fill="#3d3d3d"/>
  <circle cx="514.1" cy="602.6" r="1.06" fill="#3d3d3d"/>
  <circle cx="596.9" cy="639.2" r="1.28" fill="#3d3d3d"/>
  <circle cx="578.2" cy="361.5" r="1.20" fill="#3d3d3d"/>
  <circle cx="98.9" cy="322.2" r="1.19" fill="#3d3d3d"/>
  <circle cx="441.5" cy="567.0" r="1.21" fill="#3d3d3d"/>
  <circle cx="437.1" cy="441.2" r="1.43" fill="#3d3d3d"/>
  <circle cx="337.1" cy="392.2" r="1.32" fill="#3d3d3d"/>
  <circle cx="476.2" cy="452.6" r="1.31" fill="#3d3d3d"/>
  <circle cx="348.3" cy="393.6" r="0.72" fill="#3d3d3d"/>
  <circle cx="370.8" cy="408.3" r="0.97" fill="#3d3d3d"/>
  <circle cx="293.0" cy="365.9" r="0.97" fill="#3d3d3d"/>
  <circle cx="506.5" cy="347.8" r="1.18" fill="#3d3d3d"/>
  <circle cx="487.0" cy="338.4" r="1.17" fill="#3d3d3d"/>
  <circle cx="346.9" cy="274.1" r="0.92" fill="#3d3d3d"/>
  <circle cx="343.9" cy="509.0" r="0.83" fill="#3d3d3d"/>
  <circle cx="379.8" cy="456.1" r="1.06" fill="#3d3d3d"/>
  <circle cx="350.8" cy="282.1" r="1.26" fill="#3d3d3d"/>
  <circle cx="421.4" cy="200.3" r="1.41" fill="#3d3d3d"/>
  <circle cx="515.1" cy="356.2" r="0.97" fill="#3d3d3d"/>
  <circle cx="502.9" cy="337.0" r="1.50" fill="#3d3d3d"/>
  <circle cx="514.9" cy="348.4" r="1.30" fill="#3d3d3d"/>
  <circle cx="461.0" cy="250.9" r="0.81" fill="#3d3d3d"/>
  <circle cx="329.9" cy="463.5" r="1.35" fill="#3d3d3d"/>
  <circle cx="505.6" cy="339.8" r="0.98" fill="#3d3d3d"/>
  <circle cx="466.5" cy="266.5" r="1.37" fill="#3d3d3d"/>
  <circle cx="505.5" cy="373.4" r="0.97" fill="#3d3d3d"/>
  <circle cx="520.1" cy="376.3" r="0.81" fill="#3d3d3d"/>
  <circle cx="370.4" cy="679.6" r="0.77" fill="#3d3d3d"/>
  <circle cx="471.3" cy="308.3" r="0.98" fill="#3d3d3d"/>
  <circle cx="364.4" cy="274.0" r="1.44" fill="#3d3d3d"/>
  <circle cx="207.6" cy="284.6" r="0.84" fill="#3d3d3d"/>
  <circle cx="519.3" cy="340.5" r="1.33" fill="#3d3d3d"/>
  <circle cx="714.7" cy="195.4" r="1.12" fill="#3d3d3d"/>
  <circle cx="557.9" cy="763.1" r="1.29" fill="#3d3d3d"/>
  <circle cx="381.6" cy="455.8" r="1.49" fill="#3d3d3d"/>
  <circle cx="439.4" cy="257.9" r="1.02" fill="#3d3d3d"/>
  <circle cx="465.9" cy="268.6" r="1.15" fill="#3d3d3d"/>
  <circle cx="437.5" cy="440.2" r="1.08" fill="#3d3d3d"/>
  <circle cx="454.5" cy="261.1" r="1.22" fill="#3d3d3d"/>
  <circle cx="464.1" cy="460.6" r="0.94" fill="#3d3d3d"/>
  <circle cx="475.2" cy="299.7" r="0.82" fill="#3d3d3d"/>
  <circle cx="153.8" cy="750.7" r="0.95" fill="#3d3d3d"/>
  <circle cx="458.1" cy="261.5" r="1.29" fill="#3d3d3d"/>
  <circle cx="391.8" cy="414.0" r="1.34" fill="#3d3d3d"/>
  <circle cx="354.0" cy="481.1" r="1.45" fill="#3d3d3d"/>
  <circle cx="487.6" cy="415.1" r="1.35" fill="#3d3d3d"/>
  <circle cx="520.8" cy="344.5" r="1.38" fill="#3d3d3d"/>
  <circle cx="763.1" cy="114.9" r="1.08" fill="#3d3d3d"/>
  <circle cx="458.8" cy="259.1" r="1.47" fill="#3d3d3d"/>
  <circle cx="453.5" cy="259.8" r="0.71" fill="#3d3d3d"/>
  <circle cx="325.1" cy="391.6" r="0.77" fill="#3d3d3d"/>
  <circle cx="210.7" cy="695.2" r="1.24" fill="#3d3d3d"/>
  <circle cx="303.0" cy="371.0" r="1.24" fill="#3d3d3d"/>
  <circle cx="501.3" cy="399.1" r="0.95" fill="#3d3d3d"/>
  <circle cx="761.7" cy="746.8" r="1.05" fill="#3d3d3d"/>
  <circle cx="376.6" cy="407.2" r="1.15" fill="#3d3d3d"/>
  <circle cx="506.7" cy="353.7" r="0.95" fill="#3d3d3d"/>
  <circle cx="474.8" cy="278.3" r="1.20" fill="#3d3d3d"/>
  <circle cx="269.1" cy="716.6" r="1.06" fill="#3d3d3d"/>
  <circle cx="442.2" cy="448.5" r="1.17" fill="#3d3d3d"/>
  <circle cx="501.6" cy="319.8" r="0.77" fill="#3d3d3d"/>
  <circle cx="1.8" cy="13.2" r="1.05" fill="#3d3d3d"/>
  <circle cx="376.3" cy="279.9" r="0.76" fill="#3d3d3d"/>
  <circle cx="540.4" cy="671.0" r="1.31" fill="#3d3d3d"/>
  <circle cx="199.7" cy="743.5" r="1.09" fill="#3d3d3d"/>
  <circle cx="455.8" cy="253.0" r="0.97" fill="#3d3d3d"/>
  <circle cx="712.1" cy="766.9" r="1.23" fill="#3d3d3d"/>
  <circle cx="348.4" cy="507.1" r="0.94" fill="#3d3d3d"/>
  <circle cx="194.7" cy="278.0" r="0.85" fill="#3d3d3d"/>
  <circle cx="369.1" cy="277.6" r="0.77" fill="#3d3d3d"/>
  <circle cx="201.8" cy="136.5" r="0.76" fill="#3d3d3d"/>
  <circle cx="467.8" cy="285.4" r="0.96" fill="#3d3d3d"/>
  <circle cx="452.4" cy="264.0" r="0.75" fill="#3d3d3d"/>
  <circle cx="305.3" cy="382.6" r="1.26" fill="#3d3d3d"/>
  <circle cx="434.8" cy="432.0" r="1.14" fill="#3d3d3d"/>
  <circle cx="226.9" cy="477.4" r="1.43" fill="#3d3d3d"/>
  <circle cx="450.1" cy="247.2" r="1.45" fill="#3d3d3d"/>
  <circle cx="373.2" cy="467.7" r="1.39" fill="#3d3d3d"/>
  <circle cx="513.1" cy="235.1" r="0.84" fill="#3d3d3d"/>
  <circle cx="473.5" cy="296.8" r="0.73" fill="#3d3d3d"/>
  <circle cx="493.7" cy="439.7" r="0.89" fill="#3d3d3d"/>
  <circle cx="407.9" cy="167.3" r="1.13" fill="#3d3d3d"/>
  <circle cx="30.3" cy="297.2" r="1.22" fill="#3d3d3d"/>
  <circle cx="367.9" cy="474.9" r="1.31" fill="#3d3d3d"/>
  <circle cx="444.4" cy="263.9" r="1.33" fill="#3d3d3d"/>
  <circle cx="482.8" cy="461.7" r="1.34" fill="#3d3d3d"/>
  <circle cx="344.1" cy="399.5" r="0.73" fill="#3d3d3d"/>
  <circle cx="419.6" cy="266.6" r="1.29" fill="#3d3d3d"/>
  <circle cx="255.8" cy="305.9" r="1.40" fill="#3d3d3d"/>
  <circle cx="404.1" cy="270.9" r="1.10" fill="#3d3d3d"/>
  <circle cx="451.5" cy="266.1" r="0.92" fill="#3d3d3d"/>
  <circle cx="252.5" cy="431.3" r="0.75" fill="#3d3d3d"/>
  <circle cx="734.0" cy="721.0" r="1.46" fill="#3d3d3d"/>
  <circle cx="303.7" cy="646.3" r="0.75" fill="#3d3d3d"/>
  <circle cx="435.4" cy="440.6" r="0.78" fill="#3d3d3d"/>
  <circle cx="357.5" cy="500.5" r="0.71" fill="#3d3d3d"/>
  <circle cx="510.0" cy="335.5" r="0.82" fill="#3d3d3d"/>
  <circle cx="406.2" cy="433.4" r="1.19" fill="#3d3d3d"/>
  <circle cx="515.6" cy="644.8" r="1.25" fill="#3d3d3d"/>
  <circle cx="403.6" cy="418.9" r="1.03" fill="#3d3d3d"/>
  <circle cx="151.2" cy="748.2" r="1.43" fill="#3d3d3d"/>
  <circle cx="344.3" cy="497.5" r="1.48" fill="#3d3d3d"/>
  <circle cx="374.4" cy="467.1" r="1.10" fill="#3d3d3d"/>
  <circle cx="344.6" cy="39.2" r="1.35" fill="#3d3d3d"/>
  <circle cx="610.8" cy="130.9" r="1.36" fill="#3d3d3d"/>
  <circle cx="456.8" cy="456.1" r="1.45" fill="#3d3d3d"/>
  <circle cx="359.6" cy="274.9" r="0.98" fill="#3d3d3d"/>
  <circle cx="605.3" cy="776.3" r="0.82" fill="#3d3d3d"/>
  <circle cx="482.8" cy="463.5" r="0.94" fill="#3d3d3d"/>
  <circle cx="502.0" cy="378.0" r="1.33" fill="#3d3d3d"/>
  <circle cx="667.9" cy="721.3" r="1.24" fill="#3d3d3d"/>
  <circle cx="492.4" cy="316.2" r="1.49" fill="#3d3d3d"/>
  <circle cx="58.5" cy="204.9" r="0.88" fill="#3d3d3d"/>
  <circle cx="359.6" cy="480.4" r="0.83" fill="#3d3d3d"/>
  <circle cx="391.9" cy="413.5" r="0.74" fill="#3d3d3d"/>
  <circle cx="342.1" cy="501.3" r="0.85" fill="#3d3d3d"/>
  <circle cx="257.5" cy="28.2" r="1.45" fill="#3d3d3d"/>
  <circle cx="698.3" cy="31.1" r="1.49" fill="#3d3d3d"/>
  <circle cx="478.8" cy="424.7" r="0.75" fill="#3d3d3d"/>
  <circle cx="502.8" cy="410.8" r="0.80" fill="#3d3d3d"/>
  <circle cx="515.5" cy="623.5" r="0.95" fill="#3d3d3d"/>
  <circle cx="483.1" cy="292.1" r="1.01" fill="#3d3d3d"/>
  <circle cx="513.0" cy="347.8" r="0.80" fill="#3d3d3d"/>
  <circle cx="464.9" cy="461.8" r="1.22" fill="#3d3d3d"/>
  <circle cx="351.7" cy="282.4" r="0.95" fill="#3d3d3d"/>
  <circle cx="611.1" cy="416.5" r="0.93" fill="#3d3d3d"/>
  <circle cx="560.0" cy="65.8" r="1.38" fill="#3d3d3d"/>
  <circle cx="380.5" cy="405.0" r="0.78" fill="#3d3d3d"/>
  <circle cx="361.8" cy="279.0" r="0.71" fill="#3d3d3d"/>
  <circle cx="462.4" cy="267.9" r="0.72" fill="#3d3d3d"/>
  <circle cx="349.4" cy="45.9" r="0.82" fill="#3d3d3d"/>
  <circle cx="510.7" cy="365.7" r="0.89" fill="#3d3d3d"/>
  <circle cx="365.6" cy="478.1" r="1.00" fill="#3d3d3d"/>
  <circle cx="491.9" cy="415.5" r="0.75" fill="#3d3d3d"/>
  <circle cx="625.1" cy="26.2" r="1.34" fill="#3d3d3d"/>
  <circle cx="382.0" cy="459.0" r="0.92" fill="#3d3d3d"/>
  <circle cx="360.2" cy="405.2" r="1.35" fill="#3d3d3d"/>
  <circle cx="380.6" cy="460.3" r="0.93" fill="#3d3d3d"/>
  <circle cx="502.7" cy="332.6" r="0.84" fill="#3d3d3d"/>
  <circle cx="514.4" cy="333.3" r="1.07" fill="#3d3d3d"/>
  <circle cx="508.8" cy="376.7" r="0.98" fill="#3d3d3d"/>
  <circle cx="299.2" cy="371.7" r="1.45" fill="#3d3d3d"/>
  <circle cx="57.4" cy="0.8" r="1.11" fill="#3d3d3d"/>
  <circle cx="344.2" cy="503.2" r="0.77" fill="#3d3d3d"/>
  <circle cx="431.8" cy="610.6" r="0.94" fill="#3d3d3d"/>
  <circle cx="163.4" cy="568.8" r="0.88" fill="#3d3d3d"/>
  <circle cx="504.6" cy="381.2" r="1.26" fill="#3d3d3d"/>
  <circle cx="456.7" cy="449.9" r="0.82" fill="#3d3d3d"/>
  <circle cx="492.2" cy="319.7" r="1.24" fill="#3d3d3d"/>
  <circle cx="515.3" cy="380.7" r="1.37" fill="#3d3d3d"/>
  <circle cx="362.1" cy="471.2" r="0.93" fill="#3d3d3d"/>
  <circle cx="437.6" cy="444.2" r="1.39" fill="#3d3d3d"/>
  <circle cx="363.3" cy="404.6" r="1.14" fill="#3d3d3d"/>
  <circle cx="236.3" cy="108.6" r="0.90" fill="#3d3d3d"/>
  <circle cx="500.2" cy="379.3" r="1.25" fill="#3d3d3d"/>
  <circle cx="372.6" cy="466.8" r="0.74" fill="#3d3d3d"/>
  <circle cx="561.5" cy="387.2" r="1.47" fill="#3d3d3d"/>
  <circle cx="446.0" cy="446.5" r="1.02" fill="#3d3d3d"/>
  <circle cx="325.7" cy="383.1" r="1.25" fill="#3d3d3d"/>
  <circle cx="430.7" cy="439.8" r="1.11" fill="#3d3d3d"/>
  <circle cx="500.1" cy="394.5" r="1.42" fill="#3d3d3d"/>
  <circle cx="322.0" cy="221.2" r="1.06" fill="#3d3d3d"/>
  <circle cx="396.0" cy="277.8" r="1.22" fill="#3d3d3d"/>
  <circle cx="449.7" cy="254.6" r="1.26" fill="#3d3d3d"/>
  <circle cx="501.1" cy="362.8" r="0.99" fill="#3d3d3d"/>
  <circle cx="326.3" cy="382.5" r="0.98" fill="#3d3d3d"/>
  <circle cx="444.1" cy="260.5" r="1.17" fill="#3d3d3d"/>
  <circle cx="480.3" cy="451.3" r="1.28" fill="#3d3d3d"/>
  <circle cx="476.9" cy="468.1" r="0.86" fill="#3d3d3d"/>
  <circle cx="378.5" cy="448.9" r="1.40" fill="#3d3d3d"/>
  <circle cx="94.7" cy="163.8" r="1.09" fill="#3d3d3d"/>
  <circle cx="439.0" cy="265.3" r="0.76" fill="#3d3d3d"/>
  <circle cx="351.6" cy="504.4" r="1.01" fill="#3d3d3d"/>
  <circle cx="99.4" cy="471.2" r="0.76" fill="#3d3d3d"/>
  <circle cx="291.5" cy="758.1" r="1.31" fill="#3d3d3d"/>
  <circle cx="350.5" cy="495.0" r="0.94" fill="#3d3d3d"/>
  <circle cx="521.5" cy="454.9" r="1.16" fill="#3d3d3d"/>
  <circle cx="476.0" cy="457.2" r="1.11" fill="#3d3d3d"/>
  <circle cx="497.7" cy="386.7" r="0.85" fill="#3d3d3d"/>
  <circle cx="387.8" cy="436.0" r="1.17" fill="#3d3d3d"/>
  <circle cx="492.7" cy="322.4" r="1.24" fill="#3d3d3d"/>
  <circle cx="377.2" cy="459.9" r="1.30" fill="#3d3d3d"/>
  <circle cx="385.1" cy="280.4" r="1.17" fill="#3d3d3d"/>
  <circle cx="417.5" cy="429.8" r="1.42" fill="#3d3d3d"/>
  <circle cx="401.6" cy="416.2" r="0.98" fill="#3d3d3d"/>
  <circle cx="345.6" cy="502.7" r="1.03" fill="#3d3d3d"/>
  <circle cx="511.5" cy="379.1" r="1.36" fill="#3d3d3d"/>
  <circle cx="381.0" cy="416.6" r="1.25" fill="#3d3d3d"/>
  <circle cx="514.7" cy="352.2" r="0.95" fill="#3d3d3d"/>
  <circle cx="345.2" cy="501.9" r="0.74" fill="#3d3d3d"/>
  <circle cx="621.6" cy="98.0" r="1.41" fill="#3d3d3d"/>
  <circle cx="479.6" cy="459.7" r="1.46" fill="#3d3d3d"/>
  <circle cx="428.9" cy="266.8" r="0.89" fill="#3d3d3d"/>
  <circle cx="385.6" cy="453.2" r="1.35" fill="#3d3d3d"/>
  <circle cx="173.4" cy="435.8" r="1.00" fill="#3d3d3d"/>
  <circle cx="522.9" cy="349.5" r="1.47" fill="#3d3d3d"/>
  <circle cx="493.5" cy="630.7" r="1.27" fill="#3d3d3d"/>
  <circle cx="517.0" cy="347.0" r="1.07" fill="#3d3d3d"/>
  <circle cx="445.3" cy="255.9" r="1.07" fill="#3d3d3d"/>
  <circle cx="373.9" cy="454.2" r="0.95" fill="#3d3d3d"/>
  <circle cx="255.4" cy="706.5" r="1.40" fill="#3d3d3d"/>
  <circle cx="342.9" cy="508.0" r="1.16" fill="#3d3d3d"/>
  <circle cx="379.2" cy="441.5" r="1.26" fill="#3d3d3d"/>
  <circle cx="375.8" cy="281.8" r="1.29" fill="#3d3d3d"/>
  <circle cx="451.0" cy="264.5" r="1.00" fill="#3d3d3d"/>
  <circle cx="689.3" cy="12.3" r="1.41" fill="#3d3d3d"/>
  <circle cx="193.2" cy="534.4" r="1.39" fill="#3d3d3d"/>
  <circle cx="318.6" cy="394.7" r="1.02" fill="#3d3d3d"/>
  <circle cx="398.0" cy="430.6" r="1.38" fill="#3d3d3d"/>
  <circle cx="496.7" cy="409.7" r="1.19" fill="#3d3d3d"/>
  <circle cx="208.5" cy="200.5" r="1.15" fill="#3d3d3d"/>
  <circle cx="357.6" cy="492.2" r="1.46" fill="#3d3d3d"/>
  <circle cx="362.1" cy="271.9" r="0.89" fill="#3d3d3d"/>
  <circle cx="358.3" cy="497.7" r="1.30" fill="#3d3d3d"/>
  <circle cx="103.2" cy="282.9" r="1.21" fill="#3d3d3d"/>
  <circle cx="519.4" cy="356.0" r="0.87" fill="#3d3d3d"/>
  <circle cx="370.4" cy="458.7" r="0.98" fill="#3d3d3d"/>
  <circle cx="626.9" cy="691.1" r="0.78" fill="#3d3d3d"/>
  <circle cx="457.1" cy="455.6" r="1.42" fill="#3d3d3d"/>
  <circle cx="466.6" cy="453.0" r="0.94" fill="#3d3d3d"/>
  <circle cx="327.1" cy="382.9" r="1.40" fill="#3d3d3d"/>
  <circle cx="488.4" cy="435.7" r="1.06" fill="#3d3d3d"/>
  <circle cx="482.8" cy="441.1" r="1.30" fill="#3d3d3d"/>
  <circle cx="725.8" cy="552.8" r="1.35" fill="#3d3d3d"/>
  <circle cx="605.3" cy="384.0" r="1.32" fill="#3d3d3d"/>
  <circle cx="337.2" cy="389.9" r="0.78" fill="#3d3d3d"/>
  <circle cx="406.9" cy="436.7" r="1.39" fill="#3d3d3d"/>
  <circle cx="298.8" cy="366.9" r="0.85" fill="#3d3d3d"/>
  <circle cx="427.7" cy="262.9" r="1.13" fill="#3d3d3d"/>
  <circle cx="361.9" cy="282.0" r="0.85" fill="#3d3d3d"/>
  <circle cx="454.8" cy="260.4" r="1.19" fill="#3d3d3d"/>
  <circle cx="439.2" cy="361.6" r="1.18" fill="#3d3d3d"/>
  <circle cx="431.6" cy="270.2" r="1.45" fill="#3d3d3d"/>
  <circle cx="294.3" cy="363.9" r="0.74" fill="#3d3d3d"/>
  <circle cx="470.7" cy="451.5" r="1.32" fill="#3d3d3d"/>
  <circle cx="474.0" cy="438.4" r="1.04" fill="#3d3d3d"/>
  <circle cx="443.6" cy="448.0" r="1.06" fill="#3d3d3d"/>
  <circle cx="446.2" cy="4.7" r="1.30" fill="#3d3d3d"/>
  <circle cx="440.3" cy="253.0" r="1.22" fill="#3d3d3d"/>
  <circle cx="520.9" cy="344.7" r="0.71" fill="#3d3d3d"/>
  <circle cx="422.2" cy="265.8" r="1.01" fill="#3d3d3d"/>
  <circle cx="460.1" cy="449.4" r="0.73" fill="#3d3d3d"/>
  <circle cx="698.5" cy="112.8" r="0.93" fill="#3d3d3d"/>
  <circle cx="414.2" cy="435.7" r="0.89" fill="#3d3d3d"/>
  <circle cx="390.3" cy="169.6" r="1.11" fill="#3d3d3d"/>
  <circle cx="377.6" cy="452.8" r="0.76" fill="#3d3d3d"/>
  <circle cx="487.2" cy="225.6" r="1.39" fill="#3d3d3d"/>
  <circle cx="499.5" cy="392.7" r="1.45" fill="#3d3d3d"/>
  <circle cx="478.9" cy="458.0" r="1.44" fill="#3d3d3d"/>
  <circle cx="301.3" cy="372.8" r="1.17" fill="#3d3d3d"/>
  <circle cx="522.7" cy="348.9" r="1.45" fill="#3d3d3d"/>
  <circle cx="363.8" cy="481.9" r="1.45" fill="#3d3d3d"/>
  <circle cx="504.8" cy="367.9" r="1.19" fill="#3d3d3d"/>
  <circle cx="346.3" cy="485.2" r="0.77" fill="#3d3d3d"/>
  <circle cx="526.5" cy="158.9" r="1.02" fill="#3d3d3d"/>
  <circle cx="492.2" cy="316.8" r="1.13" fill="#3d3d3d"/>
  <circle cx="474.5" cy="306.7" r="1.45" fill="#3d3d3d"/>
  <circle cx="317.6" cy="269.1" r="0.98" fill="#3d3d3d"/>
  <circle cx="394.5" cy="274.8" r="0.92" fill="#3d3d3d"/>
  <circle cx="510.9" cy="357.0" r="0.92" fill="#3d3d3d"/>
  <circle cx="427.1" cy="429.4" r="0.83" fill="#3d3d3d"/>
  <circle cx="129.2" cy="624.2" r="1.26" fill="#3d3d3d"/>
  <circle cx="356.3" cy="404.6" r="1.03" fill="#3d3d3d"/>
  <circle cx="517.8" cy="341.0" r="1.01" fill="#3d3d3d"/>
  <circle cx="483.7" cy="466.6" r="1.23" fill="#3d3d3d"/>
  <circle cx="396.1" cy="421.6" r="1.01" fill="#3d3d3d"/>
  <circle cx="483.8" cy="418.0" r="1.17" fill="#3d3d3d"/>
  <circle cx="478.2" cy="468.3" r="1.44" fill="#3d3d3d"/>
  <circle cx="450.7" cy="449.4" r="1.11" fill="#3d3d3d"/>
  <circle cx="510.2" cy="337.0" r="0.72" fill="#3d3d3d"/>
  <circle cx="501.8" cy="357.3" r="1.40" fill="#3d3d3d"/>
  <circle cx="31.0" cy="745.4" r="1.42" fill="#3d3d3d"/>
  <circle cx="134.5" cy="278.4" r="0.92" fill="#3d3d3d"/>
  <circle cx="311.3" cy="380.3" r="1.29" fill="#3d3d3d"/>
  <circle cx="280.8" cy="527.9" r="1.49" fill="#3d3d3d"/>
  <circle cx="376.7" cy="277.5" r="1.27" fill="#3d3d3d"/>
  <circle cx="130.1" cy="548.5" r="1.40" fill="#3d3d3d"/>
  <circle cx="485.0" cy="302.0" r="1.27" fill="#3d3d3d"/>
  <circle cx="393.5" cy="421.5" r="1.28" fill="#3d3d3d"/>
  <circle cx="445.8" cy="441.3" r="1.16" fill="#3d3d3d"/>
  <circle cx="323.1" cy="392.3" r="1.39" fill="#3d3d3d"/>
  <circle cx="395.5" cy="443.4" r="0.78" fill="#3d3d3d"/>
  <circle cx="452.1" cy="260.7" r="1.48" fill="#3d3d3d"/>
  <circle cx="395.6" cy="262.7" r="1.30" fill="#3d3d3d"/>
  <circle cx="658.2" cy="620.4" r="1.11" fill="#3d3d3d"/>
  <circle cx="497.7" cy="374.0" r="1.15" fill="#3d3d3d"/>
  <circle cx="465.7" cy="268.1" r="1.27" fill="#3d3d3d"/>
  <circle cx="713.5" cy="469.8" r="1.28" fill="#3d3d3d"/>
  <circle cx="398.3" cy="415.1" r="0.74" fill="#3d3d3d"/>
  <circle cx="503.7" cy="402.0" r="1.44" fill="#3d3d3d"/>
  <circle cx="453.8" cy="262.0" r="1.21" fill="#3d3d3d"/>
  <circle cx="142.8" cy="708.0" r="1.08" fill="#3d3d3d"/>
  <circle cx="496.0" cy="386.6" r="0.88" fill="#3d3d3d"/>
  <circle cx="330.2" cy="279.0" r="0.99" fill="#3d3d3d"/>
  <circle cx="372.2" cy="279.7" r="1.43" fill="#3d3d3d"/>
  <circle cx="247.5" cy="708.4" r="1.22" fill="#3d3d3d"/>
  <circle cx="485.4" cy="459.3" r="1.44" fill="#3d3d3d"/>
  <circle cx="367.1" cy="271.1" r="1.37" fill="#3d3d3d"/>
  <circle cx="496.9" cy="303.1" r="1.03" fill="#3d3d3d"/>
  <circle cx="311.0" cy="383.2" r="1.08" fill="#3d3d3d"/>
  <circle cx="481.9" cy="304.1" r="1.48" fill="#3d3d3d"/>
  <circle cx="427.5" cy="261.8" r="1.28" fill="#3d3d3d"/>
  <circle cx="483.8" cy="423.5" r="1.31" fill="#3d3d3d"/>
  <circle cx="321.7" cy="393.3" r="1.44" fill="#3d3d3d"/>
  <circle cx="155.0" cy="269.1" r="0.78" fill="#3d3d3d"/>
  <circle cx="700.0" cy="233.3" r="1.17" fill="#3d3d3d"/>
  <circle cx="195.6" cy="159.4" r="0.78" fill="#3d3d3d"/>
  <circle cx="455.2" cy="270.6" r="1.46" fill="#3d3d3d"/>
  <circle cx="559.2" cy="644.0" r="0.91" fill="#3d3d3d"/>
  <circle cx="456.0" cy="257.2" r="1.37" fill="#3d3d3d"/>
  <circle cx="503.4" cy="401.7" r="1.12" fill="#3d3d3d"/>
  <circle cx="417.8" cy="427.8" r="0.85" fill="#3d3d3d"/>
  <circle cx="374.0" cy="447.8" r="1.30" fill="#3d3d3d"/>
  <circle cx="495.4" cy="374.5" r="0.82" fill="#3d3d3d"/>
  <circle cx="500.6" cy="388.9" r="1.05" fill="#3d3d3d"/>
  <circle cx="419.2" cy="261.3" r="0.97" fill="#3d3d3d"/>
  <circle cx="697.5" cy="340.5" r="1.02" fill="#3d3d3d"/>
  <circle cx="297.2" cy="379.0" r="0.77" fill="#3d3d3d"/>
  <circle cx="168.6" cy="34.6" r="0.99" fill="#3d3d3d"/>
  <circle cx="477.0" cy="456.0" r="1.19" fill="#3d3d3d"/>
  <circle cx="626.0" cy="630.4" r="1.43" fill="#3d3d3d"/>
  <circle cx="411.8" cy="696.7" r="0.87" fill="#3d3d3d"/>
  <circle cx="701.8" cy="464.6" r="0.95" fill="#3d3d3d"/>
  <circle cx="355.9" cy="403.7" r="0.97" fill="#3d3d3d"/>
  <circle cx="560.3" cy="388.3" r="1.46" fill="#3d3d3d"/>
  <circle cx="348.0" cy="398.6" r="0.71" fill="#3d3d3d"/>
  <circle cx="46.3" cy="283.4" r="0.70" fill="#3d3d3d"/>
  <circle cx="367.6" cy="408.5" r="1.03" fill="#3d3d3d"/>
  <circle cx="341.6" cy="3.2" r="0.80" fill="#3d3d3d"/>
  <circle cx="342.0" cy="389.4" r="0.80" fill="#3d3d3d"/>
  <circle cx="377.0" cy="464.9" r="0.87" fill="#3d3d3d"/>
  <circle cx="509.2" cy="346.5" r="1.00" fill="#3d3d3d"/>
  <circle cx="402.8" cy="433.7" r="0.98" fill="#3d3d3d"/>
  <circle cx="75.8" cy="195.3" r="1.29" fill="#3d3d3d"/>
  <circle cx="293.9" cy="371.9" r="0.88" fill="#3d3d3d"/>
  <circle cx="137.6" cy="374.0" r="0.72" fill="#3d3d3d"/>
  <circle cx="417.6" cy="476.4" r="1.34" fill="#3d3d3d"/>
  <circle cx="487.7" cy="448.7" r="1.29" fill="#3d3d3d"/>
  <circle cx="775.8" cy="33.5" r="0.82" fill="#3d3d3d"/>
  <circle cx="443.5" cy="448.8" r="1.11" fill="#3d3d3d"/>
  <circle cx="512.6" cy="130.6" r="1.48" fill="#3d3d3d"/>
  <circle cx="491.7" cy="313.0" r="1.07" fill="#3d3d3d"/>
  <circle cx="335.1" cy="391.3" r="1.04" fill="#3d3d3d"/>
  <circle cx="388.1" cy="447.7" r="1.05" fill="#3d3d3d"/>
  <circle cx="272.0" cy="496.1" r="0.88" fill="#3d3d3d"/>
  <circle cx="445.4" cy="254.2" r="1.44" fill="#3d3d3d"/>
  <circle cx="432.4" cy="445.8" r="0.82" fill="#3d3d3d"/>
  <circle cx="261.5" cy="418.1" r="0.86" fill="#3d3d3d"/>
  <circle cx="713.6" cy="166.6" r="1.37" fill="#3d3d3d"/>
  <circle cx="326.8" cy="705.4" r="0.99" fill="#3d3d3d"/>
  <circle cx="346.9" cy="499.8" r="0.87" fill="#3d3d3d"/>
  <circle cx="664.1" cy="663.3" r="1.37" fill="#3d3d3d"/>
  <circle cx="272.5" cy="672.2" r="1.13" fill="#3d3d3d"/>
  <circle cx="456.3" cy="449.8" r="1.07" fill="#3d3d3d"/>
  <circle cx="371.1" cy="461.9" r="0.85" fill="#3d3d3d"/>
  <circle cx="21.6" cy="535.4" r="0.81" fill="#3d3d3d"/>
  <circle cx="356.7" cy="113.3" r="1.17" fill="#3d3d3d"/>
  <circle cx="96.5" cy="121.3" r="1.00" fill="#3d3d3d"/>
  <circle cx="605.1" cy="605.2" r="1.07" fill="#3d3d3d"/>
  <circle cx="476.1" cy="451.2" r="0.88" fill="#3d3d3d"/>
  <circle cx="504.9" cy="346.0" r="1.40" fill="#3d3d3d"/>
  <circle cx="108.9" cy="540.3" r="1.29" fill="#3d3d3d"/>
  <circle cx="403.0" cy="269.4" r="0.86" fill="#3d3d3d"/>
  <circle cx="302.4" cy="376.2" r="1.49" fill="#3d3d3d"/>
  <circle cx="449.7" cy="252.8" r="1.19" fill="#3d3d3d"/>
  <circle cx="324.0" cy="389.5" r="1.50" fill="#3d3d3d"/>
  <circle cx="361.6" cy="269.5" r="0.73" fill="#3d3d3d"/>
  <circle cx="366.2" cy="474.8" r="1.07" fill="#3d3d3d"/>
  <circle cx="293.4" cy="378.1" r="1.09" fill="#3d3d3d"/>
  <circle cx="486.5" cy="419.6" r="1.00" fill="#3d3d3d"/>
  <circle cx="363.0" cy="279.1" r="1.27" fill="#3d3d3d"/>
  <circle cx="464.4" cy="273.8" r="1.46" fill="#3d3d3d"/>
  <circle cx="479.8" cy="292.2" r="1.12" fill="#3d3d3d"/>
  <circle cx="10.8" cy="63.5" r="1.46" fill="#3d3d3d"/>
  <circle cx="155.9" cy="370.5" r="1.41" fill="#3d3d3d"/>
</svg>
