<svg viewBox="0 0 800 800" xmlns="http://www.w3.org/2000/svg">
  <circle cx="377.1" cy="387.3" r="0.78" fill="#3d3d3d"/>
  <circle cx="418.7" cy="404.7" r="1.00" fill="#3d3d3d"/>
  <circle cx="259.5" cy="404.9" r="0.81" fill="#3d3d3d"/>
  <circle cx="119.3" cy="400.6" r="1.21" fill="#3d3d3d"/>
  <circle cx="219.5" cy="398.0" r="0.80" fill="#3d3d3d"/>
  <circle cx="284.0" cy="403.6" r="1.02" fill="#3d3d3d"/>
  <circle cx="272.8" cy="398.7" r="1.13" fill="#3d3d3d"/>
  <circle cx="271.2" cy="386.7" r="0.72" fill="#3d3d3d"/>
  <circle cx="585.0" cy="403.7" r="1.47" fill="#3d3d3d"/>
  <circle cx="664.8" cy="400.3" r="0.92" fill="#3d3d3d"/>
  <circle cx="434.0" cy="393.9" r="1.13" fill="#3d3d3d"/>
  <circle cx="371.8" cy="419.1" r="1.21" fill="#3d3d3d"/>
  <circle cx="122.6" cy="406.8" r="1.19" fill="#3d3d3d"/>
  <circle cx="195.7" cy="393.6" r="1.27" fill="#3d3d3d"/>
  <circle cx="389.3" cy="400.4" r="1.33" fill="#3d3d3d"/>
  <circle cx="139.8" cy="419.5" r="0.89" fill="#3d3d3d"/>
  <circle cx="342.1" cy="391.6" r="1.38" fill="#3d3d3d"/>
  <circle cx="144.4" cy="405.1" r="0.73" fill="#3d3d3d"/>
  <circle cx="419.0" cy="399.3" r="0.73" fill="#3d3d3d"/>
  <circle cx="238.2" cy="392.8" r="1.41" fill="#3d3d3d"/>
  <circle cx="259.1" cy="402.2" r="0.74" fill="#3d3d3d"/>
  <circle cx="599.0" cy="399.8" r="1.04" fill="#3d3d3d"/>
  <circle cx="162.5" cy="396.0" r="1.26" fill="#3d3d3d"/>
  <circle cx="526.0" cy="205.3" r="1.25" fill="#3d3d3d"/>
  <circle cx="555.5" cy="403.3" r="1.19" fill="#3d3d3d"/>
  <circle cx="432.5" cy="391.2" r="1.48" fill="#3d3d3d"/>
  <circle cx="265.7" cy="396.7" r="1.25" fill="#3d3d3d"/>
  <circle cx="520.6" cy="243.3" r="0.97" fill="#3d3d3d"/>
  <circle cx="633.6" cy="402.0" r="1.43" fill="#3d3d3d"/>
  <circle cx="327.3" cy="405.5" r="1.15" fill="#3d3d3d"/>
  <circle cx="131.8" cy="393.4" r="0.96" fill="#3d3d3d"/>
  <circle cx="660.6" cy="393.1" r="0.97" fill="#3d3d3d"/>
  <circle cx="337.8" cy="392.9" r="1.37" fill="#3d3d3d"/>
  <circle cx="516.4" cy="405.1" r="0.79" fill="#3d3d3d"/>
  <circle cx="475.0" cy="404.1" r="1.43" fill="#3d3d3d"/>
  <circle cx="337.9" cy="395.9" r="0.90" fill="#3d3d3d"/>
  <circle cx="181.5" cy="392.6" r="1.00" fill="#3d3d3d"/>
  <circle cx="262.0" cy="393.0" r="1.20" fill="#3d3d3d"/>
  <circle cx="279.5" cy="402.7" r="1.47" fill="#3d3d3d"/>
  <circle cx="146.6" cy="402.8" r="1.01" fill="#3d3d3d"/>
  <circle cx="422.7" cy="402.0" r="1.19" fill="#3d3d3d"/>
  <circle cx="645.5" cy="403.4" r="1.20" fill="#3d3d3d"/>
  <circle cx="159.8" cy="401.6" r="0.92" fill="#3d3d3d"/>
  <circle cx="568.3" cy="398.8" r="1.13" fill="#3d3d3d"/>
  <circle cx="88.8" cy="275.0" r="1.08" fill="#3d3d3d"/>
  <circle cx="256.3" cy="405.2" r="1.49" fill="#3d3d3d"/>
  <circle cx="249.3" cy="399.1" r="0.85" fill="#3d3d3d"/>
  <circle cx="590.6" cy="403.2" r="1.30" fill="#3d3d3d"/>
  <circle cx="633.9" cy="397.2" r="1.19" fill="#3d3d3d"/>
  <circle cx="162.3" cy="392.9" r="1.27" fill="#3d3d3d"/>
  <circle cx="540.7" cy="387.4" r="1.46" fill="#3d3d3d"/>
  <circle cx="559.1" cy="415.5" r="1.36" fill="#3d3d3d"/>
  <circle cx="208.5" cy="756.9" r="1.19" fill="#3d3d3d"/>
  <circle cx="481.2" cy="391.7" r="1.18" fill="#3d3d3d"/>
  <circle cx="310.4" cy="397.6" r="1.19" fill="#3d3d3d"/>
  <circle cx="379.8" cy="397.7" r="1.30" fill="#3d3d3d"/>
  <circle cx="396.9" cy="399.0" r="1.22" fill="#3d3d3d"/>
  <circle cx="224.8" cy="396.6" r="1.48" fill="#3d3d3d"/>
  <circle cx="503.7" cy="399.7" r="0.83" fill="#3d3d3d"/>
  <circle cx="470.6" cy="392.7" r="1.18" fill="#3d3d3d"/>
  <circle cx="258.6" cy="396.9" r="1.36" fill="#3d3d3d"/>
  <circle cx="490.4" cy="404.9" r="1.01" fill="#3d3d3d"/>
  <circle cx="195.2" cy="405.5" r="1.17" fill="#3d3d3d"/>
  <circle cx="350.8" cy="396.8" r="1.45" fill="#3d3d3d"/>
  <circle cx="570.5" cy="390.6" r="1.34" fill="#3d3d3d"/>
  <circle cx="479.4" cy="386.9" r="1.50" fill="#3d3d3d"/>
  <circle cx="456.7" cy="394.6" r="1.27" fill="#3d3d3d"/>
  <circle cx="442.1" cy="411.8" r="1.11" fill="#3d3d3d"/>
  <circle cx="524.1" cy="401.1" r="1.37" fill="#3d3d3d"/>
  <circle cx="303.8" cy="400.9" r="1.09" fill="#3d3d3d"/>
  <circle cx="395.0" cy="416.6" r="0.78" fill="#3d3d3d"/>
  <circle cx="158.3" cy="643.3" r="1.21" fill="#3d3d3d"/>
  <circle cx="551.2" cy="392.8" r="1.17" fill="#3d3d3d"/>
  <circle cx="93.8" cy="696.7" r="1.33" fill="#3d3d3d"/>
  <circle cx="196.7" cy="407.9" r="0.79" fill="#3d3d3d"/>
  <circle cx="233.1" cy="404.2" r="1.06" fill="#3d3d3d"/>
  <circle cx="586.3" cy="407.9" r="0.92" fill="#3d3d3d"/>
  <circle cx="671.5" cy="403.0" r="0.86" fill="#3d3d3d"/>
  <circle cx="653.1" cy="400.2" r="1.30" fill="#3d3d3d"/>
  <circle cx="292.4" cy="661.5" r="1.14" fill="#3d3d3d"/>
  <circle cx="148.9" cy="398.3" r="1.04" fill="#3d3d3d"/>
  <circle cx="201.3" cy="389.9" r="0.96" fill="#3d3d3d"/>
  <circle cx="295.6" cy="394.7" r="0.80" fill="#3d3d3d"/>
  <circle cx="458.4" cy="405.2" r="1.01" fill="#3d3d3d"/>
  <circle cx="172.0" cy="390.2" r="1.26" fill="#3d3d3d"/>
  <circle cx="607.4" cy="402.7" r="1.43" fill="#3d3d3d"/>
  <circle cx="340.4" cy="412.0" r="0.91" fill="#3d3d3d"/>
  <circle cx="169.8" cy="392.8" r="1.30" fill="#3d3d3d"/>
  <circle cx="587.3" cy="406.2" r="1.34" fill="#3d3d3d"/>
  <circle cx="234.1" cy="394.5" r="1.16" fill="#3d3d3d"/>
  <circle cx="330.9" cy="597.0" r="0.94" fill="#3d3d3d"/>
  <circle cx="294.8" cy="390.0" r="0.91" fill="#3d3d3d"/>
  <circle cx="451.6" cy="402.8" r="1.09" fill="#3d3d3d"/>
  <circle cx="764.1" cy="270.7" r="0.72" fill="#3d3d3d"/>
  <circle cx="764.6" cy="145.2" r="1.30" fill="#3d3d3d"/>
  <circle cx="497.6" cy="401.8" r="0.97" fill="#3d3d3d"/>
  <circle cx="181.5" cy="398.6" r="0.75" fill="#3d3d3d"/>
  <circle cx="457.7" cy="400.5" r="0.91" fill="#3d3d3d"/>
  <circle cx="597.2" cy="409.7" r="0.94" fill="#3d3d3d"/>
  <circle cx="197.2" cy="391.0" r="1.47" fill="#3d3d3d"/>
  <circle cx="249.0" cy="413.9" r="1.23" fill="#3d3d3d"/>
  <circle cx="684.6" cy="401.1" r="0.76" fill="#3d3d3d"/>
  <circle cx="396.8" cy="404.2" r="1.22" fill="#3d3d3d"/>
  <circle cx="253.4" cy="403.3" r="1.20" fill="#3d3d3d"/>
  <circle cx="115.1" cy="401.5" r="1.40" fill="#3d3d3d"/>
  <circle cx="500.5" cy="403.7" r="0.81" fill="#3d3d3d"/>
  <circle cx="463.9" cy="406.3" r="0.76" fill="#3d3d3d"/>
  <circle cx="307.5" cy="401.8" r="0.91" fill="#3d3d3d"/>
  <circle cx="531.0" cy="386.2" r="1.23" fill="#3d3d3d"/>
  <circle cx="406.8" cy="389.9" r="0.73" fill="#3d3d3d"/>
  <circle cx="426.7" cy="402.0" r="0.75" fill="#3d3d3d"/>
  <circle cx="464.2" cy="406.6" r="1.49" fill="#3d3d3d"/>
  <circle cx="504.2" cy="393.8" r="1.13" fill="#3d3d3d"/>
  <circle cx="384.3" cy="398.3" r="1.31" fill="#3d3d3d"/>
  <circle cx="235.6" cy="397.0" r="1.26" fill="#3d3d3d"/>
  <circle cx="225.4" cy="389.0" r="1.33" fill="#3d3d3d"/>
  <circle cx="461.3" cy="403.5" r="0.91" fill="#3d3d3d"/>
  <circle cx="207.5" cy="387.1" r="1.21" fill="#3d3d3d"/>
  <circle cx="585.7" cy="406.6" r="1.38" fill="#3d3d3d"/>
  <circle cx="212.3" cy="386.4" r="1.20" fill="#3d3d3d"/>
  <circle cx="396.5" cy="2.5" r="1.48" fill="#3d3d3d"/>
  <circle cx="412.5" cy="408.5" r="1.50" fill="#3d3d3d"/>
  <circle cx="681.2" cy="402.7" r="1.49" fill="#3d3d3d"/>
  <circle cx="500.4" cy="397.6" r="1.36" fill="#3d3d3d"/>
  <circle cx="442.1" cy="406.9" r="0.73" fill="#3d3d3d"/>
  <circle cx="133.3" cy="389.5" r="0.82" fill="#3d3d3d"/>
  <circle cx="446.1" cy="392.2" r="0.90" fill="#3d3d3d"/>
  <circle cx="402.4" cy="394.4" r="0.76" fill="#3d3d3d"/>
  <circle cx="270.2" cy="395.2" r="1.16" fill="#3d3d3d"/>
  <circle cx="357.7" cy="782.5" r="0.73" fill="#3d3d3d"/>
  <circle cx="282.8" cy="402.0" r="1.28" fill="#3d3d3d"/>
  <circle cx="562.0" cy="397.8" r="1.28" fill="#3d3d3d"/>
  <circle cx="209.8" cy="405.8" r="1.03" fill="#3d3d3d"/>
  <circle cx="241.3" cy="400.8" r="1.14" fill="#3d3d3d"/>
  <circle cx="646.8" cy="397.8" r="0.90" fill="#3d3d3d"/>
  <circle cx="302.6" cy="383.1" r="1.27" fill="#3d3d3d"/>
  <circle cx="693.6" cy="789.5" r="0.72" fill="#3d3d3d"/>
  <circle cx="417.7" cy="396.0" r="1.24" fill="#3d3d3d"/>
  <circle cx="658.7" cy="392.2" r="0.78" fill="#3d3d3d"/>
  <circle cx="578.8" cy="401.7" r="0.86" fill="#3d3d3d"/>
  <circle cx="486.4" cy="408.1" r="1.43" fill="#3d3d3d"/>
  <circle cx="140.0" cy="398.9" r="1.49" fill="#3d3d3d"/>
  <circle cx="201.8" cy="392.5" r="0.89" fill="#3d3d3d"/>
  <circle cx="540.7" cy="458.0" r="1.17" fill="#3d3d3d"/>
  <circle cx="613.2" cy="391.4" r="1.35" fill="#3d3d3d"/>
  <circle cx="382.3" cy="386.0" r="0.97" fill="#3d3d3d"/>
  <circle cx="118.3" cy="393.4" r="0.76" fill="#3d3d3d"/>
  <circle cx="238.8" cy="393.4" r="0.97" fill="#3d3d3d"/>
  <circle cx="426.1" cy="399.5" r="1.34" fill="#3d3d3d"/>
  <circle cx="658.4" cy="394.8" r="1.24" fill="#3d3d3d"/>
  <circle cx="219.7" cy="398.3" r="1.17" fill="#3d3d3d"/>
  <circle cx="364.7" cy="395.6" r="0.84" fill="#3d3d3d"/>
  <circle cx="619.6" cy="402.1" r="1.41" fill="#3d3d3d"/>
  <circle cx="201.0" cy="401.9" r="1.49" fill="#3d3d3d"/>
  <circle cx="665.3" cy="410.4" r="1.50" fill="#3d3d3d"/>
  <circle cx="154.5" cy="408.3" r="1.05" fill="#3d3d3d"/>
  <circle cx="156.9" cy="394.7" r="0.90" fill="#3d3d3d"/>
  <circle cx="160.2" cy="381.3" r="0.80" fill="#3d3d3d"/>
  <circle cx="638.1" cy="394.2" r="0.97" fill="#3d3d3d"/>
  <circle cx="445.5" cy="397.3" r="1.13" fill="#3d3d3d"/>
  <circle cx="149.1" cy="409.3" r="1.04" fill="#3d3d3d"/>
  <circle cx="412.8" cy="390.8" r="1.48" fill="#3d3d3d"/>
  <circle cx="398.3" cy="395.3" r="0.80" fill="#3d3d3d"/>
  <circle cx="194.5" cy="402.1" r="1.13" fill="#3d3d3d"/>
  <circle cx="170.4" cy="404.2" r="0.70" fill="#3d3d3d"/>
  <circle cx="516.7" cy="389.3" r="0.73" fill="#3d3d3d"/>
  <circle cx="374.0" cy="401.7" r="0.85" fill="#3d3d3d"/>
  <circle cx="183.6" cy="399.7" r="1.39" fill="#3d3d3d"/>
  <circle cx="5.8" cy="126.6" r="0.79" fill="#3d3d3d"/>
  <circle cx="388.2" cy="392.0" r="1.49" fill="#3d3d3d"/>
  <circle cx="149.2" cy="412.3" r="1.01" fill="#3d3d3d"/>
  <circle cx="357.3" cy="408.9" r="1.01" fill="#3d3d3d"/>
  <circle cx="337.6" cy="399.3" r="0.74" fill="#3d3d3d"/>
  <circle cx="272.4" cy="389.2" r="1.24" fill="#3d3d3d"/>
  <circle cx="587.4" cy="399.1" r="1.12" fill="#3d3d3d"/>
  <circle cx="295.6" cy="390.5" r="1.11" fill="#3d3d3d"/>
  <circle cx="560.5" cy="383.9" r="1.22" fill="#3d3d3d"/>
  <circle cx="252.2" cy="395.5" r="1.03" fill="#3d3d3d"/>
  <circle cx="233.2" cy="401.2" r="0.93" fill="#3d3d3d"/>
  <circle cx="481.4" cy="401.7" r="1.12" fill="#3d3d3d"/>
  <circle cx="264.9" cy="396.7" r="1.12" fill="#3d3d3d"/>
  <circle cx="507.5" cy="406.1" r="1.49" fill="#3d3d3d"/>
  <circle cx="332.0" cy="407.1" r="1.33" fill="#3d3d3d"/>
  <circle cx="241.5" cy="404.8" r="1.06" fill="#3d3d3d"/>
  <circle cx="120.2" cy="403.8" r="1.15" fill="#3d3d3d"/>
  <circle cx="550.9" cy="396.3" r="1.16" fill="#3d3d3d"/>
  <circle cx="435.0" cy="399.0" r="1.48" fill="#3d3d3d"/>
  <circle cx="254.6" cy="409.3" r="1.38" fill="#3d3d3d"/>
  <circle cx="446.9" cy="394.0" r="0.90" fill="#3d3d3d"/>
  <circle cx="349.3" cy="399.3" r="1.49" fill="#3d3d3d"/>
  <circle cx="597.8" cy="393.8" r="1.02" fill="#3d3d3d"/>
  <circle cx="556.5" cy="409.9" r="1.48" fill="#3d3d3d"/>
  <circle cx="263.4" cy="394.6" r="0.85" fill="#3d3d3d"/>
  <circle cx="668.5" cy="409.7" r="1.30" fill="#3d3d3d"/>
  <circle cx="583.3" cy="397.4" r="0.91" fill="#3d3d3d"/>
  <circle cx="211.0" cy="400.0" r="0.79" fill="#3d3d3d"/>
  <circle cx="562.4" cy="407.0" r="0.93" fill="#3d3d3d"/>
  <circle cx="164.9" cy="388.6" r="0.88" fill="#3d3d3d"/>
  <circle cx="180.4" cy="407.5" r="0.77" fill="#3d3d3d"/>
  <circle cx="366.4" cy="618.5" r="1.31" fill="#3d3d3d"/>
  <circle cx="300.9" cy="401.1" r="0.94" fill="#3d3d3d"/>
  <circle cx="526.7" cy="396.1" r="0.84" fill="#3d3d3d"/>
  <circle cx="524.0" cy="392.6" r="0.73" fill="#3d3d3d"/>
  <circle cx="174.2" cy="404.6" r="1.03" fill="#3d3d3d"/>
  <circle cx="434.5" cy="410.5" r="1.31" fill="#3d3d3d"/>
  <circle cx="576.2" cy="385.9" r="1.14" fill="#3d3d3d"/>
  <circle cx="778.3" cy="661.6" r="0.71" fill="#3d3d3d"/>
  <circle cx="684.1" cy="403.1" r="0.99" fill="#3d3d3d"/>
  <circle cx="165.8" cy="405.8" r="1.32" fill="#3d3d3d"/>
  <circle cx="219.9" cy="386.6" r="1.32" fill="#3d3d3d"/>
  <circle cx="684.6" cy="395.3" r="1.27" fill="#3d3d3d"/>
  <circle cx="195.3" cy="402.2" r="1.15" fill="#3d3d3d"/>
  <circle cx="351.0" cy="404.1" r="1.27" fill="#3d3d3d"/>
  <circle cx="315.0" cy="406.7" r="0.89" fill="#3d3d3d"/>
  <circle cx="646.7" cy="398.2" r="1.48" fill="#3d3d3d"/>
  <circle cx="601.6" cy="407.8" r="1.10" fill="#3d3d3d"/>
  <circle cx="145.1" cy="396.2" r="0.81" fill="#3d3d3d"/>
  <circle cx="202.5" cy="179.5" r="0.76" fill="#3d3d3d"/>
  <circle cx="407.6" cy="408.0" r="1.13" fill="#3d3d3d"/>
  <circle cx="220.1" cy="393.9" r="1.47" fill="#3d3d3d"/>
  <circle cx="667.7" cy="396.5" r="1.20" fill="#3d3d3d"/>
  <circle cx="479.1" cy="411.8" r="0.92" fill="#3d3d3d"/>
  <circle cx="198.5" cy="404.1" r="1.13" fill="#3d3d3d"/>
  <circle cx="225.6" cy="405.9" r="1.21" fill="#3d3d3d"/>
  <circle cx="379.6" cy="392.0" r="0.75" fill="#3d3d3d"/>
  <circle cx="499.5" cy="403.2" r="1.18" fill="#3d3d3d"/>
  <circle cx="564.3" cy="398.5" r="0.84" fill="#3d3d3d"/>
  <circle cx="558.0" cy="432.5" r="1.22" fill="#3d3d3d"/>
  <circle cx="344.8" cy="404.5" r="1.36" fill="#3d3d3d"/>
  <circle cx="579.9" cy="389.0" r="1.05" fill="#3d3d3d"/>
  <circle cx="322.9" cy="390.3" r="0.76" fill="#3d3d3d"/>
  <circle cx="138.7" cy="406.6" r="1.20" fill="#3d3d3d"/>
  <circle cx="207.5" cy="391.8" r="0.99" fill="#3d3d3d"/>
  <circle cx="340.7" cy="392.9" r="0.91" fill="#3d3d3d"/>
  <circle cx="639.7" cy="395.3" r="1.27" fill="#3d3d3d"/>
  <circle cx="445.7" cy="392.9" r="0.94" fill="#3d3d3d"/>
  <circle cx="356.6" cy="399.0" r="0.95" fill="#3d3d3d"/>
  <circle cx="293.5" cy="407.4" r="1.30" fill="#3d3d3d"/>
  <circle cx="348.1" cy="395.6" r="1.18" fill="#3d3d3d"/>
  <circle cx="360.2" cy="390.3" r="0.91" fill="#3d3d3d"/>
  <circle cx="641.0" cy="411.1" r="1.22" fill="#3d3d3d"/>
  <circle cx="120.9" cy="390.9" r="1.33" fill="#3d3d3d"/>
  <circle cx="127.8" cy="401.2" r="1.50" fill="#3d3d3d"/>
  <circle cx="524.2" cy="398.8" r="1.42" fill="#3d3d3d"/>
  <circle cx="420.6" cy="392.6" r="0.84" fill="#3d3d3d"/>
  <circle cx="540.6" cy="697.4" r="1.13" fill="#3d3d3d"/>
  <circle cx="565.3" cy="389.9" r="0.71" fill="#3d3d3d"/>
  <circle cx="545.8" cy="390.6" r="1.09" fill="#3d3d3d"/>
  <circle cx="528.3" cy="71.2" r="1.14" fill="#3d3d3d"/>
  <circle cx="467.5" cy="405.5" r="1.36" fill="#3d3d3d"/>
  <circle cx="293.1" cy="400.6" r="0.96" fill="#3d3d3d"/>
  <circle cx="233.4" cy="390.6" r="0.88" fill="#3d3d3d"/>
  <circle cx="153.8" cy="399.4" r="1.36" fill="#3d3d3d"/>
  <circle cx="338.0" cy="396.1" r="0.86" fill="#3d3d3d"/>
  <circle cx="164.2" cy="396.7" r="1.01" fill="#3d3d3d"/>
  <circle cx="399.8" cy="401.3" r="1.36" fill="#3d3d3d"/>
  <circle cx="132.0" cy="391.6" r="1.46" fill="#3d3d3d"/>
  <circle cx="135.7" cy="401.1" r="1.01" fill="#3d3d3d"/>
  <circle cx="604.7" cy="400.5" r="1.32" fill="#3d3d3d"/>
  <circle cx="155.5" cy="399.0" r="0.77" fill="#3d3d3d"/>
  <circle cx="125.6" cy="412.0" r="0.78" fill="#3d3d3d"/>
  <circle cx="563.3" cy="395.2" r="1.43" fill="#3d3d3d"/>
  <circle cx="356.1" cy="412.0" r="0.93" fill="#3d3d3d"/>
  <circle cx="363.8" cy="413.2" r="1.05" fill="#3d3d3d"/>
  <circle cx="487.2" cy="398.2" r="0.83" fill="#3d3d3d"/>
  <circle cx="548.7" cy="398.5" r="1.24" fill="#3d3d3d"/>
  <circle cx="585.6" cy="398.5" r="1.01" fill="#3d3d3d"/>
  <circle cx="338.5" cy="407.2" r="1.14" fill="#3d3d3d"/>
  <circle cx="437.1" cy="139.0" r="0.90" fill="#3d3d3d"/>
  <circle cx="192.2" cy="400.7" r="0.98" fill="#3d3d3d"/>
  <circle cx="373.2" cy="409.1" r="1.14" fill="#3d3d3d"/>
  <circle cx="460.9" cy="407.7" r="1.29" fill="#3d3d3d"/>
  <circle cx="568.6" cy="402.6" r="1.19" fill="#3d3d3d"/>
  <circle cx="250.9" cy="394.3" r="1.38" fill="#3d3d3d"/>
  <circle cx="460.8" cy="401.8" r="1.31" fill="#3d3d3d"/>
  <circle cx="233.0" cy="393.7" r="0.80" fill="#3d3d3d"/>
  <circle cx="128.7" cy="394.1" r="1.42" fill="#3d3d3d"/>
  <circle cx="783.2" cy="746.2" r="0.90" fill="#3d3d3d"/>
  <circle cx="371.5" cy="401.6" r="1.35" fill="#3d3d3d"/>
  <circle cx="479.3" cy="387.9" r="1.43" fill="#3d3d3d"/>
  <circle cx="299.1" cy="26.7" r="0.97" fill="#3d3d3d"/>
  <circle cx="387.6" cy="409.8" r="0.82" fill="#3d3d3d"/>
  <circle cx="240.7" cy="405.4" r="1.13" fill="#3d3d3d"/>
  <circle cx="264.1" cy="394.6" r="1.41" fill="#3d3d3d"/>
  <circle cx="602.2" cy="391.5" r="1.14" fill="#3d3d3d"/>
  <circle cx="462.9" cy="395.5" r="1.37" fill="#3d3d3d"/>
  <circle cx="680.3" cy="400.8" r="1.27" fill="#3d3d3d"/>
  <circle cx="435.8" cy="387.6" r="0.97" fill="#3d3d3d"/>
  <circle cx="118.8" cy="400.4" r="1.21" fill="#3d3d3d"/>
  <circle cx="250.8" cy="400.9" r="1.04" fill="#3d3d3d"/>
  <circle cx="316.1" cy="398.5" r="1.09" fill="#3d3d3d"/>
  <circle cx="558.8" cy="403.5" r="0.78" fill="#3d3d3d"/>
  <circle cx="574.8" cy="399.7" r="0.98" fill="#3d3d3d"/>
  <circle cx="674.3" cy="412.1" r="1.09" fill="#3d3d3d"/>
  <circle cx="251.6" cy="392.0" r="0.80" fill="#3d3d3d"/>
  <circle cx="603.9" cy="399.1" r="1.48" fill="#3d3d3d"/>
  <circle cx="134.3" cy="398.1" r="0.72" fill="#3d3d3d"/>
  <circle cx="566.1" cy="398.4" r="1.10" fill="#3d3d3d"/>
  <circle cx="592.0" cy="403.6" r="1.36" fill="#3d3d3d"/>
  <circle cx="575.9" cy="405.5" r="1.46" fill="#3d3d3d"/>
  <circle cx="282.2" cy="399.1" r="0.83" fill="#3d3d3d"/>
  <circle cx="600.2" cy="406.4" r="1.07" fill="#3d3d3d"/>
  <circle cx="63.5" cy="484.1" r="0.73" fill="#3d3d3d"/>
  <circle cx="320.2" cy="406.2" r="1.08" fill="#3d3d3d"/>
  <circle cx="557.5" cy="393.7" r="1.16" fill="#3d3d3d"/>
  <circle cx="440.4" cy="399.0" r="1.39" fill="#3d3d3d"/>
  <circle cx="532.3" cy="403.3" r="1.03" fill="#3d3d3d"/>
  <circle cx="169.7" cy="405.3" r="1.49" fill="#3d3d3d"/>
  <circle cx="203.1" cy="403.4" r="1.40" fill="#3d3d3d"/>
  <circle cx="136.4" cy="404.5" r="1.39" fill="#3d3d3d"/>
  <circle cx="454.2" cy="398.7" r="1.32" fill="#3d3d3d"/>
  <circle cx="290.6" cy="403.7" r="1.04" fill="#3d3d3d"/>
  <circle cx="140.5" cy="507.1" r="1.39" fill="#3d3d3d"/>
  <circle cx="221.7" cy="390.7" r="1.05" fill="#3d3d3d"/>
  <circle cx="662.9" cy="398.6" r="1.49" fill="#3d3d3d"/>
  <circle cx="583.5" cy="392.4" r="1.24" fill="#3d3d3d"/>
  <circle cx="131.2" cy="400.7" r="1.47" fill="#3d3d3d"/>
  <circle cx="357.6" cy="250.0" r="1.19" fill="#3d3d3d"/>
  <circle cx="335.8" cy="394.9" r="1.36" fill="#3d3d3d"/>
  <circle cx="425.5" cy="403.1" r="1.12" fill="#3d3d3d"/>
  <circle cx="546.7" cy="399.0" r="1.04" fill="#3d3d3d"/>
  <circle cx="499.1" cy="405.0" r="1.24" fill="#3d3d3d"/>
  <circle cx="663.5" cy="402.9" r="0.72" fill="#3d3d3d"/>
  <circle cx="259.3" cy="386.0" r="0.71" fill="#3d3d3d"/>
  <circle cx="646.3" cy="403.3" r="0.91" fill="#3d3d3d"/>
  <circle cx="390.7" cy="413.5" r="1.07" fill="#3d3d3d"/>
  <circle cx="257.2" cy="400.6" r="0.86" fill="#3d3d3d"/>
  <circle cx="295.7" cy="396.0" r="0.82" fill="#3d3d3d"/>
  <circle cx="191.6" cy="408.7" r="1.03" fill="#3d3d3d"/>
  <circle cx="666.9" cy="389.2" r="0.73" fill="#3d3d3d"/>
  <circle cx="266.1" cy="402.3" r="0.89" fill="#3d3d3d"/>
  <circle cx="581.9" cy="403.5" r="0.92" fill="#3d3d3d"/>
  <circle cx="362.0" cy="399.9" r="1.01" fill="#3d3d3d"/>
  <circle cx="192.2" cy="401.9" r="1.23" fill="#3d3d3d"/>
  <circle cx="345.4" cy="408.9" r="1.19" fill="#3d3d3d"/>
  <circle cx="258.6" cy="400.4" r="0.74" fill="#3d3d3d"/>
  <circle cx="569.2" cy="407.1" r="0.92" fill="#3d3d3d"/>
  <circle cx="178.7" cy="401.3" r="1.13" fill="#3d3d3d"/>
  <circle cx="572.7" cy="399.9" r="0.88" fill="#3d3d3d"/>
  <circle cx="499.8" cy="404.2" r="1.43" fill="#3d3d3d"/>
  <circle cx="539.6" cy="411.8" r="1.03" fill="#3d3d3d"/>
  <circle cx="169.7" cy="396.8" r="0.83" fill="#3d3d3d"/>
  <circle cx="416.3" cy="402.6" r="1.00" fill="#3d3d3d"/>
  <circle cx="502.6" cy="502.9" r="1.14" fill="#3d3d3d"/>
  <circle cx="282.5" cy="398.0" r="1.10" fill="#3d3d3d"/>
  <circle cx="668.6" cy="408.0" r="0.96" fill="#3d3d3d"/>
  <circle cx="445.0" cy="398.7" r="1.48" fill="#3d3d3d"/>
  <circle cx="146.0" cy="404.9" r="0.78" fill="#3d3d3d"/>
  <circle cx="620.4" cy="393.7" r="1.17" fill="#3d3d3d"/>
  <circle cx="604.2" cy="385.9" r="0.90" fill="#3d3d3d"/>
  <circle cx="466.8" cy="400.0" r="1.47" fill="#3d3d3d"/>
  <circle cx="547.6" cy="392.7" r="0.91" fill="#3d3d3d"/>
  <circle cx="371.8" cy="403.4" r="1.07" fill="#3d3d3d"/>
  <circle cx="436.8" cy="393.4" r="1.19" fill="#3d3d3d"/>
  <circle cx="579.7" cy="10.1" r="1.36" fill="#3d3d3d"/>
  <circle cx="477.5" cy="389.6" r="1.16" fill="#3d3d3d"/>
  <circle cx="598.4" cy="264.0" r="1.25" fill="#3d3d3d"/>
  <circle cx="550.4" cy="400.3" r="1.07" fill="#3d3d3d"/>
  <circle cx="650.6" cy="411.9" r="0.79" fill="#3d3d3d"/>
  <circle cx="131.4" cy="414.7" r="0.71" fill="#3d3d3d"/>
  <circle cx="478.1" cy="404.2" r="1.49" fill="#3d3d3d"/>
  <circle cx="284.5" cy="387.6" r="1.30" fill="#3d3d3d"/>
  <circle cx="183.2" cy="402.8" r="1.36" fill="#3d3d3d"/>
  <circle cx="128.6" cy="396.2" r="1.46" fill="#3d3d3d"/>
  <circle cx="223.5" cy="401.4" r="1.45" fill="#3d3d3d"/>
  <circle cx="612.3" cy="404.3" r="1.26" fill="#3d3d3d"/>
  <circle cx="621.0" cy="410.1" r="1.25" fill="#3d3d3d"/>
  <circle cx="501.6" cy="405.2" r="1.27" fill="#3d3d3d"/>
  <circle cx="320.9" cy="392.5" r="1.39" fill="#3d3d3d"/>
  <circle cx="245.0" cy="406.8" r="1.04" fill="#3d3d3d"/>
  <circle cx="336.0" cy="409.5" r="0.87" fill="#3d3d3d"/>
  <circle cx="455.2" cy="399.3" r="1.11" fill="#3d3d3d"/>
  <circle cx="308.7" cy="403.9" r="1.46" fill="#3d3d3d"/>
  <circle cx="492.5" cy="397.6" r="0.87" fill="#3d3d3d"/>
  <circle cx="600.2" cy="409.4" r="0.78" fill="#3d3d3d"/>
  <circle cx="467.1" cy="408.3" r="0.75" fill="#3d3d3d"/>
  <circle cx="386.6" cy="386.1" r="1.11" fill="#3d3d3d"/>
  <circle cx="192.0" cy="398.7" r="1.48" fill="#3d3d3d"/>
  <circle cx="155.8" cy="399.2" r="0.92" fill="#3d3d3d"/>
  <circle cx="205.0" cy="399.0" r="0.89" fill="#3d3d3d"/>
  <circle cx="604.5" cy="404.8" r="0.93" fill="#3d3d3d"/>
  <circle cx="648.7" cy="396.0" r="1.29" fill="#3d3d3d"/>
  <circle cx="421.8" cy="404.6" r="0.84" fill="#3d3d3d"/>
  <circle cx="267.1" cy="399.6" r="1.19" fill="#3d3d3d"/>
  <circle cx="498.9" cy="405.1" r="1.26" fill="#3d3d3d"/>
  <circle cx="525.2" cy="384.5" r="0.99" fill="#3d3d3d"/>
  <circle cx="585.4" cy="393.6" r="1.14" fill="#3d3d3d"/>
  <circle cx="621.5" cy="398.9" r="1.49" fill="#3d3d3d"/>
  <circle cx="218.0" cy="394.6" r="1.07" fill="#3d3d3d"/>
  <circle cx="292.4" cy="405.8" r="1.38" fill="#3d3d3d"/>
  <circle cx="653.1" cy="397.9" r="1.27" fill="#3d3d3d"/>
  <circle cx="312.8" cy="396.1" r="1.08" fill="#3d3d3d"/>
  <circle cx="199.6" cy="405.3" r="1.39" fill="#3d3d3d"/>
  <circle cx="155.2" cy="399.2" r="1.50" fill="#3d3d3d"/>
  <circle cx="413.2" cy="392.3" r="1.22" fill="#3d3d3d"/>
  <circle cx="173.6" cy="407.3" r="1.49" fill="#3d3d3d"/>
  <circle cx="659.1" cy="405.3" r="1.20" fill="#3d3d3d"/>
  <circle cx="620.4" cy="388.0" r="0.86" fill="#3d3d3d"/>
  <circle cx="551.2" cy="400.8" r="1.02" fill="#3d3d3d"/>
  <circle cx="144.0" cy="394.9" r="1.11" fill="#3d3d3d"/>
  <circle cx="169.1" cy="397.4" r="1.07" fill="#3d3d3d"/>
  <circle cx="425.3" cy="396.9" r="1.27" fill="#3d3d3d"/>
  <circle cx="506.6" cy="404.7" r="1.31" fill="#3d3d3d"/>
  <circle cx="522.2" cy="383.9" r="0.99" fill="#3d3d3d"/>
  <circle cx="359.0" cy="388.5" r="1.45" fill="#3d3d3d"/>
  <circle cx="523.1" cy="405.4" r="1.47" fill="#3d3d3d"/>
  <circle cx="539.1" cy="403.7" r="0.80" fill="#3d3d3d"/>
  <circle cx="468.2" cy="392.5" r="1.10" fill="#3d3d3d"/>
  <circle cx="158.4" cy="395.2" r="0.88" fill="#3d3d3d"/>
  <circle cx="585.9" cy="405.1" r="0.87" fill="#3d3d3d"/>
  <circle cx="350.9" cy="398.4" r="0.81" fill="#3d3d3d"/>
  <circle cx="444.4" cy="416.3" r="1.38" fill="#3d3d3d"/>
  <circle cx="116.0" cy="395.7" r="1.40" fill="#3d3d3d"/>
  <circle cx="523.4" cy="400.1" r="0.85" fill="#3d3d3d"/>
  <circle cx="257.2" cy="387.6" r="1.16" fill="#3d3d3d"/>
  <circle cx="660.5" cy="407.5" r="1.04" fill="#3d3d3d"/>
  <circle cx="646.6" cy="401.0" r="0.93" fill="#3d3d3d"/>
  <circle cx="446.4" cy="386.8" r="1.05" fill="#3d3d3d"/>
  <circle cx="679.2" cy="388.9" r="0.70" fill="#3d3d3d"/>
  <circle cx="532.0" cy="397.3" r="1.29" fill="#3d3d3d"/>
  <circle cx="344.3" cy="392.7" r="1.28" fill="#3d3d3d"/>
  <circle cx="599.9" cy="57.8" r="1.32" fill="#3d3d3d"/>
  <circle cx="174.3" cy="410.8" r="1.45" fill="#3d3d3d"/>
  <circle cx="208.1" cy="397.6" r="1.03" fill="#3d3d3d"/>
  <circle cx="218.9" cy="400.9" r="1.49" fill="#3d3d3d"/>
  <circle cx="417.4" cy="397.2" r="1.14" fill="#3d3d3d"/>
  <circle cx="620.8" cy="399.0" r="1.46" fill="#3d3d3d"/>
  <circle cx="196.3" cy="404.7" r="1.09" fill="#3d3d3d"/>
  <circle cx="286.3" cy="399.2" r="1.45" fill="#3d3d3d"/>
  <circle cx="525.3" cy="394.7" r="1.18" fill="#3d3d3d"/>
  <circle cx="674.7" cy="400.2" r="1.42" fill="#3d3d3d"/>
  <circle cx="329.5" cy="399.9" r="1.21" fill="#3d3d3d"/>
  <circle cx="290.4" cy="409.3" r="0.95" fill="#3d3d3d"/>
  <circle cx="249.0" cy="393.7" r="1.11" fill="#3d3d3d"/>
  <circle cx="508.9" cy="395.2" r="0.94" fill="#3d3d3d"/>
  <circle cx="229.8" cy="27.6" r="1.08" fill="#3d3d3d"/>
  <circle cx="587.0" cy="392.8" r="0.80" fill="#3d3d3d"/>
  <circle cx="298.5" cy="413.1" r="0.73" fill="#3d3d3d"/>
  <circle cx="236.7" cy="559.2" r="0.75" fill="#3d3d3d"/>
  <circle cx="182.6" cy="397.3" r="1.08" fill="#3d3d3d"/>
  <circle cx="669.1" cy="399.7" r="1.22" fill="#3d3d3d"/>
  <circle cx="186.8" cy="396.1" r="1.33" fill="#3d3d3d"/>
  <circle cx="172.6" cy="401.7" r="0.85" fill="#3d3d3d"/>
  <circle cx="359.9" cy="404.8" r="1.18" fill="#3d3d3d"/>
  <circle cx="413.4" cy="407.0" r="1.25" fill="#3d3d3d"/>
  <circle cx="377.0" cy="402.0" r="1.32" fill="#3d3d3d"/>
  <circle cx="401.3" cy="409.2" r="0.84" fill="#3d3d3d"/>
  <circle cx="656.5" cy="401.6" r="0.94" fill="#3d3d3d"/>
  <circle cx="344.3" cy="395.6" r="1.34" fill="#3d3d3d"/>
  <circle cx="138.8" cy="418.3" r="1.09" fill="#3d3d3d"/>
  <circle cx="248.3" cy="402.0" r="0.90" fill="#3d3d3d"/>
  <circle cx="544.8" cy="401.0" r="1.18" fill="#3d3d3d"/>
  <circle cx="265.7" cy="397.7" r="0.83" fill="#3d3d3d"/>
  <circle cx="402.0" cy="411.4" r="0.89" fill="#3d3d3d"/>
  <circle cx="536.2" cy="301.1" r="1.26" fill="#3d3d3d"/>
  <circle cx="642.4" cy="197.3" r="0.95" fill="#3d3d3d"/>
  <circle cx="365.2" cy="394.3" r="1.40" fill="#3d3d3d"/>
  <circle cx="182.5" cy="393.9" r="0.84" fill="#3d3d3d"/>
  <circle cx="425.3" cy="410.9" r="0.84" fill="#3d3d3d"/>
  <circle cx="142.9" cy="401.7" r="1.12" fill="#3d3d3d"/>
  <circle cx="643.8" cy="404.2" r="0.90" fill="#3d3d3d"/>
  <circle cx="338.3" cy="410.9" r="1.25" fill="#3d3d3d"/>
  <circle cx="176.3" cy="21.2" r="1.46" fill="#3d3d3d"/>
  <circle cx="643.3" cy="400.4" r="1.22" fill="#3d3d3d"/>
  <circle cx="276.3" cy="394.3" r="1.36" fill="#3d3d3d"/>
  <circle cx="331.5" cy="407.6" r="1.20" fill="#3d3d3d"/>
  <circle cx="563.8" cy="393.3" r="0.80" fill="#3d3d3d"/>
  <circle cx="294.5" cy="401.8" r="0.92" fill="#3d3d3d"/>
  <circle cx="675.2" cy="347.3" r="1.42" fill="#3d3d3d"/>
  <circle cx="189.3" cy="396.9" r="0.84" fill="#3d3d3d"/>
  <circle cx="630.9" cy="387.3" r="1.26" fill="#3d3d3d"/>
  <circle cx="162.1" cy="393.6" r="1.07" fill="#3d3d3d"/>
  <circle cx="458.9" cy="403.4" r="1.13" fill="#3d3d3d"/>
  <circle cx="236.0" cy="397.6" r="0.81" fill="#3d3d3d"/>
  <circle cx="680.3" cy="403.8" r="0.98" fill="#3d3d3d"/>
  <circle cx="528.4" cy="409.1" r="0.83" fill="#3d3d3d"/>
  <circle cx="530.7" cy="393.3" r="0.94" fill="#3d3d3d"/>
  <circle cx="479.3" cy="399.1" r="1.01" fill="#3d3d3d"/>
  <circle cx="610.6" cy="411.0" r="0.99" fill="#3d3d3d"/>
  <circle cx="277.5" cy="408.1" r="1.27" fill="#3d3d3d"/>
  <circle cx="652.9" cy="393.8" r="1.04" fill="#3d3d3d"/>
  <circle cx="353.4" cy="394.1" r="1.44" fill="#3d3d3d"/>
  <circle cx="632.5" cy="395.5" r="1.22" fill="#3d3d3d"/>
  <circle cx="566.3" cy="400.8" r="1.16" fill="#3d3d3d"/>
  <circle cx="474.6" cy="398.0" r="0.98" fill="#3d3d3d"/>
  <circle cx="273.9" cy="398.2" r="1.29" fill="#3d3d3d"/>
  <circle cx="116.3" cy="398.6" r="1.41" fill="#3d3d3d"/>
  <circle cx="321.8" cy="586.9" r="1.40" fill="#3d3d3d"/>
  <circle cx="387.5" cy="392.4" r="0.76" fill="#3d3d3d"/>
  <circle cx="354.4" cy="484.0" r="1.45" fill="#3d3d3d"/>
  <circle cx="668.3" cy="391.7" r="1.09" fill="#3d3d3d"/>
  <circle cx="295.3" cy="712.9" r="1.44" fill="#3d3d3d"/>
  <circle cx="285.9" cy="401.5" r="1.03" fill="#3d3d3d"/>
  <circle cx="424.4" cy="744.5" r="1.46" fill="#3d3d3d"/>
  <circle cx="666.7" cy="398.3" r="1.35" fill="#3d3d3d"/>
  <circle cx="653.0" cy="407.8" r="1.29" fill="#3d3d3d"/>
  <circle cx="167.3" cy="397.3" r="1.47" fill="#3d3d3d"/>
  <circle cx="677.4" cy="393.5" r="1.21" fill="#3d3d3d"/>
  <circle cx="287.2" cy="407.2" r="1.02" fill="#3d3d3d"/>
  <circle cx="662.8" cy="390.2" r="1.08" fill="#3d3d3d"/>
  <circle cx="229.2" cy="416.9" r="1.06" fill="#3d3d3d"/>
  <circle cx="314.4" cy="408.2" r="1.12" fill="#3d3d3d"/>
  <circle cx="142.5" cy="403.3" r="0.76" fill="#3d3d3d"/>
  <circle cx="150.0" cy="397.1" r="1.34" fill="#3d3d3d"/>
  <circle cx="522.7" cy="392.4" r="0.93" fill="#3d3d3d"/>
  <circle cx="133.0" cy="400.5" r="0.74" fill="#3d3d3d"/>
  <circle cx="252.3" cy="410.2" r="1.40" fill="#3d3d3d"/>
  <circle cx="159.9" cy="398.8" r="1.03" fill="#3d3d3d"/>
  <circle cx="597.5" cy="406.0" r="1.34" fill="#3d3d3d"/>
  <circle cx="673.6" cy="407.5" r="0.87" fill="#3d3d3d"/>
  <circle cx="657.9" cy="392.6" r="0.97" fill="#3d3d3d"/>
  <circle cx="607.7" cy="396.4" r="0.99" fill="#3d3d3d"/>
  <circle cx="440.6" cy="400.8" r="1.26" fill="#3d3d3d"/>
  <circle cx="683.8" cy="397.7" r="0.86" fill="#3d3d3d"/>
  <circle cx="623.5" cy="399.7" r="1.09" fill="#3d3d3d"/>
  <circle cx="505.3" cy="413.6" r="1.37" fill="#3d3d3d"/>
  <circle cx="489.3" cy="402.1" r="0.80" fill="#3d3d3d"/>
  <circle cx="206.4" cy="406.0" r="0.91" fill="#3d3d3d"/>
  <circle cx="487.0" cy="395.6" r="1.15" fill="#3d3d3d"/>
  <circle cx="546.3" cy="403.9" r="1.14" fill="#3d3d3d"/>
  <circle cx="324.1" cy="407.4" r="0.85" fill="#3d3d3d"/>
  <circle cx="376.0" cy="396.0" r="0.85" fill="#3d3d3d"/>
  <circle cx="672.6" cy="396.1" r="0.89" fill="#3d3d3d"/>
  <circle cx="231.4" cy="389.4" r="1.15" fill="#3d3d3d"/>
  <circle cx="549.2" cy="395.8" r="1.45" fill="#3d3d3d"/>
  <circle cx="347.7" cy="403.4" r="1.22" fill="#3d3d3d"/>
  <circle cx="531.8" cy="398.1" r="1.13" fill="#3d3d3d"/>
  <circle cx="572.9" cy="397.7" r="1.26" fill="#3d3d3d"/>
  <circle cx="303.2" cy="391.2" r="0.76" fill="#3d3d3d"/>
  <circle cx="434.2" cy="395.6" r="0.70" fill="#3d3d3d"/>
  <circle cx="158.0" cy="390.5" r="0.86" fill="#3d3d3d"/>
  <circle cx="134.5" cy="397.9" r="0.92" fill="#3d3d3d"/>
  <circle cx="179.4" cy="410.2" r="1.06" fill="#3d3d3d"/>
  <circle cx="628.4" cy="388.6" r="0.84" fill="#3d3d3d"/>
  <circle cx="120.6" cy="396.2" r="1.19" fill="#3d3d3d"/>
  <circle cx="550.3" cy="405.3" r="1.47" fill="#3d3d3d"/>
  <circle cx="233.0" cy="393.3" r="0.81" fill="#3d3d3d"/>
  <circle cx="272.5" cy="392.4" r="0.71" fill="#3d3d3d"/>
  <circle cx="316.1" cy="407.9" r="1.13" fill="#3d3d3d"/>
  <circle cx="315.1" cy="401.4" r="0.81" fill="#3d3d3d"/>
  <circle cx="235.3" cy="399.7" r="1.36" fill="#3d3d3d"/>
  <circle cx="254.3" cy="403.8" r="1.48" fill="#3d3d3d"/>
  <circle cx="127.6" cy="393.4" r="1.32" fill="#3d3d3d"/>
  <circle cx="672.4" cy="417.2" r="0.89" fill="#3d3d3d"/>
  <circle cx="648.3" cy="409.3" r="0.88" fill="#3d3d3d"/>
  <circle cx="662.4" cy="405.7" r="1.33" fill="#3d3d3d"/>
  <circle cx="258.1" cy="405.8" r="1.18" fill="#3d3d3d"/>
  <circle cx="602.4" cy="401.7" r="1.33" fill="#3d3d3d"/>
  <circle cx="529.4" cy="400.9" r="1.39" fill="#3d3d3d"/>
  <circle cx="170.7" cy="402.0" r="1.35" fill="#3d3d3d"/>
  <circle cx="191.2" cy="400.7" r="1.46" fill="#3d3d3d"/>
  <circle cx="318.0" cy="395.3" r="1.17" fill="#3d3d3d"/>
  <circle cx="652.0" cy="407.3" r="1.45" fill="#3d3d3d"/>
  <circle cx="303.9" cy="402.3" r="0.96" fill="#3d3d3d"/>
  <circle cx="370.0" cy="401.1" r="1.49" fill="#3d3d3d"/>
  <circle cx="533.8" cy="394.0" r="0.80" fill="#3d3d3d"/>
  <circle cx="343.9" cy="397.7" r="1.09" fill="#3d3d3d"/>
  <circle cx="502.3" cy="405.7" r="0.85" fill="#3d3d3d"/>
  <circle cx="213.4" cy="402.2" r="0.77" fill="#3d3d3d"/>
  <circle cx="298.8" cy="396.3" r="0.74" fill="#3d3d3d"/>
  <circle cx="425.2" cy="406.0" r="0.82" fill="#3d3d3d"/>
  <circle cx="469.3" cy="394.4" r="0.74" fill="#3d3d3d"/>
  <circle cx="483.5" cy="408.9" r="1.44" fill="#3d3d3d"/>
  <circle cx="251.3" cy="73.9" r="1.17" fill="#3d3d3d"/>
  <circle cx="642.6" cy="402.5" r="0.92" fill="#3d3d3d"/>
</svg>
