<svg viewBox="0 0 800 800" xmlns="http://www.w3.org/2000/svg">
  <rect x="376.32" y="386.52" width="1.56" height="1.56" fill="#000000"/>
  <rect x="417.70" y="403.70" width="2.00" height="2.00" fill="#000000"/>
  <rect x="258.69" y="404.09" width="1.62" height="1.62" fill="#000000"/>
  <rect x="118.09" y="399.39" width="2.42" height="2.42" fill="#000000"/>
  <rect x="218.70" y="397.20" width="1.60" height="1.60" fill="#000000"/>
  <rect x="282.98" y="402.58" width="2.04" height="2.04" fill="#000000"/>
  <rect x="271.67" y="397.57" width="2.26" height="2.26" fill="#000000"/>
  <rect x="270.48" y="385.98" width="1.44" height="1.44" fill="#000000"/>
  <rect x="583.53" y="402.23" width="2.94" height="2.94" fill="#000000"/>
  <rect x="663.88" y="399.38" width="1.84" height="1.84" fill="#000000"/>
  <rect x="432.87" y="392.77" width="2.26" height="2.26" fill="#000000"/>
  <rect x="370.59" y="417.89" width="2.42" height="2.42" fill="#000000"/>
  <rect x="121.41" y="405.61" width="2.38" height="2.38" fill="#000000"/>
  <rect x="194.43" y="392.33" width="2.54" height="2.54" fill="#000000"/>
  <rect x="387.97" y="399.07" width="2.66" height="2.66" fill="#000000"/>
  <rect x="138.91" y="418.61" width="1.78" height="1.78" fill="#000000"/>
  <rect x="340.72" y="390.22" width="2.76" height="2.76" fill="#000000"/>
  <rect x="143.67" y="404.37" width="1.46" height="1.46" fill="#000000"/>
  <rect x="418.27" y="398.57" width="1.46" height="1.46" fill="#000000"/>
  <rect x="236.79" y="391.39" width="2.82" height="2.82" fill="#000000"/>
  <rect x="258.36" y="401.46" width="1.48" height="1.48" fill="#000000"/>
  <rect x="597.96" y="398.76" width="2.08" height="2.08" fill="#000000"/>
  <rect x="161.24" y="394.74" width="2.52" height="2.52" fill="#000000"/>
  <rect x="524.75" y="204.05" width="2.50" height="2.50" fill="#000000"/>
  <rect x="554.31" y="402.11" width="2.38" height="2.38" fill="#000000"/>
  <rect x="431.02" y="389.72" width="2.96" height="2.96" fill="#000000"/>
  <rect x="264.45" y="395.45" width="2.50" height="2.50" fill="#000000"/>
  <rect x="519.63" y="242.33" width="1.94" height="1.94" fill="#000000"/>
  <rect x="632.17" y="400.57" width="2.86" height="2.86" fill="#000000"/>
  <rect x="326.15" y="404.35" width="2.30" height="2.30" fill="#000000"/>
  <rect x="130.84" y="392.44" width="1.92" height="1.92" fill="#000000"/>
  <rect x="659.63" y="392.13" width="1.94" height="1.94" fill="#000000"/>
  <rect x="336.43" y="391.53" width="2.74" height="2.74" fill="#000000"/>
  <rect x="515.61" y="404.31" width="1.58" height="1.58" fill="#000000"/>
  <rect x="473.57" y="402.67" width="2.86" height="2.86" fill="#000000"/>
  <rect x="337.00" y="395.00" width="1.80" height="1.80" fill="#000000"/>
  <rect x="180.50" y="391.60" width="2.00" height="2.00" fill="#000000"/>
  <rect x="260.80" y="391.80" width="2.40" height="2.40" fill="#000000"/>
  <rect x="278.03" y="401.23" width="2.94" height="2.94" fill="#000000"/>
  <rect x="145.59" y="401.79" width="2.02" height="2.02" fill="#000000"/>
  <rect x="421.51" y="400.81" width="2.38" height="2.38" fill="#000000"/>
  <rect x="644.30" y="402.20" width="2.40" height="2.40" fill="#000000"/>
  <rect x="158.88" y="400.68" width="1.84" height="1.84" fill="#000000"/>
  <rect x="567.17" y="397.67" width="2.26" height="2.26" fill="#000000"/>
  <rect x="87.72" y="273.92" width="2.16" height="2.16" fill="#000000"/>
  <rect x="254.81" y="403.71" width="2.98" height="2.98" fill="#000000"/>
  <rect x="248.45" y="398.25" width="1.70" height="1.70" fill="#000000"/>
  <rect x="589.30" y="401.90" width="2.60" height="2.60" fill="#000000"/>
  <rect x="632.71" y="396.01" width="2.38" height="2.38" fill="#000000"/>
  <rect x="161.03" y="391.63" width="2.54" height="2.54" fill="#000000"/>
  <rect x="539.24" y="385.94" width="2.92" height="2.92" fill="#000000"/>
  <rect x="557.74" y="414.14" width="2.72" height="2.72" fill="#000000"/>
  <rect x="207.31" y="755.71" width="2.38" height="2.38" fill="#000000"/>
  <rect x="480.02" y="390.52" width="2.36" height="2.36" fill="#000000"/>
  <rect x="309.21" y="396.41" width="2.38" height="2.38" fill="#000000"/>
  <rect x="378.50" y="396.40" width="2.60" height="2.60" fill="#000000"/>
  <rect x="395.68" y="397.78" width="2.44" height="2.44" fill="#000000"/>
  <rect x="223.32" y="395.12" width="2.96" height="2.96" fill="#000000"/>
  <rect x="502.87" y="398.87" width="1.66" height="1.66" fill="#000000"/>
  <rect x="469.42" y="391.52" width="2.36" height="2.36" fill="#000000"/>
  <rect x="257.24" y="395.54" width="2.72" height="2.72" fill="#000000"/>
  <rect x="489.39" y="403.89" width="2.02" height="2.02" fill="#000000"/>
  <rect x="194.03" y="404.33" width="2.34" height="2.34" fill="#000000"/>
  <rect x="349.35" y="395.35" width="2.90" height="2.90" fill="#000000"/>
  <rect x="569.16" y="389.26" width="2.68" height="2.68" fill="#000000"/>
  <rect x="477.90" y="385.40" width="3.00" height="3.00" fill="#000000"/>
  <rect x="455.43" y="393.33" width="2.54" height="2.54" fill="#000000"/>
  <rect x="440.99" y="410.69" width="2.22" height="2.22" fill="#000000"/>
  <rect x="522.73" y="399.73" width="2.74" height="2.74" fill="#000000"/>
  <rect x="302.71" y="399.81" width="2.18" height="2.18" fill="#000000"/>
  <rect x="394.22" y="415.82" width="1.56" height="1.56" fill="#000000"/>
  <rect x="157.09" y="642.09" width="2.42" height="2.42" fill="#000000"/>
  <rect x="550.03" y="391.63" width="2.34" height="2.34" fill="#000000"/>
  <rect x="92.47" y="695.37" width="2.66" height="2.66" fill="#000000"/>
  <rect x="195.91" y="407.11" width="1.58" height="1.58" fill="#000000"/>
  <rect x="232.04" y="403.14" width="2.12" height="2.12" fill="#000000"/>
  <rect x="585.38" y="406.98" width="1.84" height="1.84" fill="#000000"/>
  <rect x="670.64" y="402.14" width="1.72" height="1.72" fill="#000000"/>
  <rect x="651.80" y="398.90" width="2.60" height="2.60" fill="#000000"/>
  <rect x="291.26" y="660.36" width="2.28" height="2.28" fill="#000000"/>
  <rect x="147.86" y="397.26" width="2.08" height="2.08" fill="#000000"/>
  <rect x="200.34" y="388.94" width="1.92" height="1.92" fill="#000000"/>
  <rect x="294.80" y="393.90" width="1.60" height="1.60" fill="#000000"/>
  <rect x="457.39" y="404.19" width="2.02" height="2.02" fill="#000000"/>
  <rect x="170.74" y="388.94" width="2.52" height="2.52" fill="#000000"/>
  <rect x="605.97" y="401.27" width="2.86" height="2.86" fill="#000000"/>
  <rect x="339.49" y="411.09" width="1.82" height="1.82" fill="#000000"/>
  <rect x="168.50" y="391.50" width="2.60" height="2.60" fill="#000000"/>
  <rect x="585.96" y="404.86" width="2.68" height="2.68" fill="#000000"/>
  <rect x="232.94" y="393.34" width="2.32" height="2.32" fill="#000000"/>
  <rect x="329.96" y="596.06" width="1.88" height="1.88" fill="#000000"/>
  <rect x="293.89" y="389.09" width="1.82" height="1.82" fill="#000000"/>
  <rect x="450.51" y="401.71" width="2.18" height="2.18" fill="#000000"/>
  <rect x="763.38" y="269.98" width="1.44" height="1.44" fill="#000000"/>
  <rect x="763.30" y="143.90" width="2.60" height="2.60" fill="#000000"/>
  <rect x="496.63" y="400.83" width="1.94" height="1.94" fill="#000000"/>
  <rect x="180.75" y="397.85" width="1.50" height="1.50" fill="#000000"/>
  <rect x="456.79" y="399.59" width="1.82" height="1.82" fill="#000000"/>
  <rect x="596.26" y="408.76" width="1.88" height="1.88" fill="#000000"/>
  <rect x="195.73" y="389.53" width="2.94" height="2.94" fill="#000000"/>
  <rect x="247.77" y="412.67" width="2.46" height="2.46" fill="#000000"/>
  <rect x="683.84" y="400.34" width="1.52" height="1.52" fill="#000000"/>
  <rect x="395.58" y="402.98" width="2.44" height="2.44" fill="#000000"/>
  <rect x="252.20" y="402.10" width="2.40" height="2.40" fill="#000000"/>
  <rect x="113.70" y="400.10" width="2.80" height="2.80" fill="#000000"/>
  <rect x="499.69" y="402.89" width="1.62" height="1.62" fill="#000000"/>
  <rect x="463.14" y="405.54" width="1.52" height="1.52" fill="#000000"/>
  <rect x="306.59" y="400.89" width="1.82" height="1.82" fill="#000000"/>
  <rect x="529.77" y="384.97" width="2.46" height="2.46" fill="#000000"/>
  <rect x="406.07" y="389.17" width="1.46" height="1.46" fill="#000000"/>
  <rect x="425.95" y="401.25" width="1.50" height="1.50" fill="#000000"/>
  <rect x="462.71" y="405.11" width="2.98" height="2.98" fill="#000000"/>
  <rect x="503.07" y="392.67" width="2.26" height="2.26" fill="#000000"/>
  <rect x="382.99" y="396.99" width="2.62" height="2.62" fill="#000000"/>
  <rect x="234.34" y="395.74" width="2.52" height="2.52" fill="#000000"/>
  <rect x="224.07" y="387.67" width="2.66" height="2.66" fill="#000000"/>
  <rect x="460.39" y="402.59" width="1.82" height="1.82" fill="#000000"/>
  <rect x="206.29" y="385.89" width="2.42" height="2.42" fill="#000000"/>
  <rect x="584.32" y="405.22" width="2.76" height="2.76" fill="#000000"/>
  <rect x="211.10" y="385.20" width="2.40" height="2.40" fill="#000000"/>
  <rect x="395.02" y="1.02" width="2.96" height="2.96" fill="#000000"/>
  <rect x="411.00" y="407.00" width="3.00" height="3.00" fill="#000000"/>
  <rect x="679.71" y="401.21" width="2.98" height="2.98" fill="#000000"/>
  <rect x="499.04" y="396.24" width="2.72" height="2.72" fill="#000000"/>
  <rect x="441.37" y="406.17" width="1.46" height="1.46" fill="#000000"/>
  <rect x="132.48" y="388.68" width="1.64" height="1.64" fill="#000000"/>
  <rect x="445.20" y="391.30" width="1.80" height="1.80" fill="#000000"/>
  <rect x="401.64" y="393.64" width="1.52" height="1.52" fill="#000000"/>
  <rect x="269.04" y="394.04" width="2.32" height="2.32" fill="#000000"/>
  <rect x="356.97" y="781.77" width="1.46" height="1.46" fill="#000000"/>
  <rect x="281.52" y="400.72" width="2.56" height="2.56" fill="#000000"/>
  <rect x="560.72" y="396.52" width="2.56" height="2.56" fill="#000000"/>
  <rect x="208.77" y="404.77" width="2.06" height="2.06" fill="#000000"/>
  <rect x="240.16" y="399.66" width="2.28" height="2.28" fill="#000000"/>
  <rect x="645.90" y="396.90" width="1.80" height="1.80" fill="#000000"/>
  <rect x="301.33" y="381.83" width="2.54" height="2.54" fill="#000000"/>
  <rect x="692.88" y="788.78" width="1.44" height="1.44" fill="#000000"/>
  <rect x="416.46" y="394.76" width="2.48" height="2.48" fill="#000000"/>
  <rect x="657.92" y="391.42" width="1.56" height="1.56" fill="#000000"/>
  <rect x="577.94" y="400.84" width="1.72" height="1.72" fill="#000000"/>
  <rect x="484.97" y="406.67" width="2.86" height="2.86" fill="#000000"/>
  <rect x="138.51" y="397.41" width="2.98" height="2.98" fill="#000000"/>
  <rect x="200.91" y="391.61" width="1.78" height="1.78" fill="#000000"/>
  <rect x="539.53" y="456.83" width="2.34" height="2.34" fill="#000000"/>
  <rect x="611.85" y="390.05" width="2.70" height="2.70" fill="#000000"/>
  <rect x="381.33" y="385.03" width="1.94" height="1.94" fill="#000000"/>
  <rect x="117.54" y="392.64" width="1.52" height="1.52" fill="#000000"/>
  <rect x="237.83" y="392.43" width="1.94" height="1.94" fill="#000000"/>
  <rect x="424.76" y="398.16" width="2.68" height="2.68" fill="#000000"/>
  <rect x="657.16" y="393.56" width="2.48" height="2.48" fill="#000000"/>
  <rect x="218.53" y="397.13" width="2.34" height="2.34" fill="#000000"/>
  <rect x="363.86" y="394.76" width="1.68" height="1.68" fill="#000000"/>
  <rect x="618.19" y="400.69" width="2.82" height="2.82" fill="#000000"/>
  <rect x="199.51" y="400.41" width="2.98" height="2.98" fill="#000000"/>
  <rect x="663.80" y="408.90" width="3.00" height="3.00" fill="#000000"/>
  <rect x="153.45" y="407.25" width="2.10" height="2.10" fill="#000000"/>
  <rect x="156.00" y="393.80" width="1.80" height="1.80" fill="#000000"/>
  <rect x="159.40" y="380.50" width="1.60" height="1.60" fill="#000000"/>
  <rect x="637.13" y="393.23" width="1.94" height="1.94" fill="#000000"/>
  <rect x="444.37" y="396.17" width="2.26" height="2.26" fill="#000000"/>
  <rect x="148.06" y="408.26" width="2.08" height="2.08" fill="#000000"/>
  <rect x="411.32" y="389.32" width="2.96" height="2.96" fill="#000000"/>
  <rect x="397.50" y="394.50" width="1.60" height="1.60" fill="#000000"/>
  <rect x="193.37" y="400.97" width="2.26" height="2.26" fill="#000000"/>
  <rect x="169.70" y="403.50" width="1.40" height="1.40" fill="#000000"/>
  <rect x="515.97" y="388.57" width="1.46" height="1.46" fill="#000000"/>
  <rect x="373.15" y="400.85" width="1.70" height="1.70" fill="#000000"/>
  <rect x="182.21" y="398.31" width="2.78" height="2.78" fill="#000000"/>
  <rect x="5.01" y="125.81" width="1.58" height="1.58" fill="#000000"/>
  <rect x="386.71" y="390.51" width="2.98" height="2.98" fill="#000000"/>
  <rect x="148.19" y="411.29" width="2.02" height="2.02" fill="#000000"/>
  <rect x="356.29" y="407.89" width="2.02" height="2.02" fill="#000000"/>
  <rect x="336.86" y="398.56" width="1.48" height="1.48" fill="#000000"/>
  <rect x="271.16" y="387.96" width="2.48" height="2.48" fill="#000000"/>
  <rect x="586.28" y="397.98" width="2.24" height="2.24" fill="#000000"/>
  <rect x="294.49" y="389.39" width="2.22" height="2.22" fill="#000000"/>
  <rect x="559.28" y="382.68" width="2.44" height="2.44" fill="#000000"/>
  <rect x="251.17" y="394.47" width="2.06" height="2.06" fill="#000000"/>
  <rect x="232.27" y="400.27" width="1.86" height="1.86" fill="#000000"/>
  <rect x="480.28" y="400.58" width="2.24" height="2.24" fill="#000000"/>
  <rect x="263.78" y="395.58" width="2.24" height="2.24" fill="#000000"/>
  <rect x="506.01" y="404.61" width="2.98" height="2.98" fill="#000000"/>
  <rect x="330.67" y="405.77" width="2.66" height="2.66" fill="#000000"/>
  <rect x="240.44" y="403.74" width="2.12" height="2.12" fill="#000000"/>
  <rect x="119.05" y="402.65" width="2.30" height="2.30" fill="#000000"/>
  <rect x="549.74" y="395.14" width="2.32" height="2.32" fill="#000000"/>
  <rect x="433.52" y="397.52" width="2.96" height="2.96" fill="#000000"/>
  <rect x="253.22" y="407.92" width="2.76" height="2.76" fill="#000000"/>
  <rect x="446.00" y="393.10" width="1.80" height="1.80" fill="#000000"/>
  <rect x="347.81" y="397.81" width="2.98" height="2.98" fill="#000000"/>
  <rect x="596.78" y="392.78" width="2.04" height="2.04" fill="#000000"/>
  <rect x="555.02" y="408.42" width="2.96" height="2.96" fill="#000000"/>
  <rect x="262.55" y="393.75" width="1.70" height="1.70" fill="#000000"/>
  <rect x="667.20" y="408.40" width="2.60" height="2.60" fill="#000000"/>
  <rect x="582.39" y="396.49" width="1.82" height="1.82" fill="#000000"/>
  <rect x="210.21" y="399.21" width="1.58" height="1.58" fill="#000000"/>
  <rect x="561.47" y="406.07" width="1.86" height="1.86" fill="#000000"/>
  <rect x="164.02" y="387.72" width="1.76" height="1.76" fill="#000000"/>
  <rect x="179.63" y="406.73" width="1.54" height="1.54" fill="#000000"/>
  <rect x="365.09" y="617.19" width="2.62" height="2.62" fill="#000000"/>
  <rect x="299.96" y="400.16" width="1.88" height="1.88" fill="#000000"/>
  <rect x="525.86" y="395.26" width="1.68" height="1.68" fill="#000000"/>
  <rect x="523.27" y="391.87" width="1.46" height="1.46" fill="#000000"/>
  <rect x="173.17" y="403.57" width="2.06" height="2.06" fill="#000000"/>
  <rect x="433.19" y="409.19" width="2.62" height="2.62" fill="#000000"/>
  <rect x="575.06" y="384.76" width="2.28" height="2.28" fill="#000000"/>
  <rect x="777.59" y="660.89" width="1.42" height="1.42" fill="#000000"/>
  <rect x="683.11" y="402.11" width="1.98" height="1.98" fill="#000000"/>
  <rect x="164.48" y="404.48" width="2.64" height="2.64" fill="#000000"/>
  <rect x="218.58" y="385.28" width="2.64" height="2.64" fill="#000000"/>
  <rect x="683.33" y="394.03" width="2.54" height="2.54" fill="#000000"/>
  <rect x="194.15" y="401.05" width="2.30" height="2.30" fill="#000000"/>
  <rect x="349.73" y="402.83" width="2.54" height="2.54" fill="#000000"/>
  <rect x="314.11" y="405.81" width="1.78" height="1.78" fill="#000000"/>
  <rect x="645.22" y="396.72" width="2.96" height="2.96" fill="#000000"/>
  <rect x="600.50" y="406.70" width="2.20" height="2.20" fill="#000000"/>
  <rect x="144.29" y="395.39" width="1.62" height="1.62" fill="#000000"/>
  <rect x="201.74" y="178.74" width="1.52" height="1.52" fill="#000000"/>
  <rect x="406.47" y="406.87" width="2.26" height="2.26" fill="#000000"/>
  <rect x="218.63" y="392.43" width="2.94" height="2.94" fill="#000000"/>
  <rect x="666.50" y="395.30" width="2.40" height="2.40" fill="#000000"/>
  <rect x="478.18" y="410.88" width="1.84" height="1.84" fill="#000000"/>
  <rect x="197.37" y="402.97" width="2.26" height="2.26" fill="#000000"/>
  <rect x="224.39" y="404.69" width="2.42" height="2.42" fill="#000000"/>
  <rect x="378.85" y="391.25" width="1.50" height="1.50" fill="#000000"/>
  <rect x="498.32" y="402.02" width="2.36" height="2.36" fill="#000000"/>
  <rect x="563.46" y="397.66" width="1.68" height="1.68" fill="#000000"/>
  <rect x="556.78" y="431.28" width="2.44" height="2.44" fill="#000000"/>
  <rect x="343.44" y="403.14" width="2.72" height="2.72" fill="#000000"/>
  <rect x="578.85" y="387.95" width="2.10" height="2.10" fill="#000000"/>
  <rect x="322.14" y="389.54" width="1.52" height="1.52" fill="#000000"/>
  <rect x="137.50" y="405.40" width="2.40" height="2.40" fill="#000000"/>
  <rect x="206.51" y="390.81" width="1.98" height="1.98" fill="#000000"/>
  <rect x="339.79" y="391.99" width="1.82" height="1.82" fill="#000000"/>
  <rect x="638.43" y="394.03" width="2.54" height="2.54" fill="#000000"/>
  <rect x="444.76" y="391.96" width="1.88" height="1.88" fill="#000000"/>
  <rect x="355.65" y="398.05" width="1.90" height="1.90" fill="#000000"/>
  <rect x="292.20" y="406.10" width="2.60" height="2.60" fill="#000000"/>
  <rect x="346.92" y="394.42" width="2.36" height="2.36" fill="#000000"/>
  <rect x="359.29" y="389.39" width="1.82" height="1.82" fill="#000000"/>
  <rect x="639.78" y="409.88" width="2.44" height="2.44" fill="#000000"/>
  <rect x="119.57" y="389.57" width="2.66" height="2.66" fill="#000000"/>
  <rect x="126.30" y="399.70" width="3.00" height="3.00" fill="#000000"/>
  <rect x="522.78" y="397.38" width="2.84" height="2.84" fill="#000000"/>
  <rect x="419.76" y="391.76" width="1.68" height="1.68" fill="#000000"/>
  <rect x="539.47" y="696.27" width="2.26" height="2.26" fill="#000000"/>
  <rect x="564.59" y="389.19" width="1.42" height="1.42" fill="#000000"/>
  <rect x="544.71" y="389.51" width="2.18" height="2.18" fill="#000000"/>
  <rect x="527.16" y="70.06" width="2.28" height="2.28" fill="#000000"/>
  <rect x="466.14" y="404.14" width="2.72" height="2.72" fill="#000000"/>
  <rect x="292.14" y="399.64" width="1.92" height="1.92" fill="#000000"/>
  <rect x="232.52" y="389.72" width="1.76" height="1.76" fill="#000000"/>
  <rect x="152.44" y="398.04" width="2.72" height="2.72" fill="#000000"/>
  <rect x="337.14" y="395.24" width="1.72" height="1.72" fill="#000000"/>
  <rect x="163.19" y="395.69" width="2.02" height="2.02" fill="#000000"/>
  <rect x="398.44" y="399.94" width="2.72" height="2.72" fill="#000000"/>
  <rect x="130.54" y="390.14" width="2.92" height="2.92" fill="#000000"/>
  <rect x="134.69" y="400.09" width="2.02" height="2.02" fill="#000000"/>
  <rect x="603.38" y="399.18" width="2.64" height="2.64" fill="#000000"/>
  <rect x="154.73" y="398.23" width="1.54" height="1.54" fill="#000000"/>
  <rect x="124.82" y="411.22" width="1.56" height="1.56" fill="#000000"/>
  <rect x="561.87" y="393.77" width="2.86" height="2.86" fill="#000000"/>
  <rect x="355.17" y="411.07" width="1.86" height="1.86" fill="#000000"/>
  <rect x="362.75" y="412.15" width="2.10" height="2.10" fill="#000000"/>
  <rect x="486.37" y="397.37" width="1.66" height="1.66" fill="#000000"/>
  <rect x="547.46" y="397.26" width="2.48" height="2.48" fill="#000000"/>
  <rect x="584.59" y="397.49" width="2.02" height="2.02" fill="#000000"/>
  <rect x="337.36" y="406.06" width="2.28" height="2.28" fill="#000000"/>
  <rect x="436.20" y="138.10" width="1.80" height="1.80" fill="#000000"/>
  <rect x="191.22" y="399.72" width="1.96" height="1.96" fill="#000000"/>
  <rect x="372.06" y="407.96" width="2.28" height="2.28" fill="#000000"/>
  <rect x="459.61" y="406.41" width="2.58" height="2.58" fill="#000000"/>
  <rect x="567.41" y="401.41" width="2.38" height="2.38" fill="#000000"/>
  <rect x="249.52" y="392.92" width="2.76" height="2.76" fill="#000000"/>
  <rect x="459.49" y="400.49" width="2.62" height="2.62" fill="#000000"/>
  <rect x="232.20" y="392.90" width="1.60" height="1.60" fill="#000000"/>
  <rect x="127.28" y="392.68" width="2.84" height="2.84" fill="#000000"/>
  <rect x="782.30" y="745.30" width="1.80" height="1.80" fill="#000000"/>
  <rect x="370.15" y="400.25" width="2.70" height="2.70" fill="#000000"/>
  <rect x="477.87" y="386.47" width="2.86" height="2.86" fill="#000000"/>
  <rect x="298.13" y="25.73" width="1.94" height="1.94" fill="#000000"/>
  <rect x="386.78" y="408.98" width="1.64" height="1.64" fill="#000000"/>
  <rect x="239.57" y="404.27" width="2.26" height="2.26" fill="#000000"/>
  <rect x="262.69" y="393.19" width="2.82" height="2.82" fill="#000000"/>
  <rect x="601.06" y="390.36" width="2.28" height="2.28" fill="#000000"/>
  <rect x="461.53" y="394.13" width="2.74" height="2.74" fill="#000000"/>
  <rect x="679.03" y="399.53" width="2.54" height="2.54" fill="#000000"/>
  <rect x="434.83" y="386.63" width="1.94" height="1.94" fill="#000000"/>
  <rect x="117.59" y="399.19" width="2.42" height="2.42" fill="#000000"/>
  <rect x="249.76" y="399.86" width="2.08" height="2.08" fill="#000000"/>
  <rect x="315.01" y="397.41" width="2.18" height="2.18" fill="#000000"/>
  <rect x="558.02" y="402.72" width="1.56" height="1.56" fill="#000000"/>
  <rect x="573.82" y="398.72" width="1.96" height="1.96" fill="#000000"/>
  <rect x="673.21" y="411.01" width="2.18" height="2.18" fill="#000000"/>
  <rect x="250.80" y="391.20" width="1.60" height="1.60" fill="#000000"/>
  <rect x="602.42" y="397.62" width="2.96" height="2.96" fill="#000000"/>
  <rect x="133.58" y="397.38" width="1.44" height="1.44" fill="#000000"/>
  <rect x="565.00" y="397.30" width="2.20" height="2.20" fill="#000000"/>
  <rect x="590.64" y="402.24" width="2.72" height="2.72" fill="#000000"/>
  <rect x="574.44" y="404.04" width="2.92" height="2.92" fill="#000000"/>
  <rect x="281.37" y="398.27" width="1.66" height="1.66" fill="#000000"/>
  <rect x="599.13" y="405.33" width="2.14" height="2.14" fill="#000000"/>
  <rect x="62.77" y="483.37" width="1.46" height="1.46" fill="#000000"/>
  <rect x="319.12" y="405.12" width="2.16" height="2.16" fill="#000000"/>
  <rect x="556.34" y="392.54" width="2.32" height="2.32" fill="#000000"/>
  <rect x="439.01" y="397.61" width="2.78" height="2.78" fill="#000000"/>
  <rect x="531.27" y="402.27" width="2.06" height="2.06" fill="#000000"/>
  <rect x="168.21" y="403.81" width="2.98" height="2.98" fill="#000000"/>
  <rect x="201.70" y="402.00" width="2.80" height="2.80" fill="#000000"/>
  <rect x="135.01" y="403.11" width="2.78" height="2.78" fill="#000000"/>
  <rect x="452.88" y="397.38" width="2.64" height="2.64" fill="#000000"/>
  <rect x="289.56" y="402.66" width="2.08" height="2.08" fill="#000000"/>
  <rect x="139.11" y="505.71" width="2.78" height="2.78" fill="#000000"/>
  <rect x="220.65" y="389.65" width="2.10" height="2.10" fill="#000000"/>
  <rect x="661.41" y="397.11" width="2.98" height="2.98" fill="#000000"/>
  <rect x="582.26" y="391.16" width="2.48" height="2.48" fill="#000000"/>
  <rect x="129.73" y="399.23" width="2.94" height="2.94" fill="#000000"/>
  <rect x="356.41" y="248.81" width="2.38" height="2.38" fill="#000000"/>
  <rect x="334.44" y="393.54" width="2.72" height="2.72" fill="#000000"/>
  <rect x="424.38" y="401.98" width="2.24" height="2.24" fill="#000000"/>
  <rect x="545.66" y="397.96" width="2.08" height="2.08" fill="#000000"/>
  <rect x="497.86" y="403.76" width="2.48" height="2.48" fill="#000000"/>
  <rect x="662.78" y="402.18" width="1.44" height="1.44" fill="#000000"/>
  <rect x="258.59" y="385.29" width="1.42" height="1.42" fill="#000000"/>
  <rect x="645.39" y="402.39" width="1.82" height="1.82" fill="#000000"/>
  <rect x="389.63" y="412.43" width="2.14" height="2.14" fill="#000000"/>
  <rect x="256.34" y="399.74" width="1.72" height="1.72" fill="#000000"/>
  <rect x="294.88" y="395.18" width="1.64" height="1.64" fill="#000000"/>
  <rect x="190.57" y="407.67" width="2.06" height="2.06" fill="#000000"/>
  <rect x="666.17" y="388.47" width="1.46" height="1.46" fill="#000000"/>
  <rect x="265.21" y="401.41" width="1.78" height="1.78" fill="#000000"/>
  <rect x="580.98" y="402.58" width="1.84" height="1.84" fill="#000000"/>
  <rect x="360.99" y="398.89" width="2.02" height="2.02" fill="#000000"/>
  <rect x="190.97" y="400.67" width="2.46" height="2.46" fill="#000000"/>
  <rect x="344.21" y="407.71" width="2.38" height="2.38" fill="#000000"/>
  <rect x="257.86" y="399.66" width="1.48" height="1.48" fill="#000000"/>
  <rect x="568.28" y="406.18" width="1.84" height="1.84" fill="#000000"/>
  <rect x="177.57" y="400.17" width="2.26" height="2.26" fill="#000000"/>
  <rect x="571.82" y="399.02" width="1.76" height="1.76" fill="#000000"/>
  <rect x="498.37" y="402.77" width="2.86" height="2.86" fill="#000000"/>
  <rect x="538.57" y="410.77" width="2.06" height="2.06" fill="#000000"/>
  <rect x="168.87" y="395.97" width="1.66" height="1.66" fill="#000000"/>
  <rect x="415.30" y="401.60" width="2.00" height="2.00" fill="#000000"/>
  <rect x="501.46" y="501.76" width="2.28" height="2.28" fill="#000000"/>
  <rect x="281.40" y="396.90" width="2.20" height="2.20" fill="#000000"/>
  <rect x="667.64" y="407.04" width="1.92" height="1.92" fill="#000000"/>
  <rect x="443.52" y="397.22" width="2.96" height="2.96" fill="#000000"/>
  <rect x="145.22" y="404.12" width="1.56" height="1.56" fill="#000000"/>
  <rect x="619.23" y="392.53" width="2.34" height="2.34" fill="#000000"/>
  <rect x="603.30" y="385.00" width="1.80" height="1.80" fill="#000000"/>
  <rect x="465.33" y="398.53" width="2.94" height="2.94" fill="#000000"/>
  <rect x="546.69" y="391.79" width="1.82" height="1.82" fill="#000000"/>
  <rect x="370.73" y="402.33" width="2.14" height="2.14" fill="#000000"/>
  <rect x="435.61" y="392.21" width="2.38" height="2.38" fill="#000000"/>
  <rect x="578.34" y="8.74" width="2.72" height="2.72" fill="#000000"/>
  <rect x="476.34" y="388.44" width="2.32" height="2.32" fill="#000000"/>
  <rect x="597.15" y="262.75" width="2.50" height="2.50" fill="#000000"/>
  <rect x="549.33" y="399.23" width="2.14" height="2.14" fill="#000000"/>
  <rect x="649.81" y="411.11" width="1.58" height="1.58" fill="#000000"/>
  <rect x="130.69" y="413.99" width="1.42" height="1.42" fill="#000000"/>
  <rect x="476.61" y="402.71" width="2.98" height="2.98" fill="#000000"/>
  <rect x="283.20" y="386.30" width="2.60" height="2.60" fill="#000000"/>
  <rect x="181.84" y="401.44" width="2.72" height="2.72" fill="#000000"/>
  <rect x="127.14" y="394.74" width="2.92" height="2.92" fill="#000000"/>
  <rect x="222.05" y="399.95" width="2.90" height="2.90" fill="#000000"/>
  <rect x="611.04" y="403.04" width="2.52" height="2.52" fill="#000000"/>
  <rect x="619.75" y="408.85" width="2.50" height="2.50" fill="#000000"/>
  <rect x="500.33" y="403.93" width="2.54" height="2.54" fill="#000000"/>
  <rect x="319.51" y="391.11" width="2.78" height="2.78" fill="#000000"/>
  <rect x="243.96" y="405.76" width="2.08" height="2.08" fill="#000000"/>
  <rect x="335.13" y="408.63" width="1.74" height="1.74" fill="#000000"/>
  <rect x="454.09" y="398.19" width="2.22" height="2.22" fill="#000000"/>
  <rect x="307.24" y="402.44" width="2.92" height="2.92" fill="#000000"/>
  <rect x="491.63" y="396.73" width="1.74" height="1.74" fill="#000000"/>
  <rect x="599.42" y="408.62" width="1.56" height="1.56" fill="#000000"/>
  <rect x="466.35" y="407.55" width="1.50" height="1.50" fill="#000000"/>
  <rect x="385.49" y="384.99" width="2.22" height="2.22" fill="#000000"/>
  <rect x="190.52" y="397.22" width="2.96" height="2.96" fill="#000000"/>
  <rect x="154.88" y="398.28" width="1.84" height="1.84" fill="#000000"/>
  <rect x="204.11" y="398.11" width="1.78" height="1.78" fill="#000000"/>
  <rect x="603.57" y="403.87" width="1.86" height="1.86" fill="#000000"/>
  <rect x="647.41" y="394.71" width="2.58" height="2.58" fill="#000000"/>
  <rect x="420.96" y="403.76" width="1.68" height="1.68" fill="#000000"/>
  <rect x="265.91" y="398.41" width="2.38" height="2.38" fill="#000000"/>
  <rect x="497.64" y="403.84" width="2.52" height="2.52" fill="#000000"/>
  <rect x="524.21" y="383.51" width="1.98" height="1.98" fill="#000000"/>
  <rect x="584.26" y="392.46" width="2.28" height="2.28" fill="#000000"/>
  <rect x="620.01" y="397.41" width="2.98" height="2.98" fill="#000000"/>
  <rect x="216.93" y="393.53" width="2.14" height="2.14" fill="#000000"/>
  <rect x="291.02" y="404.42" width="2.76" height="2.76" fill="#000000"/>
  <rect x="651.83" y="396.63" width="2.54" height="2.54" fill="#000000"/>
  <rect x="311.72" y="395.02" width="2.16" height="2.16" fill="#000000"/>
  <rect x="198.21" y="403.91" width="2.78" height="2.78" fill="#000000"/>
  <rect x="153.70" y="397.70" width="3.00" height="3.00" fill="#000000"/>
  <rect x="411.98" y="391.08" width="2.44" height="2.44" fill="#000000"/>
  <rect x="172.11" y="405.81" width="2.98" height="2.98" fill="#000000"/>
  <rect x="657.90" y="404.10" width="2.40" height="2.40" fill="#000000"/>
  <rect x="619.54" y="387.14" width="1.72" height="1.72" fill="#000000"/>
  <rect x="550.18" y="399.78" width="2.04" height="2.04" fill="#000000"/>
  <rect x="142.89" y="393.79" width="2.22" height="2.22" fill="#000000"/>
  <rect x="168.03" y="396.33" width="2.14" height="2.14" fill="#000000"/>
  <rect x="424.03" y="395.63" width="2.54" height="2.54" fill="#000000"/>
  <rect x="505.29" y="403.39" width="2.62" height="2.62" fill="#000000"/>
  <rect x="521.21" y="382.91" width="1.98" height="1.98" fill="#000000"/>
  <rect x="357.55" y="387.05" width="2.90" height="2.90" fill="#000000"/>
  <rect x="521.63" y="403.93" width="2.94" height="2.94" fill="#000000"/>
  <rect x="538.30" y="402.90" width="1.60" height="1.60" fill="#000000"/>
  <rect x="467.10" y="391.40" width="2.20" height="2.20" fill="#000000"/>
  <rect x="157.52" y="394.32" width="1.76" height="1.76" fill="#000000"/>
  <rect x="585.03" y="404.23" width="1.74" height="1.74" fill="#000000"/>
  <rect x="350.09" y="397.59" width="1.62" height="1.62" fill="#000000"/>
  <rect x="443.02" y="414.92" width="2.76" height="2.76" fill="#000000"/>
  <rect x="114.60" y="394.30" width="2.80" height="2.80" fill="#000000"/>
  <rect x="522.55" y="399.25" width="1.70" height="1.70" fill="#000000"/>
  <rect x="256.04" y="386.44" width="2.32" height="2.32" fill="#000000"/>
  <rect x="659.46" y="406.46" width="2.08" height="2.08" fill="#000000"/>
  <rect x="645.67" y="400.07" width="1.86" height="1.86" fill="#000000"/>
  <rect x="445.35" y="385.75" width="2.10" height="2.10" fill="#000000"/>
  <rect x="678.50" y="388.20" width="1.40" height="1.40" fill="#000000"/>
  <rect x="530.71" y="396.01" width="2.58" height="2.58" fill="#000000"/>
  <rect x="343.02" y="391.42" width="2.56" height="2.56" fill="#000000"/>
  <rect x="598.58" y="56.48" width="2.64" height="2.64" fill="#000000"/>
  <rect x="172.85" y="409.35" width="2.90" height="2.90" fill="#000000"/>
  <rect x="207.07" y="396.57" width="2.06" height="2.06" fill="#000000"/>
  <rect x="217.41" y="399.41" width="2.98" height="2.98" fill="#000000"/>
  <rect x="416.26" y="396.06" width="2.28" height="2.28" fill="#000000"/>
  <rect x="619.34" y="397.54" width="2.92" height="2.92" fill="#000000"/>
  <rect x="195.21" y="403.61" width="2.18" height="2.18" fill="#000000"/>
  <rect x="284.85" y="397.75" width="2.90" height="2.90" fill="#000000"/>
  <rect x="524.12" y="393.52" width="2.36" height="2.36" fill="#000000"/>
  <rect x="673.28" y="398.78" width="2.84" height="2.84" fill="#000000"/>
  <rect x="328.29" y="398.69" width="2.42" height="2.42" fill="#000000"/>
  <rect x="289.45" y="408.35" width="1.90" height="1.90" fill="#000000"/>
  <rect x="247.89" y="392.59" width="2.22" height="2.22" fill="#000000"/>
  <rect x="507.96" y="394.26" width="1.88" height="1.88" fill="#000000"/>
  <rect x="228.72" y="26.52" width="2.16" height="2.16" fill="#000000"/>
  <rect x="586.20" y="392.00" width="1.60" height="1.60" fill="#000000"/>
  <rect x="297.77" y="412.37" width="1.46" height="1.46" fill="#000000"/>
  <rect x="235.95" y="558.45" width="1.50" height="1.50" fill="#000000"/>
  <rect x="181.52" y="396.22" width="2.16" height="2.16" fill="#000000"/>
  <rect x="667.88" y="398.48" width="2.44" height="2.44" fill="#000000"/>
  <rect x="185.47" y="394.77" width="2.66" height="2.66" fill="#000000"/>
  <rect x="171.75" y="400.85" width="1.70" height="1.70" fill="#000000"/>
  <rect x="358.72" y="403.62" width="2.36" height="2.36" fill="#000000"/>
  <rect x="412.15" y="405.75" width="2.50" height="2.50" fill="#000000"/>
  <rect x="375.68" y="400.68" width="2.64" height="2.64" fill="#000000"/>
  <rect x="400.46" y="408.36" width="1.68" height="1.68" fill="#000000"/>
  <rect x="655.56" y="400.66" width="1.88" height="1.88" fill="#000000"/>
  <rect x="342.96" y="394.26" width="2.68" height="2.68" fill="#000000"/>
  <rect x="137.71" y="417.21" width="2.18" height="2.18" fill="#000000"/>
  <rect x="247.40" y="401.10" width="1.80" height="1.80" fill="#000000"/>
  <rect x="543.62" y="399.82" width="2.36" height="2.36" fill="#000000"/>
  <rect x="264.87" y="396.87" width="1.66" height="1.66" fill="#000000"/>
  <rect x="401.11" y="410.51" width="1.78" height="1.78" fill="#000000"/>
  <rect x="534.94" y="299.84" width="2.52" height="2.52" fill="#000000"/>
  <rect x="641.45" y="196.35" width="1.90" height="1.90" fill="#000000"/>
  <rect x="363.80" y="392.90" width="2.80" height="2.80" fill="#000000"/>
  <rect x="181.66" y="393.06" width="1.68" height="1.68" fill="#000000"/>
  <rect x="424.46" y="410.06" width="1.68" height="1.68" fill="#000000"/>
  <rect x="141.78" y="400.58" width="2.24" height="2.24" fill="#000000"/>
  <rect x="642.90" y="403.30" width="1.80" height="1.80" fill="#000000"/>
  <rect x="337.05" y="409.65" width="2.50" height="2.50" fill="#000000"/>
  <rect x="174.84" y="19.74" width="2.92" height="2.92" fill="#000000"/>
  <rect x="642.08" y="399.18" width="2.44" height="2.44" fill="#000000"/>
  <rect x="274.94" y="392.94" width="2.72" height="2.72" fill="#000000"/>
  <rect x="330.30" y="406.40" width="2.40" height="2.40" fill="#000000"/>
  <rect x="563.00" y="392.50" width="1.60" height="1.60" fill="#000000"/>
  <rect x="293.58" y="400.88" width="1.84" height="1.84" fill="#000000"/>
  <rect x="673.78" y="345.88" width="2.84" height="2.84" fill="#000000"/>
  <rect x="188.46" y="396.06" width="1.68" height="1.68" fill="#000000"/>
  <rect x="629.64" y="386.04" width="2.52" height="2.52" fill="#000000"/>
  <rect x="161.03" y="392.53" width="2.14" height="2.14" fill="#000000"/>
  <rect x="457.77" y="402.27" width="2.26" height="2.26" fill="#000000"/>
  <rect x="235.19" y="396.79" width="1.62" height="1.62" fill="#000000"/>
  <rect x="679.32" y="402.82" width="1.96" height="1.96" fill="#000000"/>
  <rect x="527.57" y="408.27" width="1.66" height="1.66" fill="#000000"/>
  <rect x="529.76" y="392.36" width="1.88" height="1.88" fill="#000000"/>
  <rect x="478.29" y="398.09" width="2.02" height="2.02" fill="#000000"/>
  <rect x="609.61" y="410.01" width="1.98" height="1.98" fill="#000000"/>
  <rect x="276.23" y="406.83" width="2.54" height="2.54" fill="#000000"/>
  <rect x="651.86" y="392.76" width="2.08" height="2.08" fill="#000000"/>
  <rect x="351.96" y="392.66" width="2.88" height="2.88" fill="#000000"/>
  <rect x="631.28" y="394.28" width="2.44" height="2.44" fill="#000000"/>
  <rect x="565.14" y="399.64" width="2.32" height="2.32" fill="#000000"/>
  <rect x="473.62" y="397.02" width="1.96" height="1.96" fill="#000000"/>
  <rect x="272.61" y="396.91" width="2.58" height="2.58" fill="#000000"/>
  <rect x="114.89" y="397.19" width="2.82" height="2.82" fill="#000000"/>
  <rect x="320.40" y="585.50" width="2.80" height="2.80" fill="#000000"/>
  <rect x="386.74" y="391.64" width="1.52" height="1.52" fill="#000000"/>
  <rect x="352.95" y="482.55" width="2.90" height="2.90" fill="#000000"/>
  <rect x="667.21" y="390.61" width="2.18" height="2.18" fill="#000000"/>
  <rect x="293.86" y="711.46" width="2.88" height="2.88" fill="#000000"/>
  <rect x="284.87" y="400.47" width="2.06" height="2.06" fill="#000000"/>
  <rect x="422.94" y="743.04" width="2.92" height="2.92" fill="#000000"/>
  <rect x="665.35" y="396.95" width="2.70" height="2.70" fill="#000000"/>
  <rect x="651.71" y="406.51" width="2.58" height="2.58" fill="#000000"/>
  <rect x="165.83" y="395.83" width="2.94" height="2.94" fill="#000000"/>
  <rect x="676.19" y="392.29" width="2.42" height="2.42" fill="#000000"/>
  <rect x="286.18" y="406.18" width="2.04" height="2.04" fill="#000000"/>
  <rect x="661.72" y="389.12" width="2.16" height="2.16" fill="#000000"/>
  <rect x="228.14" y="415.84" width="2.12" height="2.12" fill="#000000"/>
  <rect x="313.28" y="407.08" width="2.24" height="2.24" fill="#000000"/>
  <rect x="141.74" y="402.54" width="1.52" height="1.52" fill="#000000"/>
  <rect x="148.66" y="395.76" width="2.68" height="2.68" fill="#000000"/>
  <rect x="521.77" y="391.47" width="1.86" height="1.86" fill="#000000"/>
  <rect x="132.26" y="399.76" width="1.48" height="1.48" fill="#000000"/>
  <rect x="250.90" y="408.80" width="2.80" height="2.80" fill="#000000"/>
  <rect x="158.87" y="397.77" width="2.06" height="2.06" fill="#000000"/>
  <rect x="596.16" y="404.66" width="2.68" height="2.68" fill="#000000"/>
  <rect x="672.73" y="406.63" width="1.74" height="1.74" fill="#000000"/>
  <rect x="656.93" y="391.63" width="1.94" height="1.94" fill="#000000"/>
  <rect x="606.71" y="395.41" width="1.98" height="1.98" fill="#000000"/>
  <rect x="439.34" y="399.54" width="2.52" height="2.52" fill="#000000"/>
  <rect x="682.94" y="396.84" width="1.72" height="1.72" fill="#000000"/>
  <rect x="622.41" y="398.61" width="2.18" height="2.18" fill="#000000"/>
  <rect x="503.93" y="412.23" width="2.74" height="2.74" fill="#000000"/>
  <rect x="488.50" y="401.30" width="1.60" height="1.60" fill="#000000"/>
  <rect x="205.49" y="405.09" width="1.82" height="1.82" fill="#000000"/>
  <rect x="485.85" y="394.45" width="2.30" height="2.30" fill="#000000"/>
  <rect x="545.16" y="402.76" width="2.28" height="2.28" fill="#000000"/>
  <rect x="323.25" y="406.55" width="1.70" height="1.70" fill="#000000"/>
  <rect x="375.15" y="395.15" width="1.70" height="1.70" fill="#000000"/>
  <rect x="671.71" y="395.21" width="1.78" height="1.78" fill="#000000"/>
  <rect x="230.25" y="388.25" width="2.30" height="2.30" fill="#000000"/>
  <rect x="547.75" y="394.35" width="2.90" height="2.90" fill="#000000"/>
  <rect x="346.48" y="402.18" width="2.44" height="2.44" fill="#000000"/>
  <rect x="530.67" y="396.97" width="2.26" height="2.26" fill="#000000"/>
  <rect x="571.64" y="396.44" width="2.52" height="2.52" fill="#000000"/>
  <rect x="302.44" y="390.44" width="1.52" height="1.52" fill="#000000"/>
  <rect x="433.50" y="394.90" width="1.40" height="1.40" fill="#000000"/>
  <rect x="157.14" y="389.64" width="1.72" height="1.72" fill="#000000"/>
  <rect x="133.58" y="396.98" width="1.84" height="1.84" fill="#000000"/>
  <rect x="178.34" y="409.14" width="2.12" height="2.12" fill="#000000"/>
  <rect x="627.56" y="387.76" width="1.68" height="1.68" fill="#000000"/>
  <rect x="119.41" y="395.01" width="2.38" height="2.38" fill="#000000"/>
  <rect x="548.83" y="403.83" width="2.94" height="2.94" fill="#000000"/>
  <rect x="232.19" y="392.49" width="1.62" height="1.62" fill="#000000"/>
  <rect x="271.79" y="391.69" width="1.42" height="1.42" fill="#000000"/>
  <rect x="314.97" y="406.77" width="2.26" height="2.26" fill="#000000"/>
  <rect x="314.29" y="400.59" width="1.62" height="1.62" fill="#000000"/>
  <rect x="233.94" y="398.34" width="2.72" height="2.72" fill="#000000"/>
  <rect x="252.82" y="402.32" width="2.96" height="2.96" fill="#000000"/>
  <rect x="126.28" y="392.08" width="2.64" height="2.64" fill="#000000"/>
  <rect x="671.51" y="416.31" width="1.78" height="1.78" fill="#000000"/>
  <rect x="647.42" y="408.42" width="1.76" height="1.76" fill="#000000"/>
  <rect x="661.07" y="404.37" width="2.66" height="2.66" fill="#000000"/>
  <rect x="256.92" y="404.62" width="2.36" height="2.36" fill="#000000"/>
  <rect x="601.07" y="400.37" width="2.66" height="2.66" fill="#000000"/>
  <rect x="528.01" y="399.51" width="2.78" height="2.78" fill="#000000"/>
  <rect x="169.35" y="400.65" width="2.70" height="2.70" fill="#000000"/>
  <rect x="189.74" y="399.24" width="2.92" height="2.92" fill="#000000"/>
  <rect x="316.83" y="394.13" width="2.34" height="2.34" fill="#000000"/>
  <rect x="650.55" y="405.85" width="2.90" height="2.90" fill="#000000"/>
  <rect x="302.94" y="401.34" width="1.92" height="1.92" fill="#000000"/>
  <rect x="368.51" y="399.61" width="2.98" height="2.98" fill="#000000"/>
  <rect x="533.00" y="393.20" width="1.60" height="1.60" fill="#000000"/>
  <rect x="342.81" y="396.61" width="2.18" height="2.18" fill="#000000"/>
  <rect x="501.45" y="404.85" width="1.70" height="1.70" fill="#000000"/>
  <rect x="212.63" y="401.43" width="1.54" height="1.54" fill="#000000"/>
  <rect x="298.06" y="395.56" width="1.48" height="1.48" fill="#000000"/>
  <rect x="424.38" y="405.18" width="1.64" height="1.64" fill="#000000"/>
  <rect x="468.56" y="393.66" width="1.48" height="1.48" fill="#000000"/>
  <rect x="482.06" y="407.46" width="2.88" height="2.88" fill="#000000"/>
  <rect x="250.13" y="72.73" width="2.34" height="2.34" fill="#000000"/>
  <rect x="641.68" y="401.58" width="1.84" height="1.84" fill="#000000"/>
</svg>
