<svg viewBox="0 0 800 800" xmlns="http://www.w3.org/2000/svg">
  <circle cx="435.8" cy="368.6" r="1.15" fill="#3d3d3d"/>
  <circle cx="512.1" cy="310.0" r="1.09" fill="#3d3d3d"/>
  <circle cx="4.2" cy="198.4" r="1.33" fill="#3d3d3d"/>
  <circle cx="566.5" cy="633.7" r="1.23" fill="#3d3d3d"/>
  <circle cx="422.3" cy="395.0" r="1.32" fill="#3d3d3d"/>
  <circle cx="431.8" cy="486.3" r="1.39" fill="#3d3d3d"/>
  <circle cx="525.3" cy="289.5" r="0.78" fill="#3d3d3d"/>
  <circle cx="473.7" cy="463.3" r="1.21" fill="#3d3d3d"/>
  <circle cx="577.9" cy="261.0" r="1.04" fill="#3d3d3d"/>
  <circle cx="394.3" cy="458.6" r="0.90" fill="#3d3d3d"/>
  <circle cx="558.0" cy="283.1" r="1.08" fill="#3d3d3d"/>
  <circle cx="579.8" cy="215.5" r="0.97" fill="#3d3d3d"/>
  <circle cx="489.9" cy="363.8" r="1.05" fill="#3d3d3d"/>
  <circle cx="392.0" cy="452.8" r="0.87" fill="#3d3d3d"/>
  <circle cx="450.2" cy="347.6" r="1.49" fill="#3d3d3d"/>
  <circle cx="304.7" cy="752.8" r="0.95" fill="#3d3d3d"/>
  <circle cx="525.1" cy="292.3" r="1.13" fill="#3d3d3d"/>
  <circle cx="511.8" cy="447.8" r="1.36" fill="#3d3d3d"/>
  <circle cx="578.5" cy="245.9" r="1.48" fill="#3d3d3d"/>
  <circle cx="511.3" cy="463.6" r="0.88" fill="#3d3d3d"/>
  <circle cx="380.2" cy="441.7" r="1.33" fill="#3d3d3d"/>
  <circle cx="395.5" cy="428.6" r="1.18" fill="#3d3d3d"/>
  <circle cx="707.9" cy="196.3" r="0.82" fill="#3d3d3d"/>
  <circle cx="591.4" cy="271.1" r="1.32" fill="#3d3d3d"/>
  <circle cx="544.7" cy="273.1" r="1.16" fill="#3d3d3d"/>
  <circle cx="343.4" cy="60.9" r="0.72" fill="#3d3d3d"/>
  <circle cx="569.3" cy="231.9" r="0.93" fill="#3d3d3d"/>
  <circle cx="578.2" cy="779.7" r="1.04" fill="#3d3d3d"/>
  <circle cx="540.1" cy="282.1" r="1.47" fill="#3d3d3d"/>
  <circle cx="493.3" cy="309.0" r="0.80" fill="#3d3d3d"/>
  <circle cx="67.3" cy="268.9" r="1.10" fill="#3d3d3d"/>
  <circle cx="571.0" cy="253.4" r="0.85" fill="#3d3d3d"/>
  <circle cx="568.0" cy="387.2" r="1.15" fill="#3d3d3d"/>
  <circle cx="548.4" cy="233.4" r="1.16" fill="#3d3d3d"/>
  <circle cx="409.6" cy="195.8" r="0.78" fill="#3d3d3d"/>
  <circle cx="453.7" cy="360.9" r="0.86" fill="#3d3d3d"/>
  <circle cx="499.9" cy="441.5" r="1.14" fill="#3d3d3d"/>
  <circle cx="586.3" cy="271.8" r="1.44" fill="#3d3d3d"/>
  <circle cx="520.4" cy="443.1" r="1.10" fill="#3d3d3d"/>
  <circle cx="539.3" cy="552.4" r="0.75" fill="#3d3d3d"/>
  <circle cx="467.8" cy="372.8" r="1.36" fill="#3d3d3d"/>
  <circle cx="793.4" cy="506.3" r="1.21" fill="#3d3d3d"/>
  <circle cx="450.9" cy="354.6" r="1.42" fill="#3d3d3d"/>
  <circle cx="540.7" cy="232.2" r="1.16" fill="#3d3d3d"/>
  <circle cx="471.3" cy="376.2" r="0.98" fill="#3d3d3d"/>
  <circle cx="449.5" cy="477.9" r="1.08" fill="#3d3d3d"/>
  <circle cx="556.7" cy="265.8" r="1.35" fill="#3d3d3d"/>
  <circle cx="579.4" cy="254.1" r="1.35" fill="#3d3d3d"/>
  <circle cx="391.0" cy="439.0" r="0.78" fill="#3d3d3d"/>
  <circle cx="443.7" cy="476.9" r="0.73" fill="#3d3d3d"/>
  <circle cx="409.4" cy="410.4" r="1.30" fill="#3d3d3d"/>
  <circle cx="573.1" cy="238.0" r="1.25" fill="#3d3d3d"/>
  <circle cx="491.9" cy="430.4" r="1.31" fill="#3d3d3d"/>
  <circle cx="572.0" cy="275.0" r="0.88" fill="#3d3d3d"/>
  <circle cx="448.7" cy="476.6" r="0.89" fill="#3d3d3d"/>
  <circle cx="429.3" cy="376.0" r="0.76" fill="#3d3d3d"/>
  <circle cx="587.8" cy="267.7" r="1.11" fill="#3d3d3d"/>
  <circle cx="589.2" cy="236.7" r="0.78" fill="#3d3d3d"/>
  <circle cx="457.2" cy="348.9" r="0.91" fill="#3d3d3d"/>
  <circle cx="513.8" cy="448.2" r="1.18" fill="#3d3d3d"/>
  <circle cx="395.0" cy="445.6" r="1.11" fill="#3d3d3d"/>
  <circle cx="409.8" cy="303.0" r="1.38" fill="#3d3d3d"/>
  <circle cx="530.7" cy="284.5" r="0.78" fill="#3d3d3d"/>
  <circle cx="653.4" cy="198.3" r="1.49" fill="#3d3d3d"/>
  <circle cx="571.2" cy="241.1" r="0.90" fill="#3d3d3d"/>
  <circle cx="562.8" cy="67.1" r="1.50" fill="#3d3d3d"/>
  <circle cx="571.8" cy="283.0" r="1.39" fill="#3d3d3d"/>
  <circle cx="512.0" cy="307.2" r="0.95" fill="#3d3d3d"/>
  <circle cx="411.8" cy="468.4" r="0.74" fill="#3d3d3d"/>
  <circle cx="701.8" cy="752.6" r="0.72" fill="#3d3d3d"/>
  <circle cx="500.2" cy="440.6" r="0.75" fill="#3d3d3d"/>
  <circle cx="258.1" cy="514.4" r="0.80" fill="#3d3d3d"/>
  <circle cx="473.3" cy="629.8" r="0.96" fill="#3d3d3d"/>
  <circle cx="451.1" cy="188.5" r="0.97" fill="#3d3d3d"/>
  <circle cx="474.6" cy="331.5" r="1.07" fill="#3d3d3d"/>
  <circle cx="393.6" cy="442.3" r="0.81" fill="#3d3d3d"/>
  <circle cx="438.9" cy="473.2" r="1.37" fill="#3d3d3d"/>
  <circle cx="472.0" cy="379.9" r="1.10" fill="#3d3d3d"/>
  <circle cx="423.6" cy="484.1" r="0.80" fill="#3d3d3d"/>
  <circle cx="589.8" cy="232.0" r="1.18" fill="#3d3d3d"/>
  <circle cx="424.8" cy="497.1" r="1.37" fill="#3d3d3d"/>
  <circle cx="586.7" cy="62.6" r="1.33" fill="#3d3d3d"/>
  <circle cx="413.7" cy="486.1" r="1.42" fill="#3d3d3d"/>
  <circle cx="538.3" cy="279.3" r="1.30" fill="#3d3d3d"/>
  <circle cx="562.8" cy="238.4" r="0.83" fill="#3d3d3d"/>
  <circle cx="564.0" cy="231.5" r="0.78" fill="#3d3d3d"/>
  <circle cx="558.2" cy="260.0" r="1.26" fill="#3d3d3d"/>
  <circle cx="456.0" cy="355.7" r="0.93" fill="#3d3d3d"/>
  <circle cx="275.0" cy="599.2" r="1.16" fill="#3d3d3d"/>
  <circle cx="393.4" cy="453.1" r="0.78" fill="#3d3d3d"/>
  <circle cx="383.8" cy="431.4" r="1.16" fill="#3d3d3d"/>
  <circle cx="564.3" cy="242.2" r="0.80" fill="#3d3d3d"/>
  <circle cx="724.9" cy="372.6" r="1.26" fill="#3d3d3d"/>
  <circle cx="465.4" cy="372.5" r="1.50" fill="#3d3d3d"/>
  <circle cx="751.5" cy="230.9" r="1.02" fill="#3d3d3d"/>
  <circle cx="491.6" cy="410.1" r="1.22" fill="#3d3d3d"/>
  <circle cx="566.3" cy="258.5" r="1.11" fill="#3d3d3d"/>
  <circle cx="192.6" cy="258.8" r="0.73" fill="#3d3d3d"/>
  <circle cx="485.1" cy="414.2" r="1.14" fill="#3d3d3d"/>
  <circle cx="414.0" cy="405.1" r="0.81" fill="#3d3d3d"/>
  <circle cx="757.1" cy="663.9" r="1.10" fill="#3d3d3d"/>
  <circle cx="460.4" cy="358.8" r="1.41" fill="#3d3d3d"/>
  <circle cx="393.3" cy="451.0" r="1.00" fill="#3d3d3d"/>
  <circle cx="387.4" cy="440.1" r="0.71" fill="#3d3d3d"/>
  <circle cx="737.9" cy="229.4" r="0.98" fill="#3d3d3d"/>
  <circle cx="547.7" cy="760.2" r="0.84" fill="#3d3d3d"/>
  <circle cx="446.1" cy="486.5" r="1.43" fill="#3d3d3d"/>
  <circle cx="546.2" cy="249.5" r="1.13" fill="#3d3d3d"/>
  <circle cx="31.6" cy="414.4" r="1.38" fill="#3d3d3d"/>
  <circle cx="551.4" cy="256.5" r="1.46" fill="#3d3d3d"/>
  <circle cx="485.1" cy="412.7" r="1.28" fill="#3d3d3d"/>
  <circle cx="580.4" cy="214.9" r="1.22" fill="#3d3d3d"/>
  <circle cx="384.5" cy="436.7" r="1.42" fill="#3d3d3d"/>
  <circle cx="439.0" cy="476.5" r="0.82" fill="#3d3d3d"/>
  <circle cx="71.6" cy="572.7" r="1.14" fill="#3d3d3d"/>
  <circle cx="388.4" cy="445.1" r="1.10" fill="#3d3d3d"/>
  <circle cx="550.1" cy="277.6" r="0.83" fill="#3d3d3d"/>
  <circle cx="127.6" cy="0.4" r="0.98" fill="#3d3d3d"/>
  <circle cx="513.1" cy="305.2" r="0.96" fill="#3d3d3d"/>
  <circle cx="562.3" cy="260.5" r="0.91" fill="#3d3d3d"/>
  <circle cx="498.9" cy="430.7" r="1.25" fill="#3d3d3d"/>
  <circle cx="772.2" cy="611.3" r="1.35" fill="#3d3d3d"/>
  <circle cx="386.8" cy="446.4" r="1.39" fill="#3d3d3d"/>
  <circle cx="503.2" cy="313.1" r="1.32" fill="#3d3d3d"/>
  <circle cx="419.7" cy="480.4" r="0.94" fill="#3d3d3d"/>
  <circle cx="490.0" cy="418.1" r="1.41" fill="#3d3d3d"/>
  <circle cx="520.9" cy="442.9" r="0.79" fill="#3d3d3d"/>
  <circle cx="421.1" cy="87.7" r="1.08" fill="#3d3d3d"/>
  <circle cx="404.7" cy="412.6" r="0.79" fill="#3d3d3d"/>
  <circle cx="459.6" cy="477.2" r="1.36" fill="#3d3d3d"/>
  <circle cx="515.5" cy="441.4" r="0.91" fill="#3d3d3d"/>
  <circle cx="229.6" cy="453.6" r="0.92" fill="#3d3d3d"/>
  <circle cx="456.7" cy="470.3" r="1.29" fill="#3d3d3d"/>
  <circle cx="556.3" cy="86.0" r="1.27" fill="#3d3d3d"/>
  <circle cx="583.1" cy="262.7" r="0.98" fill="#3d3d3d"/>
  <circle cx="164.6" cy="206.5" r="1.00" fill="#3d3d3d"/>
  <circle cx="419.7" cy="480.1" r="1.47" fill="#3d3d3d"/>
  <circle cx="389.1" cy="454.7" r="1.11" fill="#3d3d3d"/>
  <circle cx="473.2" cy="393.4" r="1.42" fill="#3d3d3d"/>
  <circle cx="74.4" cy="755.5" r="1.39" fill="#3d3d3d"/>
  <circle cx="390.8" cy="444.7" r="1.21" fill="#3d3d3d"/>
  <circle cx="9.7" cy="211.7" r="0.92" fill="#3d3d3d"/>
  <circle cx="373.3" cy="436.4" r="1.32" fill="#3d3d3d"/>
  <circle cx="458.5" cy="364.6" r="1.26" fill="#3d3d3d"/>
  <circle cx="456.3" cy="364.9" r="0.97" fill="#3d3d3d"/>
  <circle cx="523.0" cy="256.6" r="0.96" fill="#3d3d3d"/>
  <circle cx="556.4" cy="238.7" r="0.99" fill="#3d3d3d"/>
  <circle cx="629.5" cy="368.1" r="1.21" fill="#3d3d3d"/>
  <circle cx="353.1" cy="442.0" r="1.48" fill="#3d3d3d"/>
  <circle cx="433.1" cy="377.6" r="0.93" fill="#3d3d3d"/>
  <circle cx="430.6" cy="480.9" r="0.96" fill="#3d3d3d"/>
  <circle cx="448.9" cy="475.4" r="1.32" fill="#3d3d3d"/>
  <circle cx="740.3" cy="187.9" r="1.34" fill="#3d3d3d"/>
  <circle cx="552.9" cy="257.8" r="0.92" fill="#3d3d3d"/>
  <circle cx="412.4" cy="471.7" r="0.97" fill="#3d3d3d"/>
  <circle cx="141.7" cy="297.7" r="0.80" fill="#3d3d3d"/>
  <circle cx="536.8" cy="283.7" r="0.92" fill="#3d3d3d"/>
  <circle cx="640.5" cy="527.6" r="1.11" fill="#3d3d3d"/>
  <circle cx="518.5" cy="534.0" r="1.39" fill="#3d3d3d"/>
  <circle cx="619.8" cy="594.9" r="1.31" fill="#3d3d3d"/>
  <circle cx="454.3" cy="355.1" r="1.16" fill="#3d3d3d"/>
  <circle cx="380.3" cy="439.6" r="1.30" fill="#3d3d3d"/>
  <circle cx="520.9" cy="294.2" r="1.25" fill="#3d3d3d"/>
  <circle cx="326.7" cy="291.6" r="1.00" fill="#3d3d3d"/>
  <circle cx="713.6" cy="452.3" r="1.42" fill="#3d3d3d"/>
  <circle cx="384.0" cy="439.8" r="0.83" fill="#3d3d3d"/>
  <circle cx="465.3" cy="378.8" r="0.84" fill="#3d3d3d"/>
  <circle cx="10.6" cy="671.4" r="1.15" fill="#3d3d3d"/>
  <circle cx="482.8" cy="330.0" r="0.91" fill="#3d3d3d"/>
  <circle cx="564.7" cy="268.9" r="1.45" fill="#3d3d3d"/>
  <circle cx="516.8" cy="202.3" r="1.16" fill="#3d3d3d"/>
  <circle cx="556.7" cy="261.5" r="1.35" fill="#3d3d3d"/>
  <circle cx="402.1" cy="451.9" r="1.18" fill="#3d3d3d"/>
  <circle cx="378.2" cy="439.8" r="1.20" fill="#3d3d3d"/>
  <circle cx="396.5" cy="436.1" r="1.19" fill="#3d3d3d"/>
  <circle cx="390.4" cy="457.6" r="0.86" fill="#3d3d3d"/>
  <circle cx="570.6" cy="268.6" r="1.07" fill="#3d3d3d"/>
  <circle cx="462.1" cy="309.9" r="1.49" fill="#3d3d3d"/>
  <circle cx="562.9" cy="263.5" r="1.15" fill="#3d3d3d"/>
  <circle cx="517.5" cy="481.4" r="1.26" fill="#3d3d3d"/>
  <circle cx="458.0" cy="694.6" r="1.03" fill="#3d3d3d"/>
  <circle cx="444.1" cy="352.0" r="0.82" fill="#3d3d3d"/>
  <circle cx="524.2" cy="235.1" r="1.34" fill="#3d3d3d"/>
  <circle cx="531.0" cy="282.6" r="0.94" fill="#3d3d3d"/>
  <circle cx="506.4" cy="446.8" r="1.15" fill="#3d3d3d"/>
  <circle cx="421.8" cy="136.4" r="0.78" fill="#3d3d3d"/>
  <circle cx="463.8" cy="356.5" r="0.95" fill="#3d3d3d"/>
  <circle cx="389.2" cy="453.3" r="1.38" fill="#3d3d3d"/>
  <circle cx="459.8" cy="375.7" r="1.13" fill="#3d3d3d"/>
  <circle cx="412.9" cy="481.2" r="0.89" fill="#3d3d3d"/>
  <circle cx="125.8" cy="523.8" r="0.85" fill="#3d3d3d"/>
  <circle cx="262.6" cy="548.0" r="1.02" fill="#3d3d3d"/>
  <circle cx="586.6" cy="261.3" r="1.39" fill="#3d3d3d"/>
  <circle cx="387.6" cy="443.1" r="1.08" fill="#3d3d3d"/>
  <circle cx="459.4" cy="372.5" r="1.43" fill="#3d3d3d"/>
  <circle cx="509.4" cy="309.1" r="1.32" fill="#3d3d3d"/>
  <circle cx="300.9" cy="147.0" r="1.13" fill="#3d3d3d"/>
  <circle cx="423.3" cy="478.3" r="1.48" fill="#3d3d3d"/>
  <circle cx="97.7" cy="403.3" r="1.50" fill="#3d3d3d"/>
  <circle cx="464.2" cy="374.9" r="1.01" fill="#3d3d3d"/>
  <circle cx="348.8" cy="387.6" r="1.25" fill="#3d3d3d"/>
  <circle cx="436.3" cy="501.9" r="1.09" fill="#3d3d3d"/>
  <circle cx="755.1" cy="154.7" r="1.28" fill="#3d3d3d"/>
  <circle cx="171.3" cy="280.7" r="1.02" fill="#3d3d3d"/>
  <circle cx="388.4" cy="451.1" r="1.41" fill="#3d3d3d"/>
  <circle cx="462.9" cy="372.9" r="1.22" fill="#3d3d3d"/>
  <circle cx="463.2" cy="365.0" r="0.92" fill="#3d3d3d"/>
  <circle cx="433.5" cy="485.3" r="1.17" fill="#3d3d3d"/>
  <circle cx="396.6" cy="452.8" r="1.19" fill="#3d3d3d"/>
  <circle cx="488.9" cy="328.4" r="1.06" fill="#3d3d3d"/>
  <circle cx="766.3" cy="607.2" r="1.02" fill="#3d3d3d"/>
  <circle cx="422.0" cy="485.1" r="0.71" fill="#3d3d3d"/>
  <circle cx="711.3" cy="680.0" r="0.80" fill="#3d3d3d"/>
  <circle cx="517.8" cy="310.7" r="0.88" fill="#3d3d3d"/>
  <circle cx="473.5" cy="396.3" r="0.97" fill="#3d3d3d"/>
  <circle cx="575.3" cy="256.4" r="0.72" fill="#3d3d3d"/>
  <circle cx="519.1" cy="449.2" r="1.08" fill="#3d3d3d"/>
  <circle cx="568.2" cy="276.1" r="1.23" fill="#3d3d3d"/>
  <circle cx="575.5" cy="231.1" r="1.36" fill="#3d3d3d"/>
  <circle cx="507.3" cy="307.2" r="1.09" fill="#3d3d3d"/>
  <circle cx="692.1" cy="282.1" r="0.73" fill="#3d3d3d"/>
  <circle cx="684.0" cy="745.0" r="0.99" fill="#3d3d3d"/>
  <circle cx="512.0" cy="454.1" r="1.33" fill="#3d3d3d"/>
  <circle cx="369.4" cy="186.7" r="1.46" fill="#3d3d3d"/>
  <circle cx="567.5" cy="258.7" r="0.85" fill="#3d3d3d"/>
  <circle cx="505.4" cy="445.8" r="1.43" fill="#3d3d3d"/>
  <circle cx="564.6" cy="234.3" r="0.98" fill="#3d3d3d"/>
  <circle cx="436.0" cy="485.7" r="0.91" fill="#3d3d3d"/>
  <circle cx="583.4" cy="216.9" r="1.12" fill="#3d3d3d"/>
  <circle cx="422.4" cy="479.7" r="1.10" fill="#3d3d3d"/>
  <circle cx="496.8" cy="449.7" r="1.11" fill="#3d3d3d"/>
  <circle cx="564.1" cy="172.3" r="1.47" fill="#3d3d3d"/>
  <circle cx="592.0" cy="234.7" r="1.33" fill="#3d3d3d"/>
  <circle cx="425.5" cy="497.0" r="0.74" fill="#3d3d3d"/>
  <circle cx="147.2" cy="402.8" r="0.93" fill="#3d3d3d"/>
  <circle cx="407.1" cy="408.5" r="1.03" fill="#3d3d3d"/>
  <circle cx="489.0" cy="319.5" r="0.88" fill="#3d3d3d"/>
  <circle cx="382.1" cy="582.3" r="1.19" fill="#3d3d3d"/>
  <circle cx="551.8" cy="277.4" r="1.15" fill="#3d3d3d"/>
  <circle cx="501.3" cy="311.1" r="0.93" fill="#3d3d3d"/>
  <circle cx="509.3" cy="311.8" r="1.09" fill="#3d3d3d"/>
  <circle cx="382.3" cy="448.6" r="0.84" fill="#3d3d3d"/>
  <circle cx="533.3" cy="259.4" r="1.11" fill="#3d3d3d"/>
  <circle cx="620.7" cy="262.9" r="1.49" fill="#3d3d3d"/>
  <circle cx="380.5" cy="446.8" r="1.32" fill="#3d3d3d"/>
  <circle cx="549.5" cy="278.7" r="0.71" fill="#3d3d3d"/>
  <circle cx="410.7" cy="463.7" r="1.29" fill="#3d3d3d"/>
  <circle cx="524.2" cy="286.2" r="1.23" fill="#3d3d3d"/>
  <circle cx="280.5" cy="694.8" r="1.46" fill="#3d3d3d"/>
  <circle cx="423.3" cy="501.7" r="1.49" fill="#3d3d3d"/>
  <circle cx="453.0" cy="347.6" r="0.86" fill="#3d3d3d"/>
  <circle cx="205.8" cy="96.0" r="1.21" fill="#3d3d3d"/>
  <circle cx="51.3" cy="610.0" r="1.24" fill="#3d3d3d"/>
  <circle cx="424.8" cy="491.3" r="1.40" fill="#3d3d3d"/>
  <circle cx="517.5" cy="306.7" r="1.03" fill="#3d3d3d"/>
  <circle cx="599.7" cy="232.5" r="1.40" fill="#3d3d3d"/>
  <circle cx="507.4" cy="426.4" r="0.88" fill="#3d3d3d"/>
  <circle cx="503.7" cy="323.1" r="1.21" fill="#3d3d3d"/>
  <circle cx="422.8" cy="387.0" r="1.16" fill="#3d3d3d"/>
  <circle cx="739.3" cy="296.0" r="1.29" fill="#3d3d3d"/>
  <circle cx="439.2" cy="489.4" r="1.09" fill="#3d3d3d"/>
  <circle cx="526.8" cy="282.5" r="0.85" fill="#3d3d3d"/>
  <circle cx="558.5" cy="247.3" r="1.17" fill="#3d3d3d"/>
  <circle cx="502.4" cy="314.2" r="0.76" fill="#3d3d3d"/>
  <circle cx="197.1" cy="219.6" r="1.21" fill="#3d3d3d"/>
  <circle cx="583.7" cy="244.1" r="0.83" fill="#3d3d3d"/>
  <circle cx="446.5" cy="366.7" r="1.11" fill="#3d3d3d"/>
  <circle cx="430.4" cy="182.7" r="0.94" fill="#3d3d3d"/>
  <circle cx="562.7" cy="215.8" r="0.80" fill="#3d3d3d"/>
  <circle cx="605.9" cy="151.2" r="1.23" fill="#3d3d3d"/>
  <circle cx="542.3" cy="250.6" r="1.02" fill="#3d3d3d"/>
  <circle cx="532.5" cy="284.8" r="1.47" fill="#3d3d3d"/>
  <circle cx="598.0" cy="243.5" r="0.95" fill="#3d3d3d"/>
  <circle cx="434.6" cy="384.7" r="1.05" fill="#3d3d3d"/>
  <circle cx="380.3" cy="444.2" r="1.08" fill="#3d3d3d"/>
  <circle cx="620.2" cy="122.8" r="1.11" fill="#3d3d3d"/>
  <circle cx="515.5" cy="588.9" r="1.00" fill="#3d3d3d"/>
  <circle cx="24.5" cy="156.0" r="0.72" fill="#3d3d3d"/>
  <circle cx="489.7" cy="465.1" r="1.32" fill="#3d3d3d"/>
  <circle cx="525.5" cy="291.5" r="1.08" fill="#3d3d3d"/>
  <circle cx="306.4" cy="127.7" r="1.49" fill="#3d3d3d"/>
  <circle cx="449.6" cy="476.4" r="1.18" fill="#3d3d3d"/>
  <circle cx="550.0" cy="267.2" r="1.42" fill="#3d3d3d"/>
  <circle cx="465.0" cy="381.9" r="0.95" fill="#3d3d3d"/>
  <circle cx="445.4" cy="343.9" r="1.26" fill="#3d3d3d"/>
  <circle cx="608.0" cy="274.7" r="1.31" fill="#3d3d3d"/>
  <circle cx="530.1" cy="265.3" r="0.77" fill="#3d3d3d"/>
  <circle cx="575.1" cy="233.9" r="1.16" fill="#3d3d3d"/>
  <circle cx="438.6" cy="376.8" r="1.00" fill="#3d3d3d"/>
  <circle cx="422.9" cy="483.4" r="1.31" fill="#3d3d3d"/>
  <circle cx="570.4" cy="262.3" r="0.74" fill="#3d3d3d"/>
  <circle cx="515.4" cy="300.5" r="1.12" fill="#3d3d3d"/>
  <circle cx="113.3" cy="153.2" r="1.08" fill="#3d3d3d"/>
  <circle cx="452.7" cy="357.2" r="0.70" fill="#3d3d3d"/>
  <circle cx="289.7" cy="294.3" r="0.80" fill="#3d3d3d"/>
  <circle cx="594.9" cy="262.9" r="0.81" fill="#3d3d3d"/>
  <circle cx="568.6" cy="251.5" r="1.48" fill="#3d3d3d"/>
  <circle cx="521.5" cy="447.6" r="0.95" fill="#3d3d3d"/>
  <circle cx="201.2" cy="260.2" r="1.08" fill="#3d3d3d"/>
  <circle cx="586.7" cy="260.0" r="1.20" fill="#3d3d3d"/>
  <circle cx="505.1" cy="306.4" r="0.86" fill="#3d3d3d"/>
  <circle cx="578.1" cy="224.6" r="1.07" fill="#3d3d3d"/>
  <circle cx="582.9" cy="251.6" r="1.26" fill="#3d3d3d"/>
  <circle cx="40.9" cy="259.5" r="1.32" fill="#3d3d3d"/>
  <circle cx="571.6" cy="243.7" r="0.90" fill="#3d3d3d"/>
  <circle cx="511.2" cy="452.7" r="1.47" fill="#3d3d3d"/>
  <circle cx="387.4" cy="446.2" r="1.45" fill="#3d3d3d"/>
  <circle cx="575.9" cy="262.0" r="1.26" fill="#3d3d3d"/>
  <circle cx="680.3" cy="477.4" r="0.93" fill="#3d3d3d"/>
  <circle cx="587.1" cy="239.0" r="0.87" fill="#3d3d3d"/>
  <circle cx="579.0" cy="273.3" r="1.48" fill="#3d3d3d"/>
  <circle cx="400.1" cy="250.6" r="0.84" fill="#3d3d3d"/>
  <circle cx="425.0" cy="484.5" r="1.16" fill="#3d3d3d"/>
  <circle cx="451.6" cy="473.3" r="1.11" fill="#3d3d3d"/>
  <circle cx="485.8" cy="469.4" r="1.43" fill="#3d3d3d"/>
  <circle cx="517.2" cy="448.4" r="0.95" fill="#3d3d3d"/>
  <circle cx="521.4" cy="564.0" r="1.48" fill="#3d3d3d"/>
  <circle cx="522.4" cy="301.6" r="0.72" fill="#3d3d3d"/>
  <circle cx="567.2" cy="259.7" r="1.33" fill="#3d3d3d"/>
  <circle cx="617.1" cy="765.8" r="1.08" fill="#3d3d3d"/>
  <circle cx="479.2" cy="341.2" r="0.80" fill="#3d3d3d"/>
  <circle cx="417.1" cy="479.6" r="1.00" fill="#3d3d3d"/>
  <circle cx="457.0" cy="335.2" r="1.37" fill="#3d3d3d"/>
  <circle cx="500.3" cy="317.3" r="0.82" fill="#3d3d3d"/>
  <circle cx="536.4" cy="502.2" r="0.73" fill="#3d3d3d"/>
  <circle cx="558.1" cy="223.4" r="1.49" fill="#3d3d3d"/>
  <circle cx="514.2" cy="451.4" r="0.85" fill="#3d3d3d"/>
  <circle cx="455.8" cy="354.7" r="0.85" fill="#3d3d3d"/>
  <circle cx="418.8" cy="610.2" r="1.05" fill="#3d3d3d"/>
  <circle cx="498.3" cy="306.1" r="0.81" fill="#3d3d3d"/>
  <circle cx="593.8" cy="244.2" r="0.91" fill="#3d3d3d"/>
  <circle cx="505.1" cy="445.1" r="1.27" fill="#3d3d3d"/>
  <circle cx="589.7" cy="257.9" r="0.71" fill="#3d3d3d"/>
  <circle cx="565.4" cy="257.6" r="1.02" fill="#3d3d3d"/>
  <circle cx="502.0" cy="436.0" r="1.21" fill="#3d3d3d"/>
  <circle cx="375.6" cy="276.8" r="0.85" fill="#3d3d3d"/>
  <circle cx="390.8" cy="417.9" r="1.25" fill="#3d3d3d"/>
  <circle cx="742.9" cy="351.4" r="1.40" fill="#3d3d3d"/>
  <circle cx="516.3" cy="449.5" r="0.88" fill="#3d3d3d"/>
  <circle cx="510.8" cy="445.9" r="1.22" fill="#3d3d3d"/>
  <circle cx="597.4" cy="266.9" r="0.90" fill="#3d3d3d"/>
  <circle cx="610.2" cy="576.2" r="1.12" fill="#3d3d3d"/>
  <circle cx="37.2" cy="733.7" r="0.97" fill="#3d3d3d"/>
  <circle cx="387.1" cy="434.8" r="1.13" fill="#3d3d3d"/>
  <circle cx="634.1" cy="318.4" r="0.80" fill="#3d3d3d"/>
  <circle cx="483.7" cy="413.3" r="1.49" fill="#3d3d3d"/>
  <circle cx="780.1" cy="55.8" r="1.39" fill="#3d3d3d"/>
  <circle cx="528.1" cy="361.6" r="1.11" fill="#3d3d3d"/>
  <circle cx="588.6" cy="249.1" r="1.37" fill="#3d3d3d"/>
  <circle cx="554.6" cy="251.1" r="0.93" fill="#3d3d3d"/>
  <circle cx="542.2" cy="271.0" r="1.47" fill="#3d3d3d"/>
  <circle cx="498.9" cy="439.7" r="1.00" fill="#3d3d3d"/>
  <circle cx="481.5" cy="401.5" r="0.81" fill="#3d3d3d"/>
  <circle cx="391.6" cy="437.3" r="1.43" fill="#3d3d3d"/>
  <circle cx="429.9" cy="716.3" r="1.00" fill="#3d3d3d"/>
  <circle cx="566.0" cy="239.8" r="1.32" fill="#3d3d3d"/>
  <circle cx="472.7" cy="343.0" r="1.49" fill="#3d3d3d"/>
  <circle cx="403.2" cy="424.7" r="0.86" fill="#3d3d3d"/>
  <circle cx="532.5" cy="228.4" r="0.99" fill="#3d3d3d"/>
  <circle cx="375.1" cy="443.9" r="1.12" fill="#3d3d3d"/>
  <circle cx="414.6" cy="486.2" r="0.73" fill="#3d3d3d"/>
  <circle cx="455.4" cy="359.4" r="1.38" fill="#3d3d3d"/>
  <circle cx="118.1" cy="116.5" r="1.39" fill="#3d3d3d"/>
  <circle cx="493.2" cy="450.1" r="0.77" fill="#3d3d3d"/>
  <circle cx="433.7" cy="484.1" r="1.29" fill="#3d3d3d"/>
  <circle cx="530.6" cy="266.2" r="0.79" fill="#3d3d3d"/>
  <circle cx="552.5" cy="220.9" r="1.07" fill="#3d3d3d"/>
  <circle cx="320.8" cy="410.2" r="1.00" fill="#3d3d3d"/>
  <circle cx="415.8" cy="405.0" r="0.95" fill="#3d3d3d"/>
  <circle cx="89.4" cy="726.5" r="1.14" fill="#3d3d3d"/>
  <circle cx="422.8" cy="491.0" r="1.36" fill="#3d3d3d"/>
  <circle cx="16.3" cy="117.2" r="0.81" fill="#3d3d3d"/>
  <circle cx="68.6" cy="724.3" r="1.33" fill="#3d3d3d"/>
  <circle cx="591.5" cy="233.4" r="0.93" fill="#3d3d3d"/>
  <circle cx="582.0" cy="252.8" r="0.74" fill="#3d3d3d"/>
  <circle cx="424.3" cy="487.3" r="1.25" fill="#3d3d3d"/>
  <circle cx="580.3" cy="240.0" r="1.49" fill="#3d3d3d"/>
  <circle cx="748.3" cy="592.5" r="1.44" fill="#3d3d3d"/>
  <circle cx="660.7" cy="428.1" r="1.23" fill="#3d3d3d"/>
  <circle cx="552.5" cy="241.0" r="1.00" fill="#3d3d3d"/>
  <circle cx="505.5" cy="458.9" r="0.87" fill="#3d3d3d"/>
  <circle cx="782.5" cy="512.9" r="1.34" fill="#3d3d3d"/>
  <circle cx="500.6" cy="314.5" r="1.04" fill="#3d3d3d"/>
  <circle cx="576.8" cy="256.1" r="0.76" fill="#3d3d3d"/>
  <circle cx="451.2" cy="355.1" r="0.83" fill="#3d3d3d"/>
  <circle cx="541.0" cy="254.3" r="1.25" fill="#3d3d3d"/>
  <circle cx="552.5" cy="232.8" r="1.08" fill="#3d3d3d"/>
  <circle cx="380.5" cy="437.4" r="0.79" fill="#3d3d3d"/>
  <circle cx="433.5" cy="381.3" r="1.26" fill="#3d3d3d"/>
  <circle cx="373.3" cy="438.6" r="0.74" fill="#3d3d3d"/>
  <circle cx="454.2" cy="349.9" r="0.71" fill="#3d3d3d"/>
  <circle cx="392.4" cy="432.6" r="0.91" fill="#3d3d3d"/>
  <circle cx="422.0" cy="481.0" r="0.97" fill="#3d3d3d"/>
  <circle cx="391.1" cy="435.0" r="1.23" fill="#3d3d3d"/>
  <circle cx="322.9" cy="124.0" r="1.09" fill="#3d3d3d"/>
  <circle cx="582.4" cy="267.3" r="0.86" fill="#3d3d3d"/>
  <circle cx="433.1" cy="507.8" r="0.84" fill="#3d3d3d"/>
  <circle cx="450.4" cy="360.1" r="0.93" fill="#3d3d3d"/>
  <circle cx="507.0" cy="457.3" r="1.07" fill="#3d3d3d"/>
  <circle cx="562.0" cy="250.6" r="1.49" fill="#3d3d3d"/>
  <circle cx="398.9" cy="425.2" r="1.19" fill="#3d3d3d"/>
  <circle cx="188.7" cy="182.2" r="1.23" fill="#3d3d3d"/>
  <circle cx="529.3" cy="69.5" r="1.45" fill="#3d3d3d"/>
  <circle cx="573.8" cy="260.2" r="0.92" fill="#3d3d3d"/>
  <circle cx="493.6" cy="318.3" r="0.98" fill="#3d3d3d"/>
  <circle cx="583.5" cy="65.1" r="1.41" fill="#3d3d3d"/>
  <circle cx="480.8" cy="412.0" r="1.00" fill="#3d3d3d"/>
  <circle cx="509.1" cy="300.3" r="0.89" fill="#3d3d3d"/>
  <circle cx="570.0" cy="257.1" r="1.00" fill="#3d3d3d"/>
  <circle cx="510.1" cy="317.0" r="0.78" fill="#3d3d3d"/>
  <circle cx="427.1" cy="491.1" r="1.32" fill="#3d3d3d"/>
  <circle cx="445.3" cy="348.8" r="1.21" fill="#3d3d3d"/>
  <circle cx="383.6" cy="448.5" r="1.50" fill="#3d3d3d"/>
  <circle cx="545.4" cy="182.4" r="1.05" fill="#3d3d3d"/>
  <circle cx="421.7" cy="492.8" r="1.44" fill="#3d3d3d"/>
  <circle cx="793.6" cy="339.1" r="0.83" fill="#3d3d3d"/>
  <circle cx="595.0" cy="231.5" r="0.79" fill="#3d3d3d"/>
  <circle cx="516.0" cy="170.7" r="1.07" fill="#3d3d3d"/>
  <circle cx="376.8" cy="449.9" r="0.98" fill="#3d3d3d"/>
  <circle cx="541.6" cy="261.9" r="1.42" fill="#3d3d3d"/>
  <circle cx="606.9" cy="248.3" r="0.70" fill="#3d3d3d"/>
  <circle cx="565.0" cy="259.8" r="0.95" fill="#3d3d3d"/>
  <circle cx="369.9" cy="441.2" r="0.73" fill="#3d3d3d"/>
  <circle cx="385.2" cy="450.3" r="0.78" fill="#3d3d3d"/>
  <circle cx="751.7" cy="265.5" r="1.24" fill="#3d3d3d"/>
  <circle cx="461.3" cy="348.7" r="1.02" fill="#3d3d3d"/>
  <circle cx="435.1" cy="368.8" r="1.14" fill="#3d3d3d"/>
  <circle cx="450.9" cy="166.2" r="0.83" fill="#3d3d3d"/>
  <circle cx="473.3" cy="394.0" r="0.81" fill="#3d3d3d"/>
  <circle cx="523.1" cy="159.6" r="1.23" fill="#3d3d3d"/>
  <circle cx="589.6" cy="234.0" r="0.97" fill="#3d3d3d"/>
  <circle cx="487.6" cy="401.2" r="1.26" fill="#3d3d3d"/>
  <circle cx="500.3" cy="316.8" r="0.76" fill="#3d3d3d"/>
  <circle cx="501.7" cy="317.4" r="1.42" fill="#3d3d3d"/>
  <circle cx="578.7" cy="258.2" r="1.31" fill="#3d3d3d"/>
  <circle cx="352.4" cy="2.4" r="1.46" fill="#3d3d3d"/>
  <circle cx="225.5" cy="292.7" r="1.11" fill="#3d3d3d"/>
  <circle cx="442.2" cy="357.9" r="0.97" fill="#3d3d3d"/>
  <circle cx="573.1" cy="3.2" r="1.01" fill="#3d3d3d"/>
  <circle cx="454.0" cy="350.4" r="1.33" fill="#3d3d3d"/>
  <circle cx="447.1" cy="351.6" r="1.28" fill="#3d3d3d"/>
  <circle cx="434.9" cy="384.0" r="1.34" fill="#3d3d3d"/>
  <circle cx="367.3" cy="435.5" r="0.89" fill="#3d3d3d"/>
  <circle cx="510.8" cy="307.1" r="1.21" fill="#3d3d3d"/>
  <circle cx="680.2" cy="700.4" r="1.08" fill="#3d3d3d"/>
  <circle cx="576.5" cy="263.1" r="1.25" fill="#3d3d3d"/>
  <circle cx="471.5" cy="461.7" r="1.28" fill="#3d3d3d"/>
  <circle cx="389.5" cy="109.3" r="1.27" fill="#3d3d3d"/>
  <circle cx="573.4" cy="259.9" r="1.27" fill="#3d3d3d"/>
  <circle cx="477.2" cy="396.8" r="1.07" fill="#3d3d3d"/>
  <circle cx="375.1" cy="458.7" r="0.78" fill="#3d3d3d"/>
  <circle cx="463.7" cy="342.4" r="1.43" fill="#3d3d3d"/>
  <circle cx="20.8" cy="264.2" r="1.45" fill="#3d3d3d"/>
  <circle cx="425.8" cy="494.6" r="1.27" fill="#3d3d3d"/>
  <circle cx="432.9" cy="384.6" r="1.15" fill="#3d3d3d"/>
  <circle cx="735.5" cy="341.3" r="0.85" fill="#3d3d3d"/>
  <circle cx="658.3" cy="489.0" r="1.38" fill="#3d3d3d"/>
  <circle cx="439.2" cy="359.9" r="1.28" fill="#3d3d3d"/>
  <circle cx="413.5" cy="199.4" r="0.99" fill="#3d3d3d"/>
  <circle cx="723.2" cy="606.4" r="1.17" fill="#3d3d3d"/>
  <circle cx="442.2" cy="364.1" r="0.85" fill="#3d3d3d"/>
  <circle cx="350.6" cy="86.7" r="1.31" fill="#3d3d3d"/>
  <circle cx="303.9" cy="124.0" r="1.45" fill="#3d3d3d"/>
  <circle cx="558.9" cy="229.2" r="0.85" fill="#3d3d3d"/>
  <circle cx="368.1" cy="150.4" r="1.13" fill="#3d3d3d"/>
  <circle cx="440.3" cy="221.9" r="0.78" fill="#3d3d3d"/>
  <circle cx="201.6" cy="124.8" r="0.83" fill="#3d3d3d"/>
  <circle cx="389.1" cy="439.2" r="1.31" fill="#3d3d3d"/>
  <circle cx="477.9" cy="466.3" r="1.18" fill="#3d3d3d"/>
  <circle cx="549.4" cy="294.6" r="0.70" fill="#3d3d3d"/>
  <circle cx="514.4" cy="446.9" r="1.22" fill="#3d3d3d"/>
  <circle cx="377.2" cy="452.0" r="1.46" fill="#3d3d3d"/>
  <circle cx="158.4" cy="121.9" r="1.19" fill="#3d3d3d"/>
  <circle cx="481.6" cy="332.0" r="0.91" fill="#3d3d3d"/>
  <circle cx="509.7" cy="308.8" r="1.12" fill="#3d3d3d"/>
  <circle cx="429.6" cy="502.3" r="0.92" fill="#3d3d3d"/>
  <circle cx="552.0" cy="236.7" r="1.33" fill="#3d3d3d"/>
  <circle cx="395.7" cy="692.5" r="0.87" fill="#3d3d3d"/>
  <circle cx="573.0" cy="263.2" r="1.06" fill="#3d3d3d"/>
  <circle cx="430.6" cy="490.8" r="0.90" fill="#3d3d3d"/>
  <circle cx="376.5" cy="440.7" r="0.97" fill="#3d3d3d"/>
  <circle cx="381.5" cy="441.1" r="0.71" fill="#3d3d3d"/>
  <circle cx="270.5" cy="333.6" r="0.75" fill="#3d3d3d"/>
  <circle cx="519.3" cy="437.2" r="0.97" fill="#3d3d3d"/>
  <circle cx="456.1" cy="483.6" r="1.27" fill="#3d3d3d"/>
  <circle cx="564.0" cy="219.8" r="0.97" fill="#3d3d3d"/>
  <circle cx="423.5" cy="477.9" r="0.71" fill="#3d3d3d"/>
  <circle cx="578.6" cy="260.2" r="0.91" fill="#3d3d3d"/>
  <circle cx="788.6" cy="702.6" r="0.93" fill="#3d3d3d"/>
  <circle cx="547.0" cy="232.9" r="0.79" fill="#3d3d3d"/>
  <circle cx="499.0" cy="425.7" r="1.49" fill="#3d3d3d"/>
  <circle cx="685.8" cy="107.2" r="0.98" fill="#3d3d3d"/>
  <circle cx="311.4" cy="275.4" r="1.46" fill="#3d3d3d"/>
  <circle cx="491.7" cy="420.4" r="1.13" fill="#3d3d3d"/>
  <circle cx="419.2" cy="484.9" r="1.10" fill="#3d3d3d"/>
  <circle cx="69.5" cy="64.4" r="1.09" fill="#3d3d3d"/>
  <circle cx="554.9" cy="262.2" r="1.08" fill="#3d3d3d"/>
  <circle cx="504.6" cy="448.9" r="1.18" fill="#3d3d3d"/>
  <circle cx="194.9" cy="234.2" r="0.75" fill="#3d3d3d"/>
  <circle cx="389.8" cy="448.8" r="1.46" fill="#3d3d3d"/>
  <circle cx="435.2" cy="369.5" r="1.07" fill="#3d3d3d"/>
  <circle cx="493.1" cy="422.3" r="1.06" fill="#3d3d3d"/>
  <circle cx="516.6" cy="292.7" r="0.77" fill="#3d3d3d"/>
  <circle cx="672.8" cy="281.7" r="0.87" fill="#3d3d3d"/>
  <circle cx="442.7" cy="487.1" r="0.93" fill="#3d3d3d"/>
  <circle cx="571.4" cy="244.3" r="1.33" fill="#3d3d3d"/>
  <circle cx="390.0" cy="488.2" r="1.31" fill="#3d3d3d"/>
  <circle cx="433.6" cy="253.6" r="0.71" fill="#3d3d3d"/>
  <circle cx="549.7" cy="637.5" r="1.18" fill="#3d3d3d"/>
  <circle cx="570.6" cy="255.1" r="1.11" fill="#3d3d3d"/>
  <circle cx="180.6" cy="403.9" r="0.99" fill="#3d3d3d"/>
  <circle cx="487.9" cy="341.2" r="0.99" fill="#3d3d3d"/>
  <circle cx="254.5" cy="556.1" r="1.44" fill="#3d3d3d"/>
  <circle cx="489.8" cy="535.9" r="0.74" fill="#3d3d3d"/>
  <circle cx="422.7" cy="491.3" r="0.76" fill="#3d3d3d"/>
  <circle cx="630.3" cy="647.8" r="1.15" fill="#3d3d3d"/>
  <circle cx="314.5" cy="793.7" r="1.23" fill="#3d3d3d"/>
  <circle cx="455.7" cy="366.4" r="1.13" fill="#3d3d3d"/>
  <circle cx="267.2" cy="417.8" r="0.93" fill="#3d3d3d"/>
  <circle cx="783.9" cy="477.7" r="0.83" fill="#3d3d3d"/>
  <circle cx="428.1" cy="497.2" r="0.87" fill="#3d3d3d"/>
  <circle cx="118.8" cy="358.7" r="0.86" fill="#3d3d3d"/>
  <circle cx="505.5" cy="450.5" r="1.37" fill="#3d3d3d"/>
  <circle cx="751.9" cy="726.2" r="0.84" fill="#3d3d3d"/>
  <circle cx="558.0" cy="256.1" r="1.28" fill="#3d3d3d"/>
  <circle cx="392.2" cy="444.3" r="1.04" fill="#3d3d3d"/>
  <circle cx="534.2" cy="288.4" r="0.98" fill="#3d3d3d"/>
  <circle cx="578.9" cy="272.4" r="0.78" fill="#3d3d3d"/>
  <circle cx="531.7" cy="287.6" r="0.72" fill="#3d3d3d"/>
  <circle cx="499.2" cy="317.8" r="0.73" fill="#3d3d3d"/>
  <circle cx="578.5" cy="246.0" r="0.96" fill="#3d3d3d"/>
  <circle cx="185.9" cy="614.8" r="1.33" fill="#3d3d3d"/>
  <circle cx="466.0" cy="346.3" r="0.77" fill="#3d3d3d"/>
  <circle cx="465.5" cy="364.2" r="1.07" fill="#3d3d3d"/>
  <circle cx="572.5" cy="237.2" r="0.70" fill="#3d3d3d"/>
  <circle cx="503.0" cy="322.7" r="1.34" fill="#3d3d3d"/>
  <circle cx="448.6" cy="368.9" r="1.32" fill="#3d3d3d"/>
  <circle cx="456.5" cy="364.1" r="1.44" fill="#3d3d3d"/>
  <circle cx="514.5" cy="315.8" r="1.21" fill="#3d3d3d"/>
  <circle cx="263.5" cy="608.4" r="1.04" fill="#3d3d3d"/>
  <circle cx="502.8" cy="597.5" r="0.73" fill="#3d3d3d"/>
  <circle cx="471.6" cy="371.6" r="1.27" fill="#3d3d3d"/>
  <circle cx="511.3" cy="296.3" r="1.35" fill="#3d3d3d"/>
  <circle cx="559.4" cy="238.6" r="1.50" fill="#3d3d3d"/>
  <circle cx="481.2" cy="401.5" r="0.81" fill="#3d3d3d"/>
  <circle cx="565.8" cy="278.1" r="1.44" fill="#3d3d3d"/>
  <circle cx="563.5" cy="238.9" r="1.37" fill="#3d3d3d"/>
  <circle cx="566.2" cy="259.6" r="0.86" fill="#3d3d3d"/>
  <circle cx="570.6" cy="242.0" r="1.29" fill="#3d3d3d"/>
  <circle cx="424.0" cy="480.4" r="1.48" fill="#3d3d3d"/>
  <circle cx="459.1" cy="355.8" r="0.73" fill="#3d3d3d"/>
  <circle cx="564.6" cy="238.0" r="1.20" fill="#3d3d3d"/>
  <circle cx="581.0" cy="265.1" r="0.94" fill="#3d3d3d"/>
  <circle cx="487.7" cy="410.7" r="1.46" fill="#3d3d3d"/>
  <circle cx="12.7" cy="238.0" r="1.49" fill="#3d3d3d"/>
  <circle cx="538.7" cy="262.4" r="1.50" fill="#3d3d3d"/>
  <circle cx="535.6" cy="192.0" r="1.13" fill="#3d3d3d"/>
  <circle cx="554.4" cy="260.5" r="1.06" fill="#3d3d3d"/>
  <circle cx="196.6" cy="202.3" r="1.03" fill="#3d3d3d"/>
  <circle cx="192.1" cy="472.4" r="1.33" fill="#3d3d3d"/>
  <circle cx="457.3" cy="347.8" r="1.48" fill="#3d3d3d"/>
  <circle cx="345.5" cy="732.8" r="0.70" fill="#3d3d3d"/>
  <circle cx="462.0" cy="471.3" r="1.20" fill="#3d3d3d"/>
  <circle cx="479.9" cy="411.1" r="1.35" fill="#3d3d3d"/>
  <circle cx="395.8" cy="436.0" r="0.73" fill="#3d3d3d"/>
  <circle cx="383.4" cy="449.2" r="0.84" fill="#3d3d3d"/>
  <circle cx="25.2" cy="563.9" r="0.98" fill="#3d3d3d"/>
  <circle cx="574.2" cy="275.2" r="1.00" fill="#3d3d3d"/>
  <circle cx="583.7" cy="265.3" r="1.29" fill="#3d3d3d"/>
  <circle cx="585.9" cy="256.5" r="1.13" fill="#3d3d3d"/>
  <circle cx="474.4" cy="143.5" r="0.88" fill="#3d3d3d"/>
  <circle cx="569.3" cy="225.0" r="1.16" fill="#3d3d3d"/>
  <circle cx="507.3" cy="313.2" r="1.07" fill="#3d3d3d"/>
  <circle cx="589.2" cy="554.5" r="1.05" fill="#3d3d3d"/>
  <circle cx="567.9" cy="265.4" r="0.96" fill="#3d3d3d"/>
  <circle cx="431.2" cy="487.4" r="0.95" fill="#3d3d3d"/>
  <circle cx="489.0" cy="458.8" r="1.48" fill="#3d3d3d"/>
  <circle cx="596.2" cy="206.8" r="0.78" fill="#3d3d3d"/>
  <circle cx="387.1" cy="445.2" r="1.26" fill="#3d3d3d"/>
  <circle cx="406.7" cy="660.0" r="1.29" fill="#3d3d3d"/>
  <circle cx="402.8" cy="419.7" r="0.99" fill="#3d3d3d"/>
  <circle cx="119.0" cy="229.0" r="1.18" fill="#3d3d3d"/>
  <circle cx="519.7" cy="450.7" r="1.29" fill="#3d3d3d"/>
  <circle cx="504.7" cy="440.8" r="0.71" fill="#3d3d3d"/>
  <circle cx="497.4" cy="321.9" r="0.95" fill="#3d3d3d"/>
  <circle cx="166.6" cy="435.8" r="0.84" fill="#3d3d3d"/>
  <circle cx="559.1" cy="235.7" r="1.29" fill="#3d3d3d"/>
  <circle cx="376.4" cy="449.9" r="0.80" fill="#3d3d3d"/>
  <circle cx="623.6" cy="219.0" r="1.18" fill="#3d3d3d"/>
  <circle cx="476.4" cy="393.1" r="1.00" fill="#3d3d3d"/>
  <circle cx="92.6" cy="341.9" r="1.06" fill="#3d3d3d"/>
  <circle cx="515.2" cy="257.7" r="0.85" fill="#3d3d3d"/>
  <circle cx="649.5" cy="797.7" r="0.82" fill="#3d3d3d"/>
  <circle cx="506.2" cy="447.3" r="0.93" fill="#3d3d3d"/>
  <circle cx="418.7" cy="476.0" r="0.76" fill="#3d3d3d"/>
  <circle cx="570.6" cy="246.0" r="0.88" fill="#3d3d3d"/>
  <circle cx="379.9" cy="443.7" r="1.28" fill="#3d3d3d"/>
  <circle cx="295.9" cy="639.7" r="0.86" fill="#3d3d3d"/>
  <circle cx="540.1" cy="664.0" r="1.18" fill="#3d3d3d"/>
  <circle cx="414.9" cy="405.4" r="1.13" fill="#3d3d3d"/>
  <circle cx="458.6" cy="461.5" r="1.02" fill="#3d3d3d"/>
  <circle cx="625.8" cy="457.6" r="1.10" fill="#3d3d3d"/>
  <circle cx="432.1" cy="485.7" r="1.12" fill="#3d3d3d"/>
  <circle cx="451.6" cy="482.9" r="1.16" fill="#3d3d3d"/>
  <circle cx="483.9" cy="338.3" r="0.84" fill="#3d3d3d"/>
  <circle cx="108.3" cy="259.6" r="0.87" fill="#3d3d3d"/>
  <circle cx="454.7" cy="362.7" r="0.93" fill="#3d3d3d"/>
  <circle cx="561.8" cy="273.4" r="1.50" fill="#3d3d3d"/>
  <circle cx="776.1" cy="554.2" r="1.31" fill="#3d3d3d"/>
  <circle cx="598.2" cy="246.2" r="0.91" fill="#3d3d3d"/>
  <circle cx="508.5" cy="312.7" r="1.06" fill="#3d3d3d"/>
  <circle cx="579.1" cy="754.0" r="1.29" fill="#3d3d3d"/>
  <circle cx="461.2" cy="353.2" r="0.81" fill="#3d3d3d"/>
  <circle cx="558.3" cy="246.0" r="1.07" fill="#3d3d3d"/>
  <circle cx="544.0" cy="577.4" r="1.21" fill="#3d3d3d"/>
  <circle cx="465.2" cy="380.7" r="1.35" fill="#3d3d3d"/>
  <circle cx="412.2" cy="410.3" r="1.28" fill="#3d3d3d"/>
  <circle cx="556.9" cy="255.1" r="1.29" fill="#3d3d3d"/>
  <circle cx="456.3" cy="364.4" r="1.12" fill="#3d3d3d"/>
  <circle cx="555.3" cy="273.7" r="0.97" fill="#3d3d3d"/>
  <circle cx="546.3" cy="253.7" r="1.21" fill="#3d3d3d"/>
  <circle cx="402.2" cy="279.1" r="0.76" fill="#3d3d3d"/>
  <circle cx="569.6" cy="267.0" r="1.38" fill="#3d3d3d"/>
  <circle cx="500.0" cy="446.8" r="1.02" fill="#3d3d3d"/>
  <circle cx="2.1" cy="183.7" r="1.18" fill="#3d3d3d"/>
  <circle cx="474.8" cy="23.0" r="1.21" fill="#3d3d3d"/>
  <circle cx="706.8" cy="305.4" r="0.75" fill="#3d3d3d"/>
  <circle cx="479.6" cy="463.4" r="1.49" fill="#3d3d3d"/>
  <circle cx="479.7" cy="388.1" r="1.24" fill="#3d3d3d"/>
  <circle cx="572.6" cy="264.8" r="1.42" fill="#3d3d3d"/>
  <circle cx="441.3" cy="496.6" r="1.14" fill="#3d3d3d"/>
  <circle cx="727.5" cy="176.1" r="1.21" fill="#3d3d3d"/>
  <circle cx="400.4" cy="429.6" r="1.44" fill="#3d3d3d"/>
  <circle cx="106.1" cy="728.6" r="0.77" fill="#3d3d3d"/>
  <circle cx="591.6" cy="278.7" r="1.04" fill="#3d3d3d"/>
  <circle cx="493.7" cy="459.0" r="1.01" fill="#3d3d3d"/>
  <circle cx="748.0" cy="491.2" r="1.48" fill="#3d3d3d"/>
  <circle cx="155.8" cy="566.6" r="0.94" fill="#3d3d3d"/>
  <circle cx="460.2" cy="473.6" r="1.27" fill="#3d3d3d"/>
  <circle cx="470.0" cy="471.1" r="1.00" fill="#3d3d3d"/>
  <circle cx="492.1" cy="429.7" r="1.29" fill="#3d3d3d"/>
  <circle cx="609.2" cy="234.1" r="0.79" fill="#3d3d3d"/>
  <circle cx="483.6" cy="405.2" r="1.11" fill="#3d3d3d"/>
  <circle cx="570.2" cy="234.1" r="1.23" fill="#3d3d3d"/>
  <circle cx="305.3" cy="664.8" r="0.87" fill="#3d3d3d"/>
  <circle cx="414.2" cy="412.0" r="1.34" fill="#3d3d3d"/>
  <circle cx="521.6" cy="289.7" r="0.72" fill="#3d3d3d"/>
  <circle cx="496.2" cy="453.2" r="0.95" fill="#3d3d3d"/>
  <circle cx="490.1" cy="457.6" r="1.10" fill="#3d3d3d"/>
  <circle cx="453.9" cy="349.5" r="1.23" fill="#3d3d3d"/>
  <circle cx="557.9" cy="276.8" r="0.95" fill="#3d3d3d"/>
  <circle cx="557.5" cy="254.3" r="0.72" fill="#3d3d3d"/>
  <circle cx="475.6" cy="342.4" r="1.01" fill="#3d3d3d"/>
  <circle cx="571.3" cy="253.4" r="1.34" fill="#3d3d3d"/>
  <circle cx="552.8" cy="277.1" r="1.01" fill="#3d3d3d"/>
  <circle cx="581.0" cy="262.1" r="1.04" fill="#3d3d3d"/>
  <circle cx="500.1" cy="55.3" r="1.03" fill="#3d3d3d"/>
  <circle cx="459.0" cy="369.9" r="1.27" fill="#3d3d3d"/>
  <circle cx="547.2" cy="647.5" r="1.11" fill="#3d3d3d"/>
  <circle cx="389.5" cy="457.8" r="1.12" fill="#3d3d3d"/>
  <circle cx="400.4" cy="453.6" r="1.33" fill="#3d3d3d"/>
  <circle cx="390.2" cy="447.9" r="0.94" fill="#3d3d3d"/>
  <circle cx="645.7" cy="117.7" r="0.70" fill="#3d3d3d"/>
  <circle cx="515.4" cy="306.6" r="0.92" fill="#3d3d3d"/>
  <circle cx="443.6" cy="357.6" r="1.32" fill="#3d3d3d"/>
  <circle cx="583.3" cy="256.9" r="0.83" fill="#3d3d3d"/>
  <circle cx="415.0" cy="481.7" r="0.85" fill="#3d3d3d"/>
  <circle cx="573.2" cy="259.5" r="1.28" fill="#3d3d3d"/>
  <circle cx="465.8" cy="363.8" r="1.21" fill="#3d3d3d"/>
  <circle cx="401.2" cy="121.1" r="0.88" fill="#3d3d3d"/>
  <circle cx="581.9" cy="258.0" r="0.99" fill="#3d3d3d"/>
  <circle cx="434.5" cy="377.9" r="1.24" fill="#3d3d3d"/>
  <circle cx="519.9" cy="456.2" r="0.82" fill="#3d3d3d"/>
  <circle cx="111.8" cy="26.1" r="1.44" fill="#3d3d3d"/>
  <circle cx="532.1" cy="234.0" r="1.05" fill="#3d3d3d"/>
  <circle cx="422.5" cy="492.2" r="1.13" fill="#3d3d3d"/>
  <circle cx="502.4" cy="314.7" r="0.89" fill="#3d3d3d"/>
  <circle cx="389.0" cy="456.5" r="1.30" fill="#3d3d3d"/>
  <circle cx="493.1" cy="444.3" r="1.34" fill="#3d3d3d"/>
  <circle cx="545.8" cy="262.7" r="1.14" fill="#3d3d3d"/>
  <circle cx="568.9" cy="269.2" r="1.22" fill="#3d3d3d"/>
  <circle cx="624.2" cy="68.5" r="0.99" fill="#3d3d3d"/>
  <circle cx="771.9" cy="111.1" r="0.98" fill="#3d3d3d"/>
  <circle cx="513.8" cy="449.2" r="1.33" fill="#3d3d3d"/>
  <circle cx="383.1" cy="448.3" r="0.81" fill="#3d3d3d"/>
  <circle cx="462.1" cy="354.2" r="0.82" fill="#3d3d3d"/>
  <circle cx="398.2" cy="442.3" r="1.29" fill="#3d3d3d"/>
  <circle cx="483.2" cy="406.1" r="1.00" fill="#3d3d3d"/>
  <circle cx="513.2" cy="300.8" r="1.34" fill="#3d3d3d"/>
  <circle cx="497.7" cy="423.2" r="1.11" fill="#3d3d3d"/>
  <circle cx="329.6" cy="782.3" r="1.24" fill="#3d3d3d"/>
  <circle cx="505.8" cy="311.5" r="0.84" fill="#3d3d3d"/>
  <circle cx="499.0" cy="317.7" r="0.76" fill="#3d3d3d"/>
  <circle cx="121.2" cy="694.7" r="0.92" fill="#3d3d3d"/>
  <circle cx="92.5" cy="297.0" r="0.71" fill="#3d3d3d"/>
  <circle cx="375.7" cy="433.7" r="1.19" fill="#3d3d3d"/>
  <circle cx="404.0" cy="416.8" r="1.33" fill="#3d3d3d"/>
  <circle cx="549.1" cy="273.3" r="1.30" fill="#3d3d3d"/>
  <circle cx="295.0" cy="737.2" r="0.99" fill="#3d3d3d"/>
  <circle cx="49.3" cy="135.5" r="1.33" fill="#3d3d3d"/>
  <circle cx="745.7" cy="728.4" r="1.16" fill="#3d3d3d"/>
  <circle cx="453.3" cy="342.8" r="1.03" fill="#3d3d3d"/>
  <circle cx="475.7" cy="319.9" r="1.44" fill="#3d3d3d"/>
  <circle cx="546.3" cy="273.1" r="1.27" fill="#3d3d3d"/>
  <circle cx="475.0" cy="465.8" r="1.03" fill="#3d3d3d"/>
  <circle cx="416.3" cy="490.2" r="1.44" fill="#3d3d3d"/>
  <circle cx="447.6" cy="356.3" r="1.22" fill="#3d3d3d"/>
  <circle cx="564.8" cy="244.4" r="1.10" fill="#3d3d3d"/>
  <circle cx="515.9" cy="306.9" r="1.17" fill="#3d3d3d"/>
  <circle cx="543.8" cy="279.0" r="0.96" fill="#3d3d3d"/>
  <circle cx="581.3" cy="255.4" r="1.10" fill="#3d3d3d"/>
  <circle cx="356.0" cy="68.0" r="0.82" fill="#3d3d3d"/>
  <circle cx="576.0" cy="229.6" r="1.32" fill="#3d3d3d"/>
  <circle cx="481.8" cy="395.0" r="0.73" fill="#3d3d3d"/>
  <circle cx="430.3" cy="491.6" r="0.95" fill="#3d3d3d"/>
  <circle cx="386.6" cy="454.7" r="1.00" fill="#3d3d3d"/>
  <circle cx="442.7" cy="350.7" r="1.40" fill="#3d3d3d"/>
  <circle cx="406.3" cy="463.2" r="0.96" fill="#3d3d3d"/>
  <circle cx="390.8" cy="463.2" r="1.03" fill="#3d3d3d"/>
  <circle cx="430.5" cy="483.1" r="1.38" fill="#3d3d3d"/>
  <circle cx="274.5" cy="301.5" r="1.46" fill="#3d3d3d"/>
  <circle cx="433.4" cy="489.3" r="1.22" fill="#3d3d3d"/>
  <circle cx="451.2" cy="359.7" r="1.02" fill="#3d3d3d"/>
  <circle cx="508.3" cy="314.0" r="0.93" fill="#3d3d3d"/>
  <circle cx="437.5" cy="11.4" r="1.09" fill="#3d3d3d"/>
  <circle cx="483.1" cy="413.4" r="1.07" fill="#3d3d3d"/>
  <circle cx="36.7" cy="533.7" r="0.90" fill="#3d3d3d"/>
  <circle cx="54.5" cy="198.4" r="1.02" fill="#3d3d3d"/>
  <circle cx="479.7" cy="399.9" r="1.10" fill="#3d3d3d"/>
  <circle cx="571.9" cy="238.5" r="1.28" fill="#3d3d3d"/>
  <circle cx="444.3" cy="494.1" r="0.86" fill="#3d3d3d"/>
  <circle cx="542.9" cy="280.1" r="1.35" fill="#3d3d3d"/>
  <circle cx="64.2" cy="687.5" r="0.76" fill="#3d3d3d"/>
  <circle cx="127.9" cy="751.0" r="1.10" fill="#3d3d3d"/>
  <circle cx="327.8" cy="271.0" r="0.83" fill="#3d3d3d"/>
  <circle cx="585.5" cy="279.8" r="1.40" fill="#3d3d3d"/>
  <circle cx="439.1" cy="474.8" r="1.25" fill="#3d3d3d"/>
  <circle cx="548.8" cy="275.2" r="1.27" fill="#3d3d3d"/>
  <circle cx="465.9" cy="372.6" r="1.46" fill="#3d3d3d"/>
  <circle cx="450.8" cy="360.7" r="1.27" fill="#3d3d3d"/>
  <circle cx="172.5" cy="413.4" r="0.91" fill="#3d3d3d"/>
  <circle cx="460.8" cy="358.8" r="1.42" fill="#3d3d3d"/>
  <circle cx="397.5" cy="455.9" r="1.20" fill="#3d3d3d"/>
  <circle cx="381.4" cy="449.8" r="1.13" fill="#3d3d3d"/>
  <circle cx="491.5" cy="528.6" r="1.46" fill="#3d3d3d"/>
  <circle cx="214.3" cy="251.0" r="1.39" fill="#3d3d3d"/>
  <circle cx="501.6" cy="439.1" r="1.22" fill="#3d3d3d"/>
  <circle cx="460.0" cy="470.8" r="1.24" fill="#3d3d3d"/>
  <circle cx="497.5" cy="170.0" r="1.31" fill="#3d3d3d"/>
  <circle cx="510.3" cy="448.4" r="1.43" fill="#3d3d3d"/>
  <circle cx="73.3" cy="524.4" r="0.93" fill="#3d3d3d"/>
  <circle cx="412.0" cy="470.7" r="0.93" fill="#3d3d3d"/>
  <circle cx="587.6" cy="458.1" r="0.83" fill="#3d3d3d"/>
  <circle cx="441.6" cy="477.3" r="0.97" fill="#3d3d3d"/>
  <circle cx="86.8" cy="500.2" r="0.80" fill="#3d3d3d"/>
  <circle cx="438.8" cy="489.8" r="1.17" fill="#3d3d3d"/>
  <circle cx="98.5" cy="541.0" r="1.34" fill="#3d3d3d"/>
  <circle cx="400.9" cy="461.6" r="0.88" fill="#3d3d3d"/>
  <circle cx="401.7" cy="461.0" r="0.79" fill="#3d3d3d"/>
  <circle cx="469.7" cy="342.2" r="0.78" fill="#3d3d3d"/>
  <circle cx="573.0" cy="239.7" r="1.12" fill="#3d3d3d"/>
  <circle cx="563.9" cy="583.3" r="0.73" fill="#3d3d3d"/>
  <circle cx="393.3" cy="764.6" r="1.05" fill="#3d3d3d"/>
  <circle cx="591.2" cy="236.7" r="1.11" fill="#3d3d3d"/>
  <circle cx="510.3" cy="660.1" r="0.99" fill="#3d3d3d"/>
  <circle cx="576.5" cy="538.5" r="1.23" fill="#3d3d3d"/>
  <circle cx="777.7" cy="680.1" r="1.36" fill="#3d3d3d"/>
  <circle cx="17.9" cy="10.9" r="1.34" fill="#3d3d3d"/>
  <circle cx="384.4" cy="434.8" r="1.09" fill="#3d3d3d"/>
  <circle cx="456.6" cy="371.5" r="1.18" fill="#3d3d3d"/>
  <circle cx="773.9" cy="76.8" r="1.46" fill="#3d3d3d"/>
  <circle cx="160.3" cy="14.8" r="1.16" fill="#3d3d3d"/>
  <circle cx="447.7" cy="345.5" r="0.94" fill="#3d3d3d"/>
  <circle cx="379.1" cy="447.6" r="0.81" fill="#3d3d3d"/>
  <circle cx="396.2" cy="74.0" r="1.10" fill="#3d3d3d"/>
  <circle cx="169.7" cy="330.6" r="1.19" fill="#3d3d3d"/>
  <circle cx="418.7" cy="489.5" r="1.15" fill="#3d3d3d"/>
  <circle cx="396.3" cy="429.5" r="1.18" fill="#3d3d3d"/>
  <circle cx="401.1" cy="425.1" r="1.18" fill="#3d3d3d"/>
  <circle cx="548.0" cy="275.9" r="1.37" fill="#3d3d3d"/>
  <circle cx="562.7" cy="252.8" r="1.32" fill="#3d3d3d"/>
  <circle cx="572.2" cy="242.2" r="1.45" fill="#3d3d3d"/>
  <circle cx="308.5" cy="271.5" r="0.80" fill="#3d3d3d"/>
  <circle cx="580.9" cy="687.4" r="0.87" fill="#3d3d3d"/>
  <circle cx="423.4" cy="679.4" r="1.23" fill="#3d3d3d"/>
  <circle cx="452.7" cy="361.1" r="0.83" fill="#3d3d3d"/>
  <circle cx="378.1" cy="435.9" r="1.21" fill="#3d3d3d"/>
  <circle cx="592.7" cy="225.2" r="1.22" fill="#3d3d3d"/>
  <circle cx="385.5" cy="462.6" r="1.22" fill="#3d3d3d"/>
  <circle cx="449.3" cy="361.1" r="1.49" fill="#3d3d3d"/>
  <circle cx="553.3" cy="267.8" r="1.20" fill="#3d3d3d"/>
  <circle cx="576.1" cy="269.3" r="1.21" fill="#3d3d3d"/>
  <circle cx="507.5" cy="323.9" r="1.23" fill="#3d3d3d"/>
  <circle cx="746.6" cy="269.2" r="1.35" fill="#3d3d3d"/>
  <circle cx="471.5" cy="375.1" r="1.21" fill="#3d3d3d"/>
  <circle cx="503.1" cy="310.7" r="0.98" fill="#3d3d3d"/>
  <circle cx="387.1" cy="448.6" r="1.40" fill="#3d3d3d"/>
  <circle cx="497.4" cy="458.1" r="0.91" fill="#3d3d3d"/>
  <circle cx="507.0" cy="307.8" r="0.84" fill="#3d3d3d"/>
  <circle cx="516.2" cy="446.8" r="0.91" fill="#3d3d3d"/>
  <circle cx="425.6" cy="399.0" r="0.71" fill="#3d3d3d"/>
  <circle cx="524.6" cy="308.9" r="0.90" fill="#3d3d3d"/>
  <circle cx="461.8" cy="347.5" r="1.32" fill="#3d3d3d"/>
  <circle cx="556.3" cy="270.2" r="1.30" fill="#3d3d3d"/>
  <circle cx="313.4" cy="621.0" r="1.25" fill="#3d3d3d"/>
  <circle cx="407.8" cy="467.6" r="1.39" fill="#3d3d3d"/>
  <circle cx="559.3" cy="263.7" r="1.13" fill="#3d3d3d"/>
</svg>
