<svg viewBox="0 0 800 800" xmlns="http://www.w3.org/2000/svg">
  <circle cx="342" cy="328" r="2"   fill="#3d3d3d"/>
  <circle cx="375" cy="315" r="1.8" fill="#3d3d3d"/>
  <circle cx="410" cy="310" r="2.2" fill="#3d3d3d"/>
  <circle cx="450" cy="320" r="1.8" fill="#3d3d3d"/>
  <circle cx="355" cy="350" r="1.5" fill="#3d3d3d"/>
  <circle cx="390" cy="342" r="2"   fill="#3d3d3d"/>
  <circle cx="425" cy="335" r="1.8" fill="#3d3d3d"/>
  <circle cx="458" cy="328" r="2"   fill="#3d3d3d"/>
  <circle cx="368" cy="372" r="2.2" fill="#3d3d3d"/>
  <circle cx="400" cy="362" r="2"   fill="#3d3d3d"/>
  <circle cx="434" cy="358" r="1.5" fill="#3d3d3d"/>
  <circle cx="464" cy="350" r="2.2" fill="#3d3d3d"/>
  <circle cx="380" cy="392" r="2"   fill="#3d3d3d"/>
  <circle cx="412" cy="385" r="2.2" fill="#3d3d3d"/>
  <circle cx="445" cy="378" r="1.8" fill="#3d3d3d"/>
  <circle cx="475" cy="368" r="2"   fill="#3d3d3d"/>
  <circle cx="350" cy="398" r="1.5" fill="#3d3d3d"/>
  <circle cx="418" cy="408" r="2.2" fill="#3d3d3d"/>
  <circle cx="450" cy="400" r="1.8" fill="#3d3d3d"/>
  <circle cx="478" cy="390" r="2"   fill="#3d3d3d"/>
  <circle cx="362" cy="420" r="2"   fill="#3d3d3d"/>
  <circle cx="394" cy="415" r="1.5" fill="#3d3d3d"/>
  <circle cx="424" cy="428" r="2.2" fill="#3d3d3d"/>
  <circle cx="455" cy="422" r="1.8" fill="#3d3d3d"/>
</svg>
