<svg viewBox="0 0 800 800" xmlns="http://www.w3.org/2000/svg">
  <circle cx="438.3" cy="358.1" r="1.20" fill="#3d3d3d"/>
  <circle cx="24.1" cy="465.2" r="0.75" fill="#3d3d3d"/>
  <circle cx="206.1" cy="316.7" r="1.14" fill="#3d3d3d"/>
  <circle cx="405.1" cy="372.6" r="0.78" fill="#3d3d3d"/>
  <circle cx="440.6" cy="371.3" r="1.17" fill="#3d3d3d"/>
  <circle cx="427.6" cy="389.4" r="1.18" fill="#3d3d3d"/>
  <circle cx="412.0" cy="646.3" r="0.77" fill="#3d3d3d"/>
  <circle cx="538.4" cy="69.7" r="0.77" fill="#3d3d3d"/>
  <circle cx="180.7" cy="420.1" r="1.30" fill="#3d3d3d"/>
  <circle cx="441.2" cy="369.7" r="0.86" fill="#3d3d3d"/>
  <circle cx="441.2" cy="372.3" r="1.38" fill="#3d3d3d"/>
  <circle cx="430.1" cy="376.8" r="1.49" fill="#3d3d3d"/>
  <circle cx="448.0" cy="370.3" r="1.49" fill="#3d3d3d"/>
  <circle cx="661.9" cy="777.9" r="0.75" fill="#3d3d3d"/>
  <circle cx="424.2" cy="349.9" r="1.20" fill="#3d3d3d"/>
  <circle cx="799.7" cy="643.4" r="0.87" fill="#3d3d3d"/>
  <circle cx="438.1" cy="374.1" r="0.87" fill="#3d3d3d"/>
  <circle cx="360.7" cy="771.6" r="0.71" fill="#3d3d3d"/>
  <circle cx="430.1" cy="375.5" r="1.33" fill="#3d3d3d"/>
  <circle cx="426.9" cy="403.1" r="1.18" fill="#3d3d3d"/>
  <circle cx="554.6" cy="199.8" r="1.12" fill="#3d3d3d"/>
  <circle cx="771.9" cy="661.3" r="1.17" fill="#3d3d3d"/>
  <circle cx="413.0" cy="640.6" r="1.06" fill="#3d3d3d"/>
  <circle cx="451.3" cy="389.7" r="1.30" fill="#3d3d3d"/>
  <circle cx="437.7" cy="379.9" r="1.01" fill="#3d3d3d"/>
  <circle cx="450.8" cy="364.5" r="1.24" fill="#3d3d3d"/>
  <circle cx="489.1" cy="57.8" r="1.49" fill="#3d3d3d"/>
  <circle cx="431.8" cy="370.5" r="0.96" fill="#3d3d3d"/>
  <circle cx="424.3" cy="361.9" r="1.46" fill="#3d3d3d"/>
  <circle cx="418.7" cy="382.7" r="1.17" fill="#3d3d3d"/>
  <circle cx="577.1" cy="54.8" r="1.04" fill="#3d3d3d"/>
  <circle cx="428.4" cy="378.5" r="1.25" fill="#3d3d3d"/>
  <circle cx="433.7" cy="364.5" r="0.97" fill="#3d3d3d"/>
  <circle cx="524.7" cy="81.4" r="1.06" fill="#3d3d3d"/>
  <circle cx="70.4" cy="760.2" r="0.75" fill="#3d3d3d"/>
  <circle cx="454.5" cy="370.3" r="1.40" fill="#3d3d3d"/>
  <circle cx="693.3" cy="728.8" r="1.46" fill="#3d3d3d"/>
  <circle cx="420.1" cy="366.9" r="1.16" fill="#3d3d3d"/>
  <circle cx="429.0" cy="363.8" r="0.78" fill="#3d3d3d"/>
  <circle cx="53.8" cy="504.5" r="1.35" fill="#3d3d3d"/>
  <circle cx="433.2" cy="361.1" r="1.46" fill="#3d3d3d"/>
  <circle cx="453.9" cy="378.9" r="1.41" fill="#3d3d3d"/>
  <circle cx="423.8" cy="366.2" r="0.89" fill="#3d3d3d"/>
  <circle cx="271.1" cy="213.0" r="0.74" fill="#3d3d3d"/>
  <circle cx="47.0" cy="348.9" r="1.47" fill="#3d3d3d"/>
  <circle cx="474.1" cy="395.0" r="0.79" fill="#3d3d3d"/>
  <circle cx="447.4" cy="388.1" r="0.90" fill="#3d3d3d"/>
  <circle cx="413.3" cy="362.0" r="1.16" fill="#3d3d3d"/>
  <circle cx="449.6" cy="395.6" r="0.72" fill="#3d3d3d"/>
  <circle cx="438.1" cy="382.7" r="1.01" fill="#3d3d3d"/>
  <circle cx="468.2" cy="166.2" r="1.05" fill="#3d3d3d"/>
  <circle cx="73.7" cy="689.2" r="1.40" fill="#3d3d3d"/>
  <circle cx="583.4" cy="499.2" r="1.29" fill="#3d3d3d"/>
  <circle cx="446.8" cy="360.9" r="1.34" fill="#3d3d3d"/>
  <circle cx="429.4" cy="344.0" r="0.80" fill="#3d3d3d"/>
  <circle cx="417.9" cy="362.1" r="1.33" fill="#3d3d3d"/>
  <circle cx="420.1" cy="746.5" r="0.94" fill="#3d3d3d"/>
  <circle cx="440.9" cy="379.3" r="1.15" fill="#3d3d3d"/>
  <circle cx="402.5" cy="344.1" r="1.24" fill="#3d3d3d"/>
  <circle cx="437.5" cy="381.2" r="0.94" fill="#3d3d3d"/>
  <circle cx="430.6" cy="363.5" r="1.12" fill="#3d3d3d"/>
  <circle cx="676.4" cy="80.8" r="1.19" fill="#3d3d3d"/>
  <circle cx="148.6" cy="294.2" r="1.14" fill="#3d3d3d"/>
  <circle cx="431.5" cy="360.9" r="0.84" fill="#3d3d3d"/>
  <circle cx="440.8" cy="351.6" r="1.30" fill="#3d3d3d"/>
  <circle cx="347.0" cy="425.6" r="0.78" fill="#3d3d3d"/>
  <circle cx="440.4" cy="372.1" r="1.47" fill="#3d3d3d"/>
  <circle cx="380.5" cy="59.8" r="1.06" fill="#3d3d3d"/>
  <circle cx="229.4" cy="531.6" r="1.29" fill="#3d3d3d"/>
  <circle cx="675.1" cy="701.6" r="0.85" fill="#3d3d3d"/>
  <circle cx="121.8" cy="266.3" r="0.95" fill="#3d3d3d"/>
  <circle cx="245.9" cy="267.4" r="1.21" fill="#3d3d3d"/>
  <circle cx="432.1" cy="389.3" r="1.01" fill="#3d3d3d"/>
  <circle cx="433.3" cy="382.5" r="1.29" fill="#3d3d3d"/>
  <circle cx="286.9" cy="6.5" r="1.42" fill="#3d3d3d"/>
  <circle cx="637.2" cy="340.0" r="0.88" fill="#3d3d3d"/>
  <circle cx="439.3" cy="383.1" r="1.01" fill="#3d3d3d"/>
  <circle cx="448.9" cy="364.7" r="0.88" fill="#3d3d3d"/>
  <circle cx="431.7" cy="366.6" r="1.46" fill="#3d3d3d"/>
  <circle cx="355.0" cy="169.8" r="1.50" fill="#3d3d3d"/>
  <circle cx="423.5" cy="378.7" r="1.42" fill="#3d3d3d"/>
</svg>
