<svg viewBox="0 0 800 800" xmlns="http://www.w3.org/2000/svg">
  <rect x="437.10" y="356.90" width="2.40" height="2.40" fill="#000000"/>
  <rect x="23.35" y="464.45" width="1.50" height="1.50" fill="#000000"/>
  <rect x="204.96" y="315.56" width="2.28" height="2.28" fill="#000000"/>
  <rect x="404.32" y="371.82" width="1.56" height="1.56" fill="#000000"/>
  <rect x="439.43" y="370.13" width="2.34" height="2.34" fill="#000000"/>
  <rect x="426.42" y="388.22" width="2.36" height="2.36" fill="#000000"/>
  <rect x="411.23" y="645.53" width="1.54" height="1.54" fill="#000000"/>
  <rect x="537.63" y="68.93" width="1.54" height="1.54" fill="#000000"/>
  <rect x="179.40" y="418.80" width="2.60" height="2.60" fill="#000000"/>
  <rect x="440.34" y="368.84" width="1.72" height="1.72" fill="#000000"/>
  <rect x="439.82" y="370.92" width="2.76" height="2.76" fill="#000000"/>
  <rect x="428.61" y="375.31" width="2.98" height="2.98" fill="#000000"/>
  <rect x="446.51" y="368.81" width="2.98" height="2.98" fill="#000000"/>
  <rect x="661.15" y="777.15" width="1.50" height="1.50" fill="#000000"/>
  <rect x="423.00" y="348.70" width="2.40" height="2.40" fill="#000000"/>
  <rect x="798.83" y="642.53" width="1.74" height="1.74" fill="#000000"/>
  <rect x="437.23" y="373.23" width="1.74" height="1.74" fill="#000000"/>
  <rect x="359.99" y="770.89" width="1.42" height="1.42" fill="#000000"/>
  <rect x="428.77" y="374.17" width="2.66" height="2.66" fill="#000000"/>
  <rect x="425.72" y="401.92" width="2.36" height="2.36" fill="#000000"/>
  <rect x="553.48" y="198.68" width="2.24" height="2.24" fill="#000000"/>
  <rect x="770.73" y="660.13" width="2.34" height="2.34" fill="#000000"/>
  <rect x="411.94" y="639.54" width="2.12" height="2.12" fill="#000000"/>
  <rect x="450.00" y="388.40" width="2.60" height="2.60" fill="#000000"/>
  <rect x="436.69" y="378.89" width="2.02" height="2.02" fill="#000000"/>
  <rect x="449.56" y="363.26" width="2.48" height="2.48" fill="#000000"/>
  <rect x="487.61" y="56.31" width="2.98" height="2.98" fill="#000000"/>
  <rect x="430.84" y="369.54" width="1.92" height="1.92" fill="#000000"/>
  <rect x="422.84" y="360.44" width="2.92" height="2.92" fill="#000000"/>
  <rect x="417.53" y="381.53" width="2.34" height="2.34" fill="#000000"/>
  <rect x="576.06" y="53.76" width="2.08" height="2.08" fill="#000000"/>
  <rect x="427.15" y="377.25" width="2.50" height="2.50" fill="#000000"/>
  <rect x="432.73" y="363.53" width="1.94" height="1.94" fill="#000000"/>
  <rect x="523.64" y="80.34" width="2.12" height="2.12" fill="#000000"/>
  <rect x="69.65" y="759.45" width="1.50" height="1.50" fill="#000000"/>
  <rect x="453.10" y="368.90" width="2.80" height="2.80" fill="#000000"/>
  <rect x="691.84" y="727.34" width="2.92" height="2.92" fill="#000000"/>
  <rect x="418.94" y="365.74" width="2.32" height="2.32" fill="#000000"/>
  <rect x="428.22" y="363.02" width="1.56" height="1.56" fill="#000000"/>
  <rect x="52.45" y="503.15" width="2.70" height="2.70" fill="#000000"/>
  <rect x="431.74" y="359.64" width="2.92" height="2.92" fill="#000000"/>
  <rect x="452.49" y="377.49" width="2.82" height="2.82" fill="#000000"/>
  <rect x="422.91" y="365.31" width="1.78" height="1.78" fill="#000000"/>
  <rect x="270.36" y="212.26" width="1.48" height="1.48" fill="#000000"/>
  <rect x="45.53" y="347.43" width="2.94" height="2.94" fill="#000000"/>
  <rect x="473.31" y="394.21" width="1.58" height="1.58" fill="#000000"/>
  <rect x="446.50" y="387.20" width="1.80" height="1.80" fill="#000000"/>
  <rect x="412.14" y="360.84" width="2.32" height="2.32" fill="#000000"/>
  <rect x="448.88" y="394.88" width="1.44" height="1.44" fill="#000000"/>
  <rect x="437.09" y="381.69" width="2.02" height="2.02" fill="#000000"/>
  <rect x="467.15" y="165.15" width="2.10" height="2.10" fill="#000000"/>
  <rect x="72.30" y="687.80" width="2.80" height="2.80" fill="#000000"/>
  <rect x="582.11" y="497.91" width="2.58" height="2.58" fill="#000000"/>
  <rect x="445.46" y="359.56" width="2.68" height="2.68" fill="#000000"/>
  <rect x="428.60" y="343.20" width="1.60" height="1.60" fill="#000000"/>
  <rect x="416.57" y="360.77" width="2.66" height="2.66" fill="#000000"/>
  <rect x="419.16" y="745.56" width="1.88" height="1.88" fill="#000000"/>
  <rect x="439.75" y="378.15" width="2.30" height="2.30" fill="#000000"/>
  <rect x="401.26" y="342.86" width="2.48" height="2.48" fill="#000000"/>
  <rect x="436.56" y="380.26" width="1.88" height="1.88" fill="#000000"/>
  <rect x="429.48" y="362.38" width="2.24" height="2.24" fill="#000000"/>
  <rect x="675.21" y="79.61" width="2.38" height="2.38" fill="#000000"/>
  <rect x="147.46" y="293.06" width="2.28" height="2.28" fill="#000000"/>
  <rect x="430.66" y="360.06" width="1.68" height="1.68" fill="#000000"/>
  <rect x="439.50" y="350.30" width="2.60" height="2.60" fill="#000000"/>
  <rect x="346.22" y="424.82" width="1.56" height="1.56" fill="#000000"/>
  <rect x="438.93" y="370.63" width="2.94" height="2.94" fill="#000000"/>
  <rect x="379.44" y="58.74" width="2.12" height="2.12" fill="#000000"/>
  <rect x="228.11" y="530.31" width="2.58" height="2.58" fill="#000000"/>
  <rect x="674.25" y="700.75" width="1.70" height="1.70" fill="#000000"/>
  <rect x="120.85" y="265.35" width="1.90" height="1.90" fill="#000000"/>
  <rect x="244.69" y="266.19" width="2.42" height="2.42" fill="#000000"/>
  <rect x="431.09" y="388.29" width="2.02" height="2.02" fill="#000000"/>
  <rect x="432.01" y="381.21" width="2.58" height="2.58" fill="#000000"/>
  <rect x="285.48" y="5.08" width="2.84" height="2.84" fill="#000000"/>
  <rect x="636.32" y="339.12" width="1.76" height="1.76" fill="#000000"/>
  <rect x="438.29" y="382.09" width="2.02" height="2.02" fill="#000000"/>
  <rect x="448.02" y="363.82" width="1.76" height="1.76" fill="#000000"/>
  <rect x="430.24" y="365.14" width="2.92" height="2.92" fill="#000000"/>
  <rect x="353.50" y="168.30" width="3.00" height="3.00" fill="#000000"/>
  <rect x="422.08" y="377.28" width="2.84" height="2.84" fill="#000000"/>
</svg>
