<svg viewBox="0 0 800 800" xmlns="http://www.w3.org/2000/svg">
  <circle cx="325.0" cy="315.3" r="1.16" fill="#3d3d3d"/>
  <circle cx="398.5" cy="381.4" r="1.15" fill="#3d3d3d"/>
  <circle cx="399.8" cy="384.4" r="1.31" fill="#3d3d3d"/>
  <circle cx="104.3" cy="392.2" r="1.41" fill="#3d3d3d"/>
  <circle cx="645.4" cy="129.5" r="1.07" fill="#3d3d3d"/>
  <circle cx="765.4" cy="451.5" r="0.72" fill="#3d3d3d"/>
  <circle cx="346.2" cy="323.5" r="1.17" fill="#3d3d3d"/>
  <circle cx="387.0" cy="467.6" r="1.40" fill="#3d3d3d"/>
  <circle cx="783.8" cy="426.2" r="0.87" fill="#3d3d3d"/>
  <circle cx="442.1" cy="400.1" r="1.32" fill="#3d3d3d"/>
  <circle cx="438.4" cy="463.4" r="1.24" fill="#3d3d3d"/>
  <circle cx="469.4" cy="421.3" r="0.74" fill="#3d3d3d"/>
  <circle cx="482.9" cy="135.5" r="0.72" fill="#3d3d3d"/>
  <circle cx="403.8" cy="317.5" r="0.73" fill="#3d3d3d"/>
  <circle cx="712.7" cy="336.7" r="1.28" fill="#3d3d3d"/>
  <circle cx="443.3" cy="658.9" r="0.92" fill="#3d3d3d"/>
  <circle cx="472.6" cy="419.8" r="1.09" fill="#3d3d3d"/>
  <circle cx="442.4" cy="426.2" r="0.79" fill="#3d3d3d"/>
  <circle cx="391.7" cy="461.6" r="1.50" fill="#3d3d3d"/>
  <circle cx="424.7" cy="388.7" r="1.36" fill="#3d3d3d"/>
  <circle cx="427.1" cy="317.6" r="0.93" fill="#3d3d3d"/>
  <circle cx="317.8" cy="327.5" r="0.86" fill="#3d3d3d"/>
  <circle cx="334.3" cy="318.5" r="0.86" fill="#3d3d3d"/>
  <circle cx="376.7" cy="765.0" r="1.12" fill="#3d3d3d"/>
  <circle cx="334.7" cy="430.8" r="1.33" fill="#3d3d3d"/>
  <circle cx="15.9" cy="386.5" r="1.04" fill="#3d3d3d"/>
  <circle cx="327.6" cy="376.7" r="0.89" fill="#3d3d3d"/>
  <circle cx="428.7" cy="389.7" r="1.13" fill="#3d3d3d"/>
  <circle cx="324.6" cy="317.0" r="1.48" fill="#3d3d3d"/>
  <circle cx="728.0" cy="222.3" r="0.92" fill="#3d3d3d"/>
  <circle cx="431.6" cy="344.3" r="0.81" fill="#3d3d3d"/>
  <circle cx="401.4" cy="335.0" r="0.74" fill="#3d3d3d"/>
  <circle cx="470.1" cy="462.1" r="1.48" fill="#3d3d3d"/>
  <circle cx="88.9" cy="732.1" r="1.39" fill="#3d3d3d"/>
  <circle cx="344.2" cy="432.4" r="0.82" fill="#3d3d3d"/>
  <circle cx="466.9" cy="446.4" r="0.92" fill="#3d3d3d"/>
  <circle cx="384.1" cy="443.9" r="0.73" fill="#3d3d3d"/>
  <circle cx="358.9" cy="376.4" r="1.02" fill="#3d3d3d"/>
  <circle cx="442.4" cy="410.4" r="1.12" fill="#3d3d3d"/>
  <circle cx="454.3" cy="427.7" r="0.75" fill="#3d3d3d"/>
  <circle cx="400.1" cy="341.1" r="0.80" fill="#3d3d3d"/>
  <circle cx="207.5" cy="256.5" r="1.42" fill="#3d3d3d"/>
  <circle cx="345.1" cy="332.8" r="1.45" fill="#3d3d3d"/>
  <circle cx="428.8" cy="315.7" r="1.06" fill="#3d3d3d"/>
  <circle cx="317.3" cy="338.1" r="0.91" fill="#3d3d3d"/>
  <circle cx="320.4" cy="336.8" r="0.74" fill="#3d3d3d"/>
  <circle cx="670.4" cy="338.4" r="0.78" fill="#3d3d3d"/>
  <circle cx="328.0" cy="321.7" r="1.34" fill="#3d3d3d"/>
  <circle cx="376.5" cy="386.2" r="1.19" fill="#3d3d3d"/>
  <circle cx="195.2" cy="575.9" r="1.20" fill="#3d3d3d"/>
  <circle cx="442.3" cy="453.4" r="1.21" fill="#3d3d3d"/>
  <circle cx="453.8" cy="69.7" r="0.78" fill="#3d3d3d"/>
  <circle cx="398.5" cy="96.3" r="1.09" fill="#3d3d3d"/>
  <circle cx="389.8" cy="456.5" r="1.34" fill="#3d3d3d"/>
  <circle cx="400.5" cy="345.5" r="1.26" fill="#3d3d3d"/>
  <circle cx="661.6" cy="103.5" r="1.14" fill="#3d3d3d"/>
  <circle cx="343.7" cy="430.2" r="1.02" fill="#3d3d3d"/>
  <circle cx="175.9" cy="78.2" r="1.20" fill="#3d3d3d"/>
  <circle cx="346.6" cy="421.0" r="0.96" fill="#3d3d3d"/>
  <circle cx="363.9" cy="357.2" r="1.21" fill="#3d3d3d"/>
  <circle cx="343.7" cy="316.0" r="1.41" fill="#3d3d3d"/>
  <circle cx="322.3" cy="400.7" r="1.08" fill="#3d3d3d"/>
  <circle cx="158.2" cy="490.1" r="1.40" fill="#3d3d3d"/>
  <circle cx="479.8" cy="597.7" r="1.32" fill="#3d3d3d"/>
  <circle cx="417.3" cy="318.5" r="1.42" fill="#3d3d3d"/>
  <circle cx="468.4" cy="415.5" r="1.34" fill="#3d3d3d"/>
  <circle cx="399.7" cy="332.8" r="0.74" fill="#3d3d3d"/>
  <circle cx="314.2" cy="345.4" r="0.82" fill="#3d3d3d"/>
  <circle cx="327.7" cy="402.9" r="0.77" fill="#3d3d3d"/>
  <circle cx="33.9" cy="100.2" r="1.04" fill="#3d3d3d"/>
  <circle cx="453.5" cy="429.3" r="0.99" fill="#3d3d3d"/>
  <circle cx="342.2" cy="428.4" r="1.02" fill="#3d3d3d"/>
  <circle cx="467.2" cy="401.2" r="1.02" fill="#3d3d3d"/>
  <circle cx="362.2" cy="368.2" r="0.83" fill="#3d3d3d"/>
  <circle cx="380.3" cy="470.4" r="1.46" fill="#3d3d3d"/>
  <circle cx="165.8" cy="175.6" r="1.00" fill="#3d3d3d"/>
  <circle cx="422.7" cy="317.4" r="1.13" fill="#3d3d3d"/>
  <circle cx="762.8" cy="434.3" r="1.10" fill="#3d3d3d"/>
  <circle cx="320.5" cy="429.4" r="0.80" fill="#3d3d3d"/>
  <circle cx="413.3" cy="345.1" r="1.04" fill="#3d3d3d"/>
  <circle cx="386.8" cy="460.0" r="0.76" fill="#3d3d3d"/>
  <circle cx="429.7" cy="315.0" r="1.29" fill="#3d3d3d"/>
  <circle cx="401.7" cy="381.4" r="0.82" fill="#3d3d3d"/>
  <circle cx="382.4" cy="442.1" r="1.43" fill="#3d3d3d"/>
  <circle cx="353.4" cy="458.1" r="1.46" fill="#3d3d3d"/>
  <circle cx="619.2" cy="712.9" r="1.20" fill="#3d3d3d"/>
  <circle cx="46.2" cy="190.6" r="1.06" fill="#3d3d3d"/>
  <circle cx="565.3" cy="400.1" r="1.00" fill="#3d3d3d"/>
  <circle cx="77.1" cy="572.0" r="0.77" fill="#3d3d3d"/>
  <circle cx="385.6" cy="387.6" r="1.26" fill="#3d3d3d"/>
  <circle cx="324.1" cy="399.9" r="1.35" fill="#3d3d3d"/>
  <circle cx="346.6" cy="343.0" r="0.90" fill="#3d3d3d"/>
  <circle cx="790.5" cy="638.4" r="0.97" fill="#3d3d3d"/>
  <circle cx="464.4" cy="399.5" r="0.78" fill="#3d3d3d"/>
  <circle cx="15.9" cy="758.3" r="0.74" fill="#3d3d3d"/>
  <circle cx="474.1" cy="412.5" r="0.93" fill="#3d3d3d"/>
  <circle cx="401.3" cy="335.1" r="0.72" fill="#3d3d3d"/>
  <circle cx="675.8" cy="505.2" r="0.93" fill="#3d3d3d"/>
  <circle cx="365.1" cy="358.9" r="1.23" fill="#3d3d3d"/>
  <circle cx="487.8" cy="11.8" r="1.18" fill="#3d3d3d"/>
  <circle cx="0.6" cy="183.6" r="1.33" fill="#3d3d3d"/>
  <circle cx="313.7" cy="409.1" r="1.04" fill="#3d3d3d"/>
  <circle cx="424.6" cy="350.1" r="1.14" fill="#3d3d3d"/>
  <circle cx="368.3" cy="444.8" r="1.27" fill="#3d3d3d"/>
  <circle cx="461.0" cy="431.4" r="1.38" fill="#3d3d3d"/>
  <circle cx="447.3" cy="469.0" r="0.80" fill="#3d3d3d"/>
  <circle cx="443.6" cy="411.7" r="1.28" fill="#3d3d3d"/>
  <circle cx="475.0" cy="401.7" r="0.95" fill="#3d3d3d"/>
  <circle cx="365.4" cy="388.0" r="1.10" fill="#3d3d3d"/>
  <circle cx="343.5" cy="395.0" r="1.35" fill="#3d3d3d"/>
  <circle cx="132.9" cy="49.4" r="0.85" fill="#3d3d3d"/>
  <circle cx="369.8" cy="444.4" r="0.84" fill="#3d3d3d"/>
  <circle cx="400.2" cy="371.6" r="1.31" fill="#3d3d3d"/>
  <circle cx="317.3" cy="408.7" r="0.82" fill="#3d3d3d"/>
  <circle cx="403.9" cy="388.6" r="1.31" fill="#3d3d3d"/>
  <circle cx="188.3" cy="75.5" r="0.82" fill="#3d3d3d"/>
  <circle cx="331.1" cy="29.3" r="0.72" fill="#3d3d3d"/>
  <circle cx="424.7" cy="362.9" r="1.49" fill="#3d3d3d"/>
  <circle cx="357.6" cy="494.5" r="1.50" fill="#3d3d3d"/>
  <circle cx="444.0" cy="412.3" r="1.36" fill="#3d3d3d"/>
  <circle cx="347.9" cy="406.4" r="0.88" fill="#3d3d3d"/>
  <circle cx="472.1" cy="450.3" r="0.98" fill="#3d3d3d"/>
  <circle cx="345.7" cy="406.7" r="0.88" fill="#3d3d3d"/>
  <circle cx="445.6" cy="444.6" r="0.79" fill="#3d3d3d"/>
  <circle cx="455.9" cy="473.4" r="0.99" fill="#3d3d3d"/>
  <circle cx="404.0" cy="380.5" r="0.79" fill="#3d3d3d"/>
  <circle cx="672.8" cy="349.5" r="0.81" fill="#3d3d3d"/>
  <circle cx="9.5" cy="150.9" r="1.04" fill="#3d3d3d"/>
  <circle cx="32.6" cy="444.8" r="0.81" fill="#3d3d3d"/>
  <circle cx="437.8" cy="337.9" r="0.83" fill="#3d3d3d"/>
  <circle cx="244.2" cy="398.5" r="1.37" fill="#3d3d3d"/>
  <circle cx="404.0" cy="350.9" r="1.03" fill="#3d3d3d"/>
  <circle cx="395.6" cy="342.5" r="0.92" fill="#3d3d3d"/>
  <circle cx="357.7" cy="464.9" r="1.19" fill="#3d3d3d"/>
  <circle cx="427.2" cy="266.4" r="0.99" fill="#3d3d3d"/>
  <circle cx="60.8" cy="139.0" r="1.23" fill="#3d3d3d"/>
  <circle cx="363.6" cy="354.6" r="0.76" fill="#3d3d3d"/>
  <circle cx="361.2" cy="470.4" r="1.33" fill="#3d3d3d"/>
  <circle cx="346.8" cy="422.6" r="1.25" fill="#3d3d3d"/>
  <circle cx="373.8" cy="354.7" r="1.46" fill="#3d3d3d"/>
  <circle cx="366.7" cy="385.6" r="0.98" fill="#3d3d3d"/>
  <circle cx="177.9" cy="36.2" r="0.71" fill="#3d3d3d"/>
  <circle cx="698.8" cy="19.6" r="0.88" fill="#3d3d3d"/>
  <circle cx="390.2" cy="470.3" r="1.43" fill="#3d3d3d"/>
  <circle cx="62.9" cy="793.9" r="1.24" fill="#3d3d3d"/>
  <circle cx="358.7" cy="352.6" r="0.81" fill="#3d3d3d"/>
  <circle cx="686.5" cy="391.1" r="0.84" fill="#3d3d3d"/>
  <circle cx="430.5" cy="332.9" r="1.07" fill="#3d3d3d"/>
  <circle cx="457.8" cy="404.5" r="0.95" fill="#3d3d3d"/>
  <circle cx="201.0" cy="285.3" r="1.42" fill="#3d3d3d"/>
  <circle cx="427.6" cy="337.5" r="1.43" fill="#3d3d3d"/>
  <circle cx="399.7" cy="337.3" r="1.40" fill="#3d3d3d"/>
  <circle cx="379.7" cy="359.4" r="1.02" fill="#3d3d3d"/>
  <circle cx="348.7" cy="338.2" r="0.87" fill="#3d3d3d"/>
  <circle cx="494.0" cy="579.7" r="1.49" fill="#3d3d3d"/>
  <circle cx="471.4" cy="407.3" r="1.45" fill="#3d3d3d"/>
  <circle cx="784.1" cy="733.6" r="1.45" fill="#3d3d3d"/>
  <circle cx="319.0" cy="349.9" r="1.22" fill="#3d3d3d"/>
  <circle cx="319.0" cy="432.4" r="0.87" fill="#3d3d3d"/>
  <circle cx="288.7" cy="609.7" r="1.05" fill="#3d3d3d"/>
  <circle cx="348.0" cy="422.5" r="1.43" fill="#3d3d3d"/>
  <circle cx="442.9" cy="421.8" r="0.86" fill="#3d3d3d"/>
  <circle cx="366.8" cy="442.6" r="1.28" fill="#3d3d3d"/>
  <circle cx="354.3" cy="605.8" r="1.32" fill="#3d3d3d"/>
  <circle cx="345.8" cy="415.1" r="0.80" fill="#3d3d3d"/>
  <circle cx="471.1" cy="418.2" r="1.28" fill="#3d3d3d"/>
  <circle cx="750.9" cy="697.4" r="0.77" fill="#3d3d3d"/>
  <circle cx="732.7" cy="479.5" r="0.77" fill="#3d3d3d"/>
  <circle cx="319.7" cy="396.6" r="0.72" fill="#3d3d3d"/>
  <circle cx="739.7" cy="2.6" r="1.09" fill="#3d3d3d"/>
  <circle cx="358.8" cy="469.2" r="1.41" fill="#3d3d3d"/>
  <circle cx="465.0" cy="443.6" r="1.37" fill="#3d3d3d"/>
  <circle cx="125.5" cy="232.2" r="1.35" fill="#3d3d3d"/>
  <circle cx="315.9" cy="340.4" r="1.04" fill="#3d3d3d"/>
  <circle cx="403.3" cy="347.6" r="0.91" fill="#3d3d3d"/>
  <circle cx="592.6" cy="607.4" r="0.94" fill="#3d3d3d"/>
  <circle cx="91.4" cy="418.4" r="1.18" fill="#3d3d3d"/>
  <circle cx="456.3" cy="472.0" r="0.98" fill="#3d3d3d"/>
  <circle cx="150.9" cy="257.3" r="1.06" fill="#3d3d3d"/>
  <circle cx="317.0" cy="422.0" r="1.24" fill="#3d3d3d"/>
  <circle cx="444.1" cy="462.1" r="0.70" fill="#3d3d3d"/>
  <circle cx="347.8" cy="424.0" r="0.89" fill="#3d3d3d"/>
  <circle cx="401.5" cy="315.0" r="0.79" fill="#3d3d3d"/>
  <circle cx="329.6" cy="317.5" r="1.49" fill="#3d3d3d"/>
  <circle cx="383.5" cy="105.3" r="0.96" fill="#3d3d3d"/>
  <circle cx="398.9" cy="334.2" r="0.77" fill="#3d3d3d"/>
  <circle cx="542.8" cy="130.7" r="1.48" fill="#3d3d3d"/>
  <circle cx="409.2" cy="310.9" r="1.19" fill="#3d3d3d"/>
  <circle cx="325.0" cy="543.8" r="0.84" fill="#3d3d3d"/>
  <circle cx="421.0" cy="347.1" r="1.31" fill="#3d3d3d"/>
  <circle cx="345.3" cy="404.9" r="1.44" fill="#3d3d3d"/>
  <circle cx="403.9" cy="342.5" r="0.98" fill="#3d3d3d"/>
  <circle cx="78.8" cy="237.0" r="1.38" fill="#3d3d3d"/>
  <circle cx="269.1" cy="464.4" r="1.43" fill="#3d3d3d"/>
  <circle cx="359.0" cy="365.3" r="0.79" fill="#3d3d3d"/>
  <circle cx="361.7" cy="443.9" r="1.45" fill="#3d3d3d"/>
  <circle cx="401.7" cy="358.8" r="0.92" fill="#3d3d3d"/>
  <circle cx="474.3" cy="611.8" r="1.25" fill="#3d3d3d"/>
  <circle cx="444.3" cy="466.6" r="1.29" fill="#3d3d3d"/>
  <circle cx="403.8" cy="388.9" r="1.13" fill="#3d3d3d"/>
  <circle cx="442.2" cy="459.4" r="0.82" fill="#3d3d3d"/>
  <circle cx="431.5" cy="365.5" r="0.96" fill="#3d3d3d"/>
  <circle cx="3.7" cy="412.8" r="1.20" fill="#3d3d3d"/>
  <circle cx="359.6" cy="470.7" r="1.15" fill="#3d3d3d"/>
  <circle cx="473.7" cy="417.5" r="1.20" fill="#3d3d3d"/>
  <circle cx="358.8" cy="459.3" r="0.86" fill="#3d3d3d"/>
  <circle cx="220.7" cy="245.0" r="0.82" fill="#3d3d3d"/>
  <circle cx="443.9" cy="418.3" r="0.98" fill="#3d3d3d"/>
  <circle cx="375.6" cy="479.7" r="1.05" fill="#3d3d3d"/>
  <circle cx="589.2" cy="81.7" r="1.35" fill="#3d3d3d"/>
  <circle cx="314.7" cy="345.4" r="1.49" fill="#3d3d3d"/>
  <circle cx="445.3" cy="428.7" r="0.72" fill="#3d3d3d"/>
  <circle cx="446.4" cy="442.1" r="1.42" fill="#3d3d3d"/>
  <circle cx="408.9" cy="386.9" r="1.13" fill="#3d3d3d"/>
  <circle cx="589.6" cy="218.5" r="1.25" fill="#3d3d3d"/>
  <circle cx="433.6" cy="362.4" r="0.88" fill="#3d3d3d"/>
  <circle cx="218.6" cy="300.2" r="0.74" fill="#3d3d3d"/>
  <circle cx="181.1" cy="283.1" r="1.20" fill="#3d3d3d"/>
  <circle cx="398.7" cy="361.3" r="1.04" fill="#3d3d3d"/>
  <circle cx="84.6" cy="383.6" r="0.83" fill="#3d3d3d"/>
  <circle cx="471.8" cy="653.9" r="1.10" fill="#3d3d3d"/>
  <circle cx="315.1" cy="331.5" r="1.26" fill="#3d3d3d"/>
  <circle cx="676.5" cy="379.9" r="1.49" fill="#3d3d3d"/>
  <circle cx="402.8" cy="362.5" r="1.37" fill="#3d3d3d"/>
  <circle cx="697.7" cy="596.5" r="1.03" fill="#3d3d3d"/>
  <circle cx="357.5" cy="461.8" r="0.90" fill="#3d3d3d"/>
  <circle cx="367.1" cy="441.6" r="1.12" fill="#3d3d3d"/>
  <circle cx="473.5" cy="455.0" r="1.03" fill="#3d3d3d"/>
  <circle cx="466.4" cy="441.7" r="1.13" fill="#3d3d3d"/>
  <circle cx="662.9" cy="693.3" r="0.86" fill="#3d3d3d"/>
  <circle cx="73.0" cy="566.9" r="1.16" fill="#3d3d3d"/>
  <circle cx="416.2" cy="388.3" r="0.82" fill="#3d3d3d"/>
  <circle cx="716.8" cy="150.7" r="1.18" fill="#3d3d3d"/>
  <circle cx="458.2" cy="469.5" r="0.72" fill="#3d3d3d"/>
  <circle cx="403.0" cy="344.9" r="0.72" fill="#3d3d3d"/>
  <circle cx="322.0" cy="418.6" r="1.17" fill="#3d3d3d"/>
  <circle cx="652.6" cy="442.2" r="0.96" fill="#3d3d3d"/>
  <circle cx="447.8" cy="469.6" r="1.00" fill="#3d3d3d"/>
  <circle cx="403.3" cy="342.7" r="1.16" fill="#3d3d3d"/>
  <circle cx="387.9" cy="357.3" r="1.05" fill="#3d3d3d"/>
  <circle cx="358.0" cy="458.3" r="1.06" fill="#3d3d3d"/>
  <circle cx="387.7" cy="394.2" r="0.71" fill="#3d3d3d"/>
  <circle cx="730.2" cy="92.6" r="1.46" fill="#3d3d3d"/>
  <circle cx="320.4" cy="323.6" r="1.34" fill="#3d3d3d"/>
  <circle cx="346.0" cy="330.1" r="1.26" fill="#3d3d3d"/>
  <circle cx="443.5" cy="468.9" r="0.92" fill="#3d3d3d"/>
  <circle cx="428.2" cy="312.6" r="0.74" fill="#3d3d3d"/>
  <circle cx="363.8" cy="358.3" r="1.48" fill="#3d3d3d"/>
  <circle cx="32.8" cy="460.7" r="1.33" fill="#3d3d3d"/>
  <circle cx="316.3" cy="413.6" r="1.48" fill="#3d3d3d"/>
  <circle cx="377.3" cy="360.1" r="0.76" fill="#3d3d3d"/>
  <circle cx="319.1" cy="426.7" r="0.87" fill="#3d3d3d"/>
  <circle cx="466.7" cy="524.2" r="1.42" fill="#3d3d3d"/>
  <circle cx="358.3" cy="149.8" r="1.46" fill="#3d3d3d"/>
  <circle cx="429.2" cy="331.5" r="1.38" fill="#3d3d3d"/>
  <circle cx="549.0" cy="415.6" r="0.96" fill="#3d3d3d"/>
  <circle cx="553.5" cy="681.3" r="0.93" fill="#3d3d3d"/>
  <circle cx="427.0" cy="347.2" r="1.18" fill="#3d3d3d"/>
  <circle cx="649.0" cy="598.9" r="0.85" fill="#3d3d3d"/>
  <circle cx="440.9" cy="449.0" r="0.75" fill="#3d3d3d"/>
  <circle cx="404.0" cy="702.7" r="1.23" fill="#3d3d3d"/>
  <circle cx="311.6" cy="422.8" r="1.19" fill="#3d3d3d"/>
  <circle cx="399.9" cy="741.5" r="1.13" fill="#3d3d3d"/>
  <circle cx="299.2" cy="609.9" r="1.16" fill="#3d3d3d"/>
  <circle cx="160.3" cy="406.8" r="0.81" fill="#3d3d3d"/>
  <circle cx="721.2" cy="194.2" r="1.40" fill="#3d3d3d"/>
  <circle cx="178.3" cy="561.6" r="1.40" fill="#3d3d3d"/>
  <circle cx="472.9" cy="263.4" r="1.28" fill="#3d3d3d"/>
  <circle cx="315.9" cy="405.3" r="1.45" fill="#3d3d3d"/>
  <circle cx="431.5" cy="370.0" r="1.01" fill="#3d3d3d"/>
  <circle cx="426.0" cy="390.8" r="0.77" fill="#3d3d3d"/>
  <circle cx="446.5" cy="427.4" r="1.02" fill="#3d3d3d"/>
  <circle cx="346.3" cy="429.4" r="1.25" fill="#3d3d3d"/>
  <circle cx="159.9" cy="653.1" r="0.96" fill="#3d3d3d"/>
  <circle cx="324.7" cy="432.0" r="1.14" fill="#3d3d3d"/>
  <circle cx="442.2" cy="447.3" r="1.26" fill="#3d3d3d"/>
  <circle cx="340.0" cy="349.5" r="1.27" fill="#3d3d3d"/>
  <circle cx="327.1" cy="396.5" r="1.26" fill="#3d3d3d"/>
  <circle cx="398.3" cy="316.9" r="1.42" fill="#3d3d3d"/>
  <circle cx="320.1" cy="328.2" r="0.72" fill="#3d3d3d"/>
  <circle cx="453.6" cy="444.6" r="1.04" fill="#3d3d3d"/>
  <circle cx="363.8" cy="358.9" r="1.24" fill="#3d3d3d"/>
  <circle cx="271.2" cy="305.0" r="1.17" fill="#3d3d3d"/>
  <circle cx="224.5" cy="210.8" r="0.86" fill="#3d3d3d"/>
  <circle cx="18.5" cy="506.0" r="0.79" fill="#3d3d3d"/>
  <circle cx="444.1" cy="403.0" r="1.16" fill="#3d3d3d"/>
  <circle cx="338.8" cy="347.6" r="1.32" fill="#3d3d3d"/>
  <circle cx="328.4" cy="428.9" r="0.71" fill="#3d3d3d"/>
  <circle cx="518.9" cy="110.8" r="1.21" fill="#3d3d3d"/>
  <circle cx="714.5" cy="153.6" r="1.11" fill="#3d3d3d"/>
  <circle cx="411.8" cy="348.4" r="0.77" fill="#3d3d3d"/>
  <circle cx="353.9" cy="172.6" r="1.39" fill="#3d3d3d"/>
  <circle cx="385.7" cy="383.9" r="0.94" fill="#3d3d3d"/>
  <circle cx="622.0" cy="28.3" r="1.14" fill="#3d3d3d"/>
  <circle cx="543.7" cy="5.8" r="1.49" fill="#3d3d3d"/>
  <circle cx="357.8" cy="443.7" r="0.86" fill="#3d3d3d"/>
  <circle cx="449.5" cy="438.7" r="1.00" fill="#3d3d3d"/>
  <circle cx="374.6" cy="442.8" r="1.40" fill="#3d3d3d"/>
  <circle cx="712.3" cy="228.0" r="0.87" fill="#3d3d3d"/>
  <circle cx="428.2" cy="356.1" r="1.14" fill="#3d3d3d"/>
  <circle cx="754.0" cy="218.9" r="1.10" fill="#3d3d3d"/>
  <circle cx="316.9" cy="341.5" r="1.48" fill="#3d3d3d"/>
  <circle cx="754.4" cy="263.7" r="1.43" fill="#3d3d3d"/>
  <circle cx="402.9" cy="344.2" r="0.94" fill="#3d3d3d"/>
  <circle cx="344.6" cy="317.6" r="1.41" fill="#3d3d3d"/>
  <circle cx="362.1" cy="386.4" r="1.45" fill="#3d3d3d"/>
  <circle cx="468.1" cy="458.5" r="0.85" fill="#3d3d3d"/>
  <circle cx="425.0" cy="383.0" r="1.23" fill="#3d3d3d"/>
  <circle cx="347.1" cy="319.3" r="1.29" fill="#3d3d3d"/>
  <circle cx="344.9" cy="414.8" r="0.86" fill="#3d3d3d"/>
  <circle cx="91.7" cy="559.0" r="1.45" fill="#3d3d3d"/>
  <circle cx="448.5" cy="439.6" r="0.88" fill="#3d3d3d"/>
  <circle cx="340.5" cy="400.3" r="0.88" fill="#3d3d3d"/>
  <circle cx="512.0" cy="629.9" r="1.42" fill="#3d3d3d"/>
  <circle cx="150.0" cy="259.8" r="0.99" fill="#3d3d3d"/>
  <circle cx="238.8" cy="786.9" r="0.80" fill="#3d3d3d"/>
  <circle cx="451.7" cy="478.4" r="1.49" fill="#3d3d3d"/>
  <circle cx="347.6" cy="419.5" r="1.43" fill="#3d3d3d"/>
  <circle cx="406.0" cy="359.0" r="1.06" fill="#3d3d3d"/>
  <circle cx="405.3" cy="363.7" r="0.98" fill="#3d3d3d"/>
  <circle cx="402.9" cy="319.3" r="1.32" fill="#3d3d3d"/>
  <circle cx="321.4" cy="400.0" r="1.27" fill="#3d3d3d"/>
  <circle cx="632.1" cy="117.2" r="0.73" fill="#3d3d3d"/>
  <circle cx="386.3" cy="83.2" r="1.45" fill="#3d3d3d"/>
  <circle cx="17.9" cy="297.8" r="0.98" fill="#3d3d3d"/>
  <circle cx="347.0" cy="415.3" r="0.79" fill="#3d3d3d"/>
  <circle cx="445.9" cy="410.0" r="0.79" fill="#3d3d3d"/>
  <circle cx="427.5" cy="347.8" r="0.71" fill="#3d3d3d"/>
  <circle cx="136.8" cy="63.5" r="1.50" fill="#3d3d3d"/>
  <circle cx="387.4" cy="358.8" r="1.17" fill="#3d3d3d"/>
  <circle cx="285.7" cy="290.6" r="1.43" fill="#3d3d3d"/>
  <circle cx="444.6" cy="409.8" r="1.28" fill="#3d3d3d"/>
  <circle cx="347.6" cy="323.0" r="1.07" fill="#3d3d3d"/>
  <circle cx="449.5" cy="439.7" r="1.06" fill="#3d3d3d"/>
  <circle cx="339.7" cy="316.9" r="0.76" fill="#3d3d3d"/>
  <circle cx="253.8" cy="662.5" r="1.16" fill="#3d3d3d"/>
  <circle cx="401.4" cy="189.1" r="0.79" fill="#3d3d3d"/>
  <circle cx="194.8" cy="252.8" r="0.90" fill="#3d3d3d"/>
  <circle cx="366.2" cy="444.6" r="1.20" fill="#3d3d3d"/>
  <circle cx="628.9" cy="308.6" r="1.02" fill="#3d3d3d"/>
  <circle cx="411.6" cy="346.1" r="1.21" fill="#3d3d3d"/>
  <circle cx="315.1" cy="345.5" r="1.42" fill="#3d3d3d"/>
  <circle cx="365.6" cy="388.9" r="0.91" fill="#3d3d3d"/>
  <circle cx="347.5" cy="333.3" r="0.97" fill="#3d3d3d"/>
  <circle cx="226.8" cy="528.6" r="0.76" fill="#3d3d3d"/>
  <circle cx="344.7" cy="403.7" r="1.02" fill="#3d3d3d"/>
  <circle cx="355.6" cy="451.2" r="0.81" fill="#3d3d3d"/>
  <circle cx="360.3" cy="385.0" r="1.34" fill="#3d3d3d"/>
  <circle cx="386.8" cy="444.5" r="1.01" fill="#3d3d3d"/>
  <circle cx="315.3" cy="341.1" r="1.11" fill="#3d3d3d"/>
  <circle cx="415.0" cy="384.9" r="1.00" fill="#3d3d3d"/>
  <circle cx="426.9" cy="354.5" r="0.89" fill="#3d3d3d"/>
  <circle cx="454.1" cy="472.5" r="1.45" fill="#3d3d3d"/>
  <circle cx="434.4" cy="325.5" r="1.46" fill="#3d3d3d"/>
  <circle cx="737.3" cy="186.5" r="1.49" fill="#3d3d3d"/>
  <circle cx="603.0" cy="473.7" r="1.20" fill="#3d3d3d"/>
  <circle cx="444.5" cy="402.4" r="0.98" fill="#3d3d3d"/>
  <circle cx="380.6" cy="394.1" r="0.76" fill="#3d3d3d"/>
  <circle cx="459.0" cy="441.6" r="1.00" fill="#3d3d3d"/>
  <circle cx="561.7" cy="577.1" r="1.30" fill="#3d3d3d"/>
  <circle cx="399.5" cy="326.8" r="1.25" fill="#3d3d3d"/>
  <circle cx="384.9" cy="383.0" r="0.71" fill="#3d3d3d"/>
  <circle cx="443.3" cy="428.2" r="0.74" fill="#3d3d3d"/>
  <circle cx="472.4" cy="469.6" r="0.91" fill="#3d3d3d"/>
  <circle cx="313.1" cy="325.9" r="1.35" fill="#3d3d3d"/>
  <circle cx="385.9" cy="388.5" r="1.25" fill="#3d3d3d"/>
  <circle cx="431.1" cy="385.5" r="1.29" fill="#3d3d3d"/>
  <circle cx="340.5" cy="423.6" r="1.36" fill="#3d3d3d"/>
  <circle cx="365.0" cy="471.7" r="1.33" fill="#3d3d3d"/>
  <circle cx="605.0" cy="674.1" r="0.98" fill="#3d3d3d"/>
  <circle cx="367.4" cy="387.0" r="1.28" fill="#3d3d3d"/>
  <circle cx="431.1" cy="319.0" r="1.35" fill="#3d3d3d"/>
  <circle cx="755.5" cy="513.4" r="0.74" fill="#3d3d3d"/>
  <circle cx="154.3" cy="310.8" r="0.97" fill="#3d3d3d"/>
  <circle cx="450.5" cy="403.2" r="0.76" fill="#3d3d3d"/>
  <circle cx="357.3" cy="767.6" r="0.78" fill="#3d3d3d"/>
  <circle cx="393.5" cy="323.2" r="1.33" fill="#3d3d3d"/>
  <circle cx="441.1" cy="449.3" r="0.71" fill="#3d3d3d"/>
  <circle cx="443.6" cy="468.3" r="1.41" fill="#3d3d3d"/>
  <circle cx="784.3" cy="7.7" r="1.46" fill="#3d3d3d"/>
  <circle cx="426.8" cy="325.4" r="1.43" fill="#3d3d3d"/>
  <circle cx="408.9" cy="316.9" r="1.16" fill="#3d3d3d"/>
  <circle cx="337.3" cy="312.1" r="0.96" fill="#3d3d3d"/>
  <circle cx="632.0" cy="245.6" r="0.99" fill="#3d3d3d"/>
  <circle cx="368.2" cy="359.3" r="0.90" fill="#3d3d3d"/>
  <circle cx="472.4" cy="444.5" r="1.35" fill="#3d3d3d"/>
  <circle cx="413.7" cy="320.1" r="0.86" fill="#3d3d3d"/>
  <circle cx="719.7" cy="236.6" r="1.10" fill="#3d3d3d"/>
  <circle cx="411.3" cy="67.7" r="1.21" fill="#3d3d3d"/>
  <circle cx="320.8" cy="316.0" r="1.28" fill="#3d3d3d"/>
  <circle cx="315.3" cy="417.9" r="0.85" fill="#3d3d3d"/>
  <circle cx="725.1" cy="312.4" r="0.90" fill="#3d3d3d"/>
  <circle cx="345.3" cy="411.2" r="1.02" fill="#3d3d3d"/>
  <circle cx="523.8" cy="299.0" r="0.89" fill="#3d3d3d"/>
  <circle cx="345.4" cy="326.5" r="0.98" fill="#3d3d3d"/>
  <circle cx="429.7" cy="339.3" r="1.01" fill="#3d3d3d"/>
  <circle cx="404.7" cy="315.4" r="0.99" fill="#3d3d3d"/>
  <circle cx="797.0" cy="443.9" r="1.05" fill="#3d3d3d"/>
  <circle cx="369.3" cy="443.9" r="0.80" fill="#3d3d3d"/>
  <circle cx="39.8" cy="484.5" r="1.36" fill="#3d3d3d"/>
  <circle cx="480.2" cy="411.6" r="1.29" fill="#3d3d3d"/>
  <circle cx="373.2" cy="87.6" r="1.17" fill="#3d3d3d"/>
  <circle cx="314.9" cy="403.7" r="0.81" fill="#3d3d3d"/>
  <circle cx="328.9" cy="431.0" r="1.05" fill="#3d3d3d"/>
  <circle cx="421.7" cy="347.8" r="1.27" fill="#3d3d3d"/>
  <circle cx="402.6" cy="10.6" r="0.85" fill="#3d3d3d"/>
  <circle cx="345.6" cy="308.6" r="1.49" fill="#3d3d3d"/>
  <circle cx="691.8" cy="23.4" r="1.28" fill="#3d3d3d"/>
  <circle cx="366.2" cy="446.1" r="0.73" fill="#3d3d3d"/>
  <circle cx="111.3" cy="475.1" r="1.47" fill="#3d3d3d"/>
  <circle cx="352.4" cy="340.4" r="0.83" fill="#3d3d3d"/>
  <circle cx="453.4" cy="480.8" r="0.95" fill="#3d3d3d"/>
  <circle cx="431.0" cy="333.8" r="0.78" fill="#3d3d3d"/>
  <circle cx="357.5" cy="359.7" r="1.18" fill="#3d3d3d"/>
  <circle cx="363.0" cy="461.1" r="1.28" fill="#3d3d3d"/>
  <circle cx="432.8" cy="318.4" r="1.34" fill="#3d3d3d"/>
  <circle cx="124.5" cy="678.4" r="1.49" fill="#3d3d3d"/>
  <circle cx="698.3" cy="330.9" r="1.19" fill="#3d3d3d"/>
  <circle cx="392.0" cy="373.8" r="0.88" fill="#3d3d3d"/>
  <circle cx="551.0" cy="607.6" r="1.06" fill="#3d3d3d"/>
  <circle cx="319.6" cy="346.0" r="0.82" fill="#3d3d3d"/>
  <circle cx="223.4" cy="740.1" r="0.76" fill="#3d3d3d"/>
  <circle cx="497.0" cy="282.4" r="1.22" fill="#3d3d3d"/>
  <circle cx="370.8" cy="100.7" r="0.93" fill="#3d3d3d"/>
  <circle cx="696.1" cy="675.7" r="0.94" fill="#3d3d3d"/>
  <circle cx="374.7" cy="443.5" r="1.44" fill="#3d3d3d"/>
  <circle cx="85.5" cy="5.7" r="1.11" fill="#3d3d3d"/>
  <circle cx="359.2" cy="443.0" r="0.92" fill="#3d3d3d"/>
  <circle cx="471.4" cy="433.5" r="1.28" fill="#3d3d3d"/>
  <circle cx="469.3" cy="463.8" r="0.97" fill="#3d3d3d"/>
  <circle cx="412.6" cy="347.7" r="0.82" fill="#3d3d3d"/>
  <circle cx="312.4" cy="323.2" r="1.24" fill="#3d3d3d"/>
  <circle cx="337.7" cy="498.1" r="1.48" fill="#3d3d3d"/>
  <circle cx="416.7" cy="358.3" r="1.02" fill="#3d3d3d"/>
  <circle cx="31.9" cy="311.3" r="1.12" fill="#3d3d3d"/>
  <circle cx="366.1" cy="358.6" r="0.81" fill="#3d3d3d"/>
  <circle cx="323.8" cy="344.0" r="1.06" fill="#3d3d3d"/>
  <circle cx="217.4" cy="404.0" r="1.18" fill="#3d3d3d"/>
  <circle cx="455.2" cy="470.4" r="0.70" fill="#3d3d3d"/>
  <circle cx="335.8" cy="431.4" r="0.97" fill="#3d3d3d"/>
  <circle cx="344.8" cy="329.9" r="1.03" fill="#3d3d3d"/>
  <circle cx="476.1" cy="409.1" r="1.27" fill="#3d3d3d"/>
  <circle cx="363.7" cy="471.7" r="1.13" fill="#3d3d3d"/>
  <circle cx="329.7" cy="325.7" r="1.43" fill="#3d3d3d"/>
  <circle cx="389.0" cy="320.9" r="1.34" fill="#3d3d3d"/>
  <circle cx="405.3" cy="315.9" r="0.78" fill="#3d3d3d"/>
  <circle cx="332.6" cy="426.5" r="0.84" fill="#3d3d3d"/>
  <circle cx="423.6" cy="388.9" r="0.87" fill="#3d3d3d"/>
  <circle cx="315.1" cy="317.3" r="0.72" fill="#3d3d3d"/>
  <circle cx="386.5" cy="474.3" r="0.98" fill="#3d3d3d"/>
  <circle cx="718.9" cy="142.7" r="1.28" fill="#3d3d3d"/>
  <circle cx="417.7" cy="342.9" r="1.14" fill="#3d3d3d"/>
  <circle cx="386.5" cy="553.0" r="1.17" fill="#3d3d3d"/>
  <circle cx="348.9" cy="419.1" r="1.19" fill="#3d3d3d"/>
  <circle cx="708.8" cy="118.2" r="0.79" fill="#3d3d3d"/>
  <circle cx="200.1" cy="654.0" r="0.77" fill="#3d3d3d"/>
  <circle cx="105.7" cy="484.5" r="1.42" fill="#3d3d3d"/>
  <circle cx="410.8" cy="346.4" r="0.71" fill="#3d3d3d"/>
  <circle cx="298.9" cy="733.4" r="1.20" fill="#3d3d3d"/>
  <circle cx="528.1" cy="258.3" r="0.85" fill="#3d3d3d"/>
  <circle cx="73.3" cy="508.0" r="1.24" fill="#3d3d3d"/>
  <circle cx="319.7" cy="332.6" r="0.84" fill="#3d3d3d"/>
  <circle cx="461.7" cy="17.5" r="1.34" fill="#3d3d3d"/>
  <circle cx="347.9" cy="327.0" r="1.35" fill="#3d3d3d"/>
  <circle cx="346.5" cy="320.2" r="1.27" fill="#3d3d3d"/>
  <circle cx="332.2" cy="432.7" r="0.79" fill="#3d3d3d"/>
  <circle cx="337.2" cy="429.2" r="1.31" fill="#3d3d3d"/>
  <circle cx="335.4" cy="314.5" r="1.18" fill="#3d3d3d"/>
  <circle cx="400.9" cy="318.8" r="1.33" fill="#3d3d3d"/>
  <circle cx="275.9" cy="201.9" r="1.01" fill="#3d3d3d"/>
  <circle cx="697.8" cy="59.3" r="1.19" fill="#3d3d3d"/>
  <circle cx="361.8" cy="387.4" r="1.30" fill="#3d3d3d"/>
  <circle cx="52.5" cy="720.7" r="1.12" fill="#3d3d3d"/>
  <circle cx="357.5" cy="362.3" r="0.98" fill="#3d3d3d"/>
  <circle cx="473.5" cy="410.0" r="1.31" fill="#3d3d3d"/>
  <circle cx="399.1" cy="341.5" r="1.17" fill="#3d3d3d"/>
  <circle cx="443.9" cy="411.2" r="0.88" fill="#3d3d3d"/>
  <circle cx="313.7" cy="462.1" r="1.29" fill="#3d3d3d"/>
  <circle cx="76.9" cy="588.0" r="1.40" fill="#3d3d3d"/>
  <circle cx="427.6" cy="356.3" r="1.05" fill="#3d3d3d"/>
  <circle cx="398.6" cy="368.3" r="1.17" fill="#3d3d3d"/>
  <circle cx="358.6" cy="364.2" r="0.96" fill="#3d3d3d"/>
  <circle cx="476.8" cy="537.3" r="1.28" fill="#3d3d3d"/>
  <circle cx="447.1" cy="437.2" r="0.85" fill="#3d3d3d"/>
  <circle cx="125.5" cy="352.6" r="1.21" fill="#3d3d3d"/>
  <circle cx="315.8" cy="417.6" r="1.34" fill="#3d3d3d"/>
  <circle cx="449.7" cy="433.3" r="1.23" fill="#3d3d3d"/>
  <circle cx="385.1" cy="358.4" r="1.03" fill="#3d3d3d"/>
  <circle cx="431.3" cy="372.1" r="1.44" fill="#3d3d3d"/>
  <circle cx="334.1" cy="345.1" r="1.45" fill="#3d3d3d"/>
  <circle cx="400.0" cy="381.5" r="1.20" fill="#3d3d3d"/>
  <circle cx="254.4" cy="268.4" r="1.07" fill="#3d3d3d"/>
  <circle cx="472.7" cy="406.5" r="0.96" fill="#3d3d3d"/>
  <circle cx="395.7" cy="336.5" r="0.74" fill="#3d3d3d"/>
  <circle cx="343.8" cy="396.8" r="1.38" fill="#3d3d3d"/>
  <circle cx="417.1" cy="386.8" r="0.77" fill="#3d3d3d"/>
  <circle cx="377.8" cy="476.3" r="0.95" fill="#3d3d3d"/>
  <circle cx="471.9" cy="447.5" r="0.70" fill="#3d3d3d"/>
  <circle cx="325.2" cy="195.9" r="1.33" fill="#3d3d3d"/>
  <circle cx="396.2" cy="371.6" r="1.41" fill="#3d3d3d"/>
  <circle cx="348.9" cy="86.8" r="1.02" fill="#3d3d3d"/>
  <circle cx="391.6" cy="465.9" r="1.21" fill="#3d3d3d"/>
  <circle cx="719.3" cy="562.8" r="1.19" fill="#3d3d3d"/>
  <circle cx="67.9" cy="142.1" r="1.40" fill="#3d3d3d"/>
  <circle cx="403.1" cy="388.0" r="1.41" fill="#3d3d3d"/>
  <circle cx="358.3" cy="375.3" r="0.96" fill="#3d3d3d"/>
  <circle cx="322.7" cy="432.0" r="0.95" fill="#3d3d3d"/>
  <circle cx="368.1" cy="360.4" r="1.11" fill="#3d3d3d"/>
  <circle cx="176.8" cy="534.2" r="1.36" fill="#3d3d3d"/>
  <circle cx="647.1" cy="753.8" r="0.77" fill="#3d3d3d"/>
  <circle cx="394.1" cy="368.6" r="1.25" fill="#3d3d3d"/>
  <circle cx="452.6" cy="474.1" r="0.79" fill="#3d3d3d"/>
  <circle cx="470.0" cy="474.8" r="1.37" fill="#3d3d3d"/>
  <circle cx="325.0" cy="400.3" r="0.94" fill="#3d3d3d"/>
  <circle cx="387.0" cy="362.2" r="1.27" fill="#3d3d3d"/>
  <circle cx="360.1" cy="326.4" r="1.03" fill="#3d3d3d"/>
  <circle cx="62.7" cy="463.8" r="0.95" fill="#3d3d3d"/>
  <circle cx="572.8" cy="228.0" r="1.01" fill="#3d3d3d"/>
  <circle cx="676.9" cy="201.0" r="1.14" fill="#3d3d3d"/>
  <circle cx="467.4" cy="396.5" r="0.97" fill="#3d3d3d"/>
  <circle cx="455.8" cy="472.4" r="0.88" fill="#3d3d3d"/>
  <circle cx="402.3" cy="386.3" r="1.22" fill="#3d3d3d"/>
  <circle cx="450.1" cy="430.1" r="0.92" fill="#3d3d3d"/>
  <circle cx="347.3" cy="403.9" r="0.88" fill="#3d3d3d"/>
  <circle cx="462.5" cy="399.5" r="0.99" fill="#3d3d3d"/>
  <circle cx="768.5" cy="550.4" r="0.82" fill="#3d3d3d"/>
  <circle cx="471.8" cy="431.1" r="0.85" fill="#3d3d3d"/>
  <circle cx="401.6" cy="344.8" r="1.03" fill="#3d3d3d"/>
  <circle cx="357.2" cy="368.2" r="1.44" fill="#3d3d3d"/>
  <circle cx="407.0" cy="384.7" r="1.18" fill="#3d3d3d"/>
  <circle cx="385.0" cy="670.2" r="1.40" fill="#3d3d3d"/>
  <circle cx="357.0" cy="444.8" r="1.25" fill="#3d3d3d"/>
  <circle cx="34.5" cy="768.6" r="1.47" fill="#3d3d3d"/>
  <circle cx="442.7" cy="429.4" r="1.31" fill="#3d3d3d"/>
  <circle cx="419.2" cy="318.6" r="0.94" fill="#3d3d3d"/>
  <circle cx="651.5" cy="671.8" r="1.26" fill="#3d3d3d"/>
  <circle cx="175.7" cy="217.6" r="1.12" fill="#3d3d3d"/>
  <circle cx="343.0" cy="314.4" r="1.11" fill="#3d3d3d"/>
  <circle cx="313.4" cy="404.4" r="1.18" fill="#3d3d3d"/>
  <circle cx="747.8" cy="206.4" r="1.31" fill="#3d3d3d"/>
  <circle cx="471.3" cy="399.8" r="1.27" fill="#3d3d3d"/>
  <circle cx="400.3" cy="323.1" r="0.95" fill="#3d3d3d"/>
  <circle cx="464.2" cy="425.9" r="1.16" fill="#3d3d3d"/>
  <circle cx="352.2" cy="132.4" r="1.05" fill="#3d3d3d"/>
  <circle cx="401.0" cy="387.6" r="0.75" fill="#3d3d3d"/>
  <circle cx="482.2" cy="575.3" r="1.15" fill="#3d3d3d"/>
  <circle cx="446.9" cy="420.7" r="1.02" fill="#3d3d3d"/>
  <circle cx="620.6" cy="261.8" r="1.00" fill="#3d3d3d"/>
  <circle cx="320.3" cy="402.8" r="1.25" fill="#3d3d3d"/>
  <circle cx="385.2" cy="735.9" r="1.48" fill="#3d3d3d"/>
  <circle cx="219.2" cy="680.5" r="1.44" fill="#3d3d3d"/>
  <circle cx="471.2" cy="747.2" r="1.30" fill="#3d3d3d"/>
  <circle cx="386.7" cy="465.3" r="0.98" fill="#3d3d3d"/>
  <circle cx="384.2" cy="355.9" r="1.09" fill="#3d3d3d"/>
  <circle cx="399.0" cy="380.7" r="0.71" fill="#3d3d3d"/>
  <circle cx="352.6" cy="473.5" r="0.77" fill="#3d3d3d"/>
  <circle cx="407.8" cy="386.6" r="1.26" fill="#3d3d3d"/>
  <circle cx="320.1" cy="342.5" r="0.71" fill="#3d3d3d"/>
  <circle cx="345.1" cy="315.7" r="0.71" fill="#3d3d3d"/>
  <circle cx="382.0" cy="386.2" r="1.28" fill="#3d3d3d"/>
  <circle cx="480.1" cy="784.1" r="1.20" fill="#3d3d3d"/>
  <circle cx="410.6" cy="385.4" r="1.22" fill="#3d3d3d"/>
  <circle cx="358.4" cy="357.2" r="1.33" fill="#3d3d3d"/>
  <circle cx="733.9" cy="221.0" r="1.31" fill="#3d3d3d"/>
  <circle cx="344.6" cy="433.5" r="0.94" fill="#3d3d3d"/>
  <circle cx="489.2" cy="617.7" r="1.16" fill="#3d3d3d"/>
  <circle cx="387.2" cy="378.3" r="0.70" fill="#3d3d3d"/>
  <circle cx="767.1" cy="122.1" r="1.34" fill="#3d3d3d"/>
  <circle cx="322.4" cy="316.7" r="1.20" fill="#3d3d3d"/>
  <circle cx="318.3" cy="343.6" r="0.91" fill="#3d3d3d"/>
  <circle cx="335.5" cy="404.7" r="0.71" fill="#3d3d3d"/>
  <circle cx="353.9" cy="457.2" r="1.39" fill="#3d3d3d"/>
  <circle cx="333.5" cy="403.2" r="0.89" fill="#3d3d3d"/>
  <circle cx="742.0" cy="194.0" r="0.89" fill="#3d3d3d"/>
  <circle cx="387.8" cy="474.3" r="0.77" fill="#3d3d3d"/>
  <circle cx="20.0" cy="208.7" r="1.40" fill="#3d3d3d"/>
  <circle cx="460.1" cy="470.1" r="1.11" fill="#3d3d3d"/>
  <circle cx="320.3" cy="333.5" r="0.98" fill="#3d3d3d"/>
  <circle cx="398.3" cy="697.2" r="1.05" fill="#3d3d3d"/>
  <circle cx="359.1" cy="385.9" r="0.99" fill="#3d3d3d"/>
  <circle cx="191.2" cy="212.6" r="1.12" fill="#3d3d3d"/>
  <circle cx="458.7" cy="428.2" r="1.03" fill="#3d3d3d"/>
  <circle cx="422.3" cy="388.3" r="1.17" fill="#3d3d3d"/>
  <circle cx="320.2" cy="319.0" r="0.84" fill="#3d3d3d"/>
  <circle cx="427.4" cy="389.3" r="1.06" fill="#3d3d3d"/>
  <circle cx="366.0" cy="442.1" r="0.96" fill="#3d3d3d"/>
  <circle cx="507.3" cy="409.8" r="1.40" fill="#3d3d3d"/>
  <circle cx="473.8" cy="416.1" r="1.17" fill="#3d3d3d"/>
  <circle cx="344.7" cy="343.2" r="1.48" fill="#3d3d3d"/>
  <circle cx="415.2" cy="387.8" r="0.81" fill="#3d3d3d"/>
  <circle cx="472.8" cy="447.0" r="0.91" fill="#3d3d3d"/>
  <circle cx="359.5" cy="297.5" r="1.21" fill="#3d3d3d"/>
  <circle cx="396.7" cy="323.3" r="0.81" fill="#3d3d3d"/>
  <circle cx="475.3" cy="423.7" r="1.04" fill="#3d3d3d"/>
  <circle cx="609.7" cy="532.4" r="0.86" fill="#3d3d3d"/>
  <circle cx="469.6" cy="444.0" r="1.27" fill="#3d3d3d"/>
  <circle cx="607.8" cy="415.7" r="1.39" fill="#3d3d3d"/>
  <circle cx="797.5" cy="581.3" r="0.89" fill="#3d3d3d"/>
  <circle cx="331.8" cy="343.7" r="0.76" fill="#3d3d3d"/>
  <circle cx="442.4" cy="409.9" r="1.45" fill="#3d3d3d"/>
  <circle cx="670.7" cy="649.7" r="1.43" fill="#3d3d3d"/>
  <circle cx="53.7" cy="792.1" r="0.75" fill="#3d3d3d"/>
  <circle cx="117.9" cy="701.5" r="1.14" fill="#3d3d3d"/>
  <circle cx="472.6" cy="415.2" r="1.15" fill="#3d3d3d"/>
  <circle cx="330.7" cy="401.7" r="1.23" fill="#3d3d3d"/>
  <circle cx="402.2" cy="388.9" r="1.23" fill="#3d3d3d"/>
  <circle cx="347.9" cy="322.6" r="1.46" fill="#3d3d3d"/>
  <circle cx="444.0" cy="408.7" r="1.22" fill="#3d3d3d"/>
  <circle cx="461.3" cy="471.6" r="1.01" fill="#3d3d3d"/>
  <circle cx="762.1" cy="104.8" r="1.33" fill="#3d3d3d"/>
  <circle cx="442.0" cy="417.8" r="1.45" fill="#3d3d3d"/>
  <circle cx="415.2" cy="358.5" r="0.84" fill="#3d3d3d"/>
  <circle cx="752.2" cy="532.4" r="1.00" fill="#3d3d3d"/>
  <circle cx="329.9" cy="339.9" r="0.76" fill="#3d3d3d"/>
  <circle cx="361.0" cy="468.6" r="0.74" fill="#3d3d3d"/>
  <circle cx="120.3" cy="82.6" r="1.21" fill="#3d3d3d"/>
  <circle cx="355.5" cy="374.1" r="1.15" fill="#3d3d3d"/>
  <circle cx="320.2" cy="325.7" r="1.27" fill="#3d3d3d"/>
  <circle cx="455.6" cy="474.3" r="0.82" fill="#3d3d3d"/>
  <circle cx="466.3" cy="400.9" r="1.21" fill="#3d3d3d"/>
  <circle cx="85.6" cy="253.7" r="1.09" fill="#3d3d3d"/>
  <circle cx="473.7" cy="451.9" r="0.83" fill="#3d3d3d"/>
  <circle cx="668.7" cy="676.5" r="1.33" fill="#3d3d3d"/>
  <circle cx="381.2" cy="359.5" r="1.06" fill="#3d3d3d"/>
  <circle cx="429.1" cy="344.3" r="0.76" fill="#3d3d3d"/>
  <circle cx="315.6" cy="343.9" r="0.77" fill="#3d3d3d"/>
  <circle cx="342.4" cy="276.0" r="0.96" fill="#3d3d3d"/>
  <circle cx="379.3" cy="358.9" r="0.82" fill="#3d3d3d"/>
  <circle cx="375.4" cy="354.1" r="1.48" fill="#3d3d3d"/>
  <circle cx="655.7" cy="119.3" r="1.04" fill="#3d3d3d"/>
  <circle cx="387.9" cy="446.7" r="1.21" fill="#3d3d3d"/>
  <circle cx="471.6" cy="412.7" r="1.31" fill="#3d3d3d"/>
  <circle cx="390.6" cy="380.4" r="0.84" fill="#3d3d3d"/>
  <circle cx="358.1" cy="374.1" r="1.14" fill="#3d3d3d"/>
  <circle cx="351.0" cy="420.6" r="1.05" fill="#3d3d3d"/>
  <circle cx="669.5" cy="604.0" r="1.42" fill="#3d3d3d"/>
  <circle cx="439.5" cy="406.5" r="1.14" fill="#3d3d3d"/>
  <circle cx="36.8" cy="306.2" r="1.32" fill="#3d3d3d"/>
  <circle cx="346.6" cy="415.1" r="1.40" fill="#3d3d3d"/>
  <circle cx="210.8" cy="492.8" r="0.98" fill="#3d3d3d"/>
  <circle cx="449.7" cy="465.3" r="0.95" fill="#3d3d3d"/>
  <circle cx="452.3" cy="467.1" r="0.78" fill="#3d3d3d"/>
  <circle cx="441.4" cy="471.1" r="1.07" fill="#3d3d3d"/>
  <circle cx="360.9" cy="367.1" r="1.16" fill="#3d3d3d"/>
  <circle cx="344.6" cy="332.0" r="0.97" fill="#3d3d3d"/>
  <circle cx="403.7" cy="372.3" r="1.25" fill="#3d3d3d"/>
  <circle cx="403.5" cy="337.3" r="1.08" fill="#3d3d3d"/>
  <circle cx="435.6" cy="532.9" r="0.97" fill="#3d3d3d"/>
  <circle cx="383.5" cy="452.7" r="1.28" fill="#3d3d3d"/>
  <circle cx="396.9" cy="364.9" r="0.79" fill="#3d3d3d"/>
  <circle cx="326.2" cy="430.3" r="0.71" fill="#3d3d3d"/>
  <circle cx="410.6" cy="359.8" r="0.94" fill="#3d3d3d"/>
  <circle cx="431.7" cy="198.1" r="1.38" fill="#3d3d3d"/>
  <circle cx="251.0" cy="776.6" r="0.97" fill="#3d3d3d"/>
  <circle cx="418.5" cy="63.1" r="0.78" fill="#3d3d3d"/>
  <circle cx="555.9" cy="494.1" r="0.83" fill="#3d3d3d"/>
  <circle cx="378.0" cy="471.4" r="0.96" fill="#3d3d3d"/>
  <circle cx="469.3" cy="423.7" r="0.96" fill="#3d3d3d"/>
  <circle cx="441.5" cy="442.4" r="1.01" fill="#3d3d3d"/>
  <circle cx="466.2" cy="449.5" r="1.42" fill="#3d3d3d"/>
  <circle cx="293.8" cy="359.0" r="1.15" fill="#3d3d3d"/>
  <circle cx="387.2" cy="645.2" r="1.40" fill="#3d3d3d"/>
  <circle cx="114.7" cy="246.3" r="1.04" fill="#3d3d3d"/>
  <circle cx="286.4" cy="757.0" r="1.33" fill="#3d3d3d"/>
  <circle cx="176.7" cy="631.7" r="1.39" fill="#3d3d3d"/>
  <circle cx="429.2" cy="343.2" r="1.23" fill="#3d3d3d"/>
  <circle cx="471.6" cy="490.2" r="1.49" fill="#3d3d3d"/>
  <circle cx="365.2" cy="357.2" r="1.45" fill="#3d3d3d"/>
  <circle cx="599.3" cy="6.3" r="1.15" fill="#3d3d3d"/>
  <circle cx="318.9" cy="430.8" r="1.01" fill="#3d3d3d"/>
  <circle cx="229.3" cy="88.2" r="1.17" fill="#3d3d3d"/>
  <circle cx="405.8" cy="356.5" r="1.04" fill="#3d3d3d"/>
  <circle cx="472.7" cy="422.7" r="1.03" fill="#3d3d3d"/>
  <circle cx="358.2" cy="356.0" r="0.84" fill="#3d3d3d"/>
  <circle cx="367.4" cy="441.2" r="1.10" fill="#3d3d3d"/>
  <circle cx="321.5" cy="342.7" r="1.04" fill="#3d3d3d"/>
  <circle cx="428.8" cy="339.6" r="1.34" fill="#3d3d3d"/>
  <circle cx="46.0" cy="559.0" r="0.77" fill="#3d3d3d"/>
</svg>
