<svg viewBox="0 0 800 800" xmlns="http://www.w3.org/2000/svg">
  <circle cx="487.2" cy="435.3" r="0.90" fill="#3d3d3d"/>
  <circle cx="459.5" cy="419.5" r="1.03" fill="#3d3d3d"/>
  <circle cx="520.6" cy="240.9" r="1.46" fill="#3d3d3d"/>
  <circle cx="386.1" cy="451.6" r="1.22" fill="#3d3d3d"/>
  <circle cx="513.2" cy="406.6" r="1.19" fill="#3d3d3d"/>
  <circle cx="543.3" cy="247.3" r="1.02" fill="#3d3d3d"/>
  <circle cx="608.9" cy="145.1" r="0.79" fill="#3d3d3d"/>
  <circle cx="368.8" cy="328.4" r="1.24" fill="#3d3d3d"/>
  <circle cx="579.6" cy="239.3" r="0.72" fill="#3d3d3d"/>
  <circle cx="406.5" cy="750.2" r="1.41" fill="#3d3d3d"/>
  <circle cx="317.0" cy="625.1" r="1.48" fill="#3d3d3d"/>
  <circle cx="448.4" cy="278.3" r="1.26" fill="#3d3d3d"/>
  <circle cx="315.4" cy="385.3" r="1.05" fill="#3d3d3d"/>
  <circle cx="568.0" cy="83.9" r="1.32" fill="#3d3d3d"/>
  <circle cx="465.5" cy="294.6" r="1.39" fill="#3d3d3d"/>
  <circle cx="362.9" cy="380.7" r="1.40" fill="#3d3d3d"/>
  <circle cx="404.9" cy="363.3" r="1.19" fill="#3d3d3d"/>
  <circle cx="482.3" cy="291.9" r="1.05" fill="#3d3d3d"/>
  <circle cx="333.0" cy="435.1" r="1.11" fill="#3d3d3d"/>
  <circle cx="475.3" cy="265.0" r="1.36" fill="#3d3d3d"/>
  <circle cx="736.6" cy="122.5" r="0.96" fill="#3d3d3d"/>
  <circle cx="480.2" cy="377.3" r="0.96" fill="#3d3d3d"/>
  <circle cx="514.1" cy="258.3" r="1.24" fill="#3d3d3d"/>
  <circle cx="350.0" cy="281.5" r="1.27" fill="#3d3d3d"/>
  <circle cx="286.3" cy="390.8" r="1.48" fill="#3d3d3d"/>
  <circle cx="692.3" cy="323.8" r="0.95" fill="#3d3d3d"/>
  <circle cx="725.7" cy="252.1" r="0.86" fill="#3d3d3d"/>
  <circle cx="340.5" cy="412.6" r="1.26" fill="#3d3d3d"/>
  <circle cx="410.2" cy="374.2" r="0.91" fill="#3d3d3d"/>
  <circle cx="464.3" cy="443.8" r="0.94" fill="#3d3d3d"/>
  <circle cx="531.1" cy="310.5" r="1.01" fill="#3d3d3d"/>
  <circle cx="320.4" cy="363.0" r="1.04" fill="#3d3d3d"/>
  <circle cx="776.9" cy="282.5" r="0.85" fill="#3d3d3d"/>
  <circle cx="437.6" cy="464.6" r="1.35" fill="#3d3d3d"/>
  <circle cx="439.0" cy="367.7" r="0.98" fill="#3d3d3d"/>
  <circle cx="508.4" cy="262.1" r="1.12" fill="#3d3d3d"/>
  <circle cx="398.7" cy="309.2" r="0.83" fill="#3d3d3d"/>
  <circle cx="603.9" cy="226.4" r="0.99" fill="#3d3d3d"/>
  <circle cx="387.1" cy="317.4" r="1.46" fill="#3d3d3d"/>
  <circle cx="291.9" cy="376.8" r="0.75" fill="#3d3d3d"/>
  <circle cx="487.4" cy="390.5" r="0.99" fill="#3d3d3d"/>
  <circle cx="348.8" cy="294.0" r="1.21" fill="#3d3d3d"/>
  <circle cx="483.7" cy="385.4" r="0.73" fill="#3d3d3d"/>
  <circle cx="693.7" cy="308.6" r="0.87" fill="#3d3d3d"/>
  <circle cx="501.4" cy="340.8" r="0.84" fill="#3d3d3d"/>
  <circle cx="336.5" cy="450.9" r="1.00" fill="#3d3d3d"/>
  <circle cx="480.5" cy="137.6" r="0.75" fill="#3d3d3d"/>
  <circle cx="346.2" cy="277.7" r="1.49" fill="#3d3d3d"/>
  <circle cx="417.5" cy="256.0" r="0.73" fill="#3d3d3d"/>
  <circle cx="555.3" cy="364.6" r="0.86" fill="#3d3d3d"/>
  <circle cx="436.3" cy="329.0" r="1.26" fill="#3d3d3d"/>
  <circle cx="775.6" cy="21.9" r="1.43" fill="#3d3d3d"/>
  <circle cx="346.6" cy="326.9" r="0.70" fill="#3d3d3d"/>
  <circle cx="336.8" cy="421.5" r="1.01" fill="#3d3d3d"/>
  <circle cx="332.3" cy="410.5" r="1.49" fill="#3d3d3d"/>
  <circle cx="477.0" cy="784.7" r="1.42" fill="#3d3d3d"/>
  <circle cx="294.2" cy="390.0" r="0.83" fill="#3d3d3d"/>
  <circle cx="341.1" cy="405.1" r="0.78" fill="#3d3d3d"/>
  <circle cx="287.8" cy="383.5" r="1.39" fill="#3d3d3d"/>
  <circle cx="449.3" cy="414.2" r="1.06" fill="#3d3d3d"/>
  <circle cx="299.6" cy="457.0" r="1.30" fill="#3d3d3d"/>
  <circle cx="317.2" cy="392.4" r="1.16" fill="#3d3d3d"/>
  <circle cx="456.9" cy="354.8" r="1.26" fill="#3d3d3d"/>
  <circle cx="448.4" cy="325.4" r="0.88" fill="#3d3d3d"/>
  <circle cx="295.6" cy="381.4" r="1.30" fill="#3d3d3d"/>
  <circle cx="423.1" cy="228.3" r="1.19" fill="#3d3d3d"/>
  <circle cx="296.5" cy="407.1" r="1.13" fill="#3d3d3d"/>
  <circle cx="708.0" cy="493.2" r="1.45" fill="#3d3d3d"/>
  <circle cx="35.5" cy="21.6" r="1.38" fill="#3d3d3d"/>
  <circle cx="511.8" cy="334.0" r="0.70" fill="#3d3d3d"/>
  <circle cx="452.5" cy="290.4" r="1.20" fill="#3d3d3d"/>
  <circle cx="520.7" cy="365.7" r="0.78" fill="#3d3d3d"/>
  <circle cx="505.7" cy="307.5" r="1.44" fill="#3d3d3d"/>
  <circle cx="341.3" cy="388.7" r="0.79" fill="#3d3d3d"/>
  <circle cx="377.0" cy="442.2" r="1.49" fill="#3d3d3d"/>
  <circle cx="344.2" cy="434.5" r="0.93" fill="#3d3d3d"/>
  <circle cx="21.2" cy="749.9" r="0.91" fill="#3d3d3d"/>
  <circle cx="288.6" cy="389.9" r="0.82" fill="#3d3d3d"/>
  <circle cx="387.6" cy="271.0" r="1.25" fill="#3d3d3d"/>
  <circle cx="320.2" cy="339.9" r="0.98" fill="#3d3d3d"/>
  <circle cx="497.9" cy="334.8" r="1.26" fill="#3d3d3d"/>
  <circle cx="173.4" cy="615.1" r="1.41" fill="#3d3d3d"/>
  <circle cx="534.3" cy="316.4" r="1.41" fill="#3d3d3d"/>
  <circle cx="540.9" cy="391.7" r="0.93" fill="#3d3d3d"/>
  <circle cx="539.3" cy="344.5" r="0.91" fill="#3d3d3d"/>
  <circle cx="428.8" cy="336.7" r="1.02" fill="#3d3d3d"/>
  <circle cx="11.3" cy="722.2" r="1.42" fill="#3d3d3d"/>
  <circle cx="493.3" cy="358.4" r="1.17" fill="#3d3d3d"/>
  <circle cx="337.7" cy="293.7" r="0.94" fill="#3d3d3d"/>
  <circle cx="532.5" cy="303.9" r="1.36" fill="#3d3d3d"/>
  <circle cx="337.2" cy="411.3" r="1.19" fill="#3d3d3d"/>
  <circle cx="344.3" cy="265.4" r="1.28" fill="#3d3d3d"/>
  <circle cx="394.0" cy="264.4" r="1.25" fill="#3d3d3d"/>
  <circle cx="251.8" cy="108.6" r="1.15" fill="#3d3d3d"/>
  <circle cx="432.2" cy="359.4" r="0.75" fill="#3d3d3d"/>
  <circle cx="514.9" cy="407.4" r="1.07" fill="#3d3d3d"/>
  <circle cx="523.3" cy="373.8" r="1.10" fill="#3d3d3d"/>
  <circle cx="426.4" cy="302.7" r="1.28" fill="#3d3d3d"/>
  <circle cx="315.4" cy="387.7" r="1.40" fill="#3d3d3d"/>
  <circle cx="380.3" cy="444.1" r="0.77" fill="#3d3d3d"/>
  <circle cx="512.5" cy="345.8" r="1.21" fill="#3d3d3d"/>
  <circle cx="406.6" cy="361.2" r="0.89" fill="#3d3d3d"/>
  <circle cx="499.9" cy="409.4" r="1.06" fill="#3d3d3d"/>
  <circle cx="344.8" cy="417.2" r="1.30" fill="#3d3d3d"/>
  <circle cx="18.8" cy="3.9" r="1.25" fill="#3d3d3d"/>
  <circle cx="394.8" cy="418.7" r="0.71" fill="#3d3d3d"/>
  <circle cx="411.5" cy="372.3" r="0.91" fill="#3d3d3d"/>
  <circle cx="530.0" cy="276.0" r="1.31" fill="#3d3d3d"/>
  <circle cx="440.2" cy="379.7" r="0.74" fill="#3d3d3d"/>
  <circle cx="446.4" cy="332.4" r="0.71" fill="#3d3d3d"/>
  <circle cx="345.4" cy="396.8" r="1.19" fill="#3d3d3d"/>
  <circle cx="407.6" cy="741.6" r="1.43" fill="#3d3d3d"/>
  <circle cx="273.3" cy="377.3" r="1.19" fill="#3d3d3d"/>
  <circle cx="496.4" cy="340.3" r="1.42" fill="#3d3d3d"/>
  <circle cx="348.1" cy="280.8" r="1.23" fill="#3d3d3d"/>
  <circle cx="538.7" cy="324.1" r="0.90" fill="#3d3d3d"/>
  <circle cx="419.9" cy="366.6" r="1.31" fill="#3d3d3d"/>
  <circle cx="488.3" cy="450.8" r="1.23" fill="#3d3d3d"/>
  <circle cx="417.5" cy="367.9" r="0.99" fill="#3d3d3d"/>
  <circle cx="363.6" cy="544.0" r="0.94" fill="#3d3d3d"/>
  <circle cx="453.6" cy="300.4" r="1.05" fill="#3d3d3d"/>
  <circle cx="420.9" cy="358.1" r="1.05" fill="#3d3d3d"/>
  <circle cx="399.4" cy="271.9" r="1.21" fill="#3d3d3d"/>
  <circle cx="482.5" cy="432.8" r="0.77" fill="#3d3d3d"/>
  <circle cx="523.3" cy="388.2" r="0.76" fill="#3d3d3d"/>
  <circle cx="780.7" cy="3.7" r="0.90" fill="#3d3d3d"/>
  <circle cx="91.5" cy="496.8" r="0.72" fill="#3d3d3d"/>
  <circle cx="444.4" cy="452.4" r="1.15" fill="#3d3d3d"/>
  <circle cx="504.1" cy="267.0" r="1.20" fill="#3d3d3d"/>
  <circle cx="412.2" cy="253.2" r="0.79" fill="#3d3d3d"/>
  <circle cx="275.7" cy="391.7" r="1.32" fill="#3d3d3d"/>
  <circle cx="431.7" cy="461.6" r="0.91" fill="#3d3d3d"/>
  <circle cx="447.5" cy="293.7" r="1.35" fill="#3d3d3d"/>
  <circle cx="343.3" cy="273.0" r="1.30" fill="#3d3d3d"/>
  <circle cx="504.2" cy="351.0" r="0.98" fill="#3d3d3d"/>
  <circle cx="516.8" cy="256.0" r="1.25" fill="#3d3d3d"/>
  <circle cx="475.5" cy="266.7" r="0.94" fill="#3d3d3d"/>
  <circle cx="354.8" cy="306.2" r="0.81" fill="#3d3d3d"/>
  <circle cx="342.3" cy="422.8" r="0.97" fill="#3d3d3d"/>
  <circle cx="371.1" cy="471.0" r="0.78" fill="#3d3d3d"/>
  <circle cx="470.9" cy="453.6" r="1.37" fill="#3d3d3d"/>
  <circle cx="531.4" cy="427.6" r="0.82" fill="#3d3d3d"/>
  <circle cx="498.2" cy="445.6" r="1.26" fill="#3d3d3d"/>
  <circle cx="347.5" cy="274.2" r="1.15" fill="#3d3d3d"/>
  <circle cx="373.6" cy="355.8" r="1.37" fill="#3d3d3d"/>
  <circle cx="516.3" cy="306.8" r="0.97" fill="#3d3d3d"/>
  <circle cx="377.8" cy="453.7" r="1.15" fill="#3d3d3d"/>
  <circle cx="342.5" cy="463.5" r="1.28" fill="#3d3d3d"/>
  <circle cx="338.6" cy="269.5" r="1.48" fill="#3d3d3d"/>
  <circle cx="345.6" cy="321.4" r="1.20" fill="#3d3d3d"/>
  <circle cx="351.5" cy="257.8" r="1.20" fill="#3d3d3d"/>
  <circle cx="171.3" cy="578.7" r="0.95" fill="#3d3d3d"/>
  <circle cx="426.6" cy="445.6" r="1.35" fill="#3d3d3d"/>
  <circle cx="540.0" cy="364.4" r="1.30" fill="#3d3d3d"/>
  <circle cx="478.4" cy="282.0" r="0.78" fill="#3d3d3d"/>
  <circle cx="366.8" cy="374.5" r="0.86" fill="#3d3d3d"/>
  <circle cx="387.3" cy="391.6" r="1.27" fill="#3d3d3d"/>
  <circle cx="379.1" cy="348.6" r="0.85" fill="#3d3d3d"/>
  <circle cx="315.2" cy="443.5" r="0.89" fill="#3d3d3d"/>
  <circle cx="686.7" cy="275.3" r="1.44" fill="#3d3d3d"/>
  <circle cx="441.9" cy="454.0" r="0.86" fill="#3d3d3d"/>
  <circle cx="438.0" cy="341.7" r="1.03" fill="#3d3d3d"/>
  <circle cx="408.2" cy="405.5" r="0.90" fill="#3d3d3d"/>
  <circle cx="118.2" cy="736.2" r="1.09" fill="#3d3d3d"/>
  <circle cx="354.1" cy="312.3" r="0.74" fill="#3d3d3d"/>
  <circle cx="706.5" cy="412.0" r="0.86" fill="#3d3d3d"/>
  <circle cx="460.9" cy="285.6" r="1.07" fill="#3d3d3d"/>
  <circle cx="245.0" cy="595.8" r="0.82" fill="#3d3d3d"/>
  <circle cx="343.3" cy="415.6" r="0.82" fill="#3d3d3d"/>
  <circle cx="484.8" cy="109.7" r="0.93" fill="#3d3d3d"/>
  <circle cx="644.5" cy="584.1" r="1.27" fill="#3d3d3d"/>
  <circle cx="164.4" cy="672.3" r="1.18" fill="#3d3d3d"/>
  <circle cx="521.6" cy="357.6" r="0.77" fill="#3d3d3d"/>
  <circle cx="469.2" cy="301.3" r="1.19" fill="#3d3d3d"/>
  <circle cx="330.6" cy="292.0" r="1.06" fill="#3d3d3d"/>
  <circle cx="354.8" cy="364.5" r="0.94" fill="#3d3d3d"/>
  <circle cx="46.7" cy="221.5" r="1.04" fill="#3d3d3d"/>
  <circle cx="387.6" cy="363.5" r="1.22" fill="#3d3d3d"/>
  <circle cx="316.3" cy="396.4" r="0.97" fill="#3d3d3d"/>
  <circle cx="419.6" cy="312.0" r="1.41" fill="#3d3d3d"/>
  <circle cx="461.6" cy="423.1" r="0.99" fill="#3d3d3d"/>
  <circle cx="465.5" cy="276.7" r="1.39" fill="#3d3d3d"/>
  <circle cx="426.7" cy="371.3" r="1.11" fill="#3d3d3d"/>
  <circle cx="478.4" cy="409.6" r="0.92" fill="#3d3d3d"/>
  <circle cx="704.3" cy="538.6" r="1.40" fill="#3d3d3d"/>
  <circle cx="296.7" cy="393.9" r="1.43" fill="#3d3d3d"/>
  <circle cx="432.6" cy="462.3" r="0.76" fill="#3d3d3d"/>
  <circle cx="307.9" cy="385.9" r="1.42" fill="#3d3d3d"/>
  <circle cx="390.9" cy="61.1" r="1.48" fill="#3d3d3d"/>
  <circle cx="534.2" cy="254.3" r="1.31" fill="#3d3d3d"/>
  <circle cx="457.2" cy="306.5" r="1.13" fill="#3d3d3d"/>
  <circle cx="441.3" cy="432.2" r="1.13" fill="#3d3d3d"/>
  <circle cx="441.8" cy="333.6" r="0.87" fill="#3d3d3d"/>
  <circle cx="401.6" cy="459.8" r="1.43" fill="#3d3d3d"/>
  <circle cx="742.5" cy="631.8" r="1.35" fill="#3d3d3d"/>
  <circle cx="376.4" cy="340.6" r="1.21" fill="#3d3d3d"/>
  <circle cx="418.9" cy="366.3" r="0.78" fill="#3d3d3d"/>
  <circle cx="320.5" cy="269.2" r="1.49" fill="#3d3d3d"/>
  <circle cx="521.7" cy="670.1" r="1.32" fill="#3d3d3d"/>
  <circle cx="423.2" cy="319.7" r="0.92" fill="#3d3d3d"/>
  <circle cx="392.1" cy="457.2" r="0.87" fill="#3d3d3d"/>
  <circle cx="471.7" cy="294.5" r="1.07" fill="#3d3d3d"/>
  <circle cx="511.1" cy="390.4" r="0.90" fill="#3d3d3d"/>
  <circle cx="294.2" cy="401.9" r="1.24" fill="#3d3d3d"/>
  <circle cx="485.3" cy="681.8" r="1.27" fill="#3d3d3d"/>
  <circle cx="395.2" cy="419.2" r="0.98" fill="#3d3d3d"/>
  <circle cx="64.8" cy="329.7" r="0.90" fill="#3d3d3d"/>
  <circle cx="419.5" cy="357.9" r="0.84" fill="#3d3d3d"/>
  <circle cx="481.3" cy="384.4" r="1.12" fill="#3d3d3d"/>
  <circle cx="310.7" cy="459.7" r="1.33" fill="#3d3d3d"/>
  <circle cx="468.0" cy="402.4" r="0.94" fill="#3d3d3d"/>
  <circle cx="405.2" cy="246.1" r="1.26" fill="#3d3d3d"/>
  <circle cx="367.0" cy="441.7" r="1.14" fill="#3d3d3d"/>
  <circle cx="537.2" cy="341.0" r="0.79" fill="#3d3d3d"/>
  <circle cx="335.1" cy="326.2" r="1.24" fill="#3d3d3d"/>
  <circle cx="746.3" cy="742.5" r="1.32" fill="#3d3d3d"/>
  <circle cx="472.8" cy="688.2" r="1.42" fill="#3d3d3d"/>
  <circle cx="471.6" cy="363.1" r="0.75" fill="#3d3d3d"/>
  <circle cx="539.9" cy="301.6" r="1.38" fill="#3d3d3d"/>
  <circle cx="379.5" cy="441.8" r="1.46" fill="#3d3d3d"/>
  <circle cx="481.5" cy="295.1" r="1.12" fill="#3d3d3d"/>
  <circle cx="396.8" cy="445.8" r="1.00" fill="#3d3d3d"/>
  <circle cx="431.5" cy="634.7" r="1.41" fill="#3d3d3d"/>
  <circle cx="381.6" cy="453.0" r="0.77" fill="#3d3d3d"/>
  <circle cx="444.9" cy="325.5" r="0.71" fill="#3d3d3d"/>
  <circle cx="439.6" cy="356.9" r="1.05" fill="#3d3d3d"/>
  <circle cx="353.1" cy="266.7" r="1.47" fill="#3d3d3d"/>
  <circle cx="164.0" cy="3.9" r="0.94" fill="#3d3d3d"/>
  <circle cx="320.2" cy="264.1" r="0.77" fill="#3d3d3d"/>
  <circle cx="324.8" cy="152.0" r="1.01" fill="#3d3d3d"/>
  <circle cx="197.6" cy="161.6" r="1.13" fill="#3d3d3d"/>
  <circle cx="653.3" cy="196.7" r="0.86" fill="#3d3d3d"/>
  <circle cx="454.5" cy="129.7" r="0.71" fill="#3d3d3d"/>
  <circle cx="438.8" cy="445.9" r="1.28" fill="#3d3d3d"/>
  <circle cx="421.9" cy="438.5" r="0.92" fill="#3d3d3d"/>
  <circle cx="516.7" cy="307.4" r="1.19" fill="#3d3d3d"/>
  <circle cx="358.8" cy="421.3" r="1.30" fill="#3d3d3d"/>
  <circle cx="243.7" cy="174.4" r="1.37" fill="#3d3d3d"/>
  <circle cx="429.9" cy="336.8" r="1.02" fill="#3d3d3d"/>
  <circle cx="352.2" cy="375.0" r="0.75" fill="#3d3d3d"/>
  <circle cx="314.0" cy="342.7" r="1.44" fill="#3d3d3d"/>
  <circle cx="225.4" cy="291.8" r="1.12" fill="#3d3d3d"/>
  <circle cx="506.2" cy="247.0" r="1.33" fill="#3d3d3d"/>
  <circle cx="498.2" cy="399.5" r="1.14" fill="#3d3d3d"/>
  <circle cx="508.0" cy="254.2" r="0.79" fill="#3d3d3d"/>
  <circle cx="455.4" cy="428.8" r="1.46" fill="#3d3d3d"/>
  <circle cx="414.6" cy="474.7" r="1.30" fill="#3d3d3d"/>
  <circle cx="614.4" cy="116.0" r="1.14" fill="#3d3d3d"/>
  <circle cx="338.5" cy="365.8" r="0.89" fill="#3d3d3d"/>
  <circle cx="392.6" cy="340.1" r="1.07" fill="#3d3d3d"/>
  <circle cx="400.8" cy="419.8" r="0.82" fill="#3d3d3d"/>
  <circle cx="320.7" cy="392.8" r="0.82" fill="#3d3d3d"/>
  <circle cx="463.8" cy="277.3" r="0.88" fill="#3d3d3d"/>
  <circle cx="380.2" cy="336.4" r="1.24" fill="#3d3d3d"/>
  <circle cx="403.9" cy="265.3" r="1.21" fill="#3d3d3d"/>
  <circle cx="337.2" cy="421.3" r="0.95" fill="#3d3d3d"/>
  <circle cx="509.3" cy="316.3" r="1.40" fill="#3d3d3d"/>
  <circle cx="461.1" cy="284.1" r="1.00" fill="#3d3d3d"/>
  <circle cx="464.2" cy="425.9" r="1.47" fill="#3d3d3d"/>
  <circle cx="343.3" cy="411.6" r="0.99" fill="#3d3d3d"/>
  <circle cx="490.0" cy="361.9" r="0.98" fill="#3d3d3d"/>
  <circle cx="398.6" cy="296.9" r="1.47" fill="#3d3d3d"/>
  <circle cx="706.2" cy="557.1" r="1.10" fill="#3d3d3d"/>
  <circle cx="303.8" cy="402.6" r="1.08" fill="#3d3d3d"/>
  <circle cx="793.3" cy="333.4" r="0.86" fill="#3d3d3d"/>
  <circle cx="435.1" cy="460.8" r="1.38" fill="#3d3d3d"/>
  <circle cx="584.6" cy="404.9" r="1.16" fill="#3d3d3d"/>
  <circle cx="313.7" cy="353.4" r="1.38" fill="#3d3d3d"/>
  <circle cx="502.1" cy="93.8" r="1.33" fill="#3d3d3d"/>
  <circle cx="353.2" cy="390.0" r="1.45" fill="#3d3d3d"/>
  <circle cx="502.1" cy="342.0" r="1.21" fill="#3d3d3d"/>
  <circle cx="309.4" cy="394.7" r="1.14" fill="#3d3d3d"/>
  <circle cx="481.8" cy="435.2" r="1.39" fill="#3d3d3d"/>
  <circle cx="429.2" cy="363.0" r="1.46" fill="#3d3d3d"/>
  <circle cx="468.1" cy="295.8" r="1.39" fill="#3d3d3d"/>
  <circle cx="520.4" cy="300.5" r="0.87" fill="#3d3d3d"/>
  <circle cx="322.7" cy="375.0" r="1.34" fill="#3d3d3d"/>
  <circle cx="334.7" cy="352.5" r="1.26" fill="#3d3d3d"/>
  <circle cx="157.3" cy="682.6" r="1.40" fill="#3d3d3d"/>
  <circle cx="520.4" cy="369.1" r="1.08" fill="#3d3d3d"/>
  <circle cx="451.7" cy="449.8" r="0.70" fill="#3d3d3d"/>
  <circle cx="793.3" cy="505.1" r="0.71" fill="#3d3d3d"/>
  <circle cx="453.6" cy="291.6" r="1.22" fill="#3d3d3d"/>
  <circle cx="351.5" cy="391.6" r="1.09" fill="#3d3d3d"/>
  <circle cx="292.0" cy="1.2" r="0.90" fill="#3d3d3d"/>
  <circle cx="384.8" cy="262.0" r="0.86" fill="#3d3d3d"/>
  <circle cx="514.3" cy="355.8" r="1.19" fill="#3d3d3d"/>
  <circle cx="566.2" cy="150.1" r="0.98" fill="#3d3d3d"/>
  <circle cx="793.4" cy="324.2" r="0.77" fill="#3d3d3d"/>
  <circle cx="462.2" cy="275.3" r="0.72" fill="#3d3d3d"/>
  <circle cx="504.4" cy="398.2" r="1.36" fill="#3d3d3d"/>
  <circle cx="470.6" cy="290.6" r="1.35" fill="#3d3d3d"/>
  <circle cx="335.4" cy="409.3" r="0.83" fill="#3d3d3d"/>
  <circle cx="524.3" cy="264.2" r="1.22" fill="#3d3d3d"/>
  <circle cx="613.1" cy="467.1" r="1.44" fill="#3d3d3d"/>
  <circle cx="409.3" cy="400.1" r="1.40" fill="#3d3d3d"/>
  <circle cx="506.9" cy="653.4" r="1.14" fill="#3d3d3d"/>
  <circle cx="524.0" cy="380.4" r="1.01" fill="#3d3d3d"/>
  <circle cx="688.0" cy="27.2" r="1.32" fill="#3d3d3d"/>
  <circle cx="421.6" cy="372.6" r="1.13" fill="#3d3d3d"/>
  <circle cx="407.0" cy="315.0" r="1.09" fill="#3d3d3d"/>
  <circle cx="211.9" cy="330.9" r="1.08" fill="#3d3d3d"/>
  <circle cx="383.1" cy="456.5" r="0.86" fill="#3d3d3d"/>
  <circle cx="458.5" cy="266.1" r="1.11" fill="#3d3d3d"/>
  <circle cx="287.4" cy="388.5" r="0.96" fill="#3d3d3d"/>
  <circle cx="359.0" cy="353.2" r="0.79" fill="#3d3d3d"/>
  <circle cx="783.1" cy="725.8" r="1.34" fill="#3d3d3d"/>
  <circle cx="533.4" cy="371.4" r="1.18" fill="#3d3d3d"/>
  <circle cx="178.8" cy="14.0" r="0.89" fill="#3d3d3d"/>
  <circle cx="513.5" cy="413.9" r="0.85" fill="#3d3d3d"/>
  <circle cx="504.2" cy="395.7" r="1.37" fill="#3d3d3d"/>
  <circle cx="356.7" cy="233.6" r="1.24" fill="#3d3d3d"/>
  <circle cx="544.6" cy="393.6" r="0.98" fill="#3d3d3d"/>
  <circle cx="366.7" cy="415.3" r="0.88" fill="#3d3d3d"/>
  <circle cx="434.2" cy="337.4" r="0.94" fill="#3d3d3d"/>
  <circle cx="696.2" cy="596.4" r="0.78" fill="#3d3d3d"/>
  <circle cx="576.0" cy="538.2" r="0.85" fill="#3d3d3d"/>
  <circle cx="474.1" cy="284.9" r="0.95" fill="#3d3d3d"/>
  <circle cx="349.2" cy="415.4" r="1.14" fill="#3d3d3d"/>
  <circle cx="449.4" cy="279.6" r="0.87" fill="#3d3d3d"/>
  <circle cx="476.0" cy="423.3" r="1.08" fill="#3d3d3d"/>
  <circle cx="406.2" cy="772.3" r="0.88" fill="#3d3d3d"/>
  <circle cx="340.5" cy="277.7" r="1.50" fill="#3d3d3d"/>
  <circle cx="487.1" cy="378.6" r="0.93" fill="#3d3d3d"/>
  <circle cx="318.2" cy="497.2" r="1.19" fill="#3d3d3d"/>
  <circle cx="438.0" cy="462.4" r="0.90" fill="#3d3d3d"/>
  <circle cx="681.8" cy="499.1" r="1.46" fill="#3d3d3d"/>
  <circle cx="415.3" cy="378.8" r="0.99" fill="#3d3d3d"/>
  <circle cx="308.0" cy="398.5" r="1.05" fill="#3d3d3d"/>
  <circle cx="498.9" cy="260.6" r="1.43" fill="#3d3d3d"/>
  <circle cx="302.7" cy="449.4" r="1.21" fill="#3d3d3d"/>
  <circle cx="477.0" cy="267.6" r="0.71" fill="#3d3d3d"/>
  <circle cx="436.4" cy="364.3" r="0.87" fill="#3d3d3d"/>
  <circle cx="271.8" cy="140.1" r="0.83" fill="#3d3d3d"/>
  <circle cx="395.4" cy="413.4" r="1.28" fill="#3d3d3d"/>
  <circle cx="377.4" cy="429.7" r="1.09" fill="#3d3d3d"/>
  <circle cx="334.8" cy="293.8" r="1.20" fill="#3d3d3d"/>
  <circle cx="327.9" cy="401.1" r="1.40" fill="#3d3d3d"/>
  <circle cx="342.8" cy="299.7" r="1.16" fill="#3d3d3d"/>
  <circle cx="389.2" cy="390.2" r="1.20" fill="#3d3d3d"/>
  <circle cx="480.1" cy="48.4" r="1.37" fill="#3d3d3d"/>
  <circle cx="527.8" cy="259.2" r="0.85" fill="#3d3d3d"/>
  <circle cx="361.5" cy="385.0" r="0.99" fill="#3d3d3d"/>
  <circle cx="467.4" cy="302.6" r="1.27" fill="#3d3d3d"/>
  <circle cx="505.8" cy="311.7" r="1.35" fill="#3d3d3d"/>
  <circle cx="424.0" cy="384.8" r="0.83" fill="#3d3d3d"/>
  <circle cx="308.4" cy="438.1" r="0.98" fill="#3d3d3d"/>
  <circle cx="740.3" cy="317.8" r="1.34" fill="#3d3d3d"/>
  <circle cx="352.7" cy="419.2" r="1.02" fill="#3d3d3d"/>
  <circle cx="466.9" cy="291.5" r="0.93" fill="#3d3d3d"/>
  <circle cx="690.4" cy="449.6" r="1.28" fill="#3d3d3d"/>
  <circle cx="468.9" cy="386.8" r="1.09" fill="#3d3d3d"/>
  <circle cx="466.0" cy="374.7" r="1.42" fill="#3d3d3d"/>
  <circle cx="662.3" cy="26.9" r="1.08" fill="#3d3d3d"/>
  <circle cx="441.7" cy="347.0" r="1.23" fill="#3d3d3d"/>
  <circle cx="475.0" cy="300.6" r="1.25" fill="#3d3d3d"/>
  <circle cx="356.0" cy="387.0" r="0.87" fill="#3d3d3d"/>
  <circle cx="320.7" cy="458.6" r="1.35" fill="#3d3d3d"/>
  <circle cx="491.8" cy="571.0" r="0.85" fill="#3d3d3d"/>
  <circle cx="414.5" cy="389.5" r="1.29" fill="#3d3d3d"/>
  <circle cx="485.4" cy="361.6" r="1.33" fill="#3d3d3d"/>
  <circle cx="316.4" cy="288.8" r="0.73" fill="#3d3d3d"/>
  <circle cx="348.3" cy="326.3" r="1.03" fill="#3d3d3d"/>
  <circle cx="461.9" cy="599.4" r="0.82" fill="#3d3d3d"/>
  <circle cx="60.3" cy="379.7" r="1.09" fill="#3d3d3d"/>
  <circle cx="366.8" cy="438.1" r="1.41" fill="#3d3d3d"/>
  <circle cx="352.4" cy="413.8" r="1.04" fill="#3d3d3d"/>
  <circle cx="473.6" cy="382.0" r="0.77" fill="#3d3d3d"/>
  <circle cx="569.3" cy="752.9" r="1.37" fill="#3d3d3d"/>
  <circle cx="470.0" cy="265.4" r="0.95" fill="#3d3d3d"/>
  <circle cx="381.9" cy="324.4" r="1.06" fill="#3d3d3d"/>
  <circle cx="388.7" cy="410.8" r="1.14" fill="#3d3d3d"/>
  <circle cx="372.1" cy="441.3" r="1.44" fill="#3d3d3d"/>
  <circle cx="433.1" cy="341.8" r="1.37" fill="#3d3d3d"/>
  <circle cx="282.7" cy="393.5" r="0.76" fill="#3d3d3d"/>
  <circle cx="235.6" cy="772.2" r="0.76" fill="#3d3d3d"/>
  <circle cx="668.1" cy="694.3" r="1.41" fill="#3d3d3d"/>
  <circle cx="375.7" cy="332.5" r="0.74" fill="#3d3d3d"/>
  <circle cx="758.4" cy="733.6" r="1.24" fill="#3d3d3d"/>
  <circle cx="460.0" cy="411.1" r="0.70" fill="#3d3d3d"/>
  <circle cx="368.2" cy="430.4" r="0.91" fill="#3d3d3d"/>
  <circle cx="518.6" cy="399.5" r="1.36" fill="#3d3d3d"/>
  <circle cx="423.1" cy="445.7" r="0.89" fill="#3d3d3d"/>
  <circle cx="367.3" cy="454.0" r="1.00" fill="#3d3d3d"/>
  <circle cx="312.9" cy="450.5" r="0.94" fill="#3d3d3d"/>
  <circle cx="370.3" cy="317.8" r="0.71" fill="#3d3d3d"/>
  <circle cx="434.9" cy="431.8" r="0.86" fill="#3d3d3d"/>
  <circle cx="518.8" cy="379.2" r="1.06" fill="#3d3d3d"/>
  <circle cx="462.8" cy="306.7" r="1.21" fill="#3d3d3d"/>
  <circle cx="776.3" cy="246.1" r="1.26" fill="#3d3d3d"/>
  <circle cx="510.9" cy="513.4" r="1.19" fill="#3d3d3d"/>
  <circle cx="638.8" cy="153.2" r="0.83" fill="#3d3d3d"/>
  <circle cx="523.5" cy="388.5" r="1.42" fill="#3d3d3d"/>
  <circle cx="426.4" cy="288.6" r="0.93" fill="#3d3d3d"/>
  <circle cx="445.5" cy="332.2" r="0.80" fill="#3d3d3d"/>
  <circle cx="468.3" cy="412.0" r="1.40" fill="#3d3d3d"/>
  <circle cx="575.7" cy="308.3" r="0.96" fill="#3d3d3d"/>
  <circle cx="527.6" cy="246.0" r="1.27" fill="#3d3d3d"/>
  <circle cx="419.3" cy="393.4" r="1.42" fill="#3d3d3d"/>
  <circle cx="410.2" cy="368.9" r="1.32" fill="#3d3d3d"/>
  <circle cx="539.1" cy="340.6" r="1.37" fill="#3d3d3d"/>
  <circle cx="676.3" cy="78.1" r="0.88" fill="#3d3d3d"/>
  <circle cx="486.5" cy="394.4" r="1.01" fill="#3d3d3d"/>
  <circle cx="501.4" cy="262.7" r="1.21" fill="#3d3d3d"/>
  <circle cx="397.7" cy="292.2" r="1.28" fill="#3d3d3d"/>
  <circle cx="703.7" cy="785.8" r="1.34" fill="#3d3d3d"/>
  <circle cx="331.2" cy="44.4" r="1.44" fill="#3d3d3d"/>
  <circle cx="450.1" cy="275.9" r="1.25" fill="#3d3d3d"/>
  <circle cx="455.1" cy="280.6" r="1.34" fill="#3d3d3d"/>
  <circle cx="348.7" cy="311.0" r="1.41" fill="#3d3d3d"/>
  <circle cx="511.2" cy="373.7" r="0.84" fill="#3d3d3d"/>
  <circle cx="383.6" cy="361.1" r="1.05" fill="#3d3d3d"/>
  <circle cx="540.3" cy="297.9" r="1.48" fill="#3d3d3d"/>
  <circle cx="496.1" cy="51.4" r="1.35" fill="#3d3d3d"/>
  <circle cx="342.9" cy="731.5" r="0.83" fill="#3d3d3d"/>
  <circle cx="455.4" cy="428.1" r="1.07" fill="#3d3d3d"/>
  <circle cx="424.5" cy="313.3" r="0.98" fill="#3d3d3d"/>
  <circle cx="437.8" cy="287.8" r="1.10" fill="#3d3d3d"/>
  <circle cx="405.0" cy="413.4" r="1.22" fill="#3d3d3d"/>
  <circle cx="380.4" cy="612.9" r="1.36" fill="#3d3d3d"/>
  <circle cx="402.4" cy="395.8" r="1.20" fill="#3d3d3d"/>
  <circle cx="502.6" cy="349.8" r="0.80" fill="#3d3d3d"/>
  <circle cx="510.3" cy="344.7" r="0.99" fill="#3d3d3d"/>
  <circle cx="420.6" cy="285.7" r="0.70" fill="#3d3d3d"/>
  <circle cx="443.9" cy="422.0" r="1.15" fill="#3d3d3d"/>
  <circle cx="457.5" cy="280.3" r="0.87" fill="#3d3d3d"/>
  <circle cx="305.1" cy="444.7" r="1.22" fill="#3d3d3d"/>
  <circle cx="166.3" cy="572.2" r="0.82" fill="#3d3d3d"/>
  <circle cx="427.2" cy="456.3" r="1.38" fill="#3d3d3d"/>
  <circle cx="245.2" cy="452.6" r="0.82" fill="#3d3d3d"/>
  <circle cx="346.2" cy="328.6" r="0.81" fill="#3d3d3d"/>
  <circle cx="345.3" cy="299.0" r="1.44" fill="#3d3d3d"/>
  <circle cx="421.5" cy="307.1" r="1.07" fill="#3d3d3d"/>
  <circle cx="331.4" cy="369.4" r="0.79" fill="#3d3d3d"/>
  <circle cx="21.7" cy="775.8" r="1.17" fill="#3d3d3d"/>
  <circle cx="248.5" cy="703.2" r="0.75" fill="#3d3d3d"/>
  <circle cx="396.1" cy="259.9" r="1.32" fill="#3d3d3d"/>
  <circle cx="727.9" cy="598.0" r="0.74" fill="#3d3d3d"/>
  <circle cx="323.4" cy="275.5" r="1.21" fill="#3d3d3d"/>
  <circle cx="528.4" cy="399.8" r="1.10" fill="#3d3d3d"/>
  <circle cx="527.9" cy="310.0" r="1.31" fill="#3d3d3d"/>
  <circle cx="127.1" cy="596.4" r="1.35" fill="#3d3d3d"/>
  <circle cx="522.4" cy="245.0" r="1.41" fill="#3d3d3d"/>
  <circle cx="299.8" cy="388.5" r="1.15" fill="#3d3d3d"/>
  <circle cx="601.9" cy="663.0" r="0.91" fill="#3d3d3d"/>
  <circle cx="83.4" cy="630.7" r="1.30" fill="#3d3d3d"/>
  <circle cx="454.7" cy="275.2" r="1.42" fill="#3d3d3d"/>
  <circle cx="390.8" cy="279.2" r="1.02" fill="#3d3d3d"/>
  <circle cx="312.0" cy="625.4" r="1.41" fill="#3d3d3d"/>
  <circle cx="390.0" cy="385.8" r="0.88" fill="#3d3d3d"/>
  <circle cx="395.7" cy="465.1" r="1.11" fill="#3d3d3d"/>
  <circle cx="469.3" cy="232.5" r="1.03" fill="#3d3d3d"/>
  <circle cx="389.9" cy="297.8" r="1.43" fill="#3d3d3d"/>
  <circle cx="511.5" cy="350.6" r="1.46" fill="#3d3d3d"/>
  <circle cx="330.5" cy="311.6" r="0.98" fill="#3d3d3d"/>
  <circle cx="325.9" cy="261.7" r="1.05" fill="#3d3d3d"/>
  <circle cx="556.0" cy="135.5" r="1.02" fill="#3d3d3d"/>
  <circle cx="601.6" cy="576.9" r="0.88" fill="#3d3d3d"/>
  <circle cx="309.1" cy="453.3" r="0.77" fill="#3d3d3d"/>
  <circle cx="367.2" cy="284.1" r="1.11" fill="#3d3d3d"/>
  <circle cx="292.9" cy="377.8" r="1.08" fill="#3d3d3d"/>
  <circle cx="398.2" cy="260.3" r="1.27" fill="#3d3d3d"/>
  <circle cx="372.7" cy="495.5" r="1.13" fill="#3d3d3d"/>
  <circle cx="170.7" cy="391.3" r="1.14" fill="#3d3d3d"/>
  <circle cx="368.1" cy="84.1" r="0.76" fill="#3d3d3d"/>
  <circle cx="15.2" cy="43.8" r="0.91" fill="#3d3d3d"/>
  <circle cx="382.8" cy="441.2" r="1.33" fill="#3d3d3d"/>
  <circle cx="501.7" cy="407.1" r="1.36" fill="#3d3d3d"/>
  <circle cx="684.3" cy="606.8" r="1.37" fill="#3d3d3d"/>
  <circle cx="493.6" cy="616.9" r="1.35" fill="#3d3d3d"/>
  <circle cx="290.9" cy="410.9" r="1.41" fill="#3d3d3d"/>
  <circle cx="335.5" cy="254.4" r="0.71" fill="#3d3d3d"/>
  <circle cx="163.2" cy="634.1" r="1.48" fill="#3d3d3d"/>
  <circle cx="447.5" cy="463.6" r="0.85" fill="#3d3d3d"/>
  <circle cx="315.5" cy="358.4" r="1.05" fill="#3d3d3d"/>
  <circle cx="466.7" cy="280.1" r="1.34" fill="#3d3d3d"/>
  <circle cx="424.4" cy="348.8" r="0.98" fill="#3d3d3d"/>
  <circle cx="403.7" cy="255.5" r="1.39" fill="#3d3d3d"/>
  <circle cx="402.7" cy="372.7" r="0.91" fill="#3d3d3d"/>
  <circle cx="370.2" cy="534.8" r="1.33" fill="#3d3d3d"/>
  <circle cx="317.0" cy="460.7" r="1.11" fill="#3d3d3d"/>
  <circle cx="470.3" cy="385.1" r="0.89" fill="#3d3d3d"/>
  <circle cx="18.5" cy="285.9" r="1.47" fill="#3d3d3d"/>
  <circle cx="432.0" cy="319.9" r="0.85" fill="#3d3d3d"/>
  <circle cx="558.9" cy="651.4" r="0.88" fill="#3d3d3d"/>
  <circle cx="354.0" cy="367.8" r="1.03" fill="#3d3d3d"/>
  <circle cx="420.7" cy="376.1" r="0.73" fill="#3d3d3d"/>
  <circle cx="314.0" cy="443.2" r="1.25" fill="#3d3d3d"/>
  <circle cx="529.0" cy="798.1" r="0.90" fill="#3d3d3d"/>
  <circle cx="401.2" cy="363.6" r="1.28" fill="#3d3d3d"/>
  <circle cx="411.7" cy="398.9" r="1.10" fill="#3d3d3d"/>
  <circle cx="307.9" cy="378.6" r="1.18" fill="#3d3d3d"/>
  <circle cx="507.2" cy="326.3" r="0.75" fill="#3d3d3d"/>
  <circle cx="497.0" cy="356.8" r="0.93" fill="#3d3d3d"/>
  <circle cx="390.3" cy="329.2" r="0.80" fill="#3d3d3d"/>
  <circle cx="547.4" cy="364.5" r="0.92" fill="#3d3d3d"/>
  <circle cx="395.6" cy="269.7" r="1.50" fill="#3d3d3d"/>
  <circle cx="337.3" cy="272.9" r="1.48" fill="#3d3d3d"/>
  <circle cx="442.3" cy="347.1" r="1.21" fill="#3d3d3d"/>
  <circle cx="543.0" cy="265.3" r="1.32" fill="#3d3d3d"/>
  <circle cx="410.7" cy="363.4" r="0.80" fill="#3d3d3d"/>
  <circle cx="456.0" cy="396.3" r="1.42" fill="#3d3d3d"/>
  <circle cx="295.1" cy="379.8" r="1.22" fill="#3d3d3d"/>
  <circle cx="418.8" cy="67.4" r="1.19" fill="#3d3d3d"/>
  <circle cx="50.8" cy="757.2" r="1.14" fill="#3d3d3d"/>
  <circle cx="407.1" cy="372.7" r="1.48" fill="#3d3d3d"/>
  <circle cx="308.2" cy="428.6" r="1.44" fill="#3d3d3d"/>
  <circle cx="469.0" cy="255.6" r="0.98" fill="#3d3d3d"/>
  <circle cx="459.4" cy="394.4" r="1.33" fill="#3d3d3d"/>
  <circle cx="323.2" cy="341.8" r="1.03" fill="#3d3d3d"/>
  <circle cx="117.9" cy="647.7" r="1.29" fill="#3d3d3d"/>
  <circle cx="480.9" cy="443.4" r="0.82" fill="#3d3d3d"/>
  <circle cx="181.2" cy="82.4" r="1.22" fill="#3d3d3d"/>
  <circle cx="261.3" cy="792.1" r="0.78" fill="#3d3d3d"/>
  <circle cx="504.1" cy="444.8" r="0.81" fill="#3d3d3d"/>
  <circle cx="338.1" cy="405.1" r="1.18" fill="#3d3d3d"/>
  <circle cx="462.5" cy="399.8" r="1.04" fill="#3d3d3d"/>
  <circle cx="332.3" cy="408.3" r="1.26" fill="#3d3d3d"/>
  <circle cx="457.0" cy="280.0" r="0.91" fill="#3d3d3d"/>
  <circle cx="502.5" cy="442.4" r="1.46" fill="#3d3d3d"/>
  <circle cx="474.3" cy="389.2" r="0.79" fill="#3d3d3d"/>
  <circle cx="548.5" cy="367.0" r="1.38" fill="#3d3d3d"/>
  <circle cx="317.1" cy="393.9" r="0.86" fill="#3d3d3d"/>
  <circle cx="449.5" cy="320.0" r="0.86" fill="#3d3d3d"/>
  <circle cx="472.7" cy="385.6" r="0.73" fill="#3d3d3d"/>
  <circle cx="480.2" cy="388.6" r="1.26" fill="#3d3d3d"/>
  <circle cx="368.2" cy="356.4" r="1.10" fill="#3d3d3d"/>
  <circle cx="479.3" cy="441.1" r="1.45" fill="#3d3d3d"/>
  <circle cx="527.0" cy="354.8" r="0.82" fill="#3d3d3d"/>
  <circle cx="408.6" cy="257.3" r="0.83" fill="#3d3d3d"/>
  <circle cx="529.2" cy="272.6" r="1.35" fill="#3d3d3d"/>
  <circle cx="667.0" cy="743.2" r="1.00" fill="#3d3d3d"/>
  <circle cx="526.8" cy="305.6" r="1.47" fill="#3d3d3d"/>
  <circle cx="550.9" cy="530.1" r="0.99" fill="#3d3d3d"/>
  <circle cx="398.9" cy="317.1" r="0.77" fill="#3d3d3d"/>
  <circle cx="477.6" cy="375.0" r="0.99" fill="#3d3d3d"/>
  <circle cx="500.4" cy="369.8" r="0.72" fill="#3d3d3d"/>
  <circle cx="354.8" cy="656.3" r="1.29" fill="#3d3d3d"/>
  <circle cx="27.7" cy="228.0" r="0.78" fill="#3d3d3d"/>
  <circle cx="342.7" cy="319.0" r="1.46" fill="#3d3d3d"/>
  <circle cx="349.0" cy="378.4" r="1.37" fill="#3d3d3d"/>
  <circle cx="576.2" cy="115.6" r="0.99" fill="#3d3d3d"/>
  <circle cx="462.3" cy="390.6" r="1.05" fill="#3d3d3d"/>
  <circle cx="305.8" cy="391.5" r="1.01" fill="#3d3d3d"/>
  <circle cx="395.4" cy="270.5" r="1.45" fill="#3d3d3d"/>
  <circle cx="499.3" cy="403.2" r="0.87" fill="#3d3d3d"/>
  <circle cx="615.5" cy="487.8" r="1.01" fill="#3d3d3d"/>
  <circle cx="509.0" cy="274.3" r="0.86" fill="#3d3d3d"/>
  <circle cx="350.1" cy="298.5" r="0.77" fill="#3d3d3d"/>
  <circle cx="517.6" cy="275.2" r="0.70" fill="#3d3d3d"/>
  <circle cx="378.4" cy="319.7" r="1.45" fill="#3d3d3d"/>
  <circle cx="434.4" cy="319.2" r="1.20" fill="#3d3d3d"/>
  <circle cx="211.1" cy="431.7" r="1.14" fill="#3d3d3d"/>
  <circle cx="127.7" cy="462.3" r="0.96" fill="#3d3d3d"/>
  <circle cx="365.1" cy="275.7" r="0.80" fill="#3d3d3d"/>
  <circle cx="429.5" cy="463.8" r="1.01" fill="#3d3d3d"/>
  <circle cx="396.6" cy="262.7" r="1.00" fill="#3d3d3d"/>
  <circle cx="390.9" cy="268.1" r="1.35" fill="#3d3d3d"/>
  <circle cx="415.5" cy="455.2" r="0.91" fill="#3d3d3d"/>
  <circle cx="368.8" cy="356.6" r="0.72" fill="#3d3d3d"/>
  <circle cx="442.7" cy="294.5" r="1.13" fill="#3d3d3d"/>
  <circle cx="783.0" cy="706.7" r="1.47" fill="#3d3d3d"/>
  <circle cx="304.9" cy="439.7" r="0.98" fill="#3d3d3d"/>
  <circle cx="483.2" cy="466.0" r="0.99" fill="#3d3d3d"/>
  <circle cx="409.3" cy="372.6" r="0.83" fill="#3d3d3d"/>
  <circle cx="532.6" cy="310.1" r="1.20" fill="#3d3d3d"/>
  <circle cx="110.8" cy="239.8" r="0.86" fill="#3d3d3d"/>
  <circle cx="343.4" cy="385.5" r="1.21" fill="#3d3d3d"/>
  <circle cx="220.4" cy="735.4" r="1.04" fill="#3d3d3d"/>
  <circle cx="516.4" cy="335.5" r="0.96" fill="#3d3d3d"/>
  <circle cx="508.2" cy="255.3" r="1.20" fill="#3d3d3d"/>
  <circle cx="351.7" cy="442.8" r="0.74" fill="#3d3d3d"/>
  <circle cx="499.3" cy="404.7" r="0.80" fill="#3d3d3d"/>
  <circle cx="472.7" cy="297.5" r="1.33" fill="#3d3d3d"/>
  <circle cx="334.9" cy="363.9" r="0.79" fill="#3d3d3d"/>
  <circle cx="380.3" cy="449.3" r="1.48" fill="#3d3d3d"/>
  <circle cx="323.1" cy="284.9" r="1.18" fill="#3d3d3d"/>
  <circle cx="759.6" cy="388.4" r="1.22" fill="#3d3d3d"/>
  <circle cx="339.6" cy="288.6" r="1.27" fill="#3d3d3d"/>
  <circle cx="461.1" cy="411.0" r="1.20" fill="#3d3d3d"/>
  <circle cx="485.2" cy="397.1" r="1.33" fill="#3d3d3d"/>
  <circle cx="425.8" cy="352.5" r="0.90" fill="#3d3d3d"/>
  <circle cx="424.0" cy="311.2" r="1.30" fill="#3d3d3d"/>
  <circle cx="478.0" cy="408.9" r="1.05" fill="#3d3d3d"/>
  <circle cx="303.2" cy="393.6" r="1.07" fill="#3d3d3d"/>
  <circle cx="476.6" cy="376.9" r="0.84" fill="#3d3d3d"/>
  <circle cx="473.8" cy="374.1" r="1.03" fill="#3d3d3d"/>
  <circle cx="469.4" cy="385.1" r="1.24" fill="#3d3d3d"/>
  <circle cx="531.4" cy="379.6" r="0.79" fill="#3d3d3d"/>
  <circle cx="480.7" cy="281.2" r="1.35" fill="#3d3d3d"/>
  <circle cx="554.2" cy="369.1" r="1.36" fill="#3d3d3d"/>
  <circle cx="737.1" cy="447.2" r="0.83" fill="#3d3d3d"/>
  <circle cx="763.3" cy="274.9" r="1.04" fill="#3d3d3d"/>
  <circle cx="482.0" cy="439.1" r="1.15" fill="#3d3d3d"/>
  <circle cx="468.7" cy="392.2" r="1.04" fill="#3d3d3d"/>
  <circle cx="331.1" cy="436.5" r="1.44" fill="#3d3d3d"/>
  <circle cx="443.6" cy="329.6" r="0.76" fill="#3d3d3d"/>
  <circle cx="300.2" cy="645.9" r="0.84" fill="#3d3d3d"/>
  <circle cx="435.1" cy="354.2" r="1.38" fill="#3d3d3d"/>
  <circle cx="626.1" cy="650.1" r="1.15" fill="#3d3d3d"/>
  <circle cx="394.1" cy="433.9" r="1.38" fill="#3d3d3d"/>
  <circle cx="377.6" cy="433.2" r="1.01" fill="#3d3d3d"/>
  <circle cx="421.2" cy="375.7" r="1.26" fill="#3d3d3d"/>
  <circle cx="371.1" cy="91.6" r="1.15" fill="#3d3d3d"/>
  <circle cx="440.2" cy="281.1" r="0.94" fill="#3d3d3d"/>
  <circle cx="160.8" cy="155.3" r="0.72" fill="#3d3d3d"/>
  <circle cx="350.1" cy="322.8" r="1.11" fill="#3d3d3d"/>
  <circle cx="455.3" cy="397.8" r="0.97" fill="#3d3d3d"/>
  <circle cx="496.0" cy="323.9" r="1.22" fill="#3d3d3d"/>
  <circle cx="301.8" cy="453.7" r="1.31" fill="#3d3d3d"/>
  <circle cx="399.3" cy="288.0" r="0.79" fill="#3d3d3d"/>
  <circle cx="319.4" cy="350.1" r="1.49" fill="#3d3d3d"/>
  <circle cx="46.2" cy="505.9" r="0.92" fill="#3d3d3d"/>
  <circle cx="528.2" cy="362.2" r="1.23" fill="#3d3d3d"/>
  <circle cx="503.5" cy="399.8" r="1.19" fill="#3d3d3d"/>
  <circle cx="509.3" cy="391.1" r="1.41" fill="#3d3d3d"/>
  <circle cx="497.8" cy="409.7" r="1.40" fill="#3d3d3d"/>
  <circle cx="424.6" cy="442.5" r="1.39" fill="#3d3d3d"/>
  <circle cx="457.8" cy="410.6" r="1.30" fill="#3d3d3d"/>
  <circle cx="591.6" cy="674.3" r="1.38" fill="#3d3d3d"/>
  <circle cx="526.4" cy="401.9" r="0.91" fill="#3d3d3d"/>
  <circle cx="465.9" cy="373.0" r="1.16" fill="#3d3d3d"/>
  <circle cx="318.4" cy="367.5" r="0.94" fill="#3d3d3d"/>
  <circle cx="415.6" cy="362.6" r="0.75" fill="#3d3d3d"/>
  <circle cx="414.3" cy="378.6" r="0.93" fill="#3d3d3d"/>
  <circle cx="239.7" cy="635.2" r="0.79" fill="#3d3d3d"/>
  <circle cx="501.5" cy="576.7" r="1.07" fill="#3d3d3d"/>
  <circle cx="445.6" cy="205.3" r="1.23" fill="#3d3d3d"/>
  <circle cx="617.8" cy="532.2" r="1.23" fill="#3d3d3d"/>
  <circle cx="483.8" cy="390.5" r="1.30" fill="#3d3d3d"/>
  <circle cx="496.4" cy="436.5" r="1.29" fill="#3d3d3d"/>
  <circle cx="275.3" cy="380.1" r="1.16" fill="#3d3d3d"/>
  <circle cx="417.7" cy="344.9" r="1.45" fill="#3d3d3d"/>
  <circle cx="352.4" cy="282.9" r="0.75" fill="#3d3d3d"/>
  <circle cx="321.6" cy="404.8" r="1.02" fill="#3d3d3d"/>
  <circle cx="343.3" cy="259.4" r="0.86" fill="#3d3d3d"/>
  <circle cx="501.4" cy="296.2" r="1.40" fill="#3d3d3d"/>
  <circle cx="508.2" cy="392.6" r="1.45" fill="#3d3d3d"/>
  <circle cx="353.6" cy="367.7" r="1.23" fill="#3d3d3d"/>
  <circle cx="529.3" cy="315.4" r="1.25" fill="#3d3d3d"/>
  <circle cx="493.6" cy="352.6" r="0.84" fill="#3d3d3d"/>
  <circle cx="578.3" cy="793.4" r="1.41" fill="#3d3d3d"/>
  <circle cx="170.4" cy="452.0" r="1.42" fill="#3d3d3d"/>
  <circle cx="615.6" cy="123.0" r="0.82" fill="#3d3d3d"/>
  <circle cx="331.7" cy="422.1" r="1.04" fill="#3d3d3d"/>
  <circle cx="390.2" cy="425.9" r="1.35" fill="#3d3d3d"/>
  <circle cx="552.9" cy="644.6" r="0.84" fill="#3d3d3d"/>
  <circle cx="588.9" cy="537.6" r="1.03" fill="#3d3d3d"/>
  <circle cx="305.0" cy="395.0" r="1.42" fill="#3d3d3d"/>
  <circle cx="437.1" cy="348.0" r="1.20" fill="#3d3d3d"/>
  <circle cx="315.6" cy="457.3" r="1.48" fill="#3d3d3d"/>
  <circle cx="315.3" cy="473.9" r="1.50" fill="#3d3d3d"/>
  <circle cx="498.2" cy="325.3" r="0.83" fill="#3d3d3d"/>
  <circle cx="494.0" cy="791.9" r="1.14" fill="#3d3d3d"/>
  <circle cx="324.2" cy="402.9" r="1.43" fill="#3d3d3d"/>
  <circle cx="300.1" cy="383.0" r="1.13" fill="#3d3d3d"/>
  <circle cx="538.5" cy="356.4" r="1.22" fill="#3d3d3d"/>
  <circle cx="335.0" cy="279.8" r="1.22" fill="#3d3d3d"/>
  <circle cx="69.4" cy="766.2" r="1.10" fill="#3d3d3d"/>
  <circle cx="413.0" cy="265.3" r="0.88" fill="#3d3d3d"/>
  <circle cx="494.7" cy="447.4" r="0.99" fill="#3d3d3d"/>
  <circle cx="440.5" cy="333.1" r="1.49" fill="#3d3d3d"/>
  <circle cx="365.6" cy="512.1" r="1.24" fill="#3d3d3d"/>
  <circle cx="527.0" cy="243.8" r="0.70" fill="#3d3d3d"/>
  <circle cx="484.8" cy="440.5" r="1.17" fill="#3d3d3d"/>
  <circle cx="353.6" cy="280.9" r="1.22" fill="#3d3d3d"/>
  <circle cx="402.2" cy="398.7" r="1.00" fill="#3d3d3d"/>
  <circle cx="399.1" cy="291.5" r="1.20" fill="#3d3d3d"/>
  <circle cx="494.7" cy="401.8" r="1.44" fill="#3d3d3d"/>
  <circle cx="348.4" cy="402.5" r="1.40" fill="#3d3d3d"/>
  <circle cx="380.6" cy="364.7" r="1.44" fill="#3d3d3d"/>
  <circle cx="371.6" cy="469.4" r="1.17" fill="#3d3d3d"/>
  <circle cx="526.6" cy="273.3" r="1.07" fill="#3d3d3d"/>
  <circle cx="437.6" cy="414.7" r="0.74" fill="#3d3d3d"/>
  <circle cx="520.3" cy="368.2" r="1.42" fill="#3d3d3d"/>
  <circle cx="362.1" cy="384.4" r="0.92" fill="#3d3d3d"/>
  <circle cx="325.7" cy="434.6" r="1.36" fill="#3d3d3d"/>
  <circle cx="465.3" cy="290.5" r="1.29" fill="#3d3d3d"/>
  <circle cx="285.5" cy="401.7" r="1.17" fill="#3d3d3d"/>
  <circle cx="497.6" cy="377.6" r="1.31" fill="#3d3d3d"/>
  <circle cx="463.6" cy="284.7" r="0.79" fill="#3d3d3d"/>
  <circle cx="316.4" cy="366.8" r="1.29" fill="#3d3d3d"/>
  <circle cx="484.9" cy="92.5" r="1.09" fill="#3d3d3d"/>
  <circle cx="479.8" cy="396.5" r="0.76" fill="#3d3d3d"/>
  <circle cx="338.7" cy="464.1" r="1.16" fill="#3d3d3d"/>
  <circle cx="350.0" cy="311.7" r="1.15" fill="#3d3d3d"/>
  <circle cx="547.2" cy="365.4" r="1.18" fill="#3d3d3d"/>
  <circle cx="323.5" cy="450.5" r="1.37" fill="#3d3d3d"/>
  <circle cx="354.8" cy="245.3" r="0.79" fill="#3d3d3d"/>
  <circle cx="381.3" cy="333.2" r="0.74" fill="#3d3d3d"/>
  <circle cx="431.5" cy="285.1" r="0.90" fill="#3d3d3d"/>
  <circle cx="105.0" cy="788.0" r="1.37" fill="#3d3d3d"/>
  <circle cx="338.1" cy="319.8" r="0.85" fill="#3d3d3d"/>
  <circle cx="487.3" cy="344.1" r="1.06" fill="#3d3d3d"/>
  <circle cx="350.4" cy="409.9" r="1.48" fill="#3d3d3d"/>
  <circle cx="417.1" cy="664.3" r="0.91" fill="#3d3d3d"/>
  <circle cx="367.0" cy="329.3" r="1.00" fill="#3d3d3d"/>
  <circle cx="335.9" cy="271.5" r="0.96" fill="#3d3d3d"/>
  <circle cx="408.6" cy="412.3" r="1.26" fill="#3d3d3d"/>
  <circle cx="437.0" cy="371.0" r="1.20" fill="#3d3d3d"/>
  <circle cx="126.1" cy="386.7" r="1.39" fill="#3d3d3d"/>
  <circle cx="435.7" cy="434.4" r="0.82" fill="#3d3d3d"/>
  <circle cx="380.3" cy="350.3" r="1.06" fill="#3d3d3d"/>
  <circle cx="342.9" cy="432.1" r="0.77" fill="#3d3d3d"/>
  <circle cx="473.4" cy="295.3" r="1.50" fill="#3d3d3d"/>
  <circle cx="494.6" cy="378.4" r="0.94" fill="#3d3d3d"/>
  <circle cx="227.8" cy="793.9" r="1.28" fill="#3d3d3d"/>
  <circle cx="429.7" cy="352.5" r="1.02" fill="#3d3d3d"/>
  <circle cx="456.1" cy="417.9" r="1.34" fill="#3d3d3d"/>
  <circle cx="517.9" cy="249.8" r="1.25" fill="#3d3d3d"/>
  <circle cx="394.8" cy="388.8" r="0.93" fill="#3d3d3d"/>
  <circle cx="496.6" cy="458.4" r="0.74" fill="#3d3d3d"/>
  <circle cx="0.6" cy="138.3" r="0.77" fill="#3d3d3d"/>
  <circle cx="389.5" cy="258.0" r="1.30" fill="#3d3d3d"/>
  <circle cx="600.4" cy="85.7" r="1.33" fill="#3d3d3d"/>
  <circle cx="470.2" cy="293.4" r="1.39" fill="#3d3d3d"/>
  <circle cx="422.1" cy="331.3" r="1.14" fill="#3d3d3d"/>
  <circle cx="344.1" cy="325.2" r="1.40" fill="#3d3d3d"/>
  <circle cx="48.7" cy="775.1" r="0.85" fill="#3d3d3d"/>
  <circle cx="332.6" cy="292.1" r="0.94" fill="#3d3d3d"/>
  <circle cx="331.0" cy="75.2" r="1.24" fill="#3d3d3d"/>
  <circle cx="176.8" cy="706.7" r="0.72" fill="#3d3d3d"/>
  <circle cx="514.5" cy="316.8" r="1.24" fill="#3d3d3d"/>
  <circle cx="415.9" cy="358.6" r="1.24" fill="#3d3d3d"/>
  <circle cx="440.5" cy="330.7" r="1.06" fill="#3d3d3d"/>
  <circle cx="435.2" cy="330.9" r="0.86" fill="#3d3d3d"/>
  <circle cx="411.2" cy="398.6" r="0.70" fill="#3d3d3d"/>
  <circle cx="488.4" cy="287.0" r="1.36" fill="#3d3d3d"/>
  <circle cx="412.2" cy="300.5" r="0.76" fill="#3d3d3d"/>
  <circle cx="410.0" cy="298.9" r="0.93" fill="#3d3d3d"/>
  <circle cx="344.7" cy="376.2" r="1.19" fill="#3d3d3d"/>
  <circle cx="570.6" cy="525.8" r="1.47" fill="#3d3d3d"/>
  <circle cx="522.2" cy="109.1" r="0.98" fill="#3d3d3d"/>
  <circle cx="268.0" cy="585.8" r="1.44" fill="#3d3d3d"/>
  <circle cx="378.0" cy="405.5" r="0.79" fill="#3d3d3d"/>
  <circle cx="376.9" cy="441.5" r="0.97" fill="#3d3d3d"/>
  <circle cx="380.6" cy="441.8" r="0.95" fill="#3d3d3d"/>
  <circle cx="345.9" cy="400.9" r="0.86" fill="#3d3d3d"/>
  <circle cx="548.8" cy="366.7" r="1.08" fill="#3d3d3d"/>
  <circle cx="496.3" cy="345.0" r="1.47" fill="#3d3d3d"/>
  <circle cx="343.3" cy="436.6" r="0.73" fill="#3d3d3d"/>
  <circle cx="321.7" cy="392.4" r="0.78" fill="#3d3d3d"/>
  <circle cx="102.4" cy="167.1" r="1.25" fill="#3d3d3d"/>
  <circle cx="341.4" cy="380.8" r="1.43" fill="#3d3d3d"/>
  <circle cx="538.0" cy="374.8" r="0.84" fill="#3d3d3d"/>
  <circle cx="337.1" cy="270.7" r="1.20" fill="#3d3d3d"/>
  <circle cx="522.7" cy="406.3" r="1.35" fill="#3d3d3d"/>
  <circle cx="474.9" cy="378.5" r="0.90" fill="#3d3d3d"/>
  <circle cx="314.5" cy="376.7" r="0.80" fill="#3d3d3d"/>
  <circle cx="58.0" cy="763.8" r="1.28" fill="#3d3d3d"/>
  <circle cx="355.3" cy="301.0" r="0.89" fill="#3d3d3d"/>
  <circle cx="399.1" cy="388.0" r="0.97" fill="#3d3d3d"/>
  <circle cx="366.9" cy="347.1" r="1.36" fill="#3d3d3d"/>
  <circle cx="449.0" cy="392.0" r="0.90" fill="#3d3d3d"/>
  <circle cx="762.9" cy="440.4" r="0.95" fill="#3d3d3d"/>
  <circle cx="442.1" cy="442.5" r="1.35" fill="#3d3d3d"/>
  <circle cx="455.0" cy="296.5" r="1.31" fill="#3d3d3d"/>
  <circle cx="453.4" cy="294.8" r="0.80" fill="#3d3d3d"/>
  <circle cx="499.8" cy="432.8" r="1.21" fill="#3d3d3d"/>
  <circle cx="410.4" cy="445.8" r="1.25" fill="#3d3d3d"/>
  <circle cx="354.4" cy="325.5" r="0.99" fill="#3d3d3d"/>
  <circle cx="465.1" cy="277.6" r="1.01" fill="#3d3d3d"/>
  <circle cx="499.3" cy="346.3" r="0.83" fill="#3d3d3d"/>
  <circle cx="510.4" cy="310.9" r="1.14" fill="#3d3d3d"/>
  <circle cx="515.5" cy="310.1" r="1.42" fill="#3d3d3d"/>
  <circle cx="307.8" cy="378.7" r="1.23" fill="#3d3d3d"/>
  <circle cx="331.7" cy="418.3" r="0.95" fill="#3d3d3d"/>
  <circle cx="452.5" cy="292.1" r="0.90" fill="#3d3d3d"/>
  <circle cx="468.7" cy="297.0" r="1.30" fill="#3d3d3d"/>
  <circle cx="422.9" cy="260.2" r="0.89" fill="#3d3d3d"/>
  <circle cx="446.1" cy="428.5" r="0.95" fill="#3d3d3d"/>
  <circle cx="400.3" cy="251.0" r="0.94" fill="#3d3d3d"/>
  <circle cx="448.4" cy="342.7" r="1.24" fill="#3d3d3d"/>
  <circle cx="513.7" cy="307.7" r="1.45" fill="#3d3d3d"/>
  <circle cx="517.7" cy="315.6" r="1.24" fill="#3d3d3d"/>
  <circle cx="534.8" cy="308.9" r="0.86" fill="#3d3d3d"/>
  <circle cx="327.9" cy="350.5" r="1.10" fill="#3d3d3d"/>
  <circle cx="377.6" cy="419.9" r="1.41" fill="#3d3d3d"/>
  <circle cx="246.3" cy="254.7" r="1.20" fill="#3d3d3d"/>
  <circle cx="367.7" cy="389.1" r="0.93" fill="#3d3d3d"/>
  <circle cx="405.3" cy="253.3" r="1.34" fill="#3d3d3d"/>
  <circle cx="170.7" cy="75.8" r="0.85" fill="#3d3d3d"/>
  <circle cx="716.4" cy="378.6" r="1.33" fill="#3d3d3d"/>
  <circle cx="365.9" cy="387.7" r="1.44" fill="#3d3d3d"/>
  <circle cx="483.1" cy="370.7" r="1.30" fill="#3d3d3d"/>
  <circle cx="471.1" cy="299.3" r="0.92" fill="#3d3d3d"/>
  <circle cx="768.5" cy="56.5" r="0.71" fill="#3d3d3d"/>
  <circle cx="484.8" cy="381.2" r="1.44" fill="#3d3d3d"/>
  <circle cx="144.4" cy="363.9" r="1.24" fill="#3d3d3d"/>
  <circle cx="457.4" cy="266.4" r="0.74" fill="#3d3d3d"/>
  <circle cx="508.4" cy="421.2" r="0.78" fill="#3d3d3d"/>
  <circle cx="353.2" cy="321.2" r="1.08" fill="#3d3d3d"/>
  <circle cx="433.6" cy="456.1" r="1.25" fill="#3d3d3d"/>
  <circle cx="456.2" cy="418.4" r="1.35" fill="#3d3d3d"/>
  <circle cx="421.9" cy="317.9" r="1.13" fill="#3d3d3d"/>
  <circle cx="458.4" cy="423.8" r="0.96" fill="#3d3d3d"/>
  <circle cx="285.9" cy="323.2" r="1.49" fill="#3d3d3d"/>
  <circle cx="315.5" cy="460.7" r="1.01" fill="#3d3d3d"/>
  <circle cx="354.9" cy="448.0" r="0.88" fill="#3d3d3d"/>
  <circle cx="420.6" cy="450.7" r="1.47" fill="#3d3d3d"/>
  <circle cx="463.6" cy="254.3" r="0.83" fill="#3d3d3d"/>
  <circle cx="761.6" cy="105.5" r="1.42" fill="#3d3d3d"/>
  <circle cx="296.6" cy="403.7" r="0.91" fill="#3d3d3d"/>
  <circle cx="439.0" cy="330.1" r="1.19" fill="#3d3d3d"/>
  <circle cx="471.3" cy="299.6" r="0.73" fill="#3d3d3d"/>
  <circle cx="469.0" cy="384.9" r="0.84" fill="#3d3d3d"/>
  <circle cx="355.1" cy="260.5" r="1.45" fill="#3d3d3d"/>
  <circle cx="464.3" cy="388.9" r="0.72" fill="#3d3d3d"/>
  <circle cx="228.4" cy="490.0" r="1.49" fill="#3d3d3d"/>
  <circle cx="533.1" cy="488.1" r="0.77" fill="#3d3d3d"/>
  <circle cx="516.8" cy="256.0" r="1.31" fill="#3d3d3d"/>
</svg>
