<svg viewBox="0 0 800 800" xmlns="http://www.w3.org/2000/svg">
  <circle cx="170.1" cy="359.2" r="1.16" fill="#3d3d3d"/>
  <circle cx="238.2" cy="225.6" r="1.12" fill="#3d3d3d"/>
  <circle cx="439.4" cy="616.6" r="1.07" fill="#3d3d3d"/>
  <circle cx="611.4" cy="458.7" r="1.24" fill="#3d3d3d"/>
  <circle cx="538.2" cy="576.6" r="1.29" fill="#3d3d3d"/>
  <circle cx="215.1" cy="484.9" r="0.96" fill="#3d3d3d"/>
  <circle cx="342.4" cy="179.0" r="0.83" fill="#3d3d3d"/>
  <circle cx="312.0" cy="625.9" r="1.40" fill="#3d3d3d"/>
  <circle cx="333.5" cy="631.4" r="1.13" fill="#3d3d3d"/>
  <circle cx="503.9" cy="593.2" r="1.12" fill="#3d3d3d"/>
  <circle cx="548.7" cy="566.9" r="1.16" fill="#3d3d3d"/>
  <circle cx="172.8" cy="323.1" r="0.91" fill="#3d3d3d"/>
  <circle cx="588.7" cy="310.7" r="1.02" fill="#3d3d3d"/>
  <circle cx="249.0" cy="586.1" r="1.21" fill="#3d3d3d"/>
  <circle cx="565.3" cy="515.2" r="0.82" fill="#3d3d3d"/>
  <circle cx="301.1" cy="598.4" r="1.46" fill="#3d3d3d"/>
  <circle cx="334.7" cy="186.5" r="1.24" fill="#3d3d3d"/>
  <circle cx="340.5" cy="202.0" r="1.41" fill="#3d3d3d"/>
  <circle cx="744.0" cy="502.2" r="0.92" fill="#3d3d3d"/>
  <circle cx="483.7" cy="169.9" r="0.72" fill="#3d3d3d"/>
  <circle cx="470.2" cy="575.6" r="1.45" fill="#3d3d3d"/>
  <circle cx="218.5" cy="264.3" r="0.70" fill="#3d3d3d"/>
  <circle cx="552.6" cy="575.6" r="0.89" fill="#3d3d3d"/>
  <circle cx="584.7" cy="300.3" r="0.89" fill="#3d3d3d"/>
  <circle cx="467.6" cy="188.9" r="1.10" fill="#3d3d3d"/>
  <circle cx="335.1" cy="162.7" r="1.11" fill="#3d3d3d"/>
  <circle cx="494.2" cy="184.7" r="1.40" fill="#3d3d3d"/>
  <circle cx="189.3" cy="328.6" r="0.76" fill="#3d3d3d"/>
  <circle cx="638.0" cy="408.3" r="0.90" fill="#3d3d3d"/>
  <circle cx="705.7" cy="388.2" r="0.90" fill="#3d3d3d"/>
  <circle cx="330.6" cy="179.2" r="0.80" fill="#3d3d3d"/>
  <circle cx="610.7" cy="381.8" r="1.03" fill="#3d3d3d"/>
  <circle cx="244.3" cy="555.0" r="0.75" fill="#3d3d3d"/>
  <circle cx="394.6" cy="166.6" r="0.90" fill="#3d3d3d"/>
  <circle cx="477.6" cy="596.7" r="1.07" fill="#3d3d3d"/>
  <circle cx="623.3" cy="462.5" r="1.08" fill="#3d3d3d"/>
  <circle cx="504.5" cy="194.3" r="1.45" fill="#3d3d3d"/>
  <circle cx="339.3" cy="174.2" r="1.01" fill="#3d3d3d"/>
  <circle cx="223.2" cy="242.2" r="0.78" fill="#3d3d3d"/>
  <circle cx="488.8" cy="618.5" r="1.31" fill="#3d3d3d"/>
  <circle cx="575.7" cy="534.5" r="1.05" fill="#3d3d3d"/>
  <circle cx="192.2" cy="468.0" r="0.90" fill="#3d3d3d"/>
  <circle cx="225.5" cy="551.8" r="1.24" fill="#3d3d3d"/>
  <circle cx="376.9" cy="182.8" r="1.13" fill="#3d3d3d"/>
  <circle cx="396.8" cy="607.3" r="0.82" fill="#3d3d3d"/>
  <circle cx="197.0" cy="495.5" r="0.84" fill="#3d3d3d"/>
  <circle cx="378.3" cy="614.3" r="0.92" fill="#3d3d3d"/>
  <circle cx="574.2" cy="550.2" r="1.29" fill="#3d3d3d"/>
  <circle cx="582.0" cy="280.1" r="1.27" fill="#3d3d3d"/>
  <circle cx="160.3" cy="446.2" r="1.19" fill="#3d3d3d"/>
  <circle cx="450.4" cy="518.3" r="1.21" fill="#3d3d3d"/>
  <circle cx="431.3" cy="211.3" r="0.90" fill="#3d3d3d"/>
  <circle cx="192.6" cy="426.3" r="0.72" fill="#3d3d3d"/>
  <circle cx="411.4" cy="600.4" r="0.73" fill="#3d3d3d"/>
  <circle cx="176.4" cy="17.7" r="1.24" fill="#3d3d3d"/>
  <circle cx="305.1" cy="535.2" r="1.02" fill="#3d3d3d"/>
  <circle cx="275.8" cy="206.2" r="0.82" fill="#3d3d3d"/>
  <circle cx="446.8" cy="629.2" r="1.18" fill="#3d3d3d"/>
  <circle cx="605.1" cy="501.4" r="1.26" fill="#3d3d3d"/>
  <circle cx="189.0" cy="443.4" r="1.13" fill="#3d3d3d"/>
  <circle cx="255.2" cy="574.3" r="0.80" fill="#3d3d3d"/>
  <circle cx="559.1" cy="530.3" r="1.40" fill="#3d3d3d"/>
  <circle cx="541.1" cy="217.5" r="1.49" fill="#3d3d3d"/>
  <circle cx="452.0" cy="644.8" r="1.27" fill="#3d3d3d"/>
  <circle cx="624.4" cy="334.8" r="1.38" fill="#3d3d3d"/>
  <circle cx="296.6" cy="187.4" r="1.30" fill="#3d3d3d"/>
  <circle cx="205.4" cy="502.0" r="1.03" fill="#3d3d3d"/>
  <circle cx="396.0" cy="619.5" r="1.48" fill="#3d3d3d"/>
  <circle cx="333.4" cy="624.8" r="1.20" fill="#3d3d3d"/>
  <circle cx="337.1" cy="622.3" r="1.24" fill="#3d3d3d"/>
  <circle cx="266.2" cy="224.3" r="0.72" fill="#3d3d3d"/>
  <circle cx="313.9" cy="209.4" r="0.99" fill="#3d3d3d"/>
  <circle cx="597.2" cy="477.7" r="1.01" fill="#3d3d3d"/>
  <circle cx="657.6" cy="389.8" r="1.01" fill="#3d3d3d"/>
  <circle cx="510.5" cy="213.2" r="0.88" fill="#3d3d3d"/>
  <circle cx="502.8" cy="362.0" r="0.85" fill="#3d3d3d"/>
  <circle cx="444.6" cy="641.9" r="1.20" fill="#3d3d3d"/>
  <circle cx="605.1" cy="347.6" r="1.36" fill="#3d3d3d"/>
  <circle cx="473.8" cy="617.3" r="1.42" fill="#3d3d3d"/>
  <circle cx="454.3" cy="170.9" r="1.16" fill="#3d3d3d"/>
  <circle cx="357.8" cy="453.0" r="1.20" fill="#3d3d3d"/>
  <circle cx="599.9" cy="314.8" r="1.33" fill="#3d3d3d"/>
  <circle cx="250.7" cy="226.6" r="1.31" fill="#3d3d3d"/>
  <circle cx="177.4" cy="392.1" r="1.44" fill="#3d3d3d"/>
  <circle cx="242.8" cy="553.8" r="1.27" fill="#3d3d3d"/>
  <circle cx="622.0" cy="412.4" r="1.10" fill="#3d3d3d"/>
  <circle cx="578.9" cy="546.0" r="0.76" fill="#3d3d3d"/>
  <circle cx="173.3" cy="371.5" r="1.04" fill="#3d3d3d"/>
  <circle cx="191.9" cy="397.9" r="1.37" fill="#3d3d3d"/>
  <circle cx="226.4" cy="49.0" r="0.93" fill="#3d3d3d"/>
  <circle cx="201.3" cy="466.2" r="1.03" fill="#3d3d3d"/>
  <circle cx="524.8" cy="578.2" r="0.94" fill="#3d3d3d"/>
  <circle cx="193.3" cy="333.8" r="0.90" fill="#3d3d3d"/>
  <circle cx="413.5" cy="620.5" r="1.09" fill="#3d3d3d"/>
  <circle cx="185.5" cy="421.0" r="1.16" fill="#3d3d3d"/>
  <circle cx="175.1" cy="346.5" r="1.34" fill="#3d3d3d"/>
  <circle cx="630.5" cy="440.6" r="1.08" fill="#3d3d3d"/>
  <circle cx="237.3" cy="234.6" r="1.16" fill="#3d3d3d"/>
  <circle cx="489.8" cy="597.9" r="0.92" fill="#3d3d3d"/>
  <circle cx="360.0" cy="189.3" r="1.11" fill="#3d3d3d"/>
  <circle cx="576.7" cy="513.9" r="1.37" fill="#3d3d3d"/>
  <circle cx="387.4" cy="624.3" r="1.37" fill="#3d3d3d"/>
  <circle cx="265.0" cy="224.6" r="1.16" fill="#3d3d3d"/>
  <circle cx="280.2" cy="396.0" r="0.85" fill="#3d3d3d"/>
  <circle cx="529.9" cy="218.0" r="1.46" fill="#3d3d3d"/>
  <circle cx="292.9" cy="210.5" r="1.00" fill="#3d3d3d"/>
  <circle cx="226.9" cy="539.6" r="0.77" fill="#3d3d3d"/>
  <circle cx="254.8" cy="246.6" r="1.11" fill="#3d3d3d"/>
  <circle cx="414.0" cy="588.7" r="1.22" fill="#3d3d3d"/>
  <circle cx="771.9" cy="731.5" r="1.27" fill="#3d3d3d"/>
  <circle cx="167.4" cy="427.3" r="1.30" fill="#3d3d3d"/>
  <circle cx="600.7" cy="513.7" r="1.19" fill="#3d3d3d"/>
  <circle cx="431.1" cy="625.0" r="1.08" fill="#3d3d3d"/>
  <circle cx="460.4" cy="185.2" r="1.17" fill="#3d3d3d"/>
  <circle cx="452.6" cy="165.2" r="0.98" fill="#3d3d3d"/>
  <circle cx="635.1" cy="455.6" r="1.42" fill="#3d3d3d"/>
  <circle cx="191.3" cy="289.9" r="0.86" fill="#3d3d3d"/>
  <circle cx="467.9" cy="601.1" r="1.22" fill="#3d3d3d"/>
  <circle cx="175.6" cy="414.6" r="0.97" fill="#3d3d3d"/>
  <circle cx="491.7" cy="193.2" r="1.18" fill="#3d3d3d"/>
  <circle cx="615.2" cy="308.4" r="1.40" fill="#3d3d3d"/>
  <circle cx="612.8" cy="492.5" r="0.73" fill="#3d3d3d"/>
  <circle cx="548.7" cy="225.7" r="0.77" fill="#3d3d3d"/>
  <circle cx="593.7" cy="314.0" r="1.04" fill="#3d3d3d"/>
  <circle cx="520.8" cy="583.1" r="1.24" fill="#3d3d3d"/>
  <circle cx="402.1" cy="174.7" r="0.78" fill="#3d3d3d"/>
  <circle cx="197.4" cy="472.4" r="1.41" fill="#3d3d3d"/>
  <circle cx="425.4" cy="478.3" r="0.76" fill="#3d3d3d"/>
  <circle cx="173.2" cy="399.7" r="1.30" fill="#3d3d3d"/>
  <circle cx="389.8" cy="611.9" r="1.12" fill="#3d3d3d"/>
  <circle cx="291.7" cy="589.6" r="1.08" fill="#3d3d3d"/>
  <circle cx="219.6" cy="363.6" r="0.83" fill="#3d3d3d"/>
  <circle cx="201.6" cy="458.8" r="1.34" fill="#3d3d3d"/>
  <circle cx="395.4" cy="622.1" r="1.49" fill="#3d3d3d"/>
  <circle cx="400.6" cy="176.5" r="1.39" fill="#3d3d3d"/>
  <circle cx="475.9" cy="608.6" r="0.97" fill="#3d3d3d"/>
  <circle cx="220.7" cy="316.8" r="1.07" fill="#3d3d3d"/>
  <circle cx="234.2" cy="552.2" r="1.11" fill="#3d3d3d"/>
  <circle cx="498.1" cy="189.0" r="0.79" fill="#3d3d3d"/>
  <circle cx="485.3" cy="607.1" r="0.88" fill="#3d3d3d"/>
  <circle cx="201.6" cy="311.2" r="1.09" fill="#3d3d3d"/>
  <circle cx="595.7" cy="492.9" r="1.38" fill="#3d3d3d"/>
  <circle cx="602.1" cy="488.3" r="1.07" fill="#3d3d3d"/>
  <circle cx="624.6" cy="335.6" r="1.36" fill="#3d3d3d"/>
  <circle cx="448.5" cy="176.8" r="1.05" fill="#3d3d3d"/>
  <circle cx="161.5" cy="424.4" r="1.05" fill="#3d3d3d"/>
  <circle cx="270.6" cy="576.8" r="1.06" fill="#3d3d3d"/>
  <circle cx="510.1" cy="310.4" r="0.88" fill="#3d3d3d"/>
  <circle cx="155.5" cy="379.2" r="1.42" fill="#3d3d3d"/>
  <circle cx="269.5" cy="585.1" r="1.24" fill="#3d3d3d"/>
  <circle cx="155.7" cy="333.6" r="0.71" fill="#3d3d3d"/>
  <circle cx="549.3" cy="248.8" r="1.08" fill="#3d3d3d"/>
  <circle cx="216.9" cy="499.2" r="1.06" fill="#3d3d3d"/>
  <circle cx="765.4" cy="105.2" r="0.80" fill="#3d3d3d"/>
  <circle cx="168.4" cy="419.8" r="1.48" fill="#3d3d3d"/>
  <circle cx="210.2" cy="493.9" r="1.30" fill="#3d3d3d"/>
  <circle cx="615.6" cy="482.7" r="1.08" fill="#3d3d3d"/>
  <circle cx="199.4" cy="315.5" r="0.90" fill="#3d3d3d"/>
  <circle cx="350.6" cy="160.7" r="1.30" fill="#3d3d3d"/>
  <circle cx="542.4" cy="583.5" r="0.76" fill="#3d3d3d"/>
  <circle cx="371.5" cy="614.0" r="0.78" fill="#3d3d3d"/>
  <circle cx="452.2" cy="186.5" r="1.47" fill="#3d3d3d"/>
  <circle cx="305.3" cy="619.6" r="0.73" fill="#3d3d3d"/>
  <circle cx="600.7" cy="473.5" r="0.96" fill="#3d3d3d"/>
  <circle cx="451.1" cy="612.4" r="1.09" fill="#3d3d3d"/>
  <circle cx="213.9" cy="521.1" r="0.89" fill="#3d3d3d"/>
  <circle cx="252.4" cy="575.6" r="1.16" fill="#3d3d3d"/>
  <circle cx="217.1" cy="528.2" r="1.20" fill="#3d3d3d"/>
  <circle cx="228.7" cy="521.6" r="1.30" fill="#3d3d3d"/>
  <circle cx="519.4" cy="239.0" r="0.99" fill="#3d3d3d"/>
  <circle cx="305.5" cy="632.8" r="1.09" fill="#3d3d3d"/>
  <circle cx="358.8" cy="185.3" r="0.84" fill="#3d3d3d"/>
  <circle cx="603.6" cy="322.8" r="1.15" fill="#3d3d3d"/>
  <circle cx="629.5" cy="370.2" r="1.16" fill="#3d3d3d"/>
  <circle cx="302.8" cy="194.2" r="1.48" fill="#3d3d3d"/>
  <circle cx="275.1" cy="218.7" r="1.26" fill="#3d3d3d"/>
  <circle cx="615.5" cy="356.1" r="1.46" fill="#3d3d3d"/>
  <circle cx="579.0" cy="516.7" r="1.36" fill="#3d3d3d"/>
  <circle cx="611.5" cy="493.2" r="1.24" fill="#3d3d3d"/>
  <circle cx="580.0" cy="537.5" r="0.99" fill="#3d3d3d"/>
  <circle cx="309.1" cy="171.8" r="0.72" fill="#3d3d3d"/>
  <circle cx="507.2" cy="594.9" r="0.91" fill="#3d3d3d"/>
  <circle cx="336.0" cy="198.7" r="1.43" fill="#3d3d3d"/>
  <circle cx="489.5" cy="314.9" r="0.92" fill="#3d3d3d"/>
  <circle cx="336.8" cy="604.3" r="1.29" fill="#3d3d3d"/>
  <circle cx="555.8" cy="227.2" r="0.75" fill="#3d3d3d"/>
  <circle cx="191.1" cy="447.9" r="1.10" fill="#3d3d3d"/>
  <circle cx="195.3" cy="438.2" r="1.35" fill="#3d3d3d"/>
  <circle cx="598.5" cy="441.8" r="0.93" fill="#3d3d3d"/>
  <circle cx="325.8" cy="197.2" r="1.43" fill="#3d3d3d"/>
  <circle cx="532.5" cy="228.2" r="0.83" fill="#3d3d3d"/>
  <circle cx="628.5" cy="411.0" r="0.81" fill="#3d3d3d"/>
  <circle cx="601.6" cy="452.4" r="1.13" fill="#3d3d3d"/>
  <circle cx="334.7" cy="628.7" r="1.34" fill="#3d3d3d"/>
  <circle cx="611.2" cy="469.1" r="1.42" fill="#3d3d3d"/>
  <circle cx="503.3" cy="149.0" r="1.41" fill="#3d3d3d"/>
  <circle cx="568.7" cy="543.8" r="1.01" fill="#3d3d3d"/>
  <circle cx="226.4" cy="219.1" r="1.00" fill="#3d3d3d"/>
  <circle cx="616.6" cy="322.3" r="1.05" fill="#3d3d3d"/>
  <circle cx="402.0" cy="176.1" r="0.99" fill="#3d3d3d"/>
  <circle cx="226.8" cy="553.0" r="1.00" fill="#3d3d3d"/>
  <circle cx="631.2" cy="423.8" r="1.09" fill="#3d3d3d"/>
  <circle cx="485.6" cy="608.9" r="0.78" fill="#3d3d3d"/>
  <circle cx="235.6" cy="538.0" r="1.25" fill="#3d3d3d"/>
  <circle cx="515.0" cy="581.4" r="1.32" fill="#3d3d3d"/>
  <circle cx="188.9" cy="435.6" r="0.96" fill="#3d3d3d"/>
  <circle cx="251.7" cy="560.5" r="1.37" fill="#3d3d3d"/>
  <circle cx="475.4" cy="199.8" r="1.48" fill="#3d3d3d"/>
  <circle cx="550.9" cy="256.0" r="1.48" fill="#3d3d3d"/>
  <circle cx="209.8" cy="515.4" r="1.00" fill="#3d3d3d"/>
  <circle cx="198.3" cy="488.8" r="0.75" fill="#3d3d3d"/>
  <circle cx="508.3" cy="590.9" r="0.89" fill="#3d3d3d"/>
  <circle cx="506.9" cy="613.9" r="1.14" fill="#3d3d3d"/>
  <circle cx="634.7" cy="416.9" r="1.30" fill="#3d3d3d"/>
  <circle cx="620.0" cy="478.2" r="1.38" fill="#3d3d3d"/>
  <circle cx="393.7" cy="190.1" r="0.83" fill="#3d3d3d"/>
  <circle cx="771.2" cy="165.9" r="1.41" fill="#3d3d3d"/>
  <circle cx="257.8" cy="731.7" r="1.40" fill="#3d3d3d"/>
  <circle cx="289.0" cy="183.3" r="1.31" fill="#3d3d3d"/>
  <circle cx="498.3" cy="595.8" r="1.17" fill="#3d3d3d"/>
  <circle cx="263.8" cy="106.6" r="0.79" fill="#3d3d3d"/>
  <circle cx="203.9" cy="314.0" r="1.24" fill="#3d3d3d"/>
  <circle cx="391.7" cy="341.1" r="1.42" fill="#3d3d3d"/>
  <circle cx="180.2" cy="357.4" r="0.96" fill="#3d3d3d"/>
  <circle cx="582.3" cy="276.0" r="1.47" fill="#3d3d3d"/>
  <circle cx="254.0" cy="565.9" r="0.88" fill="#3d3d3d"/>
  <circle cx="414.5" cy="175.9" r="1.35" fill="#3d3d3d"/>
  <circle cx="516.8" cy="221.7" r="1.43" fill="#3d3d3d"/>
  <circle cx="172.7" cy="377.7" r="1.37" fill="#3d3d3d"/>
  <circle cx="310.0" cy="586.7" r="0.96" fill="#3d3d3d"/>
  <circle cx="698.9" cy="284.6" r="1.45" fill="#3d3d3d"/>
  <circle cx="607.1" cy="496.6" r="0.88" fill="#3d3d3d"/>
  <circle cx="617.3" cy="420.6" r="0.93" fill="#3d3d3d"/>
  <circle cx="670.1" cy="512.1" r="0.77" fill="#3d3d3d"/>
  <circle cx="569.2" cy="241.4" r="1.00" fill="#3d3d3d"/>
  <circle cx="328.8" cy="599.7" r="0.74" fill="#3d3d3d"/>
  <circle cx="487.7" cy="189.3" r="0.83" fill="#3d3d3d"/>
  <circle cx="514.6" cy="559.6" r="1.23" fill="#3d3d3d"/>
  <circle cx="624.9" cy="477.3" r="1.36" fill="#3d3d3d"/>
  <circle cx="599.3" cy="476.2" r="1.38" fill="#3d3d3d"/>
  <circle cx="190.5" cy="490.9" r="0.95" fill="#3d3d3d"/>
  <circle cx="211.1" cy="323.6" r="0.73" fill="#3d3d3d"/>
  <circle cx="217.7" cy="248.7" r="0.99" fill="#3d3d3d"/>
  <circle cx="330.4" cy="622.5" r="1.37" fill="#3d3d3d"/>
  <circle cx="602.0" cy="381.7" r="1.38" fill="#3d3d3d"/>
  <circle cx="249.6" cy="579.1" r="1.46" fill="#3d3d3d"/>
  <circle cx="235.9" cy="238.3" r="1.22" fill="#3d3d3d"/>
  <circle cx="252.1" cy="246.0" r="1.20" fill="#3d3d3d"/>
  <circle cx="417.4" cy="632.1" r="0.87" fill="#3d3d3d"/>
  <circle cx="202.1" cy="452.4" r="1.14" fill="#3d3d3d"/>
  <circle cx="281.8" cy="230.8" r="1.29" fill="#3d3d3d"/>
  <circle cx="539.4" cy="415.8" r="0.91" fill="#3d3d3d"/>
  <circle cx="373.2" cy="286.0" r="1.09" fill="#3d3d3d"/>
  <circle cx="356.7" cy="155.8" r="0.85" fill="#3d3d3d"/>
  <circle cx="412.5" cy="639.7" r="0.79" fill="#3d3d3d"/>
  <circle cx="582.5" cy="569.7" r="1.04" fill="#3d3d3d"/>
  <circle cx="151.5" cy="362.5" r="1.33" fill="#3d3d3d"/>
  <circle cx="534.0" cy="546.9" r="1.42" fill="#3d3d3d"/>
  <circle cx="213.9" cy="254.8" r="0.96" fill="#3d3d3d"/>
  <circle cx="614.2" cy="455.3" r="1.15" fill="#3d3d3d"/>
  <circle cx="523.7" cy="592.4" r="1.19" fill="#3d3d3d"/>
  <circle cx="595.1" cy="478.7" r="1.23" fill="#3d3d3d"/>
  <circle cx="157.9" cy="449.4" r="0.84" fill="#3d3d3d"/>
  <circle cx="165.3" cy="440.0" r="1.18" fill="#3d3d3d"/>
  <circle cx="230.5" cy="267.1" r="1.33" fill="#3d3d3d"/>
  <circle cx="198.0" cy="346.1" r="0.82" fill="#3d3d3d"/>
  <circle cx="455.6" cy="610.4" r="1.10" fill="#3d3d3d"/>
  <circle cx="276.2" cy="569.7" r="0.91" fill="#3d3d3d"/>
  <circle cx="448.3" cy="610.7" r="1.05" fill="#3d3d3d"/>
  <circle cx="594.7" cy="525.2" r="1.15" fill="#3d3d3d"/>
  <circle cx="612.2" cy="352.6" r="1.28" fill="#3d3d3d"/>
  <circle cx="187.1" cy="309.7" r="1.08" fill="#3d3d3d"/>
  <circle cx="240.9" cy="519.6" r="1.39" fill="#3d3d3d"/>
  <circle cx="592.9" cy="507.5" r="1.16" fill="#3d3d3d"/>
  <circle cx="165.2" cy="422.3" r="0.91" fill="#3d3d3d"/>
  <circle cx="552.4" cy="220.5" r="0.74" fill="#3d3d3d"/>
  <circle cx="559.5" cy="239.0" r="0.75" fill="#3d3d3d"/>
  <circle cx="567.9" cy="796.8" r="1.31" fill="#3d3d3d"/>
  <circle cx="348.3" cy="181.1" r="1.46" fill="#3d3d3d"/>
  <circle cx="635.4" cy="404.5" r="1.46" fill="#3d3d3d"/>
  <circle cx="297.9" cy="599.0" r="0.79" fill="#3d3d3d"/>
  <circle cx="261.6" cy="560.8" r="0.93" fill="#3d3d3d"/>
  <circle cx="212.9" cy="524.6" r="0.92" fill="#3d3d3d"/>
  <circle cx="639.9" cy="393.9" r="1.38" fill="#3d3d3d"/>
  <circle cx="547.8" cy="147.9" r="1.11" fill="#3d3d3d"/>
  <circle cx="239.4" cy="552.9" r="1.20" fill="#3d3d3d"/>
  <circle cx="216.6" cy="522.2" r="0.94" fill="#3d3d3d"/>
  <circle cx="424.2" cy="175.7" r="1.23" fill="#3d3d3d"/>
  <circle cx="520.9" cy="566.6" r="1.44" fill="#3d3d3d"/>
  <circle cx="428.3" cy="620.0" r="1.31" fill="#3d3d3d"/>
  <circle cx="242.3" cy="268.6" r="1.31" fill="#3d3d3d"/>
  <circle cx="613.7" cy="459.7" r="0.80" fill="#3d3d3d"/>
  <circle cx="599.3" cy="487.6" r="0.84" fill="#3d3d3d"/>
  <circle cx="584.7" cy="247.0" r="1.17" fill="#3d3d3d"/>
  <circle cx="561.6" cy="236.2" r="1.38" fill="#3d3d3d"/>
  <circle cx="379.6" cy="612.7" r="1.16" fill="#3d3d3d"/>
  <circle cx="703.0" cy="56.4" r="1.01" fill="#3d3d3d"/>
  <circle cx="403.9" cy="604.4" r="1.18" fill="#3d3d3d"/>
  <circle cx="539.1" cy="565.2" r="1.18" fill="#3d3d3d"/>
  <circle cx="246.3" cy="229.7" r="1.28" fill="#3d3d3d"/>
  <circle cx="534.9" cy="575.7" r="1.12" fill="#3d3d3d"/>
  <circle cx="496.9" cy="590.3" r="1.37" fill="#3d3d3d"/>
  <circle cx="586.9" cy="301.7" r="1.01" fill="#3d3d3d"/>
  <circle cx="541.8" cy="546.9" r="1.49" fill="#3d3d3d"/>
  <circle cx="226.7" cy="611.6" r="0.72" fill="#3d3d3d"/>
  <circle cx="95.7" cy="640.5" r="1.43" fill="#3d3d3d"/>
  <circle cx="192.1" cy="460.5" r="0.93" fill="#3d3d3d"/>
  <circle cx="263.5" cy="549.9" r="1.18" fill="#3d3d3d"/>
  <circle cx="216.9" cy="214.1" r="1.27" fill="#3d3d3d"/>
  <circle cx="213.4" cy="272.9" r="1.08" fill="#3d3d3d"/>
  <circle cx="336.0" cy="607.8" r="1.19" fill="#3d3d3d"/>
  <circle cx="568.0" cy="556.1" r="1.18" fill="#3d3d3d"/>
  <circle cx="240.5" cy="94.3" r="1.25" fill="#3d3d3d"/>
  <circle cx="164.3" cy="541.5" r="1.44" fill="#3d3d3d"/>
  <circle cx="232.7" cy="319.5" r="0.87" fill="#3d3d3d"/>
  <circle cx="783.6" cy="6.9" r="0.71" fill="#3d3d3d"/>
  <circle cx="439.3" cy="158.4" r="0.81" fill="#3d3d3d"/>
  <circle cx="599.2" cy="511.6" r="1.33" fill="#3d3d3d"/>
  <circle cx="194.0" cy="337.7" r="0.98" fill="#3d3d3d"/>
  <circle cx="497.1" cy="588.4" r="0.76" fill="#3d3d3d"/>
  <circle cx="480.9" cy="619.4" r="1.36" fill="#3d3d3d"/>
  <circle cx="749.3" cy="428.8" r="1.30" fill="#3d3d3d"/>
  <circle cx="258.0" cy="559.6" r="0.89" fill="#3d3d3d"/>
  <circle cx="598.7" cy="497.1" r="1.24" fill="#3d3d3d"/>
  <circle cx="324.7" cy="588.9" r="0.76" fill="#3d3d3d"/>
  <circle cx="387.8" cy="194.2" r="1.17" fill="#3d3d3d"/>
  <circle cx="609.2" cy="393.9" r="0.90" fill="#3d3d3d"/>
  <circle cx="195.4" cy="490.1" r="0.79" fill="#3d3d3d"/>
  <circle cx="501.6" cy="190.8" r="1.12" fill="#3d3d3d"/>
  <circle cx="206.2" cy="523.0" r="1.28" fill="#3d3d3d"/>
  <circle cx="175.5" cy="387.6" r="1.21" fill="#3d3d3d"/>
  <circle cx="473.4" cy="189.8" r="1.36" fill="#3d3d3d"/>
  <circle cx="167.8" cy="419.5" r="1.46" fill="#3d3d3d"/>
  <circle cx="592.5" cy="499.7" r="0.82" fill="#3d3d3d"/>
  <circle cx="654.0" cy="437.5" r="0.97" fill="#3d3d3d"/>
  <circle cx="467.4" cy="192.4" r="1.35" fill="#3d3d3d"/>
  <circle cx="612.6" cy="370.8" r="1.33" fill="#3d3d3d"/>
  <circle cx="585.0" cy="281.0" r="0.83" fill="#3d3d3d"/>
  <circle cx="608.4" cy="328.1" r="0.83" fill="#3d3d3d"/>
  <circle cx="547.2" cy="571.3" r="1.15" fill="#3d3d3d"/>
  <circle cx="182.3" cy="482.1" r="1.19" fill="#3d3d3d"/>
  <circle cx="569.9" cy="228.6" r="1.35" fill="#3d3d3d"/>
  <circle cx="207.0" cy="527.7" r="0.83" fill="#3d3d3d"/>
  <circle cx="246.4" cy="580.6" r="1.37" fill="#3d3d3d"/>
  <circle cx="499.8" cy="747.8" r="1.44" fill="#3d3d3d"/>
  <circle cx="182.4" cy="505.4" r="0.78" fill="#3d3d3d"/>
  <circle cx="464.7" cy="783.3" r="0.94" fill="#3d3d3d"/>
  <circle cx="436.2" cy="609.8" r="1.20" fill="#3d3d3d"/>
  <circle cx="371.8" cy="178.4" r="1.48" fill="#3d3d3d"/>
</svg>
