<svg viewBox="0 0 800 800" xmlns="http://www.w3.org/2000/svg">
  <rect x="168.94" y="358.04" width="2.32" height="2.32" fill="#000000"/>
  <rect x="237.08" y="224.48" width="2.24" height="2.24" fill="#000000"/>
  <rect x="438.33" y="615.53" width="2.14" height="2.14" fill="#000000"/>
  <rect x="610.16" y="457.46" width="2.48" height="2.48" fill="#000000"/>
  <rect x="536.91" y="575.31" width="2.58" height="2.58" fill="#000000"/>
  <rect x="214.14" y="483.94" width="1.92" height="1.92" fill="#000000"/>
  <rect x="341.57" y="178.17" width="1.66" height="1.66" fill="#000000"/>
  <rect x="310.60" y="624.50" width="2.80" height="2.80" fill="#000000"/>
  <rect x="332.37" y="630.27" width="2.26" height="2.26" fill="#000000"/>
  <rect x="502.78" y="592.08" width="2.24" height="2.24" fill="#000000"/>
  <rect x="547.54" y="565.74" width="2.32" height="2.32" fill="#000000"/>
  <rect x="171.89" y="322.19" width="1.82" height="1.82" fill="#000000"/>
  <rect x="587.68" y="309.68" width="2.04" height="2.04" fill="#000000"/>
  <rect x="247.79" y="584.89" width="2.42" height="2.42" fill="#000000"/>
  <rect x="564.48" y="514.38" width="1.64" height="1.64" fill="#000000"/>
  <rect x="299.64" y="596.94" width="2.92" height="2.92" fill="#000000"/>
  <rect x="333.46" y="185.26" width="2.48" height="2.48" fill="#000000"/>
  <rect x="339.09" y="200.59" width="2.82" height="2.82" fill="#000000"/>
  <rect x="743.08" y="501.28" width="1.84" height="1.84" fill="#000000"/>
  <rect x="482.98" y="169.18" width="1.44" height="1.44" fill="#000000"/>
  <rect x="468.75" y="574.15" width="2.90" height="2.90" fill="#000000"/>
  <rect x="217.80" y="263.60" width="1.40" height="1.40" fill="#000000"/>
  <rect x="551.71" y="574.71" width="1.78" height="1.78" fill="#000000"/>
  <rect x="583.81" y="299.41" width="1.78" height="1.78" fill="#000000"/>
  <rect x="466.50" y="187.80" width="2.20" height="2.20" fill="#000000"/>
  <rect x="333.99" y="161.59" width="2.22" height="2.22" fill="#000000"/>
  <rect x="492.80" y="183.30" width="2.80" height="2.80" fill="#000000"/>
  <rect x="188.54" y="327.84" width="1.52" height="1.52" fill="#000000"/>
  <rect x="637.10" y="407.40" width="1.80" height="1.80" fill="#000000"/>
  <rect x="704.80" y="387.30" width="1.80" height="1.80" fill="#000000"/>
  <rect x="329.80" y="178.40" width="1.60" height="1.60" fill="#000000"/>
  <rect x="609.67" y="380.77" width="2.06" height="2.06" fill="#000000"/>
  <rect x="243.55" y="554.25" width="1.50" height="1.50" fill="#000000"/>
  <rect x="393.70" y="165.70" width="1.80" height="1.80" fill="#000000"/>
  <rect x="476.53" y="595.63" width="2.14" height="2.14" fill="#000000"/>
  <rect x="622.22" y="461.42" width="2.16" height="2.16" fill="#000000"/>
  <rect x="503.05" y="192.85" width="2.90" height="2.90" fill="#000000"/>
  <rect x="338.29" y="173.19" width="2.02" height="2.02" fill="#000000"/>
  <rect x="222.42" y="241.42" width="1.56" height="1.56" fill="#000000"/>
  <rect x="487.49" y="617.19" width="2.62" height="2.62" fill="#000000"/>
  <rect x="574.65" y="533.45" width="2.10" height="2.10" fill="#000000"/>
  <rect x="191.30" y="467.10" width="1.80" height="1.80" fill="#000000"/>
  <rect x="224.26" y="550.56" width="2.48" height="2.48" fill="#000000"/>
  <rect x="375.77" y="181.67" width="2.26" height="2.26" fill="#000000"/>
  <rect x="395.98" y="606.48" width="1.64" height="1.64" fill="#000000"/>
  <rect x="196.16" y="494.66" width="1.68" height="1.68" fill="#000000"/>
  <rect x="377.38" y="613.38" width="1.84" height="1.84" fill="#000000"/>
  <rect x="572.91" y="548.91" width="2.58" height="2.58" fill="#000000"/>
  <rect x="580.73" y="278.83" width="2.54" height="2.54" fill="#000000"/>
  <rect x="159.11" y="445.01" width="2.38" height="2.38" fill="#000000"/>
  <rect x="449.19" y="517.09" width="2.42" height="2.42" fill="#000000"/>
  <rect x="430.40" y="210.40" width="1.80" height="1.80" fill="#000000"/>
  <rect x="191.88" y="425.58" width="1.44" height="1.44" fill="#000000"/>
  <rect x="410.67" y="599.67" width="1.46" height="1.46" fill="#000000"/>
  <rect x="175.16" y="16.46" width="2.48" height="2.48" fill="#000000"/>
  <rect x="304.08" y="534.18" width="2.04" height="2.04" fill="#000000"/>
  <rect x="274.98" y="205.38" width="1.64" height="1.64" fill="#000000"/>
  <rect x="445.62" y="628.02" width="2.36" height="2.36" fill="#000000"/>
  <rect x="603.84" y="500.14" width="2.52" height="2.52" fill="#000000"/>
  <rect x="187.87" y="442.27" width="2.26" height="2.26" fill="#000000"/>
  <rect x="254.40" y="573.50" width="1.60" height="1.60" fill="#000000"/>
  <rect x="557.70" y="528.90" width="2.80" height="2.80" fill="#000000"/>
  <rect x="539.61" y="216.01" width="2.98" height="2.98" fill="#000000"/>
  <rect x="450.73" y="643.53" width="2.54" height="2.54" fill="#000000"/>
  <rect x="623.02" y="333.42" width="2.76" height="2.76" fill="#000000"/>
  <rect x="295.30" y="186.10" width="2.60" height="2.60" fill="#000000"/>
  <rect x="204.37" y="500.97" width="2.06" height="2.06" fill="#000000"/>
  <rect x="394.52" y="618.02" width="2.96" height="2.96" fill="#000000"/>
  <rect x="332.20" y="623.60" width="2.40" height="2.40" fill="#000000"/>
  <rect x="335.86" y="621.06" width="2.48" height="2.48" fill="#000000"/>
  <rect x="265.48" y="223.58" width="1.44" height="1.44" fill="#000000"/>
  <rect x="312.91" y="208.41" width="1.98" height="1.98" fill="#000000"/>
  <rect x="596.19" y="476.69" width="2.02" height="2.02" fill="#000000"/>
  <rect x="656.59" y="388.79" width="2.02" height="2.02" fill="#000000"/>
  <rect x="509.62" y="212.32" width="1.76" height="1.76" fill="#000000"/>
  <rect x="501.95" y="361.15" width="1.70" height="1.70" fill="#000000"/>
  <rect x="443.40" y="640.70" width="2.40" height="2.40" fill="#000000"/>
  <rect x="603.74" y="346.24" width="2.72" height="2.72" fill="#000000"/>
  <rect x="472.38" y="615.88" width="2.84" height="2.84" fill="#000000"/>
  <rect x="453.14" y="169.74" width="2.32" height="2.32" fill="#000000"/>
  <rect x="356.60" y="451.80" width="2.40" height="2.40" fill="#000000"/>
  <rect x="598.57" y="313.47" width="2.66" height="2.66" fill="#000000"/>
  <rect x="249.39" y="225.29" width="2.62" height="2.62" fill="#000000"/>
  <rect x="175.96" y="390.66" width="2.88" height="2.88" fill="#000000"/>
  <rect x="241.53" y="552.53" width="2.54" height="2.54" fill="#000000"/>
  <rect x="620.90" y="411.30" width="2.20" height="2.20" fill="#000000"/>
  <rect x="578.14" y="545.24" width="1.52" height="1.52" fill="#000000"/>
  <rect x="172.26" y="370.46" width="2.08" height="2.08" fill="#000000"/>
  <rect x="190.53" y="396.53" width="2.74" height="2.74" fill="#000000"/>
  <rect x="225.47" y="48.07" width="1.86" height="1.86" fill="#000000"/>
  <rect x="200.27" y="465.17" width="2.06" height="2.06" fill="#000000"/>
  <rect x="523.86" y="577.26" width="1.88" height="1.88" fill="#000000"/>
  <rect x="192.40" y="332.90" width="1.80" height="1.80" fill="#000000"/>
  <rect x="412.41" y="619.41" width="2.18" height="2.18" fill="#000000"/>
  <rect x="184.34" y="419.84" width="2.32" height="2.32" fill="#000000"/>
  <rect x="173.76" y="345.16" width="2.68" height="2.68" fill="#000000"/>
  <rect x="629.42" y="439.52" width="2.16" height="2.16" fill="#000000"/>
  <rect x="236.14" y="233.44" width="2.32" height="2.32" fill="#000000"/>
  <rect x="488.88" y="596.98" width="1.84" height="1.84" fill="#000000"/>
  <rect x="358.89" y="188.19" width="2.22" height="2.22" fill="#000000"/>
  <rect x="575.33" y="512.53" width="2.74" height="2.74" fill="#000000"/>
  <rect x="386.03" y="622.93" width="2.74" height="2.74" fill="#000000"/>
  <rect x="263.84" y="223.44" width="2.32" height="2.32" fill="#000000"/>
  <rect x="279.35" y="395.15" width="1.70" height="1.70" fill="#000000"/>
  <rect x="528.44" y="216.54" width="2.92" height="2.92" fill="#000000"/>
  <rect x="291.90" y="209.50" width="2.00" height="2.00" fill="#000000"/>
  <rect x="226.13" y="538.83" width="1.54" height="1.54" fill="#000000"/>
  <rect x="253.69" y="245.49" width="2.22" height="2.22" fill="#000000"/>
  <rect x="412.78" y="587.48" width="2.44" height="2.44" fill="#000000"/>
  <rect x="770.63" y="730.23" width="2.54" height="2.54" fill="#000000"/>
  <rect x="166.10" y="426.00" width="2.60" height="2.60" fill="#000000"/>
  <rect x="599.51" y="512.51" width="2.38" height="2.38" fill="#000000"/>
  <rect x="430.02" y="623.92" width="2.16" height="2.16" fill="#000000"/>
  <rect x="459.23" y="184.03" width="2.34" height="2.34" fill="#000000"/>
  <rect x="451.62" y="164.22" width="1.96" height="1.96" fill="#000000"/>
  <rect x="633.68" y="454.18" width="2.84" height="2.84" fill="#000000"/>
  <rect x="190.44" y="289.04" width="1.72" height="1.72" fill="#000000"/>
  <rect x="466.68" y="599.88" width="2.44" height="2.44" fill="#000000"/>
  <rect x="174.63" y="413.63" width="1.94" height="1.94" fill="#000000"/>
  <rect x="490.52" y="192.02" width="2.36" height="2.36" fill="#000000"/>
  <rect x="613.80" y="307.00" width="2.80" height="2.80" fill="#000000"/>
  <rect x="612.07" y="491.77" width="1.46" height="1.46" fill="#000000"/>
  <rect x="547.93" y="224.93" width="1.54" height="1.54" fill="#000000"/>
  <rect x="592.66" y="312.96" width="2.08" height="2.08" fill="#000000"/>
  <rect x="519.56" y="581.86" width="2.48" height="2.48" fill="#000000"/>
  <rect x="401.32" y="173.92" width="1.56" height="1.56" fill="#000000"/>
  <rect x="195.99" y="470.99" width="2.82" height="2.82" fill="#000000"/>
  <rect x="424.64" y="477.54" width="1.52" height="1.52" fill="#000000"/>
  <rect x="171.90" y="398.40" width="2.60" height="2.60" fill="#000000"/>
  <rect x="388.68" y="610.78" width="2.24" height="2.24" fill="#000000"/>
  <rect x="290.62" y="588.52" width="2.16" height="2.16" fill="#000000"/>
  <rect x="218.77" y="362.77" width="1.66" height="1.66" fill="#000000"/>
  <rect x="200.26" y="457.46" width="2.68" height="2.68" fill="#000000"/>
  <rect x="393.91" y="620.61" width="2.98" height="2.98" fill="#000000"/>
  <rect x="399.21" y="175.11" width="2.78" height="2.78" fill="#000000"/>
  <rect x="474.93" y="607.63" width="1.94" height="1.94" fill="#000000"/>
  <rect x="219.63" y="315.73" width="2.14" height="2.14" fill="#000000"/>
  <rect x="233.09" y="551.09" width="2.22" height="2.22" fill="#000000"/>
  <rect x="497.31" y="188.21" width="1.58" height="1.58" fill="#000000"/>
  <rect x="484.42" y="606.22" width="1.76" height="1.76" fill="#000000"/>
  <rect x="200.51" y="310.11" width="2.18" height="2.18" fill="#000000"/>
  <rect x="594.32" y="491.52" width="2.76" height="2.76" fill="#000000"/>
  <rect x="601.03" y="487.23" width="2.14" height="2.14" fill="#000000"/>
  <rect x="623.24" y="334.24" width="2.72" height="2.72" fill="#000000"/>
  <rect x="447.45" y="175.75" width="2.10" height="2.10" fill="#000000"/>
  <rect x="160.45" y="423.35" width="2.10" height="2.10" fill="#000000"/>
  <rect x="269.54" y="575.74" width="2.12" height="2.12" fill="#000000"/>
  <rect x="509.22" y="309.52" width="1.76" height="1.76" fill="#000000"/>
  <rect x="154.08" y="377.78" width="2.84" height="2.84" fill="#000000"/>
  <rect x="268.26" y="583.86" width="2.48" height="2.48" fill="#000000"/>
  <rect x="154.99" y="332.89" width="1.42" height="1.42" fill="#000000"/>
  <rect x="548.22" y="247.72" width="2.16" height="2.16" fill="#000000"/>
  <rect x="215.84" y="498.14" width="2.12" height="2.12" fill="#000000"/>
  <rect x="764.60" y="104.40" width="1.60" height="1.60" fill="#000000"/>
  <rect x="166.92" y="418.32" width="2.96" height="2.96" fill="#000000"/>
  <rect x="208.90" y="492.60" width="2.60" height="2.60" fill="#000000"/>
  <rect x="614.52" y="481.62" width="2.16" height="2.16" fill="#000000"/>
  <rect x="198.50" y="314.60" width="1.80" height="1.80" fill="#000000"/>
  <rect x="349.30" y="159.40" width="2.60" height="2.60" fill="#000000"/>
  <rect x="541.64" y="582.74" width="1.52" height="1.52" fill="#000000"/>
  <rect x="370.72" y="613.22" width="1.56" height="1.56" fill="#000000"/>
  <rect x="450.73" y="185.03" width="2.94" height="2.94" fill="#000000"/>
  <rect x="304.57" y="618.87" width="1.46" height="1.46" fill="#000000"/>
  <rect x="599.74" y="472.54" width="1.92" height="1.92" fill="#000000"/>
  <rect x="450.01" y="611.31" width="2.18" height="2.18" fill="#000000"/>
  <rect x="213.01" y="520.21" width="1.78" height="1.78" fill="#000000"/>
  <rect x="251.24" y="574.44" width="2.32" height="2.32" fill="#000000"/>
  <rect x="215.90" y="527.00" width="2.40" height="2.40" fill="#000000"/>
  <rect x="227.40" y="520.30" width="2.60" height="2.60" fill="#000000"/>
  <rect x="518.41" y="238.01" width="1.98" height="1.98" fill="#000000"/>
  <rect x="304.41" y="631.71" width="2.18" height="2.18" fill="#000000"/>
  <rect x="357.96" y="184.46" width="1.68" height="1.68" fill="#000000"/>
  <rect x="602.45" y="321.65" width="2.30" height="2.30" fill="#000000"/>
  <rect x="628.34" y="369.04" width="2.32" height="2.32" fill="#000000"/>
  <rect x="301.32" y="192.72" width="2.96" height="2.96" fill="#000000"/>
  <rect x="273.84" y="217.44" width="2.52" height="2.52" fill="#000000"/>
  <rect x="614.04" y="354.64" width="2.92" height="2.92" fill="#000000"/>
  <rect x="577.64" y="515.34" width="2.72" height="2.72" fill="#000000"/>
  <rect x="610.26" y="491.96" width="2.48" height="2.48" fill="#000000"/>
  <rect x="579.01" y="536.51" width="1.98" height="1.98" fill="#000000"/>
  <rect x="308.38" y="171.08" width="1.44" height="1.44" fill="#000000"/>
  <rect x="506.29" y="593.99" width="1.82" height="1.82" fill="#000000"/>
  <rect x="334.57" y="197.27" width="2.86" height="2.86" fill="#000000"/>
  <rect x="488.58" y="313.98" width="1.84" height="1.84" fill="#000000"/>
  <rect x="335.51" y="603.01" width="2.58" height="2.58" fill="#000000"/>
  <rect x="555.05" y="226.45" width="1.50" height="1.50" fill="#000000"/>
  <rect x="190.00" y="446.80" width="2.20" height="2.20" fill="#000000"/>
  <rect x="193.95" y="436.85" width="2.70" height="2.70" fill="#000000"/>
  <rect x="597.57" y="440.87" width="1.86" height="1.86" fill="#000000"/>
  <rect x="324.37" y="195.77" width="2.86" height="2.86" fill="#000000"/>
  <rect x="531.67" y="227.37" width="1.66" height="1.66" fill="#000000"/>
  <rect x="627.69" y="410.19" width="1.62" height="1.62" fill="#000000"/>
  <rect x="600.47" y="451.27" width="2.26" height="2.26" fill="#000000"/>
  <rect x="333.36" y="627.36" width="2.68" height="2.68" fill="#000000"/>
  <rect x="609.78" y="467.68" width="2.84" height="2.84" fill="#000000"/>
  <rect x="501.89" y="147.59" width="2.82" height="2.82" fill="#000000"/>
  <rect x="567.69" y="542.79" width="2.02" height="2.02" fill="#000000"/>
  <rect x="225.40" y="218.10" width="2.00" height="2.00" fill="#000000"/>
  <rect x="615.55" y="321.25" width="2.10" height="2.10" fill="#000000"/>
  <rect x="401.01" y="175.11" width="1.98" height="1.98" fill="#000000"/>
  <rect x="225.80" y="552.00" width="2.00" height="2.00" fill="#000000"/>
  <rect x="630.11" y="422.71" width="2.18" height="2.18" fill="#000000"/>
  <rect x="484.82" y="608.12" width="1.56" height="1.56" fill="#000000"/>
  <rect x="234.35" y="536.75" width="2.50" height="2.50" fill="#000000"/>
  <rect x="513.68" y="580.08" width="2.64" height="2.64" fill="#000000"/>
  <rect x="187.94" y="434.64" width="1.92" height="1.92" fill="#000000"/>
  <rect x="250.33" y="559.13" width="2.74" height="2.74" fill="#000000"/>
  <rect x="473.92" y="198.32" width="2.96" height="2.96" fill="#000000"/>
  <rect x="549.42" y="254.52" width="2.96" height="2.96" fill="#000000"/>
  <rect x="208.80" y="514.40" width="2.00" height="2.00" fill="#000000"/>
  <rect x="197.55" y="488.05" width="1.50" height="1.50" fill="#000000"/>
  <rect x="507.41" y="590.01" width="1.78" height="1.78" fill="#000000"/>
  <rect x="505.76" y="612.76" width="2.28" height="2.28" fill="#000000"/>
  <rect x="633.40" y="415.60" width="2.60" height="2.60" fill="#000000"/>
  <rect x="618.62" y="476.82" width="2.76" height="2.76" fill="#000000"/>
  <rect x="392.87" y="189.27" width="1.66" height="1.66" fill="#000000"/>
  <rect x="769.79" y="164.49" width="2.82" height="2.82" fill="#000000"/>
  <rect x="256.40" y="730.30" width="2.80" height="2.80" fill="#000000"/>
  <rect x="287.69" y="181.99" width="2.62" height="2.62" fill="#000000"/>
  <rect x="497.13" y="594.63" width="2.34" height="2.34" fill="#000000"/>
  <rect x="263.01" y="105.81" width="1.58" height="1.58" fill="#000000"/>
  <rect x="202.66" y="312.76" width="2.48" height="2.48" fill="#000000"/>
  <rect x="390.28" y="339.68" width="2.84" height="2.84" fill="#000000"/>
  <rect x="179.24" y="356.44" width="1.92" height="1.92" fill="#000000"/>
  <rect x="580.83" y="274.53" width="2.94" height="2.94" fill="#000000"/>
  <rect x="253.12" y="565.02" width="1.76" height="1.76" fill="#000000"/>
  <rect x="413.15" y="174.55" width="2.70" height="2.70" fill="#000000"/>
  <rect x="515.37" y="220.27" width="2.86" height="2.86" fill="#000000"/>
  <rect x="171.33" y="376.33" width="2.74" height="2.74" fill="#000000"/>
  <rect x="309.04" y="585.74" width="1.92" height="1.92" fill="#000000"/>
  <rect x="697.45" y="283.15" width="2.90" height="2.90" fill="#000000"/>
  <rect x="606.22" y="495.72" width="1.76" height="1.76" fill="#000000"/>
  <rect x="616.37" y="419.67" width="1.86" height="1.86" fill="#000000"/>
  <rect x="669.33" y="511.33" width="1.54" height="1.54" fill="#000000"/>
  <rect x="568.20" y="240.40" width="2.00" height="2.00" fill="#000000"/>
  <rect x="328.06" y="598.96" width="1.48" height="1.48" fill="#000000"/>
  <rect x="486.87" y="188.47" width="1.66" height="1.66" fill="#000000"/>
  <rect x="513.37" y="558.37" width="2.46" height="2.46" fill="#000000"/>
  <rect x="623.54" y="475.94" width="2.72" height="2.72" fill="#000000"/>
  <rect x="597.92" y="474.82" width="2.76" height="2.76" fill="#000000"/>
  <rect x="189.55" y="489.95" width="1.90" height="1.90" fill="#000000"/>
  <rect x="210.37" y="322.87" width="1.46" height="1.46" fill="#000000"/>
  <rect x="216.71" y="247.71" width="1.98" height="1.98" fill="#000000"/>
  <rect x="329.03" y="621.13" width="2.74" height="2.74" fill="#000000"/>
  <rect x="600.62" y="380.32" width="2.76" height="2.76" fill="#000000"/>
  <rect x="248.14" y="577.64" width="2.92" height="2.92" fill="#000000"/>
  <rect x="234.68" y="237.08" width="2.44" height="2.44" fill="#000000"/>
  <rect x="250.90" y="244.80" width="2.40" height="2.40" fill="#000000"/>
  <rect x="416.53" y="631.23" width="1.74" height="1.74" fill="#000000"/>
  <rect x="200.96" y="451.26" width="2.28" height="2.28" fill="#000000"/>
  <rect x="280.51" y="229.51" width="2.58" height="2.58" fill="#000000"/>
  <rect x="538.49" y="414.89" width="1.82" height="1.82" fill="#000000"/>
  <rect x="372.11" y="284.91" width="2.18" height="2.18" fill="#000000"/>
  <rect x="355.85" y="154.95" width="1.70" height="1.70" fill="#000000"/>
  <rect x="411.71" y="638.91" width="1.58" height="1.58" fill="#000000"/>
  <rect x="581.46" y="568.66" width="2.08" height="2.08" fill="#000000"/>
  <rect x="150.17" y="361.17" width="2.66" height="2.66" fill="#000000"/>
  <rect x="532.58" y="545.48" width="2.84" height="2.84" fill="#000000"/>
  <rect x="212.94" y="253.84" width="1.92" height="1.92" fill="#000000"/>
  <rect x="613.05" y="454.15" width="2.30" height="2.30" fill="#000000"/>
  <rect x="522.51" y="591.21" width="2.38" height="2.38" fill="#000000"/>
  <rect x="593.87" y="477.47" width="2.46" height="2.46" fill="#000000"/>
  <rect x="157.06" y="448.56" width="1.68" height="1.68" fill="#000000"/>
  <rect x="164.12" y="438.82" width="2.36" height="2.36" fill="#000000"/>
  <rect x="229.17" y="265.77" width="2.66" height="2.66" fill="#000000"/>
  <rect x="197.18" y="345.28" width="1.64" height="1.64" fill="#000000"/>
  <rect x="454.50" y="609.30" width="2.20" height="2.20" fill="#000000"/>
  <rect x="275.29" y="568.79" width="1.82" height="1.82" fill="#000000"/>
  <rect x="447.25" y="609.65" width="2.10" height="2.10" fill="#000000"/>
  <rect x="593.55" y="524.05" width="2.30" height="2.30" fill="#000000"/>
  <rect x="610.92" y="351.32" width="2.56" height="2.56" fill="#000000"/>
  <rect x="186.02" y="308.62" width="2.16" height="2.16" fill="#000000"/>
  <rect x="239.51" y="518.21" width="2.78" height="2.78" fill="#000000"/>
  <rect x="591.74" y="506.34" width="2.32" height="2.32" fill="#000000"/>
  <rect x="164.29" y="421.39" width="1.82" height="1.82" fill="#000000"/>
  <rect x="551.66" y="219.76" width="1.48" height="1.48" fill="#000000"/>
  <rect x="558.75" y="238.25" width="1.50" height="1.50" fill="#000000"/>
  <rect x="566.59" y="795.49" width="2.62" height="2.62" fill="#000000"/>
  <rect x="346.84" y="179.64" width="2.92" height="2.92" fill="#000000"/>
  <rect x="633.94" y="403.04" width="2.92" height="2.92" fill="#000000"/>
  <rect x="297.11" y="598.21" width="1.58" height="1.58" fill="#000000"/>
  <rect x="260.67" y="559.87" width="1.86" height="1.86" fill="#000000"/>
  <rect x="211.98" y="523.68" width="1.84" height="1.84" fill="#000000"/>
  <rect x="638.52" y="392.52" width="2.76" height="2.76" fill="#000000"/>
  <rect x="546.69" y="146.79" width="2.22" height="2.22" fill="#000000"/>
  <rect x="238.20" y="551.70" width="2.40" height="2.40" fill="#000000"/>
  <rect x="215.66" y="521.26" width="1.88" height="1.88" fill="#000000"/>
  <rect x="422.97" y="174.47" width="2.46" height="2.46" fill="#000000"/>
  <rect x="519.46" y="565.16" width="2.88" height="2.88" fill="#000000"/>
  <rect x="426.99" y="618.69" width="2.62" height="2.62" fill="#000000"/>
  <rect x="240.99" y="267.29" width="2.62" height="2.62" fill="#000000"/>
  <rect x="612.90" y="458.90" width="1.60" height="1.60" fill="#000000"/>
  <rect x="598.46" y="486.76" width="1.68" height="1.68" fill="#000000"/>
  <rect x="583.53" y="245.83" width="2.34" height="2.34" fill="#000000"/>
  <rect x="560.22" y="234.82" width="2.76" height="2.76" fill="#000000"/>
  <rect x="378.44" y="611.54" width="2.32" height="2.32" fill="#000000"/>
  <rect x="701.99" y="55.39" width="2.02" height="2.02" fill="#000000"/>
  <rect x="402.72" y="603.22" width="2.36" height="2.36" fill="#000000"/>
  <rect x="537.92" y="564.02" width="2.36" height="2.36" fill="#000000"/>
  <rect x="245.02" y="228.42" width="2.56" height="2.56" fill="#000000"/>
  <rect x="533.78" y="574.58" width="2.24" height="2.24" fill="#000000"/>
  <rect x="495.53" y="588.93" width="2.74" height="2.74" fill="#000000"/>
  <rect x="585.89" y="300.69" width="2.02" height="2.02" fill="#000000"/>
  <rect x="540.31" y="545.41" width="2.98" height="2.98" fill="#000000"/>
  <rect x="225.98" y="610.88" width="1.44" height="1.44" fill="#000000"/>
  <rect x="94.27" y="639.07" width="2.86" height="2.86" fill="#000000"/>
  <rect x="191.17" y="459.57" width="1.86" height="1.86" fill="#000000"/>
  <rect x="262.32" y="548.72" width="2.36" height="2.36" fill="#000000"/>
  <rect x="215.63" y="212.83" width="2.54" height="2.54" fill="#000000"/>
  <rect x="212.32" y="271.82" width="2.16" height="2.16" fill="#000000"/>
  <rect x="334.81" y="606.61" width="2.38" height="2.38" fill="#000000"/>
  <rect x="566.82" y="554.92" width="2.36" height="2.36" fill="#000000"/>
  <rect x="239.25" y="93.05" width="2.50" height="2.50" fill="#000000"/>
  <rect x="162.86" y="540.06" width="2.88" height="2.88" fill="#000000"/>
  <rect x="231.83" y="318.63" width="1.74" height="1.74" fill="#000000"/>
  <rect x="782.89" y="6.19" width="1.42" height="1.42" fill="#000000"/>
  <rect x="438.49" y="157.59" width="1.62" height="1.62" fill="#000000"/>
  <rect x="597.87" y="510.27" width="2.66" height="2.66" fill="#000000"/>
  <rect x="193.02" y="336.72" width="1.96" height="1.96" fill="#000000"/>
  <rect x="496.34" y="587.64" width="1.52" height="1.52" fill="#000000"/>
  <rect x="479.54" y="618.04" width="2.72" height="2.72" fill="#000000"/>
  <rect x="748.00" y="427.50" width="2.60" height="2.60" fill="#000000"/>
  <rect x="257.11" y="558.71" width="1.78" height="1.78" fill="#000000"/>
  <rect x="597.46" y="495.86" width="2.48" height="2.48" fill="#000000"/>
  <rect x="323.94" y="588.14" width="1.52" height="1.52" fill="#000000"/>
  <rect x="386.63" y="193.03" width="2.34" height="2.34" fill="#000000"/>
  <rect x="608.30" y="393.00" width="1.80" height="1.80" fill="#000000"/>
  <rect x="194.61" y="489.31" width="1.58" height="1.58" fill="#000000"/>
  <rect x="500.48" y="189.68" width="2.24" height="2.24" fill="#000000"/>
  <rect x="204.92" y="521.72" width="2.56" height="2.56" fill="#000000"/>
  <rect x="174.29" y="386.39" width="2.42" height="2.42" fill="#000000"/>
  <rect x="472.04" y="188.44" width="2.72" height="2.72" fill="#000000"/>
  <rect x="166.34" y="418.04" width="2.92" height="2.92" fill="#000000"/>
  <rect x="591.68" y="498.88" width="1.64" height="1.64" fill="#000000"/>
  <rect x="653.03" y="436.53" width="1.94" height="1.94" fill="#000000"/>
  <rect x="466.05" y="191.05" width="2.70" height="2.70" fill="#000000"/>
  <rect x="611.27" y="369.47" width="2.66" height="2.66" fill="#000000"/>
  <rect x="584.17" y="280.17" width="1.66" height="1.66" fill="#000000"/>
  <rect x="607.57" y="327.27" width="1.66" height="1.66" fill="#000000"/>
  <rect x="546.05" y="570.15" width="2.30" height="2.30" fill="#000000"/>
  <rect x="181.11" y="480.91" width="2.38" height="2.38" fill="#000000"/>
  <rect x="568.55" y="227.25" width="2.70" height="2.70" fill="#000000"/>
  <rect x="206.17" y="526.87" width="1.66" height="1.66" fill="#000000"/>
  <rect x="245.03" y="579.23" width="2.74" height="2.74" fill="#000000"/>
  <rect x="498.36" y="746.36" width="2.88" height="2.88" fill="#000000"/>
  <rect x="181.62" y="504.62" width="1.56" height="1.56" fill="#000000"/>
  <rect x="463.76" y="782.36" width="1.88" height="1.88" fill="#000000"/>
  <rect x="435.00" y="608.60" width="2.40" height="2.40" fill="#000000"/>
  <rect x="370.32" y="176.92" width="2.96" height="2.96" fill="#000000"/>
</svg>
