<svg width="15cm" height="21cm" viewBox="0 0 1500 2100" xmlns="http://www.w3.org/2000/svg">
  <rect x="753.01" y="1065.99" width="4.5" height="4.5" fill="none" stroke="#000000" stroke-width="0.5"/>
  <rect x="689.37" y="1090.52" width="3.76" height="3.76" fill="#000000"/>
  <rect x="685.18" y="1086.73" width="4.58" height="4.58" fill="none" stroke="#000000" stroke-width="0.5"/>
  <rect x="822.27" y="1012.53" width="2.68" height="2.68" fill="#000000"/>
  <rect x="831.15" y="1088.69" width="3.1" height="3.1" fill="none" stroke="#000000" stroke-width="0.5"/>
  <rect x="747.98" y="1054.82" width="3.7" height="3.7" fill="#000000"/>
  <rect x="753.54" y="1061.15" width="3.77" height="3.77" fill="#000000"/>
  <rect x="735.31" y="1050.47" width="2.41" height="2.41" fill="#000000"/>
  <rect x="717.83" y="1006.95" width="4.58" height="4.58" fill="none" stroke="#000000" stroke-width="0.5"/>
  <rect x="736.5" y="1066.29" width="2.42" height="2.42" fill="#000000"/>
  <rect x="718.76" y="1077.59" width="4.38" height="4.38" fill="#000000"/>
  <rect x="754.64" y="1057.38" width="4.82" height="4.82" fill="none" stroke="#000000" stroke-width="0.5"/>
  <rect x="725.6" y="1008.56" width="4.85" height="4.85" fill="#000000"/>
  <rect x="813.32" y="1115.7" width="3.52" height="3.52" fill="#000000"/>
  <rect x="756.12" y="1053.98" width="2.3" height="2.3" fill="#000000"/>
  <rect x="820.81" y="1034.17" width="3.2" height="3.2" fill="#000000"/>
  <rect x="858.54" y="958.42" width="4.13" height="4.13" fill="none" stroke="#000000" stroke-width="0.5"/>
  <rect x="613.0" y="1134.75" width="4.14" height="4.14" fill="none" stroke="#000000" stroke-width="0.5"/>
  <rect x="751.22" y="1051.61" width="4.76" height="4.76" fill="#000000"/>
  <rect x="741.87" y="1044.36" width="3.81" height="3.81" fill="none" stroke="#000000" stroke-width="0.5"/>
  <rect x="727.9" y="1001.97" width="2.27" height="2.27" fill="none" stroke="#000000" stroke-width="0.5"/>
  <rect x="761.32" y="1055.32" width="4.79" height="4.79" fill="none" stroke="#000000" stroke-width="0.5"/>
  <rect x="787.18" y="1017.53" width="2.58" height="2.58" fill="#000000"/>
  <rect x="745.08" y="1032.05" width="2.44" height="2.44" fill="#000000"/>
  <rect x="804.71" y="1130.18" width="3.6" height="3.6" fill="#000000"/>
  <rect x="775.71" y="1043.12" width="4.19" height="4.19" fill="#000000"/>
  <rect x="768.97" y="1022.82" width="2.49" height="2.49" fill="#000000"/>
  <rect x="748.22" y="1060.63" width="2.97" height="2.97" fill="#000000"/>
  <rect x="784.85" y="1050.63" width="2.25" height="2.25" fill="#000000"/>
  <rect x="833.84" y="1043.91" width="4.66" height="4.66" fill="#000000"/>
  <rect x="785.1" y="1065.82" width="4.86" height="4.86" fill="#000000"/>
  <rect x="644.06" y="1122.16" width="3.57" height="3.57" fill="#000000"/>
  <rect x="749.88" y="1054.92" width="3.4" height="3.4" fill="#000000"/>
  <rect x="771.33" y="1027.14" width="4.64" height="4.64" fill="#000000"/>
  <rect x="744.31" y="1020.39" width="4.92" height="4.92" fill="#000000"/>
  <rect x="891.94" y="991.11" width="3.54" height="3.54" fill="#000000"/>
  <rect x="731.04" y="1066.15" width="3.32" height="3.32" fill="#000000"/>
  <rect x="697.78" y="1114.04" width="4.29" height="4.29" fill="#000000"/>
  <rect x="764.29" y="1054.68" width="4.09" height="4.09" fill="#000000"/>
  <rect x="719.37" y="1096.49" width="4.39" height="4.39" fill="none" stroke="#000000" stroke-width="0.5"/>
  <rect x="665.52" y="1079.59" width="4.1" height="4.1" fill="none" stroke="#000000" stroke-width="0.5"/>
  <rect x="800.16" y="1037.41" width="4.22" height="4.22" fill="#000000"/>
  <rect x="755.31" y="1102.5" width="2.65" height="2.65" fill="#000000"/>
  <rect x="852.55" y="1030.58" width="3.64" height="3.64" fill="#000000"/>
  <rect x="734.1" y="1050.12" width="2.42" height="2.42" fill="#000000"/>
  <rect x="740.22" y="1057.98" width="4.58" height="4.58" fill="none" stroke="#000000" stroke-width="0.5"/>
  <rect x="747.25" y="1057.78" width="4.95" height="4.95" fill="#000000"/>
  <rect x="789.37" y="1050.47" width="2.21" height="2.21" fill="none" stroke="#000000" stroke-width="0.5"/>
  <rect x="747.82" y="1055.66" width="4.46" height="4.46" fill="#000000"/>
  <rect x="764.74" y="1045.99" width="3.97" height="3.97" fill="#000000"/>
  <rect x="851.42" y="1034.1" width="3.74" height="3.74" fill="#000000"/>
  <rect x="729.92" y="1076.43" width="4.2" height="4.2" fill="#000000"/>
  <rect x="740.68" y="1013.16" width="3.1" height="3.1" fill="#000000"/>
  <rect x="753.97" y="1060.66" width="3.82" height="3.82" fill="#000000"/>
  <rect x="667.25" y="1081.18" width="2.75" height="2.75" fill="#000000"/>
  <rect x="778.78" y="1080.7" width="3.92" height="3.92" fill="#000000"/>
  <rect x="734.61" y="1081.66" width="4.0" height="4.0" fill="#000000"/>
  <rect x="646.72" y="1104.7" width="4.4" height="4.4" fill="#000000"/>
  <rect x="770.83" y="1061.84" width="4.08" height="4.08" fill="#000000"/>
  <rect x="706.36" y="1074.05" width="3.45" height="3.45" fill="#000000"/>
  <rect x="736.73" y="1063.98" width="4.11" height="4.11" fill="#000000"/>
  <rect x="861.33" y="1090.29" width="2.23" height="2.23" fill="#000000"/>
  <rect x="680.04" y="1061.4" width="4.14" height="4.14" fill="#000000"/>
  <rect x="753.17" y="1033.26" width="4.12" height="4.12" fill="#000000"/>
  <rect x="807.44" y="1007.72" width="4.7" height="4.7" fill="#000000"/>
  <rect x="759.32" y="1044.52" width="3.4" height="3.4" fill="#000000"/>
  <rect x="832.65" y="1001.64" width="3.43" height="3.43" fill="#000000"/>
  <rect x="739.84" y="1055.76" width="2.26" height="2.26" fill="none" stroke="#000000" stroke-width="0.5"/>
  <rect x="679.91" y="1046.99" width="3.87" height="3.87" fill="#000000"/>
  <rect x="677.82" y="1166.61" width="2.61" height="2.61" fill="#000000"/>
  <rect x="712.34" y="1076.25" width="3.02" height="3.02" fill="#000000"/>
  <rect x="770.29" y="1054.22" width="4.74" height="4.74" fill="#000000"/>
  <rect x="740.15" y="1065.58" width="2.27" height="2.27" fill="#000000"/>
  <rect x="704.48" y="1077.28" width="3.41" height="3.41" fill="#000000"/>
  <rect x="758.67" y="1050.54" width="3.55" height="3.55" fill="#000000"/>
  <rect x="737.04" y="1068.12" width="2.26" height="2.26" fill="none" stroke="#000000" stroke-width="0.5"/>
  <rect x="748.56" y="1064.84" width="3.71" height="3.71" fill="#000000"/>
  <rect x="664.52" y="1094.4" width="3.65" height="3.65" fill="#000000"/>
  <rect x="739.12" y="1056.25" width="3.81" height="3.81" fill="#000000"/>
  <rect x="756.78" y="1059.7" width="4.52" height="4.52" fill="#000000"/>
  <rect x="656.16" y="1273.86" width="2.41" height="2.41" fill="none" stroke="#000000" stroke-width="0.5"/>
  <rect x="402.51" y="1242.87" width="2.21" height="2.21" fill="none" stroke="#000000" stroke-width="0.5"/>
  <rect x="1091.48" y="957.03" width="3.0" height="3.0" fill="#000000"/>
  <rect x="714.02" y="1010.53" width="2.87" height="2.87" fill="none" stroke="#000000" stroke-width="0.5"/>
  <rect x="958.64" y="900.43" width="1.59" height="1.59" fill="#000000"/>
  <rect x="1018.93" y="927.13" width="2.97" height="2.97" fill="none" stroke="#000000" stroke-width="0.5"/>
  <rect x="854.31" y="1131.37" width="1.9" height="1.9" fill="#000000"/>
  <rect x="815.04" y="1031.42" width="3.03" height="3.03" fill="none" stroke="#000000" stroke-width="0.5"/>
  <rect x="587.77" y="1139.45" width="3.35" height="3.35" fill="#000000"/>
  <rect x="681.99" y="1088.42" width="2.16" height="2.16" fill="#000000"/>
  <rect x="693.98" y="1040.42" width="2.68" height="2.68" fill="#000000"/>
  <rect x="383.76" y="1116.55" width="2.79" height="2.79" fill="none" stroke="#000000" stroke-width="0.5"/>
  <rect x="262.37" y="1369.63" width="3.31" height="3.31" fill="#000000"/>
  <rect x="1126.49" y="743.74" width="2.52" height="2.52" fill="#000000"/>
  <rect x="183.01" y="1293.14" width="2.7" height="2.7" fill="none" stroke="#000000" stroke-width="0.5"/>
  <rect x="659.28" y="1099.96" width="1.36" height="1.36" fill="none" stroke="#000000" stroke-width="0.5"/>
  <rect x="421.88" y="1241.33" width="1.16" height="1.16" fill="none" stroke="#000000" stroke-width="0.5"/>
  <rect x="456.53" y="1146.19" width="1.33" height="1.33" fill="none" stroke="#000000" stroke-width="0.5"/>
  <rect x="848.86" y="1033.41" width="1.1" height="1.1" fill="#000000"/>
  <rect x="810.36" y="974.97" width="3.29" height="3.29" fill="none" stroke="#000000" stroke-width="0.5"/>
  <rect x="382.76" y="1248.68" width="2.79" height="2.79" fill="#000000"/>
  <rect x="940.66" y="967.87" width="2.37" height="2.37" fill="#000000"/>
  <rect x="1450.65" y="724.95" width="2.93" height="2.93" fill="none" stroke="#000000" stroke-width="0.5"/>
  <rect x="617.42" y="1132.1" width="2.13" height="2.13" fill="#000000"/>
  <rect x="732.64" y="1083.57" width="1.77" height="1.77" fill="none" stroke="#000000" stroke-width="0.5"/>
  <rect x="1035.85" y="803.98" width="2.64" height="2.64" fill="#000000"/>
  <rect x="907.53" y="1026.83" width="3.37" height="3.37" fill="none" stroke="#000000" stroke-width="0.5"/>
  <rect x="503.88" y="1130.91" width="1.15" height="1.15" fill="#000000"/>
  <rect x="841.45" y="1101.31" width="1.12" height="1.12" fill="none" stroke="#000000" stroke-width="0.5"/>
  <rect x="524.31" y="1077.5" width="1.12" height="1.12" fill="#000000"/>
  <rect x="677.26" y="1154.9" width="2.22" height="2.22" fill="#000000"/>
  <rect x="661.8" y="1132.65" width="1.95" height="1.95" fill="#000000"/>
  <rect x="139.47" y="1340.68" width="2.91" height="2.91" fill="none" stroke="#000000" stroke-width="0.5"/>
  <rect x="922.61" y="981.79" width="1.52" height="1.52" fill="#000000"/>
  <rect x="1001.58" y="983.4" width="2.02" height="2.02" fill="none" stroke="#000000" stroke-width="0.5"/>
  <rect x="581.27" y="1111.88" width="1.95" height="1.95" fill="none" stroke="#000000" stroke-width="0.5"/>
  <rect x="803.79" y="1203.46" width="2.78" height="2.78" fill="#000000"/>
  <rect x="527.11" y="1092.1" width="2.66" height="2.66" fill="none" stroke="#000000" stroke-width="0.5"/>
  <rect x="925.28" y="986.08" width="2.22" height="2.22" fill="none" stroke="#000000" stroke-width="0.5"/>
  <rect x="286.13" y="1302.26" width="2.72" height="2.72" fill="#000000"/>
  <rect x="589.3" y="1213.13" width="2.41" height="2.41" fill="none" stroke="#000000" stroke-width="0.5"/>
  <rect x="794.23" y="1066.64" width="1.94" height="1.94" fill="none" stroke="#000000" stroke-width="0.5"/>
  <rect x="976.44" y="913.51" width="2.02" height="2.02" fill="none" stroke="#000000" stroke-width="0.5"/>
  <rect x="1199.32" y="1034.49" width="1.87" height="1.87" fill="#000000"/>
  <rect x="1382.47" y="797.45" width="1.52" height="1.52" fill="#000000"/>
  <rect x="405.54" y="1136.67" width="1.73" height="1.73" fill="#000000"/>
  <rect x="328.47" y="1334.5" width="1.59" height="1.59" fill="none" stroke="#000000" stroke-width="0.5"/>
  <rect x="878.93" y="963.36" width="1.89" height="1.89" fill="none" stroke="#000000" stroke-width="0.5"/>
  <rect x="273.6" y="1260.68" width="2.0" height="2.0" fill="none" stroke="#000000" stroke-width="0.5"/>
  <rect x="679.49" y="1055.98" width="1.65" height="1.65" fill="#000000"/>
  <rect x="1007.66" y="1021.43" width="2.54" height="2.54" fill="none" stroke="#000000" stroke-width="0.5"/>
  <rect x="779.72" y="986.11" width="2.53" height="2.53" fill="#000000"/>
  <rect x="308.37" y="1231.17" width="1.49" height="1.49" fill="none" stroke="#000000" stroke-width="0.5"/>
  <rect x="791.01" y="1028.37" width="1.9" height="1.9" fill="#000000"/>
  <rect x="774.32" y="961.88" width="2.63" height="2.63" fill="#000000"/>
  <rect x="806.19" y="1063.96" width="2.13" height="2.13" fill="none" stroke="#000000" stroke-width="0.5"/>
  <rect x="767.66" y="1072.86" width="1.49" height="1.49" fill="#000000"/>
  <rect x="796.67" y="1040.58" width="3.36" height="3.36" fill="#000000"/>
  <rect x="716.74" y="1087.18" width="2.91" height="2.91" fill="none" stroke="#000000" stroke-width="0.5"/>
  <rect x="863.75" y="985.69" width="2.98" height="2.98" fill="#000000"/>
  <rect x="692.63" y="1167.71" width="2.79" height="2.79" fill="#000000"/>
  <rect x="805.83" y="1026.38" width="3.49" height="3.49" fill="#000000"/>
  <rect x="659.77" y="978.05" width="2.61" height="2.61" fill="#000000"/>
  <rect x="400.88" y="1244.31" width="2.19" height="2.19" fill="#000000"/>
  <rect x="795.61" y="1077.25" width="1.39" height="1.39" fill="none" stroke="#000000" stroke-width="0.5"/>
  <rect x="676.87" y="1151.26" width="3.48" height="3.48" fill="none" stroke="#000000" stroke-width="0.5"/>
  <rect x="547.35" y="1302.12" width="2.2" height="2.2" fill="none" stroke="#000000" stroke-width="0.5"/>
  <rect x="347.75" y="1155.64" width="3.15" height="3.15" fill="none" stroke="#000000" stroke-width="0.5"/>
  <rect x="865.98" y="1100.0" width="3.09" height="3.09" fill="none" stroke="#000000" stroke-width="0.5"/>
  <rect x="907.25" y="1032.93" width="1.68" height="1.68" fill="#000000"/>
  <rect x="1239.25" y="770.37" width="1.7" height="1.7" fill="#000000"/>
  <rect x="626.57" y="1088.05" width="1.8" height="1.8" fill="#000000"/>
  <rect x="224.08" y="1320.54" width="3.33" height="3.33" fill="none" stroke="#000000" stroke-width="0.5"/>
  <rect x="926.12" y="1029.4" width="2.0" height="2.0" fill="#000000"/>
  <rect x="471.64" y="1062.03" width="2.48" height="2.48" fill="#000000"/>
  <rect x="589.5" y="1188.67" width="2.32" height="2.32" fill="none" stroke="#000000" stroke-width="0.5"/>
  <rect x="595.75" y="1093.9" width="1.74" height="1.74" fill="#000000"/>
  <rect x="584.81" y="1042.83" width="3.41" height="3.41" fill="none" stroke="#000000" stroke-width="0.5"/>
  <rect x="732.07" y="1067.72" width="2.14" height="2.14" fill="#000000"/>
  <rect x="595.65" y="1118.2" width="1.86" height="1.86" fill="#000000"/>
  <rect x="951.11" y="875.47" width="1.44" height="1.44" fill="#000000"/>
  <rect x="131.59" y="1397.94" width="2.49" height="2.49" fill="none" stroke="#000000" stroke-width="0.5"/>
  <rect x="363.4" y="1236.02" width="1.24" height="1.24" fill="none" stroke="#000000" stroke-width="0.5"/>
  <rect x="736.72" y="1201.62" width="3.48" height="3.48" fill="none" stroke="#000000" stroke-width="0.5"/>
  <rect x="768.46" y="1122.05" width="2.81" height="2.81" fill="#000000"/>
  <rect x="609.43" y="1096.8" width="1.46" height="1.46" fill="#000000"/>
  <rect x="984.08" y="853.28" width="1.76" height="1.76" fill="#000000"/>
  <rect x="128.59" y="1380.73" width="2.43" height="2.43" fill="none" stroke="#000000" stroke-width="0.5"/>
  <rect x="730.32" y="1056.76" width="2.53" height="2.53" fill="#000000"/>
  <rect x="879.34" y="987.69" width="2.94" height="2.94" fill="none" stroke="#000000" stroke-width="0.5"/>
  <rect x="429.79" y="1208.22" width="1.77" height="1.77" fill="#000000"/>
  <rect x="797.05" y="1123.07" width="3.21" height="3.21" fill="none" stroke="#000000" stroke-width="0.5"/>
  <rect x="524.74" y="1158.81" width="3.27" height="3.27" fill="none" stroke="#000000" stroke-width="0.5"/>
  <rect x="666.77" y="1244.7" width="1.53" height="1.53" fill="none" stroke="#000000" stroke-width="0.5"/>
  <rect x="515.68" y="1128.76" width="3.5" height="3.5" fill="#000000"/>
  <rect x="259.26" y="1325.92" width="2.79" height="2.79" fill="#000000"/>
  <rect x="1008.75" y="965.18" width="2.61" height="2.61" fill="none" stroke="#000000" stroke-width="0.5"/>
  <rect x="1072.48" y="980.08" width="2.56" height="2.56" fill="#000000"/>
  <rect x="734.4" y="1094.17" width="1.36" height="1.36" fill="none" stroke="#000000" stroke-width="0.5"/>
  <rect x="394.46" y="1247.52" width="2.36" height="2.36" fill="#000000"/>
  <rect x="903.38" y="995.52" width="2.11" height="2.11" fill="#000000"/>
  <rect x="607.29" y="1078.98" width="2.17" height="2.17" fill="#000000"/>
  <rect x="590.81" y="1214.46" width="2.75" height="2.75" fill="none" stroke="#000000" stroke-width="0.5"/>
  <rect x="1028.18" y="951.25" width="2.62" height="2.62" fill="#000000"/>
  <rect x="611.92" y="1146.77" width="1.36" height="1.36" fill="none" stroke="#000000" stroke-width="0.5"/>
  <rect x="774.06" y="1112.76" width="3.39" height="3.39" fill="none" stroke="#000000" stroke-width="0.5"/>
  <rect x="648.32" y="1194.41" width="1.36" height="1.36" fill="#000000"/>
  <rect x="763.13" y="1020.35" width="1.79" height="1.79" fill="#000000"/>
  <rect x="1042.75" y="842.35" width="1.19" height="1.19" fill="none" stroke="#000000" stroke-width="0.5"/>
  <rect x="589.77" y="1160.54" width="1.75" height="1.75" fill="none" stroke="#000000" stroke-width="0.5"/>
  <rect x="415.53" y="1186.73" width="2.12" height="2.12" fill="#000000"/>
  <rect x="695.79" y="1065.94" width="2.67" height="2.67" fill="#000000"/>
  <rect x="1125.18" y="852.45" width="1.6" height="1.6" fill="none" stroke="#000000" stroke-width="0.5"/>
  <rect x="329.02" y="1208.87" width="2.51" height="2.51" fill="#000000"/>
  <rect x="943.45" y="927.73" width="1.27" height="1.27" fill="#000000"/>
  <rect x="858.53" y="1030.93" width="2.39" height="2.39" fill="none" stroke="#000000" stroke-width="0.5"/>
  <rect x="432.36" y="1215.07" width="1.22" height="1.22" fill="#000000"/>
  <rect x="813.91" y="1102.3" width="2.59" height="2.59" fill="#000000"/>
  <rect x="356.88" y="1203.27" width="1.95" height="1.95" fill="#000000"/>
  <rect x="954.92" y="1073.45" width="3.44" height="3.44" fill="none" stroke="#000000" stroke-width="0.5"/>
  <rect x="722.64" y="1076.8" width="2.81" height="2.81" fill="#000000"/>
  <rect x="792.17" y="1063.05" width="2.37" height="2.37" fill="#000000"/>
  <rect x="853.79" y="974.68" width="1.45" height="1.45" fill="#000000"/>
  <rect x="756.75" y="1079.33" width="2.94" height="2.94" fill="#000000"/>
  <rect x="290.76" y="1343.28" width="1.66" height="1.66" fill="none" stroke="#000000" stroke-width="0.5"/>
  <rect x="726.64" y="1026.2" width="2.33" height="2.33" fill="#000000"/>
  <rect x="1037.99" y="915.7" width="1.29" height="1.29" fill="none" stroke="#000000" stroke-width="0.5"/>
  <rect x="956.6" y="938.86" width="2.18" height="2.18" fill="#000000"/>
  <rect x="715.06" y="966.85" width="1.85" height="1.85" fill="#000000"/>
  <rect x="698.93" y="1116.49" width="2.53" height="2.53" fill="#000000"/>
  <rect x="1197.62" y="957.64" width="1.87" height="1.87" fill="#000000"/>
  <rect x="641.8" y="1159.93" width="2.77" height="2.77" fill="#000000"/>
  <rect x="851.76" y="1007.44" width="2.85" height="2.85" fill="none" stroke="#000000" stroke-width="0.5"/>
  <rect x="915.52" y="979.88" width="1.17" height="1.17" fill="#000000"/>
  <rect x="787.55" y="1072.22" width="3.41" height="3.41" fill="#000000"/>
  <rect x="473.21" y="1198.06" width="2.7" height="2.7" fill="#000000"/>
  <rect x="482.43" y="1138.93" width="2.49" height="2.49" fill="#000000"/>
  <rect x="1258.17" y="790.97" width="3.05" height="3.05" fill="none" stroke="#000000" stroke-width="0.5"/>
  <rect x="967.05" y="947.36" width="2.58" height="2.58" fill="#000000"/>
  <rect x="905.16" y="1085.42" width="3.01" height="3.01" fill="#000000"/>
  <rect x="553.8" y="1133.71" width="2.02" height="2.02" fill="none" stroke="#000000" stroke-width="0.5"/>
  <rect x="1139.22" y="877.81" width="2.89" height="2.89" fill="#000000"/>
  <rect x="957.69" y="879.88" width="2.61" height="2.61" fill="none" stroke="#000000" stroke-width="0.5"/>
  <rect x="1134.84" y="889.19" width="2.21" height="2.21" fill="#000000"/>
  <rect x="521.0" y="1141.2" width="2.28" height="2.28" fill="none" stroke="#000000" stroke-width="0.5"/>
  <rect x="1087.5" y="917.54" width="3.1" height="3.1" fill="none" stroke="#000000" stroke-width="0.5"/>
  <rect x="410.1" y="1282.5" width="1.71" height="1.71" fill="none" stroke="#000000" stroke-width="0.5"/>
  <rect x="416.31" y="1247.73" width="2.23" height="2.23" fill="none" stroke="#000000" stroke-width="0.5"/>
  <rect x="792.47" y="989.34" width="3.18" height="3.18" fill="#000000"/>
  <rect x="1272.86" y="807.93" width="2.63" height="2.63" fill="none" stroke="#000000" stroke-width="0.5"/>
  <rect x="944.12" y="905.61" width="1.16" height="1.16" fill="none" stroke="#000000" stroke-width="0.5"/>
  <rect x="787.05" y="1046.08" width="3.1" height="3.1" fill="#000000"/>
  <rect x="1110.7" y="985.64" width="1.39" height="1.39" fill="none" stroke="#000000" stroke-width="0.5"/>
  <rect x="1180.22" y="858.37" width="1.74" height="1.74" fill="none" stroke="#000000" stroke-width="0.5"/>
  <rect x="763.64" y="1074.96" width="2.92" height="2.92" fill="#000000"/>
  <rect x="553.96" y="1224.8" width="2.27" height="2.27" fill="#000000"/>
  <rect x="861.8" y="939.74" width="2.75" height="2.75" fill="#000000"/>
  <rect x="723.62" y="1079.54" width="1.44" height="1.44" fill="#000000"/>
  <rect x="698.36" y="1064.34" width="2.74" height="2.74" fill="#000000"/>
  <rect x="41.23" y="1369.4" width="2.51" height="2.51" fill="#000000"/>
  <rect x="583.11" y="1133.98" width="2.8" height="2.8" fill="#000000"/>
  <rect x="745.66" y="1086.36" width="2.65" height="2.65" fill="none" stroke="#000000" stroke-width="0.5"/>
  <rect x="493.32" y="1260.35" width="1.58" height="1.58" fill="#000000"/>
  <rect x="1043.22" y="997.01" width="2.84" height="2.84" fill="none" stroke="#000000" stroke-width="0.5"/>
  <rect x="919.81" y="1015.47" width="3.11" height="3.11" fill="#000000"/>
  <rect x="639.89" y="1065.82" width="2.27" height="2.27" fill="none" stroke="#000000" stroke-width="0.5"/>
  <rect x="951.02" y="993.98" width="2.57" height="2.57" fill="#000000"/>
  <rect x="854.77" y="1012.41" width="3.09" height="3.09" fill="none" stroke="#000000" stroke-width="0.5"/>
  <rect x="828.37" y="914.5" width="1.17" height="1.17" fill="none" stroke="#000000" stroke-width="0.5"/>
  <rect x="281.03" y="1224.36" width="1.81" height="1.81" fill="none" stroke="#000000" stroke-width="0.5"/>
  <rect x="622.3" y="1004.62" width="2.47" height="2.47" fill="none" stroke="#000000" stroke-width="0.5"/>
  <rect x="1013.51" y="966.05" width="2.22" height="2.22" fill="none" stroke="#000000" stroke-width="0.5"/>
  <rect x="1239.1" y="905.88" width="1.72" height="1.72" fill="#000000"/>
  <rect x="449.39" y="1194.09" width="2.98" height="2.98" fill="#000000"/>
  <rect x="727.02" y="1158.76" width="3.24" height="3.24" fill="#000000"/>
  <rect x="339.27" y="1171.51" width="2.81" height="2.81" fill="none" stroke="#000000" stroke-width="0.5"/>
  <rect x="889.48" y="1013.25" width="1.68" height="1.68" fill="#000000"/>
  <rect x="596.8" y="1151.27" width="3.38" height="3.38" fill="#000000"/>
  <rect x="682.18" y="1146.01" width="1.8" height="1.8" fill="#000000"/>
  <rect x="752.75" y="1028.77" width="2.47" height="2.47" fill="#000000"/>
  <rect x="848.57" y="1011.87" width="2.99" height="2.99" fill="none" stroke="#000000" stroke-width="0.5"/>
  <rect x="875.16" y="1095.69" width="2.27" height="2.27" fill="#000000"/>
  <rect x="604.48" y="1054.63" width="2.48" height="2.48" fill="#000000"/>
  <rect x="849.91" y="1019.62" width="1.87" height="1.87" fill="#000000"/>
  <rect x="905.23" y="1017.29" width="3.06" height="3.06" fill="#000000"/>
  <rect x="969.41" y="943.76" width="2.01" height="2.01" fill="#000000"/>
  <rect x="534.99" y="1121.75" width="3.01" height="3.01" fill="none" stroke="#000000" stroke-width="0.5"/>
  <rect x="888.35" y="1033.06" width="2.5" height="2.5" fill="none" stroke="#000000" stroke-width="0.5"/>
  <rect x="854.44" y="1058.81" width="1.58" height="1.58" fill="#000000"/>
  <rect x="588.68" y="1065.46" width="2.31" height="2.31" fill="#000000"/>
  <rect x="407.99" y="1228.95" width="2.62" height="2.62" fill="none" stroke="#000000" stroke-width="0.5"/>
  <rect x="132.31" y="1322.17" width="1.3" height="1.3" fill="none" stroke="#000000" stroke-width="0.5"/>
  <rect x="874.97" y="976.07" width="2.5" height="2.5" fill="#000000"/>
  <rect x="273.98" y="1304.23" width="1.39" height="1.39" fill="none" stroke="#000000" stroke-width="0.5"/>
  <rect x="1162.6" y="802.66" width="1.37" height="1.37" fill="#000000"/>
  <rect x="1254.65" y="785.75" width="2.6" height="2.6" fill="none" stroke="#000000" stroke-width="0.5"/>
  <rect x="470.38" y="1188.6" width="2.04" height="2.04" fill="#000000"/>
  <rect x="798.04" y="1004.54" width="3.38" height="3.38" fill="#000000"/>
  <rect x="1051.77" y="933.22" width="1.42" height="1.42" fill="none" stroke="#000000" stroke-width="0.5"/>
  <rect x="1004.45" y="800.27" width="1.37" height="1.37" fill="none" stroke="#000000" stroke-width="0.5"/>
  <rect x="453.84" y="1049.35" width="1.66" height="1.66" fill="none" stroke="#000000" stroke-width="0.5"/>
  <rect x="1014.33" y="963.58" width="2.37" height="2.37" fill="none" stroke="#000000" stroke-width="0.5"/>
  <rect x="1344.35" y="899.08" width="1.02" height="1.02" fill="#000000"/>
  <rect x="669.85" y="894.51" width="2.2" height="2.2" fill="#000000"/>
  <rect x="475.72" y="1399.61" width="2.06" height="2.06" fill="none" stroke="#000000" stroke-width="0.5"/>
  <rect x="741.94" y="921.72" width="1.84" height="1.84" fill="#000000"/>
  <rect x="690.73" y="1184.63" width="1.56" height="1.56" fill="#000000"/>
  <rect x="999.03" y="933.11" width="1.67" height="1.67" fill="none" stroke="#000000" stroke-width="0.5"/>
  <rect x="498.71" y="1251.24" width="1.68" height="1.68" fill="#000000"/>
  <rect x="707.13" y="977.93" width="1.16" height="1.16" fill="none" stroke="#000000" stroke-width="0.5"/>
  <rect x="1171.2" y="915.91" width="2.01" height="2.01" fill="#000000"/>
  <rect x="305.37" y="1355.85" width="2.29" height="2.29" fill="none" stroke="#000000" stroke-width="0.5"/>
  <rect x="959.3" y="1005.4" width="2.09" height="2.09" fill="none" stroke="#000000" stroke-width="0.5"/>
  <rect x="585.85" y="1126.22" width="2.39" height="2.39" fill="none" stroke="#000000" stroke-width="0.5"/>
  <rect x="695.41" y="1242.52" width="2.28" height="2.28" fill="#000000"/>
  <rect x="833.34" y="830.52" width="1.5" height="1.5" fill="none" stroke="#000000" stroke-width="0.5"/>
  <rect x="752.51" y="1037.16" width="1.63" height="1.63" fill="none" stroke="#000000" stroke-width="0.5"/>
  <rect x="279.23" y="1286.14" width="2.0" height="2.0" fill="#000000"/>
  <rect x="440.67" y="937.88" width="2.12" height="2.12" fill="#000000"/>
  <rect x="475.6" y="1481.81" width="2.09" height="2.09" fill="none" stroke="#000000" stroke-width="0.5"/>
  <rect x="780.26" y="1049.43" width="1.22" height="1.22" fill="#000000"/>
  <rect x="438.06" y="1412.29" width="2.1" height="2.1" fill="none" stroke="#000000" stroke-width="0.5"/>
  <rect x="955.16" y="973.58" width="1.1" height="1.1" fill="#000000"/>
  <rect x="640.45" y="1219.79" width="2.04" height="2.04" fill="none" stroke="#000000" stroke-width="0.5"/>
  <rect x="1029.1" y="1230.27" width="2.18" height="2.18" fill="none" stroke="#000000" stroke-width="0.5"/>
  <rect x="1338.56" y="697.67" width="1.37" height="1.37" fill="#000000"/>
  <rect x="665.14" y="1011.62" width="1.24" height="1.24" fill="#000000"/>
  <rect x="1488.84" y="708.62" width="2.11" height="2.11" fill="#000000"/>
  <rect x="464.05" y="1161.16" width="1.97" height="1.97" fill="#000000"/>
  <rect x="776.15" y="1131.63" width="1.33" height="1.33" fill="#000000"/>
  <rect x="1037.01" y="1139.92" width="1.71" height="1.71" fill="none" stroke="#000000" stroke-width="0.5"/>
  <rect x="741.0" y="1123.29" width="1.42" height="1.42" fill="#000000"/>
  <rect x="740.73" y="1261.05" width="1.36" height="1.36" fill="#000000"/>
  <rect x="726.29" y="1014.51" width="1.9" height="1.9" fill="#000000"/>
  <rect x="550.86" y="907.33" width="1.19" height="1.19" fill="none" stroke="#000000" stroke-width="0.5"/>
  <rect x="349.15" y="1293.89" width="1.03" height="1.03" fill="#000000"/>
  <rect x="404.99" y="1293.74" width="1.45" height="1.45" fill="none" stroke="#000000" stroke-width="0.5"/>
  <rect x="117.81" y="1209.97" width="1.11" height="1.11" fill="none" stroke="#000000" stroke-width="0.5"/>
  <rect x="247.7" y="1353.18" width="1.72" height="1.72" fill="#000000"/>
  <rect x="685.06" y="1008.15" width="1.27" height="1.27" fill="#000000"/>
  <rect x="356.34" y="1338.45" width="1.4" height="1.4" fill="none" stroke="#000000" stroke-width="0.5"/>
  <rect x="951.21" y="882.76" width="1.87" height="1.87" fill="none" stroke="#000000" stroke-width="0.5"/>
  <rect x="987.37" y="728.84" width="1.52" height="1.52" fill="#000000"/>
  <rect x="977.47" y="1126.2" width="1.83" height="1.83" fill="none" stroke="#000000" stroke-width="0.5"/>
  <rect x="287.84" y="1187.78" width="2.09" height="2.09" fill="#000000"/>
  <rect x="730.51" y="1109.11" width="1.87" height="1.87" fill="#000000"/>
  <rect x="595.76" y="1396.63" width="1.68" height="1.68" fill="none" stroke="#000000" stroke-width="0.5"/>
  <rect x="601.06" y="986.18" width="1.27" height="1.27" fill="#000000"/>
  <rect x="1028.52" y="1153.85" width="1.98" height="1.98" fill="#000000"/>
  <rect x="1098.2" y="779.41" width="1.58" height="1.58" fill="none" stroke="#000000" stroke-width="0.5"/>
  <rect x="879.41" y="998.32" width="2.19" height="2.19" fill="none" stroke="#000000" stroke-width="0.5"/>
  <rect x="726.9" y="1010.52" width="1.06" height="1.06" fill="none" stroke="#000000" stroke-width="0.5"/>
  <rect x="1123.75" y="738.59" width="1.48" height="1.48" fill="none" stroke="#000000" stroke-width="0.5"/>
  <rect x="498.01" y="1005.73" width="2.32" height="2.32" fill="#000000"/>
  <rect x="821.73" y="799.38" width="2.35" height="2.35" fill="#000000"/>
  <rect x="741.31" y="1170.35" width="2.19" height="2.19" fill="none" stroke="#000000" stroke-width="0.5"/>
  <rect x="753.79" y="1060.71" width="2.06" height="2.06" fill="none" stroke="#000000" stroke-width="0.5"/>
  <rect x="952.43" y="1011.93" width="2.35" height="2.35" fill="#000000"/>
  <rect x="1103.81" y="888.48" width="1.3" height="1.3" fill="none" stroke="#000000" stroke-width="0.5"/>
  <rect x="681.97" y="1196.05" width="1.41" height="1.41" fill="#000000"/>
  <rect x="754.8" y="729.38" width="1.93" height="1.93" fill="#000000"/>
  <rect x="682.06" y="977.09" width="1.67" height="1.67" fill="none" stroke="#000000" stroke-width="0.5"/>
  <rect x="1216.69" y="785.82" width="1.96" height="1.96" fill="#000000"/>
  <rect x="709.53" y="964.36" width="1.8" height="1.8" fill="#000000"/>
  <rect x="681.71" y="1157.18" width="1.14" height="1.14" fill="#000000"/>
  <rect x="1304.61" y="1005.39" width="2.14" height="2.14" fill="none" stroke="#000000" stroke-width="0.5"/>
  <rect x="882.23" y="951.17" width="1.61" height="1.61" fill="none" stroke="#000000" stroke-width="0.5"/>
  <rect x="230.25" y="948.84" width="2.13" height="2.13" fill="#000000"/>
  <rect x="568.72" y="1017.83" width="2.35" height="2.35" fill="#000000"/>
  <rect x="1464.77" y="659.11" width="1.37" height="1.37" fill="none" stroke="#000000" stroke-width="0.5"/>
  <rect x="1334.42" y="805.55" width="1.72" height="1.72" fill="none" stroke="#000000" stroke-width="0.5"/>
  <rect x="609.29" y="1246.39" width="2.1" height="2.1" fill="none" stroke="#000000" stroke-width="0.5"/>
  <rect x="756.99" y="1005.85" width="1.55" height="1.55" fill="#000000"/>
  <rect x="878.7" y="1076.95" width="2.19" height="2.19" fill="none" stroke="#000000" stroke-width="0.5"/>
  <rect x="749.94" y="934.42" width="1.49" height="1.49" fill="#000000"/>
  <rect x="1268.49" y="829.61" width="1.86" height="1.86" fill="#000000"/>
  <rect x="1196.59" y="75.17" width="3.0" height="3.0" fill="#000000"/>
  <rect x="797.91" y="1020.28" width="2.51" height="2.51" fill="#000000"/>
  <rect x="1376.37" y="1724.32" width="2.44" height="2.44" fill="none" stroke="#000000" stroke-width="0.5"/>
  <rect x="259.47" y="1306.06" width="2.52" height="2.52" fill="none" stroke="#000000" stroke-width="0.5"/>
  <rect x="156.56" y="1870.33" width="1.99" height="1.99" fill="#000000"/>
  <rect x="1424.37" y="361.39" width="1.94" height="1.94" fill="none" stroke="#000000" stroke-width="0.5"/>
  <rect x="142.33" y="263.63" width="2.26" height="2.26" fill="#000000"/>
  <rect x="552.42" y="1924.16" width="1.33" height="1.33" fill="none" stroke="#000000" stroke-width="0.5"/>
  <rect x="972.04" y="566.55" width="2.01" height="2.01" fill="#000000"/>
  <rect x="897.75" y="1436.2" width="2.07" height="2.07" fill="none" stroke="#000000" stroke-width="0.5"/>
  <rect x="1327.3" y="1023.63" width="1.46" height="1.46" fill="#000000"/>
  <rect x="318.33" y="116.36" width="2.16" height="2.16" fill="#000000"/>
  <rect x="921.82" y="608.19" width="1.58" height="1.58" fill="#000000"/>
  <rect x="281.12" y="1855.17" width="2.92" height="2.92" fill="none" stroke="#000000" stroke-width="0.5"/>
  <rect x="805.34" y="1038.66" width="3.06" height="3.06" fill="#000000"/>
  <rect x="731.36" y="436.68" width="2.23" height="2.23" fill="none" stroke="#000000" stroke-width="0.5"/>
  <rect x="315.39" y="338.77" width="1.63" height="1.63" fill="none" stroke="#000000" stroke-width="0.5"/>
  <rect x="37.05" y="1466.85" width="2.84" height="2.84" fill="#000000"/>
  <rect x="593.85" y="657.54" width="3.05" height="3.05" fill="none" stroke="#000000" stroke-width="0.5"/>
  <rect x="1090.48" y="878.19" width="1.35" height="1.35" fill="#000000"/>
  <rect x="948.06" y="1279.34" width="1.9" height="1.9" fill="none" stroke="#000000" stroke-width="0.5"/>
  <rect x="810.83" y="493.45" width="1.24" height="1.24" fill="#000000"/>
  <rect x="1251.5" y="437.23" width="2.64" height="2.64" fill="none" stroke="#000000" stroke-width="0.5"/>
  <rect x="797.69" y="889.09" width="2.46" height="2.46" fill="#000000"/>
  <rect x="384.67" y="298.65" width="1.69" height="1.69" fill="#000000"/>
  <rect x="174.5" y="65.48" width="2.93" height="2.93" fill="#000000"/>
  <rect x="1377.39" y="1364.09" width="1.15" height="1.15" fill="none" stroke="#000000" stroke-width="0.5"/>
  <rect x="1225.59" y="1194.42" width="1.15" height="1.15" fill="#000000"/>
  <rect x="1042.52" y="1695.35" width="2.48" height="2.48" fill="#000000"/>
  <rect x="519.74" y="504.71" width="2.62" height="2.62" fill="#000000"/>
  <rect x="1151.67" y="2040.4" width="2.56" height="2.56" fill="none" stroke="#000000" stroke-width="0.5"/>
  <rect x="1473.11" y="27.07" width="2.2" height="2.2" fill="#000000"/>
  <rect x="1275.84" y="31.17" width="1.98" height="1.98" fill="none" stroke="#000000" stroke-width="0.5"/>
  <rect x="752.75" y="39.03" width="2.4" height="2.4" fill="#000000"/>
  <rect x="364.36" y="1040.08" width="3.02" height="3.02" fill="#000000"/>
  <rect x="517.75" y="1584.21" width="2.46" height="2.46" fill="#000000"/>
  <rect x="881.75" y="93.51" width="2.94" height="2.94" fill="#000000"/>
  <rect x="789.23" y="779.97" width="2.21" height="2.21" fill="#000000"/>
  <rect x="922.39" y="774.02" width="1.9" height="1.9" fill="none" stroke="#000000" stroke-width="0.5"/>
  <rect x="829.13" y="23.67" width="2.85" height="2.85" fill="#000000"/>
  <rect x="444.98" y="1056.28" width="3.18" height="3.18" fill="#000000"/>
  <rect x="812.6" y="453.3" width="1.14" height="1.14" fill="#000000"/>
  <rect x="1360.03" y="1230.4" width="1.98" height="1.98" fill="#000000"/>
  <rect x="703.73" y="1741.05" width="1.93" height="1.93" fill="none" stroke="#000000" stroke-width="0.5"/>
  <rect x="475.94" y="505.15" width="1.15" height="1.15" fill="none" stroke="#000000" stroke-width="0.5"/>
  <rect x="592.98" y="2004.86" width="1.38" height="1.38" fill="#000000"/>
  <rect x="1078.3" y="581.58" width="1.8" height="1.8" fill="#000000"/>
  <rect x="876.74" y="1177.6" width="1.71" height="1.71" fill="none" stroke="#000000" stroke-width="0.5"/>
  <rect x="169.64" y="1510.05" width="1.81" height="1.81" fill="none" stroke="#000000" stroke-width="0.5"/>
  <rect x="619.75" y="861.11" width="1.57" height="1.57" fill="#000000"/>
  <rect x="380.39" y="465.52" width="2.69" height="2.69" fill="none" stroke="#000000" stroke-width="0.5"/>
  <rect x="1203.41" y="382.17" width="1.48" height="1.48" fill="#000000"/>
  <rect x="1409.81" y="383.98" width="2.62" height="2.62" fill="none" stroke="#000000" stroke-width="0.5"/>
  <rect x="1221.42" y="723.4" width="1.42" height="1.42" fill="#000000"/>
  <rect x="161.46" y="1887.19" width="2.56" height="2.56" fill="none" stroke="#000000" stroke-width="0.5"/>
  <rect x="159.53" y="1309.75" width="1.31" height="1.31" fill="#000000"/>
  <rect x="417.74" y="1230.82" width="2.48" height="2.48" fill="#000000"/>
  <rect x="667.36" y="178.46" width="2.1" height="2.1" fill="none" stroke="#000000" stroke-width="0.5"/>
  <rect x="29.9" y="1203.67" width="1.82" height="1.82" fill="#000000"/>
  <rect x="981.99" y="1344.61" width="2.24" height="2.24" fill="#000000"/>
  <rect x="1341.49" y="737.66" width="3.13" height="3.13" fill="none" stroke="#000000" stroke-width="0.5"/>
  <rect x="1119.95" y="1890.01" width="1.47" height="1.47" fill="none" stroke="#000000" stroke-width="0.5"/>
  <rect x="1387.42" y="261.07" width="1.47" height="1.47" fill="#000000"/>
  <rect x="962.91" y="727.83" width="2.63" height="2.63" fill="#000000"/>
  <rect x="595.95" y="414.55" width="1.57" height="1.57" fill="#000000"/>
  <rect x="352.16" y="985.93" width="2.71" height="2.71" fill="#000000"/>
  <rect x="1142.19" y="1014.9" width="1.24" height="1.24" fill="#000000"/>
  <rect x="281.92" y="1286.34" width="1.41" height="1.41" fill="#000000"/>
  <rect x="1367.92" y="1410.5" width="1.64" height="1.64" fill="#000000"/>
  <rect x="493.49" y="855.63" width="1.32" height="1.32" fill="none" stroke="#000000" stroke-width="0.5"/>
</svg>
